<!-- Generated by IcoMoon.io -->
<svg version="1.1" xmlns="http://www.w3.org/2000/svg" width="32" height="32" viewBox="0 0 32 32">
<title>barometer</title>
<path d="M8.203 14.080c0-1.056 0.203-2.069 0.619-3.040s0.971-1.792 1.675-2.485 1.536-1.248 2.496-1.664c0.96-0.416 1.973-0.619 3.029-0.619s2.069 0.203 3.040 0.619c0.96 0.416 1.792 0.971 2.485 1.664s1.248 1.525 1.664 2.485 0.619 1.973 0.619 3.040c0 1.728-0.512 3.264-1.536 4.629-1.024 1.355-2.347 2.283-3.957 2.784v3.509h-4.523v-3.467c-1.643-0.48-2.997-1.408-4.043-2.784s-1.568-2.933-1.568-4.672zM9.92 14.080c0 1.653 0.597 3.072 1.803 4.256 1.184 1.195 2.613 1.792 4.288 1.792 1.099 0 2.123-0.267 3.051-0.811 0.939-0.544 1.675-1.28 2.229-2.208 0.544-0.928 0.821-1.941 0.821-3.040 0-0.821-0.16-1.6-0.48-2.357s-0.757-1.397-1.301-1.941c-0.544-0.544-1.195-0.981-1.952-1.301s-1.536-0.48-2.357-0.48c-0.821 0-1.6 0.16-2.357 0.48s-1.397 0.757-1.941 1.301c-0.544 0.544-0.981 1.195-1.301 1.941-0.341 0.768-0.501 1.547-0.501 2.368zM10.539 14.464v-0.768h2.315v0.768h-2.315zM11.701 10.688l0.555-0.555 1.621 1.621-0.555 0.565-1.621-1.632zM14.4 15.947c0-0.448 0.16-0.832 0.469-1.163s0.693-0.501 1.131-0.512l2.912-4.789 0.704 0.373-2.155 5.152c0.192 0.267 0.277 0.576 0.277 0.939 0 0.469-0.16 0.864-0.491 1.184s-0.725 0.48-1.195 0.48c-0.459 0-0.853-0.16-1.173-0.48s-0.48-0.715-0.48-1.184zM15.797 10.965v-2.304h0.736v2.315h-0.736zM18.933 14.453v-0.789h2.315v0.789h-2.315z"></path>
</svg>
