<?xml version="1.0" encoding="UTF-8" standalone="no"?>
<!DOCTYPE svg PUBLIC "-//W3C//DTD SVG 1.1//EN" "http://www.w3.org/Graphics/SVG/1.1/DTD/svg11.dtd">
<svg width="100%" height="100%" viewBox="0 0 606 567" version="1.1" xmlns="http://www.w3.org/2000/svg" xmlns:xlink="http://www.w3.org/1999/xlink" xml:space="preserve" xmlns:serif="http://www.serif.com/" style="fill-rule:evenodd;clip-rule:evenodd;stroke-linejoin:round;stroke-miterlimit:2;">
    <g transform="matrix(1,0,0,1,-11845,-14188)">
        <g transform="matrix(4.16667,0,0,4.16667,0,0)">
            <path d="M2987.87,3535.75C2982.63,3538.44 2971.69,3541.13 2957.87,3541.13C2925.88,3541.13 2901.95,3520.91 2901.95,3483.51C2901.95,3447.82 2926.03,3423.89 2961.25,3423.89C2975.22,3423.89 2984.32,3426.91 2988.2,3428.95L2984.5,3440.91C2979.1,3438.2 2971.19,3436.19 2961.76,3436.19C2935.14,3436.19 2917.46,3453.2 2917.46,3483.01C2917.46,3510.97 2933.45,3528.67 2960.92,3528.67C2970.01,3528.67 2979.1,3526.82 2985.01,3523.93L2987.87,3535.75Z" style="fill-rule:nonzero;"/>
            <path d="M2865.18,3414.5C2857.92,3414.5 2852.02,3420.41 2852.02,3427.66C2852.02,3434.95 2857.92,3440.87 2865.18,3440.87C2872.45,3440.87 2878.36,3434.95 2878.36,3427.66C2878.36,3420.41 2872.45,3414.5 2865.18,3414.5ZM2865.18,3450.06C2852.86,3450.06 2842.83,3440.02 2842.83,3427.66C2842.83,3415.34 2852.86,3405.31 2865.18,3405.31C2877.53,3405.31 2887.55,3415.34 2887.55,3427.66C2887.55,3440.02 2877.53,3450.06 2865.18,3450.06Z" style="fill-rule:nonzero;"/>
        </g>
    </g>
</svg>
