<?xml version="1.0" encoding="UTF-8" standalone="no"?>
<!DOCTYPE svg PUBLIC "-//W3C//DTD SVG 1.1//EN" "http://www.w3.org/Graphics/SVG/1.1/DTD/svg11.dtd">
<svg width="100%" height="100%" viewBox="0 0 999 999" version="1.1" xmlns="http://www.w3.org/2000/svg" xmlns:xlink="http://www.w3.org/1999/xlink" xml:space="preserve" xmlns:serif="http://www.serif.com/" style="fill-rule:evenodd;clip-rule:evenodd;stroke-linejoin:round;stroke-miterlimit:2;">
    <g transform="matrix(4.16667,0,0,4.16667,-1137,-11992.5)">
        <g>
            <path d="M409.326,2905.46C425.979,2916.1 439.152,2932.36 445.708,2952.63C460.636,2998.97 435.217,3048.67 388.897,3063.6C384.871,3064.89 380.852,3065.79 376.81,3066.51C398.219,3080.18 425.333,3084.56 451.398,3076.14C497.725,3061.19 523.176,3011.49 508.217,2965.14C494.55,2922.8 451.9,2898.08 409.326,2905.46Z" style="fill-rule:nonzero;"/>
            <path d="M334.115,3088.66L311.719,3079.13L291.146,3092.12L293.349,3067.89L274.614,3052.34L298.363,3046.97L307.32,3024.33L319.825,3045.2L344.098,3046.77L328.098,3065.11L334.115,3088.66Z" style="fill-rule:nonzero;"/>
            <path d="M320.456,2977.74L302.625,2970.16L286.284,2980.51L288.016,2961.23L273.11,2948.84L291.997,2944.57L299.13,2926.55L309.075,2943.14L328.386,2944.4L315.676,2959.01L320.456,2977.74Z" style="fill-rule:nonzero;"/>
            <path d="M400.528,3007.14L385.182,3000.62L371.12,3009.5L372.602,2992.92L359.792,2982.27L376.043,2978.61L382.174,2963.11L390.729,2977.41L407.351,2978.47L396.411,2991.04L400.528,3007.14Z" style="fill-rule:nonzero;"/>
        </g>
    </g>
</svg>
