<!-- Generated by IcoMoon.io -->
<svg version="1.1" xmlns="http://www.w3.org/2000/svg" width="32" height="32" viewBox="0 0 32 32">
<title>clear-night</title>
<path d="M8.437 15.445c0-1.024 0.203-1.995 0.597-2.933s0.939-1.739 1.611-2.411c0.672-0.672 1.483-1.216 2.421-1.621s1.92-0.608 2.933-0.608h1.216c0.171 0.043 0.245 0.149 0.245 0.299l0.053 0.939c0.043 1.355 0.523 2.507 1.461 3.456s2.069 1.461 3.403 1.515l0.875 0.075c0.171 0 0.256 0.085 0.256 0.245v1.045c0.011 1.365-0.32 2.635-0.992 3.797s-1.579 2.080-2.741 2.763c-1.152 0.672-2.421 1.013-3.787 1.013-1.035 0-2.027-0.203-2.965-0.597s-1.739-0.939-2.411-1.611c-0.672-0.672-1.205-1.483-1.6-2.411-0.373-0.939-0.576-1.92-0.576-2.955zM10.389 15.445c0 0.811 0.16 1.579 0.48 2.304 0.32 0.715 0.747 1.323 1.269 1.813s1.12 0.875 1.803 1.152c0.672 0.288 1.365 0.427 2.069 0.427 0.619 0 1.248-0.117 1.877-0.363s1.216-0.587 1.76-1.024c0.544-0.437 1.003-0.992 1.397-1.675s0.64-1.419 0.757-2.229c-1.739-0.363-3.136-1.109-4.181-2.24s-1.653-2.453-1.813-3.989c-1.024 0.064-1.941 0.373-2.784 0.939-0.832 0.565-1.483 1.28-1.941 2.155s-0.693 1.781-0.693 2.731z"></path>
</svg>
