<!-- Generated by IcoMoon.io -->
<svg version="1.1" xmlns="http://www.w3.org/2000/svg" width="32" height="32" viewBox="0 0 32 32">
<title>cloud-refresh</title>
<path d="M4.939 18.037c0 0.704 0.128 1.365 0.405 2.005 0.267 0.64 0.629 1.184 1.088 1.653 0.459 0.459 1.003 0.843 1.632 1.12 0.629 0.288 1.291 0.448 1.995 0.48 0.117 0 0.181-0.064 0.181-0.181v-1.419c0-0.128-0.064-0.203-0.181-0.203-0.928-0.064-1.707-0.437-2.336-1.099s-0.949-1.451-0.949-2.357c0-0.896 0.299-1.675 0.907-2.336s1.344-1.035 2.24-1.109l0.555-0.075c0.139 0 0.213-0.064 0.213-0.181l0.075-0.555c0.075-0.757 0.32-1.451 0.736-2.080 0.416-0.619 0.96-1.109 1.621-1.461s1.376-0.523 2.144-0.523c1.163 0 2.187 0.384 3.051 1.152 0.875 0.768 1.365 1.728 1.483 2.88l0.064 0.608c0 0.128 0.064 0.192 0.203 0.192h1.717c0.96 0 1.781 0.341 2.475 1.035 0.683 0.683 1.035 1.504 1.035 2.453 0 0.907-0.32 1.696-0.949 2.357s-1.408 1.035-2.336 1.099c-0.139 0-0.213 0.064-0.213 0.203v1.419c0 0.117 0.075 0.181 0.213 0.181 1.429-0.064 2.635-0.608 3.616-1.611s1.472-2.229 1.472-3.648c0-0.949-0.235-1.835-0.715-2.645s-1.12-1.451-1.931-1.92c-0.811-0.469-1.696-0.715-2.645-0.715h-0.341c-0.352-1.419-1.109-2.581-2.251-3.499-1.184-0.917-2.496-1.365-3.957-1.365-1.504 0-2.837 0.469-4 1.419s-1.92 2.144-2.251 3.605c-1.184 0.277-2.155 0.896-2.912 1.856-0.768 0.949-1.152 2.037-1.152 3.264zM11.584 19.392c0 0.789 0.203 1.525 0.597 2.208s0.939 1.216 1.611 1.611c0.672 0.405 1.408 0.597 2.197 0.597 1.227 0 2.272-0.437 3.147-1.301 0.875-0.875 1.312-1.909 1.312-3.115 0-0.245-0.085-0.459-0.267-0.64s-0.395-0.267-0.651-0.267c-0.256 0-0.469 0.085-0.651 0.267s-0.277 0.395-0.277 0.64c0 0.715-0.256 1.323-0.768 1.845-0.512 0.512-1.12 0.768-1.845 0.768-0.704 0-1.312-0.256-1.824-0.768s-0.768-1.131-0.768-1.845c0-0.64 0.192-1.205 0.565-1.707 0.384-0.501 0.843-0.779 1.397-0.821l-0.437 0.416c-0.16 0.16-0.245 0.363-0.245 0.608 0 0.267 0.075 0.501 0.245 0.704 0.149 0.16 0.331 0.245 0.565 0.245 0.235 0.011 0.48-0.075 0.747-0.245l1.941-1.995c0.181-0.181 0.267-0.384 0.267-0.619 0-0.267-0.085-0.48-0.267-0.651l-1.941-1.952c-0.203-0.192-0.416-0.277-0.661-0.277s-0.459 0.085-0.629 0.267c-0.171 0.181-0.256 0.395-0.256 0.651s0.075 0.459 0.245 0.619l0.373 0.384c-1.067 0.181-1.952 0.672-2.656 1.493-0.715 0.811-1.067 1.771-1.067 2.88z"></path>
</svg>
