<?xml version="1.0" encoding="UTF-8" standalone="no"?>
<!DOCTYPE svg PUBLIC "-//W3C//DTD SVG 1.1//EN" "http://www.w3.org/Graphics/SVG/1.1/DTD/svg11.dtd">
<svg width="100%" height="100%" viewBox="0 0 1729 887" version="1.1" xmlns="http://www.w3.org/2000/svg" xmlns:xlink="http://www.w3.org/1999/xlink" xml:space="preserve" xmlns:serif="http://www.serif.com/" style="fill-rule:evenodd;clip-rule:evenodd;stroke-linejoin:round;stroke-miterlimit:2;">
    <g transform="matrix(1,0,0,1,-6147,-1643)">
        <g transform="matrix(4.16667,0,0,4.16667,0,0)">
            <path d="M1869.89,531.519C1865.02,537.388 1858.56,540.814 1851.68,541.152C1846.72,541.407 1836.51,541.448 1825.4,541.403C1820.54,527.983 1809.32,517.312 1794.71,512.815C1794.83,511.326 1794.89,509.837 1794.89,508.314C1794.89,478.199 1770.38,453.687 1740.24,453.687C1730.12,453.687 1720.42,456.434 1711.97,461.58C1711.08,456.582 1709.53,451.83 1707.51,447.325C1707.04,446.269 1706.38,445.319 1705.85,444.297C1706.89,424.678 1722.78,408.868 1743.32,407.846L1745.41,407.793C1766.55,407.793 1783.9,423.792 1784.92,444.187C1784.97,444.943 1784.91,445.691 1784.83,447.526L1784.13,464.783L1796.24,452.483C1802.25,446.378 1810.24,443.02 1818.74,443.02C1836.17,443.02 1850.34,457.193 1850.34,474.605C1850.34,476.774 1850.12,478.886 1849.71,480.926L1848.36,487.631L1855.1,488.816C1867.32,490.962 1876.23,500.386 1876.79,511.748C1877.14,518.601 1874.61,525.806 1869.89,531.519ZM1814.67,554.755C1815.54,572.179 1801.58,592.421 1781.62,593.413C1764.01,594.275 1694.14,593.089 1693.98,593.101C1663,593.037 1615.99,592.915 1613.49,592.82L1613.32,595.855L1613.26,592.801C1613.26,592.801 1581.15,592.394 1555.2,592.394C1542.73,592.394 1531.68,592.489 1526.19,592.767L1524.27,592.812C1504.68,592.812 1488.74,578.686 1488.73,561.304C1488.7,540.605 1500.03,533.874 1520.95,528.708L1525.95,526.638L1526.12,521.582L1525.86,519.067C1525.7,517.878 1525.51,516.682 1525.51,515.451C1525.51,492.69 1544.03,474.172 1566.81,474.172C1573.66,474.172 1580.41,475.996 1586.84,479.604L1596.99,485.28L1596.79,473.667C1596.32,446.614 1617.78,424.347 1645.64,422.96L1648.36,422.892C1661.37,422.892 1673.24,427.618 1682.29,435.382C1687.52,439.864 1691.83,445.334 1694.81,451.56C1697.55,457.25 1699.21,463.537 1699.54,470.188C1699.59,471.145 1699.53,472.08 1699.41,474.484L1698.76,491.68L1710.85,479.407C1718.68,471.434 1729.13,467.039 1740.24,467.039C1763.02,467.039 1781.53,485.549 1781.53,508.314C1781.53,511.148 1781.23,513.886 1780.7,516.557L1779.35,523.269L1786.09,524.446C1796.99,526.369 1805.79,532.75 1810.63,541.292C1812.94,545.35 1814.41,549.858 1814.66,554.683C1814.66,554.706 1814.67,554.728 1814.67,554.755ZM1863.62,477.242C1863.67,476.372 1863.7,475.498 1863.7,474.605C1863.7,449.832 1843.53,429.669 1818.74,429.669C1811.07,429.669 1803.7,431.591 1797.15,435.196C1792.02,411.774 1770.75,394.437 1745.41,394.437L1742.66,394.505C1720.32,395.623 1702.17,409.962 1695.34,429.46C1682.8,416.488 1664.76,408.674 1644.97,409.627C1613.41,411.193 1588.37,434.189 1584.08,463.757C1578.46,461.801 1572.69,460.817 1566.81,460.817C1536.68,460.817 1512.16,485.325 1512.16,515.451C1512.16,516.014 1512.18,516.572 1512.23,517.153C1496.98,521.335 1475.33,530.228 1475.37,561.319C1475.39,586.047 1497.32,606.165 1524.27,606.165L1526.86,606.107C1543.61,605.249 1613.06,606.157 1613.08,606.157L1613.11,605.017C1613.23,605.036 1613.35,605.055 1613.47,605.07L1613.53,606.145L1613.52,605.07C1622.74,606.32 1644.12,606.354 1693.86,606.453C1693.86,606.453 1731.26,607.083 1758.39,607.083C1768.63,607.083 1777.41,606.993 1782.27,606.746C1807.75,605.48 1828.95,581.276 1828.01,554.77L1828.01,554.759C1829.64,554.767 1831.28,554.77 1832.83,554.77C1841.2,554.77 1848.4,554.69 1852.35,554.489C1863.01,553.957 1872.88,548.829 1880.16,540.051C1887.01,531.789 1890.64,521.229 1890.12,511.087C1889.37,495.517 1878.78,482.332 1863.62,477.242Z" style="fill-rule:nonzero;"/>
        </g>
    </g>
</svg>
