<?xml version="1.0" encoding="UTF-8" standalone="no"?>
<!DOCTYPE svg PUBLIC "-//W3C//DTD SVG 1.1//EN" "http://www.w3.org/Graphics/SVG/1.1/DTD/svg11.dtd">
<svg width="100%" height="100%" viewBox="0 0 1878 1878" version="1.1" xmlns="http://www.w3.org/2000/svg" xmlns:xlink="http://www.w3.org/1999/xlink" xml:space="preserve" xmlns:serif="http://www.serif.com/" style="fill-rule:evenodd;clip-rule:evenodd;stroke-linejoin:round;stroke-miterlimit:2;">
    <g transform="matrix(4.16667,0,0,4.16667,-3409,-1147.5)">
        <g>
            <path d="M1092.65,433.779C1094.17,435.507 1096.83,435.697 1098.59,434.163C1100.31,432.64 1100.49,429.98 1098.96,428.237L1067.72,392.535C1066.18,390.779 1063.53,390.62 1061.78,392.132C1060.05,393.655 1059.86,396.306 1061.39,398.061L1092.65,433.779Z" style="fill-rule:nonzero;"/>
            <path d="M1146.24,413.145C1148.55,413.126 1150.42,411.246 1150.41,408.921L1150.06,361.466C1150.06,359.13 1148.15,357.276 1145.83,357.295C1143.54,357.314 1141.65,359.187 1141.67,361.531L1142.01,408.975C1142.02,411.291 1143.92,413.161 1146.24,413.145Z" style="fill-rule:nonzero;"/>
            <path d="M1254.24,537.893L1212.25,515.805C1210.19,514.722 1207.65,515.512 1206.56,517.563C1205.48,519.607 1206.28,522.144 1208.34,523.223L1250.32,545.331C1252.39,546.394 1254.94,545.619 1256,543.541C1257.1,541.517 1256.32,538.968 1254.24,537.893Z" style="fill-rule:nonzero;"/>
            <path d="M1264.1,458.154L1216.99,463.665C1214.68,463.947 1213.04,466.036 1213.31,468.338C1213.56,470.644 1215.65,472.285 1217.96,472.011L1265.09,466.511C1267.4,466.234 1269.05,464.171 1268.77,461.842C1268.51,459.56 1266.43,457.896 1264.1,458.154Z" style="fill-rule:nonzero;"/>
            <path d="M1171.27,545.513C1170.49,543.332 1168.09,542.166 1165.9,542.96C1163.72,543.716 1162.58,546.113 1163.34,548.305L1179.12,593.074C1179.9,595.266 1182.29,596.398 1184.47,595.635C1186.67,594.864 1187.81,592.452 1187.02,590.271L1171.27,545.513Z" style="fill-rule:nonzero;"/>
            <path d="M1194.78,429.407L1224.01,392.002C1225.44,390.176 1225.1,387.536 1223.28,386.107C1221.45,384.683 1218.81,385.01 1217.38,386.844L1188.16,424.256C1186.73,426.075 1187.06,428.715 1188.89,430.144C1190.72,431.561 1193.36,431.223 1194.78,429.407Z" style="fill-rule:nonzero;"/>
            <path d="M1146.03,418.988C1111.92,418.988 1084.17,446.744 1084.17,480.851C1084.17,484.463 1084.55,487.984 1085.15,491.426C1090.11,491.688 1094.89,492.584 1099.41,494.088C1098.21,489.872 1097.53,485.443 1097.53,480.851C1097.53,454.105 1119.29,432.347 1146.03,432.347C1172.78,432.347 1194.54,454.105 1194.54,480.851C1194.54,507.592 1172.78,529.354 1146.03,529.354C1141.72,529.354 1137.56,528.735 1133.58,527.675C1135.17,532.18 1136.18,536.943 1136.53,541.901C1139.63,542.383 1142.79,542.709 1146.03,542.709C1180.14,542.709 1207.9,514.954 1207.9,480.851C1207.9,446.744 1180.14,418.988 1146.03,418.988Z" style="fill-rule:nonzero;"/>
            <path d="M1147.38,617.929C1141,625.621 1132.51,630.106 1123.47,630.562C1118.77,630.798 1110.29,630.874 1100.43,630.874L1100.39,630.874C1073.45,630.874 1036.29,630.247 1036.18,630.247C1005.28,630.186 958.412,630.065 955.966,629.97L955.799,632.99L955.746,629.951C955.746,629.951 923.747,629.544 897.894,629.544C885.473,629.544 874.458,629.639 868.995,629.916L867.08,629.962C847.594,629.962 831.708,615.892 831.693,598.59C831.678,577.998 842.952,571.301 863.783,566.154L868.501,564.152L868.934,559.415L868.706,556.502C868.547,555.321 868.364,554.147 868.364,552.924C868.364,530.254 886.802,511.816 909.472,511.816C916.309,511.816 923.025,513.635 929.414,517.225L939.557,522.908L939.359,511.288C938.903,484.353 960.266,462.165 987.996,460.79L990.7,460.722C1003.04,460.722 1014.35,464.98 1023.19,472.057C1023.63,472.687 1024.2,473.192 1024.93,473.512C1034.65,482.032 1041,494.126 1041.68,507.79C1041.73,508.739 1041.68,509.666 1041.56,512.082L1040.91,529.301L1052.98,517.013C1060.79,509.074 1071.18,504.701 1082.27,504.701C1084.66,504.701 1086.97,505.013 1089.26,505.408C1106.08,508.318 1119.42,521.403 1122.6,538.136C1123.07,540.628 1123.38,543.177 1123.38,545.801C1123.38,548.609 1123.07,551.348 1122.53,553.998L1121.17,560.719L1127.93,561.904C1143.95,564.722 1155.65,577.136 1156.39,592.079C1156.85,601.052 1153.55,610.476 1147.38,617.929ZM1136.55,550.272C1136.67,548.799 1136.72,547.306 1136.72,545.801C1136.72,544.51 1136.62,543.242 1136.53,541.969C1136.18,537.012 1135.17,532.248 1133.58,527.743C1127.99,511.934 1115.35,499.463 1099.41,494.157C1094.89,492.652 1090.11,491.756 1085.15,491.494C1084.18,491.445 1083.24,491.35 1082.27,491.35C1072.18,491.35 1062.52,494.077 1054.11,499.194C1052.53,490.476 1049.05,482.427 1044.21,475.361L1073.56,477.755C1075.89,477.952 1077.91,476.212 1078.1,473.899C1078.29,471.616 1076.57,469.573 1074.25,469.39L1036.67,466.313C1024.17,453.847 1006.49,446.409 987.327,447.45C955.89,449.019 930.941,471.92 926.642,501.378C921.065,499.433 915.322,498.46 909.472,498.46C879.433,498.46 855.009,522.893 855.009,552.924C855.009,553.482 855.024,554.025 855.07,554.603C839.868,558.762 818.307,567.644 818.337,598.609C818.368,623.257 840.232,643.314 867.08,643.314L869.663,643.257C886.369,642.429 955.571,643.314 955.571,643.302L955.586,642.159C955.708,642.174 955.83,642.193 955.951,642.208L955.997,643.299L955.981,642.22C965.181,643.462 986.492,643.504 1036.05,643.603C1036.05,643.603 1073.36,644.229 1100.39,644.229L1100.43,644.229C1110.58,644.229 1119.3,644.142 1124.13,643.895C1136.96,643.265 1148.87,637.062 1157.66,626.449C1165.95,616.458 1170.34,603.687 1169.73,591.418C1168.78,572.266 1155.46,556.103 1136.55,550.272Z" style="fill-rule:nonzero;"/>
        </g>
    </g>
</svg>
