<!-- Generated by IcoMoon.io -->
<svg version="1.1" xmlns="http://www.w3.org/2000/svg" width="32" height="32" viewBox="0 0 32 32">
<title>cloud-day</title>
<path d="M1.664 18.027c0 0.96 0.235 1.845 0.704 2.656s1.109 1.451 1.92 1.92c0.811 0.469 1.685 0.704 2.635 0.704h11.552c0.949 0 1.835-0.235 2.645-0.704s1.461-1.109 1.931-1.92c0.469-0.811 0.715-1.696 0.715-2.656 0-0.704-0.149-1.419-0.448-2.133 0.811-0.981 1.216-2.165 1.216-3.52 0-0.757-0.149-1.483-0.437-2.176s-0.693-1.28-1.195-1.781c-0.501-0.501-1.088-0.907-1.781-1.195-0.693-0.299-1.419-0.437-2.176-0.437-1.579 0-2.955 0.619-4.139 1.856-0.821-0.469-1.781-0.704-2.88-0.704-1.504 0-2.827 0.469-3.979 1.397s-1.899 2.123-2.219 3.573c-1.195 0.277-2.165 0.885-2.923 1.845s-1.141 2.048-1.141 3.275zM3.488 18.027c0-0.896 0.299-1.664 0.896-2.315s1.344-1.024 2.24-1.131l0.533-0.032c0.128 0 0.203-0.064 0.203-0.192l0.075-0.576c0.149-1.152 0.651-2.123 1.504-2.891 0.853-0.779 1.856-1.163 2.997-1.163 1.173 0 2.197 0.395 3.061 1.173 0.875 0.779 1.355 1.739 1.461 2.891l0.075 0.619c0.021 0.117 0.096 0.181 0.224 0.181h1.717c0.939 0 1.749 0.341 2.432 1.024s1.024 1.483 1.024 2.421c0 0.971-0.341 1.792-1.013 2.475s-1.493 1.024-2.432 1.024h-11.563c-0.939 0-1.739-0.341-2.421-1.035-0.672-0.693-1.013-1.515-1.013-2.475zM10.635 4.939c0 0.256 0.085 0.48 0.256 0.672l0.704 0.683c0.267 0.203 0.491 0.288 0.683 0.267 0.224 0 0.416-0.096 0.587-0.277s0.256-0.405 0.256-0.661c0-0.256-0.096-0.469-0.277-0.629l-0.629-0.704c-0.192-0.171-0.405-0.256-0.651-0.256-0.256 0-0.48 0.085-0.661 0.267-0.181 0.171-0.267 0.384-0.267 0.64zM16.331 9.664c0.736-0.715 1.611-1.067 2.613-1.067 1.056 0 1.952 0.363 2.688 1.099s1.109 1.621 1.109 2.677c0 0.661-0.181 1.323-0.544 1.963-1.035-1.024-2.272-1.536-3.723-1.536h-0.341c-0.267-1.163-0.864-2.208-1.803-3.136zM18.069 4.032c0 0.277 0.085 0.491 0.245 0.661s0.373 0.245 0.629 0.245c0.277 0 0.491-0.085 0.661-0.245 0.171-0.171 0.245-0.384 0.245-0.661v-2.187c0-0.256-0.085-0.459-0.256-0.629s-0.384-0.245-0.651-0.245c-0.256 0-0.459 0.085-0.629 0.245s-0.245 0.373-0.245 0.629v2.187zM23.957 6.475c0 0.277 0.075 0.491 0.235 0.661 0.224 0.171 0.448 0.256 0.661 0.256 0.192 0 0.405-0.085 0.629-0.256l1.525-1.525c0.171-0.192 0.256-0.416 0.256-0.683 0-0.256-0.085-0.469-0.256-0.64s-0.384-0.256-0.629-0.256c-0.256 0-0.459 0.085-0.619 0.256l-1.568 1.525c-0.16 0.203-0.235 0.416-0.235 0.661zM24.8 19.104c0 0.256 0.085 0.48 0.267 0.672l0.693 0.672c0.16 0.171 0.363 0.256 0.619 0.256s0.469-0.085 0.64-0.267c0.171-0.181 0.256-0.395 0.256-0.661 0-0.235-0.085-0.448-0.256-0.619l-0.693-0.693c-0.171-0.171-0.373-0.256-0.608-0.256-0.256 0-0.469 0.085-0.64 0.256-0.181 0.171-0.277 0.384-0.277 0.64zM26.368 12.373c0 0.245 0.096 0.448 0.277 0.619 0.171 0.171 0.395 0.256 0.651 0.256h2.176c0.245 0 0.448-0.085 0.619-0.245s0.245-0.373 0.245-0.629c0-0.256-0.085-0.469-0.245-0.64s-0.373-0.267-0.619-0.267h-2.176c-0.256 0-0.469 0.085-0.651 0.267-0.192 0.181-0.277 0.395-0.277 0.64z"></path>
</svg>
