<!-- Generated by IcoMoon.io -->
<svg version="1.1" xmlns="http://www.w3.org/2000/svg" width="32" height="32" viewBox="0 0 32 32">
<title>cloudy</title>
<path d="M4.149 18.773c0-1.056 0.331-2.005 0.992-2.827s1.504-1.355 2.539-1.589c0.277-1.248 0.907-2.283 1.899-3.072 0.992-0.8 2.133-1.195 3.435-1.195 1.259 0 2.389 0.384 3.371 1.163 0.992 0.779 1.632 1.771 1.92 2.987h0.288c1.259 0 2.325 0.437 3.211 1.323s1.333 1.952 1.333 3.2c0 1.259-0.448 2.325-1.333 3.211s-1.952 1.333-3.211 1.333h-9.888c-0.619 0-1.205-0.117-1.76-0.363s-1.056-0.544-1.461-0.949c-0.405-0.405-0.725-0.896-0.971-1.451s-0.363-1.163-0.363-1.771zM5.696 18.773c0 0.811 0.299 1.515 0.875 2.091s1.291 0.875 2.123 0.875h9.899c0.821 0 1.536-0.288 2.123-0.875s0.885-1.28 0.885-2.091c0-0.811-0.288-1.515-0.885-2.091-0.587-0.576-1.291-0.875-2.123-0.875h-1.483c-0.107 0-0.16-0.053-0.16-0.16l-0.075-0.523c-0.107-1.003-0.533-1.845-1.269-2.507s-1.611-0.992-2.613-0.992c-1.003 0-1.877 0.331-2.624 1.003-0.747 0.661-1.163 1.504-1.259 2.496l-0.075 0.448c0 0.107-0.053 0.16-0.171 0.16l-0.48 0.075c-0.768 0.064-1.408 0.384-1.931 0.949-0.491 0.565-0.757 1.237-0.757 2.016zM15.136 9.472c-0.107 0.096-0.085 0.171 0.075 0.224 0.459 0.203 0.843 0.395 1.152 0.587 0.117 0.032 0.203 0.021 0.235-0.032 0.651-0.608 1.397-0.917 2.261-0.917s1.6 0.288 2.24 0.864c0.629 0.576 0.981 1.291 1.056 2.133l0.096 0.683h1.515c0.693 0 1.291 0.245 1.792 0.747s0.747 1.088 0.747 1.771c0 0.64-0.224 1.195-0.661 1.675s-0.981 0.747-1.632 0.821c-0.107 0-0.16 0.053-0.16 0.171v1.205c0 0.117 0.053 0.171 0.16 0.171 1.077-0.064 1.984-0.491 2.72-1.269s1.109-1.707 1.109-2.773c0-1.131-0.395-2.091-1.195-2.88-0.8-0.8-1.76-1.195-2.88-1.195h-0.16c-0.277-1.067-0.864-1.941-1.76-2.635-0.885-0.693-1.888-1.035-2.987-1.035-1.493-0.011-2.741 0.555-3.723 1.685z"></path>
</svg>
