<!-- Generated by IcoMoon.io -->
<svg version="1.1" xmlns="http://www.w3.org/2000/svg" width="32" height="32" viewBox="0 0 32 32">
<title>cloud</title>
<path d="M4.917 18.005c0-1.227 0.384-2.315 1.152-3.275s1.739-1.579 2.923-1.845c0.331-1.461 1.088-2.656 2.251-3.595s2.507-1.408 4.011-1.408c1.472 0 2.784 0.459 3.936 1.365s1.899 2.080 2.24 3.509h0.352c0.96 0 1.845 0.235 2.656 0.693s1.461 1.099 1.931 1.909c0.469 0.811 0.715 1.685 0.715 2.645 0 0.939-0.224 1.813-0.672 2.613s-1.067 1.44-1.845 1.92c-0.779 0.48-1.643 0.736-2.571 0.768h-11.957c-1.429-0.064-2.635-0.608-3.627-1.632-0.992-1.013-1.493-2.24-1.493-3.669zM6.741 18.005c0 0.928 0.32 1.728 0.96 2.411s1.419 1.045 2.336 1.099h11.936c0.917-0.043 1.696-0.416 2.336-1.099 0.651-0.683 0.971-1.493 0.971-2.411 0-0.939-0.352-1.739-1.045-2.421s-1.515-1.024-2.475-1.024h-1.707c-0.117 0-0.181-0.064-0.181-0.192l-0.075-0.608c-0.117-1.152-0.619-2.123-1.493-2.901s-1.888-1.173-3.051-1.173c-1.163 0-2.187 0.395-3.040 1.173-0.864 0.779-1.355 1.749-1.461 2.901l-0.085 0.608c0 0.128-0.075 0.192-0.213 0.192h-0.565c-0.896 0.107-1.643 0.491-2.24 1.141s-0.907 1.419-0.907 2.304z"></path>
</svg>
