<!-- Generated by IcoMoon.io -->
<svg version="1.1" xmlns="http://www.w3.org/2000/svg" width="32" height="32" viewBox="0 0 32 32">
<title>cloud-night</title>
<path d="M4.416 18.027c0-1.237 0.373-2.325 1.131-3.285s1.728-1.568 2.923-1.835c0.245-1.099 0.747-2.059 1.493-2.88s1.653-1.408 2.699-1.76c0.661-0.224 1.344-0.341 2.059-0.341 0.864 0 1.707 0.171 2.507 0.512 0.299-0.501 0.651-0.939 1.056-1.301s0.821-0.651 1.248-0.843c0.427-0.192 0.853-0.341 1.259-0.437s0.811-0.139 1.195-0.139c0.405 0 0.843 0.053 1.312 0.171l0.875 0.267c0.149 0.064 0.192 0.139 0.149 0.235l-0.149 0.64c-0.075 0.331-0.107 0.64-0.107 0.917 0 0.331 0.053 0.672 0.16 1.013s0.256 0.672 0.469 1.003c0.203 0.331 0.491 0.619 0.853 0.885s0.768 0.469 1.227 0.608l0.661 0.235c0.107 0.032 0.16 0.085 0.16 0.171 0 0.021-0.011 0.043-0.021 0.075l-0.192 0.715c-0.288 1.152-0.832 2.059-1.6 2.741 0.427 0.747 0.661 1.547 0.693 2.389 0.011 0.053 0.011 0.128 0.011 0.245 0 0.949-0.235 1.835-0.715 2.645-0.469 0.811-1.12 1.451-1.92 1.92-0.811 0.469-1.696 0.715-2.645 0.715h-11.531c-0.949 0-1.835-0.235-2.645-0.715s-1.44-1.12-1.909-1.92-0.704-1.685-0.704-2.645zM6.24 18.027c0 0.949 0.341 1.771 1.024 2.464s1.483 1.045 2.411 1.045h11.531c0.949 0 1.76-0.341 2.432-1.035s1.013-1.515 1.013-2.475c0-0.939-0.341-1.739-1.024-2.411s-1.493-1.013-2.432-1.013h-1.899l-0.107-0.8c-0.107-1.077-0.555-2.005-1.344-2.763s-1.728-1.184-2.805-1.28c-0.032 0-0.085 0-0.16-0.011s-0.117-0.011-0.16-0.011c-0.544 0-1.088 0.107-1.643 0.309v-0.021c-0.779 0.299-1.44 0.789-1.963 1.461-0.533 0.672-0.853 1.44-0.96 2.315l-0.075 0.768-0.725 0.032c-0.896 0.107-1.643 0.48-2.24 1.131s-0.875 1.408-0.875 2.293zM18.773 9.376c1.131 0.971 1.835 2.101 2.101 3.392h0.341c1.323 0 2.453 0.416 3.381 1.259 0.352-0.331 0.619-0.715 0.811-1.141-0.971-0.459-1.739-1.163-2.304-2.101-0.555-0.939-0.843-1.931-0.843-2.965v-0.256c-0.053-0.011-0.139-0.011-0.256-0.011-0.619-0.011-1.227 0.139-1.813 0.469-0.587 0.32-1.067 0.768-1.419 1.355z"></path>
</svg>
