<!-- Generated by IcoMoon.io -->
<svg version="1.1" xmlns="http://www.w3.org/2000/svg" width="32" height="32" viewBox="0 0 32 32">
<title>direction-left</title>
<path d="M7.563 15.957c0 0.395 0.128 0.725 0.395 0.981l4.096 4c0.235 0.267 0.544 0.405 0.907 0.405 0.373 0 0.693-0.128 0.949-0.373s0.395-0.565 0.395-0.939-0.128-0.693-0.395-0.949l-1.749-1.749h10.987c0.373 0 0.683-0.128 0.928-0.395s0.363-0.587 0.363-0.96-0.117-0.693-0.363-0.96-0.555-0.405-0.928-0.416h-10.987l1.749-1.771c0.256-0.256 0.395-0.565 0.395-0.917 0-0.373-0.128-0.693-0.395-0.949s-0.576-0.405-0.96-0.405c-0.341 0-0.651 0.149-0.907 0.437l-4.096 4c-0.256 0.267-0.384 0.576-0.384 0.96z"></path>
</svg>
