<!-- Generated by IcoMoon.io -->
<svg version="1.1" xmlns="http://www.w3.org/2000/svg" width="32" height="32" viewBox="0 0 32 32">
<title>direction-right</title>
<path d="M7.47 14.921c0 0.371 0.135 0.708 0.388 0.961s0.573 0.371 0.944 0.337h11.092l-1.736 1.821c-0.27 0.27-0.404 0.59-0.404 0.927 0 0.371 0.135 0.708 0.404 0.961 0.27 0.27 0.59 0.388 0.978 0.388 0.354-0.017 0.657-0.169 0.894-0.455l4.13-4.063c0.27-0.27 0.388-0.59 0.388-0.978-0.017-0.405-0.152-0.725-0.404-0.978l-4.164-4.029c-0.253-0.27-0.556-0.405-0.91-0.388-0.388 0-0.708 0.118-0.961 0.371-0.27 0.253-0.388 0.573-0.388 0.944 0 0.388 0.135 0.708 0.388 0.961l1.787 1.821h-11.109c-0.388 0.017-0.691 0.152-0.944 0.421-0.253 0.287-0.371 0.607-0.371 0.978z"></path>
</svg>
