<!-- Generated by IcoMoon.io -->
<svg version="1.1" xmlns="http://www.w3.org/2000/svg" width="32" height="32" viewBox="0 0 32 32">
<title>direction-down</title>
<path d="M10.255 18.615c0 0.391 0.142 0.712 0.445 0.978l4.269 4.358c0.285 0.285 0.623 0.409 1.032 0.409 0.427 0 0.765-0.142 1.049-0.409l4.269-4.358c0.285-0.249 0.427-0.587 0.427-0.978s-0.142-0.729-0.409-1.014-0.605-0.409-0.996-0.409-0.747 0.142-1.014 0.409l-1.885 1.868v-11.721c0-0.391-0.142-0.729-0.427-0.996-0.267-0.249-0.605-0.391-1.014-0.391s-0.747 0.124-1.032 0.391c-0.285 0.267-0.427 0.605-0.427 0.996v11.721l-1.885-1.868c-0.285-0.285-0.605-0.409-0.978-0.409-0.391 0-0.747 0.142-1.014 0.409s-0.409 0.623-0.409 1.014z"></path>
</svg>
