<!-- Generated by IcoMoon.io -->
<svg version="1.1" xmlns="http://www.w3.org/2000/svg" width="32" height="32" viewBox="0 0 32 32">
<title>direction-up</title>
<path d="M10.613 11.595c-0.011 0.373 0.107 0.693 0.363 0.96s0.565 0.395 0.949 0.384c0.363 0.021 0.672-0.107 0.939-0.395l1.771-1.749v10.987c-0.011 0.373 0.117 0.683 0.384 0.939s0.587 0.373 0.981 0.363c0.363 0.021 0.683-0.096 0.949-0.341s0.416-0.565 0.427-0.939v-10.987l1.749 1.749c0.245 0.256 0.565 0.395 0.939 0.395 0.384 0 0.704-0.128 0.96-0.384s0.384-0.565 0.384-0.949c-0.021-0.384-0.16-0.683-0.427-0.907l-3.989-4.096c-0.256-0.245-0.587-0.395-0.981-0.427-0.395 0.021-0.725 0.171-0.981 0.437l-4 4.064c-0.277 0.235-0.416 0.533-0.416 0.896z"></path>
</svg>
