<!-- Generated by IcoMoon.io -->
<svg version="1.1" xmlns="http://www.w3.org/2000/svg" width="32" height="32" viewBox="0 0 32 32">
<title>dust</title>
<path d="M7.819 17.685c0-0.245 0.085-0.437 0.245-0.597 0.171-0.16 0.395-0.235 0.683-0.235h6.091c0.288 0 0.512 0.075 0.683 0.235s0.245 0.352 0.245 0.597c0 0.288-0.085 0.523-0.245 0.683s-0.395 0.245-0.683 0.245h-6.091c-0.288 0-0.512-0.085-0.683-0.245s-0.245-0.384-0.245-0.683zM7.819 11.381c0-0.235 0.085-0.437 0.245-0.587 0.171-0.16 0.395-0.235 0.683-0.235h3.157c0.288 0 0.512 0.075 0.683 0.235 0.171 0.149 0.256 0.352 0.256 0.587 0 0.288-0.085 0.512-0.256 0.683s-0.395 0.256-0.683 0.256h-3.157c-0.288 0-0.512-0.085-0.683-0.245s-0.245-0.405-0.245-0.693zM8.875 20.843c0-0.235 0.096-0.448 0.299-0.64 0.192-0.192 0.416-0.299 0.64-0.299 0.277 0 0.491 0.096 0.661 0.288s0.256 0.405 0.256 0.651c0 0.288-0.085 0.523-0.245 0.693s-0.384 0.245-0.672 0.245c-0.245 0-0.469-0.085-0.651-0.256-0.203-0.181-0.288-0.405-0.288-0.683zM10.389 14.517c0-0.245 0.075-0.469 0.235-0.651 0.16-0.192 0.352-0.288 0.576-0.288 0.277 0 0.512 0.096 0.683 0.288s0.256 0.405 0.256 0.651c0 0.288-0.085 0.523-0.245 0.693-0.171 0.171-0.395 0.245-0.693 0.245-0.245 0-0.437-0.085-0.587-0.256s-0.224-0.395-0.224-0.683zM11.445 20.843c0-0.245 0.085-0.469 0.256-0.651s0.405-0.288 0.683-0.288h4.085l0.939 0.939c0 0.277-0.096 0.501-0.288 0.683s-0.405 0.256-0.651 0.256h-4.085c-0.288 0-0.523-0.085-0.693-0.256s-0.245-0.395-0.245-0.683zM12.853 14.517c0-0.235 0.096-0.448 0.299-0.64 0.192-0.192 0.416-0.299 0.64-0.299h4.085c0.277 0 0.501 0.096 0.672 0.288s0.256 0.405 0.256 0.651c0 0.288-0.085 0.523-0.245 0.693-0.171 0.171-0.395 0.245-0.683 0.245h-4.085c-0.245 0-0.469-0.085-0.651-0.256-0.192-0.171-0.288-0.395-0.288-0.683zM13.664 11.381c0-0.235 0.085-0.437 0.256-0.587s0.395-0.235 0.683-0.235h6.091c0.245 0 0.459 0.085 0.651 0.245s0.288 0.352 0.288 0.576c0 0.277-0.096 0.512-0.288 0.683s-0.405 0.256-0.651 0.256h-6.091c-0.288 0-0.523-0.085-0.693-0.256s-0.245-0.395-0.245-0.683zM16.469 17.685c0-0.224 0.096-0.427 0.288-0.587s0.405-0.245 0.651-0.245 0.459 0.085 0.651 0.245c0.192 0.16 0.288 0.363 0.288 0.587 0 0.277-0.096 0.501-0.288 0.672s-0.405 0.256-0.651 0.256c-0.245 0-0.469-0.085-0.651-0.256-0.192-0.16-0.288-0.384-0.288-0.672zM18.112 20.843c0-0.245 0.085-0.469 0.256-0.651 0.171-0.192 0.395-0.288 0.672-0.288h1.995c0.277 0 0.501 0.096 0.672 0.277s0.256 0.405 0.256 0.661c0 0.288-0.085 0.523-0.245 0.693s-0.395 0.245-0.683 0.245h-1.995c-0.288 0-0.512-0.085-0.683-0.245-0.16-0.171-0.245-0.405-0.245-0.693zM19.040 17.685c0-0.224 0.096-0.427 0.288-0.587s0.405-0.245 0.651-0.245h3.275c0.235 0 0.427 0.085 0.576 0.245s0.235 0.352 0.235 0.587c0 0.288-0.075 0.512-0.224 0.683s-0.341 0.245-0.587 0.245h-3.275c-0.245 0-0.469-0.085-0.651-0.256-0.192-0.16-0.288-0.384-0.288-0.672zM19.509 14.517c0-0.235 0.096-0.448 0.299-0.64 0.192-0.192 0.416-0.299 0.64-0.299h2.091c0.224 0 0.416 0.096 0.576 0.288s0.245 0.405 0.245 0.651c0 0.288-0.075 0.512-0.235 0.683-0.149 0.171-0.352 0.256-0.587 0.256h-2.091c-0.245 0-0.469-0.085-0.651-0.256-0.192-0.171-0.288-0.395-0.288-0.683zM22.432 11.381c0-0.235 0.075-0.427 0.235-0.587s0.352-0.235 0.587-0.235c0.288 0 0.512 0.075 0.683 0.235 0.171 0.149 0.256 0.352 0.256 0.587 0 0.288-0.085 0.512-0.256 0.683s-0.395 0.256-0.683 0.256c-0.245 0-0.437-0.085-0.587-0.256-0.16-0.171-0.235-0.395-0.235-0.683z"></path>
</svg>
