<!-- Generated by IcoMoon.io -->
<svg version="1.1" xmlns="http://www.w3.org/2000/svg" width="32" height="32" viewBox="0 0 32 32">
<title>earthquake</title>
<path d="M5.6 16.32c0 0.171 0.064 0.309 0.181 0.427s0.267 0.171 0.427 0.171h3.179c0.149 0 0.288-0.043 0.405-0.139s0.181-0.213 0.213-0.363l0.96-5.621 1.728 14.059c0.021 0.149 0.096 0.277 0.203 0.384 0.107 0.096 0.235 0.149 0.384 0.149 0.16 0 0.299-0.053 0.405-0.149s0.181-0.224 0.213-0.384l1.333-10.315 1.109 2.987c0.043 0.117 0.107 0.213 0.213 0.288s0.213 0.107 0.341 0.107h0.053c0.128-0.011 0.245-0.053 0.341-0.139 0.107-0.085 0.171-0.192 0.203-0.331l1.632-7.317 0.757 14.059c0.011 0.149 0.064 0.288 0.16 0.395s0.224 0.171 0.384 0.181c0.149 0.011 0.288-0.021 0.405-0.107s0.192-0.203 0.235-0.352l1.76-7.403h2.955c0.171 0 0.309-0.053 0.427-0.171s0.181-0.256 0.181-0.427c0-0.171-0.064-0.309-0.181-0.427s-0.267-0.181-0.427-0.181h-3.445c-0.139 0-0.267 0.043-0.373 0.128s-0.181 0.192-0.213 0.331l-0.885 3.776-0.768-14.251c-0.011-0.149-0.064-0.288-0.171-0.395s-0.235-0.171-0.384-0.171c-0.149-0.011-0.288 0.021-0.416 0.117s-0.203 0.213-0.235 0.363l-2.133 9.568-1.237-3.371c-0.043-0.128-0.128-0.224-0.256-0.299s-0.256-0.107-0.384-0.085c-0.139 0.011-0.256 0.075-0.352 0.171s-0.16 0.224-0.181 0.363l-1.045 8.011-1.632-13.397c-0.032-0.149-0.096-0.277-0.203-0.373s-0.235-0.149-0.384-0.16c-0.149-0.011-0.288 0.032-0.405 0.128s-0.192 0.213-0.213 0.373l-1.579 9.184h-2.677c-0.171 0-0.309 0.064-0.427 0.181s-0.181 0.256-0.181 0.427z"></path>
</svg>
