<!-- Generated by IcoMoon.io -->
<svg version="1.1" xmlns="http://www.w3.org/2000/svg" width="32" height="32" viewBox="0 0 32 32">
<title>fire</title>
<path d="M7.872 23.285c0-0.32 0.107-0.587 0.309-0.811s0.459-0.331 0.747-0.331v-0.021l14.037 0.043c0.064-0.011 0.107-0.021 0.107-0.021 0.288 0.011 0.544 0.128 0.747 0.352s0.309 0.501 0.299 0.821c0 0.32-0.107 0.587-0.309 0.811s-0.459 0.331-0.747 0.331v0.011l-13.899-0.043c-0.107 0.011-0.181 0.021-0.235 0.021-0.299-0.011-0.544-0.117-0.747-0.341-0.213-0.224-0.32-0.501-0.309-0.821zM8.747 17.461c-0.011-0.459 0.043-0.992 0.171-1.621 0.064-0.32 0.213-0.811 0.469-1.461 0.021-0.053 0.075-0.149 0.139-0.299 0.011 0.021 0.032 0.032 0.043 0.053s0.021 0.021 0.021 0.032c0.117 0.469 0.288 0.896 0.523 1.28 0.224 0.341 0.512 0.597 0.875 0.736 0.277 0.117 0.672 0.181 1.173 0.192 0.021 0 0.053 0 0.085 0s0.064 0 0.085 0c-0.352-0.352-0.629-0.715-0.843-1.067-0.32-0.555-0.523-1.195-0.608-1.931-0.064-0.576-0.032-1.269 0.096-2.091 0.021-0.16 0.128-0.523 0.309-1.077 0.16-0.501 0.384-0.96 0.683-1.365 0.341-0.523 0.832-1.056 1.483-1.611 0.395-0.331 0.949-0.715 1.664-1.141 0.075-0.043 0.192-0.117 0.373-0.203 0 0.021 0 0.043 0 0.053s0 0.032 0 0.043v0.021c-0.256 0.608-0.437 1.227-0.523 1.845-0.064 0.565 0.021 1.088 0.256 1.579 0.181 0.384 0.512 0.8 0.981 1.227 0.096 0.096 0.309 0.309 0.64 0.619 0.32 0.309 0.576 0.555 0.747 0.725l0.267 0.267c0.277-0.405 0.437-0.885 0.469-1.44 0.043-0.587 0-1.227-0.149-1.92 0-0.011 0-0.043 0.011-0.117 0.021 0.021 0.139 0.107 0.32 0.256 0.597 0.533 1.045 1.013 1.365 1.429 0.512 0.661 0.885 1.291 1.131 1.856 0.203 0.491 0.331 0.981 0.405 1.493 0.064 0.448 0.085 0.821 0.075 1.12-0.011 0.832-0.107 1.525-0.267 2.091-0.075 0.224-0.139 0.405-0.203 0.555 0.267-0.075 0.501-0.171 0.693-0.277 0.267-0.171 0.48-0.395 0.64-0.704 0.171-0.309 0.309-0.661 0.405-1.045 0-0.011 0.011-0.032 0.032-0.053 0.011 0.021 0.021 0.053 0.053 0.096 0.021 0.043 0.043 0.075 0.053 0.107 0.139 0.331 0.235 0.672 0.288 1.035 0.085 0.405 0.107 0.8 0.085 1.205-0.021 0.309-0.075 0.597-0.171 0.864-0.085 0.256-0.171 0.459-0.235 0.619-0.203 0.405-0.416 0.757-0.661 1.045-0.064 0.075-0.117 0.139-0.149 0.171h-11.733c-0.011-0.011-0.032-0.032-0.075-0.064s-0.064-0.053-0.085-0.075c-0.277-0.267-0.576-0.672-0.875-1.205-0.085-0.16-0.192-0.405-0.309-0.736-0.128-0.331-0.203-0.704-0.224-1.109z"></path>
</svg>
