<?xml version="1.0" encoding="UTF-8" standalone="no"?>
<!DOCTYPE svg PUBLIC "-//W3C//DTD SVG 1.1//EN" "http://www.w3.org/Graphics/SVG/1.1/DTD/svg11.dtd">
<svg width="100%" height="100%" viewBox="0 0 839 915" version="1.1" xmlns="http://www.w3.org/2000/svg" xmlns:xlink="http://www.w3.org/1999/xlink" xml:space="preserve" xmlns:serif="http://www.serif.com/" style="fill-rule:evenodd;clip-rule:evenodd;stroke-linejoin:round;stroke-miterlimit:2;">
    <g transform="matrix(1,0,0,1,-7042,-12103)">
        <g transform="matrix(4.16667,0,0,4.16667,0,0)">
            <path d="M1838.81,3013.39C1829.9,3013.39 1818.14,3011.85 1812.76,3004.51C1798.71,2985.32 1785.4,2983.09 1776.63,2983.09C1773.91,2983.09 1771.36,2983.32 1768.99,2983.55C1767.17,2983.71 1765.47,2983.86 1763.9,2983.86C1757.49,2983.86 1732.6,2989.65 1719.06,2999.09L1719.06,2928.16C1724.08,2925.02 1738.44,2916.89 1753.25,2916.89C1769.32,2916.89 1787.47,2928.83 1803.45,2939.38L1810.77,2944.13C1824.21,2952.76 1849.86,2954.05 1863.95,2954.05C1866.62,2954.05 1869.51,2954.01 1872.27,2953.89C1866.07,2959.49 1857.22,2967.2 1848.9,2974.29L1846.39,2976.44L1847.71,2979.46C1848.87,2982.1 1857.54,3001.16 1871.03,3008.62C1862.23,3011.03 1850.2,3013.39 1838.81,3013.39ZM1710.16,3109.7C1710.16,3112.74 1707.68,3115.23 1704.63,3115.23C1701.57,3115.23 1699.1,3112.74 1699.1,3109.7L1699.1,2919.26C1699.1,2916.22 1701.57,2913.73 1704.63,2913.73C1707.68,2913.73 1710.16,2916.22 1710.16,2919.26L1710.16,3109.7ZM1890.47,3002.37L1886.02,3002.37C1885.4,3002.37 1884.54,3002.43 1883.43,3002.6C1872.36,3004.18 1861.86,2987.92 1857.28,2978.87C1889.8,2951.09 1889.5,2950.32 1888.24,2946.87L1887.06,2943.89L1883.96,2943.89L1882.45,2944.13C1881.31,2944.44 1874.38,2945.15 1863.95,2945.15C1841.63,2945.15 1823.99,2942.05 1815.58,2936.67L1808.35,2931.93C1791.32,2920.72 1772,2907.98 1753.25,2907.98C1739.42,2907.98 1726.52,2913.74 1718.93,2917.92C1718.24,2910.6 1712.13,2904.82 1704.63,2904.82C1696.67,2904.82 1690.19,2911.3 1690.19,2919.26L1690.19,3109.7C1690.19,3117.66 1696.67,3124.12 1704.63,3124.12C1712.59,3124.12 1719.06,3117.66 1719.06,3109.7L1719.06,3010.97C1719.25,3005.24 1752.23,2992.77 1763.9,2992.77C1765.72,2992.77 1767.7,2992.6 1769.81,2992.4C1778.43,2991.58 1790.29,2988.88 1805.58,3009.77C1811.68,3018.08 1822.86,3022.29 1838.81,3022.29C1853.64,3022.29 1891.4,3015.56 1891.4,3007.1L1890.47,3002.37Z" style="fill-rule:nonzero;"/>
        </g>
    </g>
</svg>
