<!-- Generated by IcoMoon.io -->
<svg version="1.1" xmlns="http://www.w3.org/2000/svg" width="32" height="32" viewBox="0 0 32 32">
<title>fog</title>
<path d="M2.795 22.453c0-0.256 0.085-0.48 0.267-0.651s0.405-0.256 0.672-0.256h19.915c0.267 0 0.48 0.085 0.651 0.256s0.256 0.384 0.256 0.651c0 0.245-0.085 0.459-0.267 0.619-0.181 0.171-0.395 0.245-0.64 0.245h-19.915c-0.267 0-0.491-0.085-0.672-0.245-0.181-0.171-0.267-0.373-0.267-0.619zM5.589 19.104c0-0.256 0.096-0.469 0.277-0.64 0.16-0.16 0.373-0.245 0.629-0.245h19.915c0.245 0 0.448 0.085 0.619 0.256s0.245 0.373 0.245 0.629c0 0.256-0.085 0.469-0.245 0.64-0.171 0.181-0.373 0.267-0.619 0.267h-19.915c-0.256 0-0.469-0.085-0.64-0.267-0.181-0.181-0.267-0.395-0.267-0.64zM5.728 16.555c0 0.096 0.053 0.139 0.16 0.139h1.525c0.064 0 0.139-0.053 0.213-0.171 0.256-0.555 0.629-1.003 1.131-1.355s1.056-0.555 1.653-0.597l0.587-0.075c0.117 0 0.181-0.064 0.181-0.192l0.075-0.533c0.117-1.152 0.597-2.112 1.461-2.88s1.877-1.152 3.040-1.152c1.152 0 2.155 0.384 3.019 1.141 0.853 0.757 1.344 1.717 1.461 2.859l0.085 0.608c0 0.117 0.075 0.181 0.213 0.181h1.696c0.683 0 1.312 0.181 1.877 0.555s0.981 0.853 1.259 1.461c0.075 0.117 0.149 0.171 0.224 0.171h1.525c0.128 0 0.181-0.075 0.149-0.245-0.309-1.088-0.939-1.984-1.856-2.677-0.928-0.693-1.984-1.035-3.168-1.035h-0.341c-0.352-1.419-1.099-2.581-2.24-3.488s-2.432-1.355-3.893-1.355c-1.493 0-2.816 0.469-3.979 1.408s-1.899 2.133-2.229 3.584c-0.907 0.213-1.707 0.64-2.389 1.291s-1.163 1.419-1.429 2.325v-0.043c-0.011 0-0.011 0.032-0.011 0.075zM7.445 25.717c0-0.256 0.096-0.459 0.277-0.629 0.16-0.16 0.373-0.245 0.64-0.245h19.925c0.256 0 0.469 0.085 0.64 0.245 0.181 0.171 0.267 0.373 0.267 0.619 0 0.256-0.085 0.469-0.267 0.651s-0.395 0.267-0.64 0.267h-19.925c-0.245 0-0.459-0.096-0.64-0.277-0.181-0.16-0.277-0.384-0.277-0.629z"></path>
</svg>
