<?xml version="1.0" encoding="UTF-8" standalone="no"?>
<!DOCTYPE svg PUBLIC "-//W3C//DTD SVG 1.1//EN" "http://www.w3.org/Graphics/SVG/1.1/DTD/svg11.dtd">
<svg width="100%" height="100%" viewBox="0 0 1455 1455" version="1.1" xmlns="http://www.w3.org/2000/svg" xmlns:xlink="http://www.w3.org/1999/xlink" xml:space="preserve" xmlns:serif="http://www.serif.com/" style="fill-rule:evenodd;clip-rule:evenodd;stroke-linejoin:round;stroke-miterlimit:2;">
    <g transform="matrix(4.16667,0,0,4.16667,-8685,-11705.5)">
        <g>
            <path d="M2424.62,2992.6C2417.57,2985.96 2407.73,2983.89 2399.45,2987.34C2390.71,2990.98 2385.61,2998.22 2385.85,3006.69C2386.02,3013.78 2389.92,3020.07 2395.27,3022C2399.29,3023.41 2403.51,3022.18 2406.56,3018.67L2398.75,3012.32C2398.02,3012.08 2396.28,3009.82 2396.14,3006.52C2396.02,3003.54 2397.22,2999.45 2403.44,2996.83C2407.89,2994.96 2413.46,2996.23 2417.57,3000.08C2423.12,3005.33 2424.59,3013.75 2421.46,3022.63C2416.94,3035.48 2406.64,3033.53 2380.42,3025.24C2352.91,3016.5 2315.21,3004.54 2283.68,3034.72C2274.45,3043.55 2254.18,3047.57 2229.3,3045.36C2208.52,3043.53 2186.85,3039.76 2169.08,3024.6C2150.48,3008.76 2132.25,3002.51 2117.9,3000.32C2130.62,2998.57 2146.59,2999.48 2163.52,3008.08C2188.52,3020.76 2218.62,3032.7 2243.49,3032.7C2257.61,3032.7 2270.03,3028.84 2278.87,3019.1C2298.35,2997.64 2321.68,3000.02 2342.19,3002.1C2360.49,3004.01 2379.41,3005.9 2385.88,2985.29C2389.39,2974.06 2386.92,2963.58 2379.15,2956.47C2371.02,2949.05 2358.14,2946.62 2348.5,2950.67C2337.54,2955.24 2336.55,2962.71 2336.64,2965.72C2336.8,2971.88 2341.25,2977.68 2347.45,2979.93C2352.77,2981.78 2358.14,2980.51 2361.68,2976.39L2353.89,2969.66C2353.53,2970.04 2352.83,2970.87 2350.93,2970.21C2348.81,2969.46 2346.97,2967.27 2346.93,2965.43C2346.86,2962.79 2350.8,2960.88 2352.48,2960.16C2358.49,2957.67 2366.98,2959.33 2372.18,2964.08C2375.59,2967.17 2378.99,2972.82 2376.04,2982.21C2372.27,2994.3 2362.68,2993.86 2343.22,2991.87C2322.52,2989.77 2294.19,2986.83 2271.24,3012.19C2250.13,3035.45 2197.63,3013.86 2168.19,2998.89C2156.44,2992.92 2145.13,2990.28 2134.8,2989.54C2144.89,2989.15 2156.09,2990.88 2167.88,2996.61C2188.79,3006.79 2206.31,3009.74 2220.48,3009.06C2241.16,3008.07 2254.66,2999.3 2261.14,2993.86C2271.15,2985.48 2270.91,2971.3 2265.66,2962.18C2261.04,2954.31 2251.22,2947.73 2237.47,2952.84C2228.76,2956.06 2226.19,2964.45 2228.16,2971.04C2230.15,2977.82 2237.11,2983.62 2248.2,2981.08L2246.36,2972.92C2240.24,2974.25 2237.08,2971.6 2236.2,2968.64C2235.37,2965.89 2236.34,2962.21 2240.4,2960.71C2251.22,2956.62 2256.6,2963.35 2258.36,2966.42C2262,2972.64 2262,2982.21 2255.74,2987.47C2246.12,2995.53 2218.61,3011.96 2171.55,2989.06C2124.4,2966.15 2084.89,2999.59 2084.51,2999.94L2085.05,3000.56C2084.82,3000.7 2084.59,3000.84 2084.51,3000.88L2089.41,3008.76L2089.41,3009.82C2090.78,3009.44 2127.98,3004.1 2162.39,3032.46C2182.64,3049.18 2205.94,3053.64 2228.4,3055.61C2233.17,3056.04 2237.8,3056.22 2242.25,3056.22C2263.95,3056.22 2281.24,3051.3 2290.8,3042.15C2317.96,3016.21 2349.51,3026.26 2377.31,3035.07C2399.76,3042.15 2422.95,3049.56 2431.19,3026.06C2435.69,3013.23 2433.25,3000.7 2424.62,2992.6Z" style="fill-rule:nonzero;"/>
            <path d="M2190.29,2962.08C2190.54,2961.83 2190.8,2961.53 2191.07,2961.23C2185.84,2961.33 2178.34,2957.67 2172.91,2952.32C2164.18,2943.74 2158.97,2931.81 2160.36,2933.72C2165.37,2940.65 2169.71,2946.87 2175.44,2951.12C2182.89,2956.67 2191.76,2958.25 2192.98,2958.84C2198.36,2951 2200.28,2938.37 2188.14,2931.89C2182.58,2929.09 2176.77,2934.09 2169.83,2930.84C2162.58,2928.1 2157.48,2920.9 2158.41,2912.09L2157.9,2911.59C2155.29,2920.44 2151.27,2942.51 2155.55,2952.15C2162.96,2969.55 2180.94,2971.09 2190.29,2962.08Z" style="fill-rule:nonzero;"/>
        </g>
    </g>
</svg>
