<!-- Generated by IcoMoon.io -->
<svg version="1.1" xmlns="http://www.w3.org/2000/svg" width="32" height="32" viewBox="0 0 32 32">
<title>hail</title>
<path d="M4.949 18.027c0 1.419 0.491 2.635 1.483 3.659s2.197 1.568 3.627 1.632c0.117 0 0.181-0.064 0.181-0.181v-1.429c0-0.117-0.064-0.181-0.181-0.181-0.917-0.043-1.685-0.405-2.325-1.088s-0.96-1.483-0.96-2.411c0-0.885 0.299-1.643 0.896-2.304 0.597-0.651 1.344-1.035 2.229-1.141l0.565-0.032c0.139 0 0.213-0.064 0.213-0.203l0.064-0.565c0.117-1.152 0.597-2.123 1.461-2.891 0.864-0.779 1.877-1.163 3.040-1.163s2.176 0.384 3.040 1.163c0.864 0.779 1.355 1.739 1.483 2.891l0.085 0.619c0 0.117 0.064 0.181 0.192 0.181h1.717c0.949 0 1.771 0.341 2.464 1.024s1.045 1.483 1.045 2.421c0 0.928-0.32 1.728-0.96 2.411s-1.419 1.045-2.325 1.088c-0.139 0-0.213 0.064-0.213 0.181v1.429c0 0.117 0.075 0.181 0.213 0.181 0.928-0.021 1.781-0.277 2.56-0.757s1.397-1.12 1.845-1.92c0.448-0.8 0.672-1.675 0.672-2.603 0-0.949-0.235-1.835-0.715-2.635-0.469-0.8-1.12-1.44-1.931-1.899s-1.707-0.704-2.656-0.704h-0.341c-0.341-1.429-1.099-2.592-2.24-3.499s-2.453-1.365-3.925-1.365c-1.504 0-2.837 0.469-4 1.397s-1.909 2.123-2.24 3.573c-1.184 0.277-2.155 0.885-2.912 1.845s-1.152 2.048-1.152 3.275zM10.763 25.707c0.096 0.224 0.267 0.395 0.491 0.491 0.213 0.107 0.437 0.117 0.661 0.021 0.235-0.096 0.384-0.256 0.48-0.48 0.107-0.235 0.117-0.459 0.021-0.683-0.085-0.224-0.256-0.373-0.48-0.469-0.213-0.117-0.427-0.128-0.651-0.032s-0.384 0.256-0.491 0.501c-0.117 0.181-0.117 0.395-0.032 0.651zM11.435 22.699c0 0.171 0.053 0.331 0.16 0.48 0.107 0.16 0.277 0.267 0.491 0.341 0.203 0.117 0.427 0.128 0.661 0.011 0.235-0.107 0.395-0.32 0.469-0.64l0.96-3.605c0.064-0.267 0.043-0.501-0.085-0.715s-0.309-0.341-0.565-0.384c-0.085-0.021-0.171-0.032-0.256-0.032-0.171 0-0.341 0.053-0.501 0.16s-0.277 0.267-0.341 0.469l-0.939 3.616c-0.043 0.171-0.053 0.267-0.053 0.299zM13.419 28.661c0 0.128 0.021 0.235 0.064 0.309 0.096 0.235 0.256 0.395 0.48 0.48 0.096 0.053 0.213 0.085 0.352 0.085 0.064 0 0.171-0.021 0.32-0.064 0.235-0.085 0.405-0.245 0.501-0.48 0.107-0.235 0.107-0.469 0-0.704s-0.267-0.395-0.48-0.491c-0.213-0.096-0.427-0.096-0.661 0-0.203 0.085-0.341 0.213-0.437 0.384s-0.139 0.331-0.139 0.48zM14.197 25.877c0 0.395 0.224 0.651 0.672 0.779 0.117 0.032 0.203 0.043 0.256 0.043 0.16 0 0.299-0.032 0.405-0.085 0.224-0.085 0.373-0.288 0.448-0.608l1.781-6.709c0.064-0.256 0.043-0.48-0.064-0.693-0.107-0.203-0.288-0.341-0.523-0.405-0.085-0.021-0.181-0.032-0.288-0.032-0.171 0-0.341 0.053-0.512 0.16s-0.277 0.267-0.32 0.469l-1.824 6.763c-0.021 0.149-0.032 0.256-0.032 0.32zM17.856 25.387c0 0.128 0.021 0.245 0.085 0.341 0.085 0.203 0.245 0.363 0.469 0.469 0.117 0.043 0.245 0.075 0.373 0.075 0.064 0 0.171-0.021 0.32-0.064 0.224-0.085 0.395-0.245 0.491-0.469 0.075-0.235 0.075-0.459-0.011-0.672s-0.235-0.373-0.448-0.48c-0.245-0.117-0.469-0.128-0.693-0.032s-0.384 0.256-0.491 0.501c-0.064 0.107-0.096 0.213-0.096 0.331zM18.635 22.645c0 0.149 0.053 0.309 0.171 0.48s0.277 0.288 0.48 0.352c0.171 0.032 0.267 0.053 0.288 0.053 0.096 0 0.235-0.032 0.395-0.107 0.213-0.096 0.352-0.288 0.427-0.555l0.96-3.563c0.021-0.181 0.032-0.277 0.032-0.277 0-0.171-0.053-0.331-0.16-0.491s-0.267-0.267-0.48-0.331c-0.096-0.021-0.192-0.032-0.277-0.032-0.171 0-0.341 0.053-0.501 0.16s-0.267 0.267-0.331 0.48l-0.96 3.584-0.043 0.245z"></path>
</svg>
