<!-- Generated by IcoMoon.io -->
<svg version="1.1" xmlns="http://www.w3.org/2000/svg" width="32" height="32" viewBox="0 0 32 32">
<title>hot</title>
<path d="M4.416 15.744c0-0.256 0.096-0.469 0.288-0.651 0.181-0.181 0.405-0.267 0.661-0.267h2.197c0.256 0 0.469 0.085 0.64 0.267 0.181 0.181 0.267 0.395 0.267 0.651 0 0.267-0.085 0.491-0.267 0.672s-0.395 0.267-0.64 0.267h-2.197c-0.267 0-0.491-0.085-0.672-0.267-0.192-0.181-0.277-0.405-0.277-0.672zM7.531 8.256c0-0.245 0.085-0.469 0.256-0.661 0.213-0.171 0.437-0.267 0.704-0.267 0.224 0 0.437 0.085 0.629 0.267l1.547 1.579c0.181 0.171 0.267 0.384 0.267 0.64s-0.085 0.469-0.267 0.64c-0.181 0.181-0.384 0.267-0.64 0.267-0.277 0-0.491-0.085-0.651-0.267l-1.6-1.536c-0.149-0.181-0.245-0.405-0.245-0.661zM10.315 15.744c0-0.757 0.149-1.483 0.459-2.176 0.299-0.693 0.715-1.301 1.216-1.803 0.512-0.501 1.12-0.907 1.813-1.205s1.429-0.459 2.197-0.459c1.024 0 1.963 0.256 2.837 0.768s1.568 1.195 2.069 2.069c0.501 0.864 0.757 1.803 0.757 2.805 0 0.16-0.011 0.309-0.032 0.448-0.299-0.181-0.64-0.267-1.035-0.267-0.256 0-0.512 0.053-0.768 0.16 0.011-0.075 0.011-0.192 0.011-0.341 0-1.045-0.373-1.931-1.131-2.667s-1.664-1.109-2.72-1.109c-1.056 0-1.952 0.373-2.709 1.109s-1.12 1.621-1.12 2.667v0.192c-0.309 0.021-0.608 0.107-0.896 0.267-0.011 0.011-0.043 0.032-0.107 0.075s-0.128 0.096-0.203 0.149-0.149 0.117-0.245 0.203-0.192 0.171-0.277 0.256c-0.085-0.341-0.117-0.725-0.117-1.141zM10.347 19.637v-0.16c-0.011-0.096 0-0.213 0.021-0.352 0.053-0.384 0.203-0.747 0.448-1.088 0.139-0.171 0.235-0.288 0.288-0.331 0.011-0.021 0.021-0.043 0.043-0.064l0.043-0.043c0.032-0.011 0.075-0.053 0.128-0.107 0.021-0.021 0.053-0.053 0.085-0.085s0.064-0.043 0.075-0.064c0.053-0.053 0.107-0.085 0.149-0.107l0.181-0.117c0.149-0.096 0.331-0.149 0.533-0.149h0.032c0.107 0 0.203 0.011 0.277 0.032 0.032 0.011 0.075 0.032 0.139 0.075v0.011c0.149 0.064 0.277 0.171 0.363 0.309s0.139 0.288 0.139 0.448c0 0.181-0.053 0.331-0.149 0.448-0.064 0.096-0.149 0.181-0.235 0.245-0.021 0.011-0.043 0.021-0.064 0.032s-0.043 0.021-0.043 0.021l-0.064 0.043c-0.043 0.032-0.075 0.064-0.107 0.085s-0.064 0.064-0.117 0.117c-0.043 0.053-0.085 0.096-0.117 0.149-0.032 0.043-0.064 0.107-0.096 0.16-0.032 0.064-0.053 0.128-0.053 0.181v0.16c0.043 0.16 0.085 0.288 0.117 0.384 0.075 0.149 0.192 0.299 0.363 0.469 0.011 0.021 0.096 0.107 0.256 0.267 0.917 0.832 1.355 1.728 1.291 2.667-0.021 0.32-0.096 0.629-0.224 0.928s-0.277 0.544-0.459 0.747c-0.171 0.203-0.309 0.352-0.416 0.459-0.107 0.096-0.192 0.171-0.267 0.224-0.011 0.011-0.032 0.021-0.064 0.043s-0.064 0.043-0.075 0.043c-0.085 0.043-0.16 0.064-0.235 0.075-0.096 0.011-0.16 0.021-0.213 0.021-0.32 0-0.576-0.107-0.757-0.32-0.149-0.181-0.213-0.395-0.192-0.629s0.139-0.427 0.352-0.565l0.011-0.032c0.011-0.011 0.032-0.032 0.053-0.043 0.021-0.021 0.043-0.043 0.075-0.064s0.064-0.053 0.085-0.085c0.032-0.032 0.064-0.075 0.085-0.107 0.032-0.043 0.064-0.085 0.085-0.128 0.032-0.043 0.064-0.096 0.085-0.149 0.032-0.053 0.053-0.107 0.075-0.16s0.032-0.107 0.053-0.171c0.011-0.064 0.021-0.128 0.021-0.181 0.021-0.213-0.032-0.427-0.16-0.64-0.053-0.117-0.128-0.235-0.235-0.352-0.075-0.085-0.128-0.139-0.16-0.171-0.096-0.117-0.149-0.181-0.16-0.192-0.021-0.011-0.043-0.032-0.075-0.064s-0.053-0.043-0.064-0.053c-0.16-0.149-0.277-0.277-0.363-0.384-0.128-0.171-0.224-0.277-0.256-0.341-0.203-0.277-0.341-0.555-0.416-0.832-0.043-0.149-0.075-0.267-0.085-0.341 0-0.021-0.011-0.053-0.021-0.085s-0.011-0.053-0.011-0.085zM14.485 19.285c0-0.064 0-0.107 0.011-0.149 0.021-0.235 0.096-0.459 0.213-0.683s0.235-0.416 0.373-0.565c0.139-0.149 0.267-0.288 0.405-0.405s0.245-0.203 0.331-0.267l0.128-0.075c0.16-0.096 0.341-0.149 0.533-0.149 0.117 0 0.224 0.011 0.32 0.032 0.011 0 0.021 0.011 0.053 0.021 0.032 0.021 0.053 0.032 0.064 0.043 0.011 0 0.021 0 0.032 0.011 0.011 0 0.032 0.021 0.075 0.053 0.213 0.128 0.341 0.32 0.405 0.576 0 0.021 0 0.043 0 0.075 0 0.021 0 0.043 0 0.053 0 0.032-0.011 0.075-0.021 0.128s-0.021 0.085-0.021 0.096c-0.075 0.245-0.224 0.416-0.448 0.533-0.352 0.235-0.544 0.48-0.565 0.736-0.011 0.085-0.011 0.16 0 0.235 0.021 0.128 0.085 0.267 0.181 0.416 0.117 0.171 0.203 0.288 0.256 0.341 0.171 0.171 0.267 0.267 0.299 0.288 0.128 0.117 0.299 0.299 0.501 0.544 0.576 0.693 0.843 1.408 0.789 2.133-0.021 0.32-0.096 0.629-0.224 0.928s-0.277 0.544-0.459 0.747c-0.171 0.192-0.32 0.352-0.427 0.459-0.117 0.107-0.203 0.181-0.267 0.224l-0.128 0.085c-0.117 0.043-0.181 0.064-0.224 0.075-0.117 0.011-0.192 0.021-0.213 0.021h-0.032c-0.085 0-0.149-0.011-0.203-0.021-0.021 0-0.053 0-0.085-0.011s-0.064-0.011-0.075-0.011c-0.011 0-0.021 0-0.032-0.011s-0.021-0.011-0.043-0.021c-0.011-0.011-0.021-0.011-0.032-0.011-0.16-0.117-0.256-0.181-0.277-0.224-0.171-0.192-0.235-0.405-0.203-0.64s0.149-0.416 0.363-0.565l0.032-0.043c0.021-0.021 0.053-0.053 0.096-0.085l0.128-0.128 0.139-0.171 0.128-0.203 0.096-0.235 0.043-0.256c0.011-0.427-0.235-0.875-0.736-1.355-0.203-0.181-0.352-0.331-0.469-0.459-0.587-0.736-0.853-1.429-0.811-2.112zM15.061 7.381v-2.208c0-0.256 0.096-0.48 0.277-0.661s0.405-0.267 0.651-0.267c0.256 0 0.48 0.085 0.661 0.267s0.267 0.405 0.267 0.661v2.208c0 0.256-0.085 0.459-0.267 0.629s-0.395 0.245-0.651 0.245c-0.256 0-0.469-0.085-0.651-0.245-0.192-0.171-0.288-0.373-0.288-0.629zM18.645 19.125c0.021-0.235 0.096-0.459 0.213-0.683s0.235-0.416 0.373-0.565c0.139-0.149 0.267-0.288 0.405-0.405 0.128-0.117 0.235-0.203 0.32-0.267l0.139-0.075c0.021-0.021 0.064-0.043 0.107-0.085 0.117-0.043 0.256-0.075 0.405-0.075 0.363 0 0.629 0.139 0.821 0.405 0.053 0.075 0.085 0.149 0.107 0.245 0.011 0.021 0.021 0.053 0.021 0.085v0.117c0 0.331-0.16 0.587-0.48 0.747-0.341 0.224-0.523 0.469-0.555 0.736-0.043 0.363 0.203 0.789 0.725 1.28 0.939 0.821 1.365 1.717 1.312 2.667-0.021 0.32-0.096 0.629-0.224 0.928s-0.288 0.544-0.459 0.747c-0.181 0.203-0.32 0.352-0.416 0.459s-0.192 0.171-0.267 0.224c-0.171 0.107-0.32 0.16-0.437 0.171-0.032 0.011-0.085 0.011-0.16 0.011-0.32 0-0.565-0.107-0.736-0.32-0.16-0.181-0.224-0.395-0.203-0.629s0.139-0.427 0.341-0.565c0.032-0.011 0.096-0.064 0.192-0.149s0.192-0.224 0.309-0.405c0.107-0.192 0.171-0.373 0.181-0.565 0.021-0.427-0.235-0.875-0.747-1.355-0.437-0.384-0.779-0.8-1.003-1.237-0.256-0.448-0.352-0.939-0.288-1.44zM21.088 9.824c0-0.267 0.085-0.48 0.245-0.64l1.557-1.579c0.192-0.181 0.405-0.267 0.651-0.267 0.256 0 0.469 0.096 0.651 0.277s0.277 0.405 0.277 0.651c0 0.267-0.096 0.491-0.277 0.661l-1.579 1.536c-0.192 0.181-0.405 0.267-0.651 0.267s-0.459-0.085-0.619-0.267c-0.171-0.171-0.256-0.395-0.256-0.64zM23.541 15.744c0-0.235 0.096-0.448 0.277-0.651 0.171-0.181 0.373-0.267 0.619-0.267h2.197c0.256 0 0.48 0.096 0.661 0.277s0.288 0.395 0.288 0.64c0 0.256-0.096 0.48-0.277 0.661-0.192 0.181-0.405 0.277-0.672 0.277h-2.197c-0.256 0-0.48-0.085-0.64-0.267-0.171-0.181-0.256-0.405-0.256-0.672z"></path>
</svg>
