<!-- Generated by IcoMoon.io -->
<svg version="1.1" xmlns="http://www.w3.org/2000/svg" width="32" height="32" viewBox="0 0 32 32">
<title>humidity</title>
<path d="M8.064 18.336c0-0.939 0.256-2.016 0.768-3.232s1.173-2.4 1.984-3.531c1.664-2.197 3.115-3.861 4.331-4.981l0.8-0.768c0.267 0.277 0.565 0.533 0.885 0.768 0.437 0.448 1.109 1.184 2.005 2.229s1.675 1.973 2.315 2.827c0.757 1.077 1.408 2.24 1.931 3.467s0.789 2.304 0.789 3.232c0 1.067-0.203 2.080-0.619 3.051s-0.971 1.813-1.675 2.517c-0.704 0.704-1.547 1.269-2.528 1.685s-2.016 0.629-3.104 0.629c-1.067 0-2.080-0.203-3.051-0.608s-1.813-0.949-2.517-1.653c-0.704-0.693-1.269-1.536-1.685-2.507s-0.629-2.016-0.629-3.125zM10.475 15.211c0 0.885 0.181 1.589 0.555 2.123 0.373 0.523 0.939 0.789 1.696 0.789 0.768 0 1.333-0.267 1.717-0.789 0.373-0.523 0.565-1.227 0.576-2.123-0.011-0.896-0.203-1.6-0.576-2.133-0.373-0.523-0.949-0.789-1.717-0.789-0.757 0-1.323 0.267-1.696 0.789-0.373 0.533-0.555 1.237-0.555 2.133zM12.149 15.211c0-0.16 0-0.288 0-0.373s0.011-0.203 0.021-0.352c0.011-0.149 0.021-0.267 0.053-0.341s0.053-0.171 0.096-0.256c0.043-0.085 0.096-0.16 0.16-0.192 0.075-0.043 0.149-0.064 0.245-0.064 0.149 0 0.267 0.043 0.352 0.128s0.149 0.224 0.181 0.405c0.032 0.192 0.053 0.341 0.064 0.48s0.011 0.32 0.011 0.555c0 0.245 0 0.427-0.011 0.555s-0.032 0.288-0.064 0.48c-0.032 0.181-0.096 0.32-0.181 0.405s-0.203 0.128-0.352 0.128c-0.096 0-0.171-0.021-0.245-0.064s-0.128-0.107-0.16-0.192c-0.043-0.085-0.075-0.181-0.096-0.256-0.021-0.085-0.043-0.203-0.053-0.341-0.011-0.149-0.021-0.267-0.021-0.341s0-0.203 0-0.363zM12.779 23.477h1.408l5.323-11.456h-1.44l-5.291 11.456zM17.365 20.288c0.011 0.896 0.213 1.6 0.587 2.133 0.373 0.523 0.949 0.789 1.707 0.789 0.768 0 1.333-0.267 1.707-0.789s0.555-1.237 0.565-2.133c-0.011-0.896-0.192-1.6-0.565-2.123s-0.939-0.789-1.707-0.789c-0.757 0-1.333 0.267-1.707 0.789-0.384 0.523-0.576 1.227-0.587 2.123zM19.040 20.288c0-0.245 0-0.427 0.011-0.555s0.032-0.288 0.064-0.48 0.096-0.32 0.181-0.405 0.203-0.128 0.352-0.128c0.096 0 0.181 0.021 0.256 0.064s0.128 0.107 0.171 0.203c0.043 0.096 0.075 0.181 0.107 0.256s0.043 0.192 0.053 0.341l0.011 0.341v0.363c0 0.171 0 0.299 0 0.373l-0.011 0.341-0.053 0.341-0.107 0.256-0.171 0.203-0.256 0.064c-0.149 0-0.267-0.043-0.352-0.128s-0.149-0.224-0.181-0.405c-0.032-0.192-0.053-0.352-0.064-0.48s-0.011-0.32-0.011-0.565z"></path>
</svg>
