<!-- Generated by IcoMoon.io -->
<svg version="1.1" xmlns="http://www.w3.org/2000/svg" width="32" height="32" viewBox="0 0 32 32">
<title>hurricane</title>
<path d="M11.819 15.499v-0.021c-0.011-0.085 0-0.213 0-0.395 0.011-0.171 0.043-0.459 0.107-0.864s0.149-0.811 0.267-1.227 0.299-0.896 0.544-1.44c0.245-0.544 0.533-1.056 0.875-1.536s0.789-0.981 1.344-1.483c0.555-0.501 1.173-0.949 1.845-1.323 0.171-0.096 0.341-0.117 0.523-0.064s0.32 0.16 0.405 0.331c0.096 0.171 0.117 0.341 0.064 0.533-0.053 0.181-0.16 0.331-0.32 0.416-1.397 0.768-2.475 1.845-3.232 3.253 0.576-0.267 1.152-0.405 1.739-0.405 1.141 0 2.133 0.405 2.955 1.227s1.227 1.803 1.227 2.944c0 0.085 0 0.171 0 0.256s-0.021 0.267-0.043 0.555c-0.021 0.288-0.064 0.555-0.117 0.821s-0.139 0.597-0.245 0.992c-0.117 0.395-0.245 0.779-0.405 1.131s-0.363 0.747-0.619 1.173-0.544 0.821-0.864 1.195c-0.32 0.373-0.704 0.747-1.152 1.12-0.459 0.373-0.949 0.715-1.483 1.013-0.096 0.064-0.213 0.085-0.331 0.085-0.277 0-0.48-0.128-0.619-0.373-0.096-0.171-0.117-0.341-0.064-0.523s0.16-0.32 0.331-0.405c1.429-0.8 2.517-1.899 3.264-3.285-0.576 0.277-1.184 0.405-1.824 0.405-0.736 0-1.429-0.181-2.069-0.555-0.64-0.363-1.141-0.864-1.525-1.504-0.373-0.619-0.565-1.301-0.576-2.048zM13.632 15.445c0 0.651 0.235 1.205 0.693 1.675 0.459 0.459 1.013 0.693 1.664 0.693 0.608 0 1.131-0.203 1.589-0.608 0.448-0.405 0.704-0.907 0.779-1.504l0.011-0.245c0-0.021 0-0.043 0.011-0.053-0.011-0.64-0.245-1.184-0.704-1.621-0.459-0.448-1.024-0.661-1.675-0.661-0.597 0-1.109 0.192-1.557 0.576s-0.704 0.875-0.779 1.451l-0.021 0.267v0.032z"></path>
</svg>
