<!-- Generated by IcoMoon.io -->
<svg version="1.1" xmlns="http://www.w3.org/2000/svg" width="32" height="32" viewBox="0 0 32 32">
<title>lightning</title>
<path d="M8.491 26.144h0.416l7.339-10.859c0.096-0.192 0.043-0.288-0.16-0.288h-3.029l3.189-5.813c0.096-0.192 0.021-0.288-0.213-0.288h-4.064c-0.117 0-0.213 0.064-0.309 0.192l-2.965 7.893c-0.021 0.192 0.043 0.288 0.203 0.288h2.933l-3.339 8.875zM17.557 19.392h0.288l5.568-8.181c0.053-0.085 0.064-0.16 0.043-0.213s-0.085-0.075-0.181-0.075h-2.24l2.325-4.299c0.128-0.213 0.064-0.32-0.192-0.32h-2.923c-0.139 0-0.245 0.064-0.32 0.203l-2.219 5.845c-0.032 0.096-0.032 0.171 0.011 0.224s0.107 0.075 0.203 0.075h2.176l-2.539 6.741z"></path>
</svg>
