<!-- Generated by IcoMoon.io -->
<svg version="1.1" xmlns="http://www.w3.org/2000/svg" width="32" height="32" viewBox="0 0 32 32">
<title>lunar-eclipse</title>
<path d="M10.453 15.595c0-0.992 0.245-1.92 0.747-2.773s1.173-1.536 2.027-2.037 1.781-0.747 2.773-0.747c1.003 0 1.931 0.245 2.784 0.747s1.525 1.173 2.027 2.027c0.501 0.853 0.747 1.781 0.747 2.784s-0.245 1.931-0.747 2.784c-0.501 0.853-1.173 1.525-2.027 2.027s-1.781 0.747-2.784 0.747-1.92-0.245-2.773-0.747c-0.853-0.501-1.525-1.173-2.027-2.027s-0.747-1.781-0.747-2.784zM15.2 11.968c0.928 0.117 1.707 0.523 2.336 1.227s0.949 1.536 0.949 2.485c0 0.885-0.277 1.664-0.832 2.347s-1.259 1.109-2.112 1.291c0.213 0.021 0.363 0.043 0.459 0.043 1.045 0 1.931-0.373 2.667-1.109s1.109-1.621 1.109-2.667c0-1.024-0.373-1.899-1.109-2.635-0.736-0.725-1.632-1.088-2.667-1.088-0.277 0.021-0.544 0.053-0.8 0.107z"></path>
</svg>
