<!-- Generated by IcoMoon.io -->
<svg version="1.1" xmlns="http://www.w3.org/2000/svg" width="32" height="32" viewBox="0 0 32 32">
<title>meteor</title>
<path d="M7.563 20.683c0-0.139 0-0.245 0.011-0.309v-0.085c0-0.021 0-0.043 0-0.064s0-0.032 0-0.053 0-0.032 0-0.053 0-0.032 0-0.043v-0.021c0-0.032 0.011-0.075 0.021-0.128s0.021-0.085 0.021-0.096v-0.032c0-0.011 0-0.032 0-0.053s0-0.032 0-0.043l0.085-0.395c0-0.011 0-0.011 0.011-0.021v-0.021l0.043-0.149c0.011-0.011 0.011-0.011 0.011-0.021 0.011-0.011 0.011-0.021 0.011-0.032v-0.032c0.043-0.128 0.075-0.235 0.107-0.299 0-0.011 0.011-0.021 0.021-0.032s0.021-0.064 0.053-0.16c0.181-0.405 0.405-0.789 0.672-1.152l0.064-0.075c0.011-0.011 0.021-0.021 0.032-0.043s0.021-0.032 0.032-0.043c0.011-0.011 0.032-0.032 0.075-0.064 0.011-0.021 0.021-0.043 0.043-0.064s0.032-0.043 0.043-0.064c0.043-0.021 0.064-0.053 0.075-0.075 0.011-0.011 0.032-0.021 0.075-0.064l0.075-0.075 8.107-8.885-0.405 2.347 7.275-7.776-4.459 8.683 4.459-3.371-4.043 8.107 2.891-1.995-4.992 8.885c0 0.011-0.011 0.021-0.021 0.043s-0.021 0.043-0.032 0.053c-0.011 0.011-0.011 0.021-0.021 0.043s-0.011 0.032-0.021 0.053c-0.011 0.011-0.011 0.021-0.021 0.053-0.011 0.021-0.021 0.043-0.021 0.053-0.459 0.896-1.12 1.611-1.984 2.155s-1.813 0.811-2.848 0.811c-0.981 0-1.888-0.245-2.72-0.725-0.832-0.491-1.493-1.141-1.984-1.984s-0.736-1.707-0.736-2.688zM8.843 20.683c0 1.152 0.405 2.123 1.216 2.933s1.792 1.216 2.933 1.216c0.875 0 1.664-0.256 2.368-0.757s1.205-1.163 1.504-1.963c0.181-0.459 0.267-0.928 0.267-1.429 0-1.141-0.405-2.123-1.205-2.933-0.811-0.811-1.781-1.205-2.933-1.205-1.067 0-1.995 0.352-2.773 1.067-0.437 0.384-0.768 0.832-1.013 1.365-0.245 0.544-0.363 1.109-0.363 1.707z"></path>
</svg>
