<?xml version="1.0" encoding="UTF-8" standalone="no"?>
<!DOCTYPE svg PUBLIC "-//W3C//DTD SVG 1.1//EN" "http://www.w3.org/Graphics/SVG/1.1/DTD/svg11.dtd">
<svg width="100%" height="100%" viewBox="0 0 1394 1394" version="1.1" xmlns="http://www.w3.org/2000/svg" xmlns:xlink="http://www.w3.org/1999/xlink" xml:space="preserve" xmlns:serif="http://www.serif.com/" style="fill-rule:evenodd;clip-rule:evenodd;stroke-linejoin:round;stroke-miterlimit:2;">
    <g transform="matrix(4.16667,0,0,4.16667,-10685,-11890.5)">
        <g>
            <path d="M2898.75,2993.31C2887.49,2993.31 2881.61,2986.96 2876.87,2981.86C2872.42,2977.06 2868.91,2973.26 2861.55,2973.26C2854.2,2973.26 2850.67,2977.06 2846.23,2981.87C2841.47,2986.96 2835.6,2993.31 2824.35,2993.31C2813.1,2993.31 2807.24,2986.96 2802.51,2981.86C2798.05,2977.06 2794.54,2973.26 2787.2,2973.26C2779.86,2973.26 2776.35,2977.06 2771.9,2981.86C2767.18,2986.96 2761.3,2993.31 2750.06,2993.31C2738.83,2993.31 2732.95,2986.96 2728.22,2981.86C2723.77,2977.06 2720.25,2973.26 2712.92,2973.26C2705.6,2973.26 2702.09,2977.06 2697.66,2981.86C2692.94,2986.96 2687.06,2993.31 2675.85,2993.31C2664.63,2993.31 2658.76,2986.95 2654.04,2981.86C2649.61,2977.06 2646.12,2973.26 2638.81,2973.26C2631.47,2973.26 2627.96,2977.06 2623.51,2981.87C2618.78,2986.96 2612.93,2993.31 2601.71,2993.31C2590.49,2993.31 2584.61,2986.96 2579.88,2981.86C2575.44,2977.06 2571.93,2973.26 2564.6,2973.26L2564.6,2964.35C2575.81,2964.35 2581.69,2970.71 2586.42,2975.83C2590.85,2980.61 2594.37,2984.41 2601.71,2984.41C2609.02,2984.41 2612.53,2980.61 2616.98,2975.83C2621.7,2970.71 2627.58,2964.35 2638.81,2964.35C2650.01,2964.35 2655.87,2970.71 2660.58,2975.81C2665.02,2980.61 2668.53,2984.41 2675.85,2984.41C2683.17,2984.41 2686.68,2980.61 2691.11,2975.83C2695.83,2970.71 2701.71,2964.35 2712.92,2964.35C2724.15,2964.35 2730.03,2970.71 2734.76,2975.83C2739.21,2980.61 2742.72,2984.41 2750.06,2984.41C2757.4,2984.41 2760.91,2980.61 2765.36,2975.83C2770.09,2970.71 2775.97,2964.35 2787.2,2964.35C2798.43,2964.35 2804.31,2970.71 2809.05,2975.83C2813.5,2980.61 2817.01,2984.41 2824.35,2984.41C2831.69,2984.41 2835.23,2980.61 2839.68,2975.81C2844.43,2970.71 2850.3,2964.35 2861.55,2964.35C2872.78,2964.35 2878.68,2970.71 2883.41,2975.81C2887.86,2980.61 2891.39,2984.41 2898.75,2984.41L2898.75,2993.31Z" style="fill-rule:nonzero;"/>
            <path d="M2898.75,3033.61C2887.49,3033.61 2881.61,3027.24 2876.87,3022.14C2872.42,3017.32 2868.91,3013.54 2861.55,3013.54C2854.2,3013.54 2850.67,3017.32 2846.23,3022.14C2841.48,3027.26 2835.6,3033.61 2824.35,3033.61C2813.1,3033.61 2807.24,3027.26 2802.51,3022.14C2798.05,3017.32 2794.54,3013.54 2787.2,3013.54C2779.86,3013.54 2776.35,3017.32 2771.9,3022.14C2767.18,3027.26 2761.3,3033.61 2750.06,3033.61C2738.83,3033.61 2732.95,3027.26 2728.22,3022.14C2723.77,3017.32 2720.25,3013.54 2712.92,3013.54C2705.6,3013.54 2702.09,3017.32 2697.66,3022.14C2692.94,3027.24 2687.06,3033.61 2675.85,3033.61C2664.63,3033.61 2658.76,3027.24 2654.04,3022.12C2649.61,3017.32 2646.12,3013.54 2638.81,3013.54C2631.47,3013.54 2627.96,3017.35 2623.51,3022.14C2618.78,3027.26 2612.93,3033.61 2601.71,3033.61C2590.49,3033.61 2584.61,3027.24 2579.88,3022.14C2575.44,3017.32 2571.93,3013.54 2564.6,3013.54L2564.6,3004.64C2575.81,3004.64 2581.69,3011 2586.42,3016.09C2590.87,3020.91 2594.37,3024.71 2601.71,3024.71C2609.02,3024.71 2612.53,3020.91 2616.98,3016.11C2621.7,3011 2627.58,3004.64 2638.81,3004.64C2650.01,3004.64 2655.87,3010.97 2660.58,3016.09C2665.02,3020.91 2668.53,3024.71 2675.85,3024.71C2683.17,3024.71 2686.68,3020.91 2691.11,3016.09C2695.83,3011 2701.71,3004.64 2712.92,3004.64C2724.15,3004.64 2730.03,3010.97 2734.76,3016.09C2739.21,3020.91 2742.72,3024.71 2750.06,3024.71C2757.4,3024.71 2760.91,3020.91 2765.36,3016.09C2770.09,3010.97 2775.97,3004.64 2787.2,3004.64C2798.43,3004.64 2804.31,3010.97 2809.05,3016.09C2813.5,3020.91 2817.01,3024.71 2824.35,3024.71C2831.69,3024.71 2835.23,3020.91 2839.68,3016.09C2844.41,3010.97 2850.3,3004.64 2861.55,3004.64C2872.78,3004.64 2878.68,3010.97 2883.41,3016.09C2887.86,3020.89 2891.39,3024.71 2898.75,3024.71L2898.75,3033.61Z" style="fill-rule:nonzero;"/>
            <path d="M2898.75,3077.57C2887.49,3077.57 2881.61,3071.22 2876.87,3066.11C2872.42,3061.31 2868.91,3057.51 2861.55,3057.51C2854.2,3057.51 2850.67,3061.31 2846.23,3066.13C2841.47,3071.22 2835.6,3077.57 2824.35,3077.57C2813.1,3077.57 2807.24,3071.22 2802.51,3066.11C2798.05,3061.31 2794.54,3057.51 2787.2,3057.51C2779.86,3057.51 2776.35,3061.31 2771.9,3066.11C2767.18,3071.22 2761.3,3077.57 2750.06,3077.57C2738.83,3077.57 2732.95,3071.22 2728.22,3066.11C2723.77,3061.31 2720.25,3057.51 2712.92,3057.51C2705.6,3057.51 2702.09,3061.31 2697.66,3066.11C2692.94,3071.22 2687.06,3077.57 2675.85,3077.57C2664.63,3077.57 2658.76,3071.19 2654.04,3066.11C2649.61,3061.31 2646.12,3057.51 2638.81,3057.51C2631.47,3057.51 2627.96,3061.31 2623.51,3066.13C2618.78,3071.22 2612.93,3077.57 2601.71,3077.57C2590.49,3077.57 2584.61,3071.22 2579.88,3066.11C2575.44,3061.31 2571.93,3057.51 2564.6,3057.51L2564.6,3048.61C2575.81,3048.61 2581.69,3054.96 2586.42,3060.06C2590.85,3064.88 2594.37,3068.66 2601.71,3068.66C2609.02,3068.66 2612.53,3064.88 2616.98,3060.06C2621.7,3054.96 2627.58,3048.61 2638.81,3048.61C2650.01,3048.61 2655.87,3054.96 2660.58,3060.05C2665.02,3064.88 2668.53,3068.66 2675.85,3068.66C2683.17,3068.66 2686.68,3064.88 2691.11,3060.06C2695.83,3054.96 2701.71,3048.61 2712.92,3048.61C2724.15,3048.61 2730.03,3054.96 2734.76,3060.06C2739.21,3064.88 2742.72,3068.66 2750.06,3068.66C2757.4,3068.66 2760.91,3064.88 2765.36,3060.06C2770.09,3054.96 2775.97,3048.61 2787.2,3048.61C2798.43,3048.61 2804.31,3054.96 2809.05,3060.06C2813.5,3064.88 2817.01,3068.66 2824.35,3068.66C2831.69,3068.66 2835.23,3064.88 2839.68,3060.05C2844.43,3054.96 2850.3,3048.61 2861.55,3048.61C2872.78,3048.61 2878.68,3054.96 2883.41,3060.05C2887.86,3064.88 2891.39,3068.66 2898.75,3068.66L2898.75,3077.57Z" style="fill-rule:nonzero;"/>
        </g>
    </g>
</svg>
