<!-- Generated by IcoMoon.io -->
<svg version="1.1" xmlns="http://www.w3.org/2000/svg" width="32" height="32" viewBox="0 0 32 32">
<title>moon-first-quarter</title>
<path d="M3.989 15.403c0-1.621 0.32-3.179 0.949-4.661s1.493-2.752 2.56-3.829 2.347-1.931 3.829-2.56 3.029-0.949 4.661-0.949 3.179 0.32 4.661 0.949 2.763 1.493 3.84 2.56 1.931 2.347 2.56 3.829 0.949 3.029 0.949 4.661-0.32 3.179-0.949 4.661-1.493 2.763-2.56 3.84-2.347 1.931-3.84 2.56-3.040 0.949-4.661 0.949-3.179-0.32-4.661-0.949-2.752-1.493-3.829-2.56-1.931-2.347-2.56-3.84-0.949-3.029-0.949-4.661zM15.787 26.144h0.203c1.461 0 2.848-0.288 4.171-0.853s2.464-1.333 3.424-2.293 1.717-2.101 2.293-3.424 0.853-2.709 0.853-4.171c0-1.451-0.288-2.837-0.853-4.16s-1.333-2.464-2.293-3.424-2.101-1.717-3.424-2.293-2.709-0.853-4.171-0.853h-0.203v21.472z"></path>
</svg>
