<?xml version="1.0" encoding="UTF-8" standalone="no"?>
<!DOCTYPE svg PUBLIC "-//W3C//DTD SVG 1.1//EN" "http://www.w3.org/Graphics/SVG/1.1/DTD/svg11.dtd">
<svg width="100%" height="100%" viewBox="0 0 1002 1002" version="1.1" xmlns="http://www.w3.org/2000/svg" xmlns:xlink="http://www.w3.org/1999/xlink" xml:space="preserve" xmlns:serif="http://www.serif.com/" style="fill-rule:evenodd;clip-rule:evenodd;stroke-linejoin:round;stroke-miterlimit:2;">
    <g transform="matrix(4.16667,0,0,4.16667,-2858,-11937)">
        <g>
            <path d="M755.51,3062.68L755.403,3064.68L755.357,3062.66C755.357,3062.66 739.586,3062.46 726.777,3062.46C720.555,3062.46 715.017,3062.51 711.386,3062.68C702.497,3062.68 694.992,3056.07 694.976,3048.26C694.961,3038.75 700.036,3035.74 710.026,3033.26L713.452,3032L713.308,3027.15C713.239,3026.65 713.148,3026.14 713.148,3025.6C713.148,3015 721.786,3006.37 732.407,3006.37C735.59,3006.37 738.735,3007.23 741.736,3008.89L748.49,3012.69L748.353,3004.95C748.141,2992.22 758.26,2981.74 771.395,2981.08L772.679,2981.05C785.594,2981.05 796.192,2990.82 796.807,3003.36C796.837,3003.78 796.807,3004.19 796.739,3005.29L796.261,3016.85L804.367,3008.62C808.021,3004.89 812.891,3002.84 818.079,3002.84C828.685,3002.84 837.315,3011.49 837.315,3022.09C837.315,3023.41 837.163,3024.72 836.92,3025.95L836.054,3030.4L840.536,3031.19C840.635,3031.21 840.726,3031.25 840.833,3031.27C831.678,3040.33 820.381,3047.5 807.292,3051.72C803.401,3052.98 799.542,3053.83 795.637,3054.5C801.16,3058.04 807.094,3060.87 813.278,3063.05C803.713,3062.96 795.28,3062.81 795.219,3062.81C795.219,3062.81 757.439,3062.75 755.51,3062.68ZM922.197,2956.91C909.031,2916.13 867.962,2892.31 826.96,2899.45C842.998,2909.66 855.685,2925.32 861.99,2944.85C871.084,2973.04 864.626,3002.48 847.427,3024.01C847.001,3023.83 846.621,3023.63 846.188,3023.48C846.203,3023 846.219,3022.56 846.219,3022.09C846.219,3006.56 833.592,2993.94 818.079,2993.94C813.407,2993.94 808.917,2995.06 804.914,2997.2C801.563,2982.79 788.367,2972.16 772.679,2972.16L770.947,2972.18C755.282,2972.97 742.747,2984.06 740.011,2998.56C737.52,2997.84 734.982,2997.46 732.407,2997.46C716.886,2997.46 704.259,3010.07 704.252,3025.59C696.708,3027.82 686.057,3032.79 686.072,3048.26C686.087,3061.11 697.438,3071.58 711.386,3071.58L712.723,3071.55C720.989,3071.11 755.244,3071.56 755.251,3071.56L755.251,3070.96C755.343,3070.96 755.426,3070.97 755.51,3070.99L755.547,3071.56L755.525,3070.99C760.736,3071.66 771.745,3071.66 795.136,3071.72C795.136,3071.72 813.346,3072.04 826.74,3072.04C831.952,3072.04 836.441,3071.98 838.895,3071.85C843.484,3071.63 847.807,3069.95 851.575,3067.18C856.877,3066.54 862.195,3065.49 867.476,3063.79C912.085,3049.4 936.593,3001.53 922.197,2956.91Z" style="fill-rule:nonzero;"/>
        </g>
    </g>
</svg>
