<!-- Generated by IcoMoon.io -->
<svg version="1.1" xmlns="http://www.w3.org/2000/svg" width="32" height="32" viewBox="0 0 32 32">
<title>moon-waning-crescent</title>
<path d="M3.989 15.403c0-1.621 0.32-3.179 0.949-4.661s1.493-2.752 2.56-3.829 2.347-1.931 3.829-2.56 3.029-0.949 4.661-0.949 3.179 0.32 4.661 0.949 2.763 1.493 3.84 2.56 1.931 2.347 2.56 3.829 0.949 3.029 0.949 4.661-0.32 3.179-0.949 4.661-1.493 2.763-2.56 3.84-2.347 1.931-3.84 2.56-3.040 0.949-4.661 0.949-3.179-0.32-4.661-0.949-2.752-1.493-3.829-2.56-1.931-2.347-2.56-3.84-0.949-3.029-0.949-4.661zM5.269 15.403c0 1.419 0.267 2.773 0.8 4.064s1.259 2.411 2.165 3.36 1.995 1.717 3.253 2.315 2.592 0.928 3.989 1.003c-1.323-1.269-2.251-2.805-2.784-4.597s-0.8-3.84-0.8-6.144c0-2.059 0.331-4.032 0.981-5.909s1.568-3.477 2.731-4.8c-1.888 0.075-3.616 0.597-5.205 1.568s-2.837 2.272-3.755 3.883-1.376 3.381-1.376 5.259z"></path>
</svg>
