<!-- Generated by IcoMoon.io -->
<svg version="1.1" xmlns="http://www.w3.org/2000/svg" width="32" height="32" viewBox="0 0 32 32">
<title>moon-full</title>
<path d="M3.989 15.403c0-1.632 0.32-3.2 0.949-4.683s1.493-2.763 2.56-3.84 2.347-1.931 3.84-2.56 3.040-0.949 4.661-0.949c1.632 0 3.2 0.32 4.683 0.949s2.763 1.493 3.84 2.56 1.931 2.347 2.56 3.84 0.949 3.040 0.949 4.683c0 1.621-0.32 3.179-0.949 4.661s-1.493 2.763-2.56 3.84-2.347 1.931-3.84 2.56-3.040 0.949-4.683 0.949c-1.621 0-3.179-0.32-4.661-0.949s-2.763-1.493-3.84-2.56-1.931-2.347-2.56-3.84-0.949-3.029-0.949-4.661zM5.269 15.403c0 1.451 0.288 2.837 0.853 4.16s1.333 2.475 2.293 3.435 2.101 1.717 3.435 2.293 2.72 0.853 4.16 0.853c1.461 0 2.848-0.288 4.171-0.853s2.464-1.333 3.435-2.293 1.728-2.101 2.293-3.435 0.853-2.72 0.853-4.16c0-1.941-0.48-3.733-1.44-5.387s-2.272-2.955-3.925-3.925-3.445-1.44-5.387-1.44c-1.451 0-2.837 0.288-4.16 0.853s-2.475 1.333-3.435 2.304-1.717 2.112-2.293 3.435-0.853 2.709-0.853 4.16z"></path>
</svg>
