<!-- Generated by IcoMoon.io -->
<svg version="1.1" xmlns="http://www.w3.org/2000/svg" width="32" height="32" viewBox="0 0 32 32">
<title>moon-waxing-crescent</title>
<path d="M4 15.403c0-1.621 0.32-3.179 0.949-4.661s1.493-2.752 2.56-3.829 2.347-1.931 3.829-2.56 3.040-0.949 4.661-0.949 3.179 0.32 4.661 0.949 2.763 1.493 3.84 2.56 1.931 2.347 2.56 3.829 0.949 3.029 0.949 4.661-0.32 3.179-0.949 4.661-1.493 2.763-2.56 3.84-2.347 1.931-3.84 2.56-3.040 0.949-4.661 0.949-3.179-0.32-4.661-0.949-2.752-1.493-3.829-2.56-1.931-2.347-2.56-3.84-0.949-3.029-0.949-4.661zM16.373 4.683c1.12 1.355 2.037 2.933 2.741 4.736s1.056 3.797 1.056 5.984c0 4.683-1.216 8.267-3.659 10.731 1.397-0.064 2.72-0.395 3.989-0.981s2.347-1.365 3.253-2.325 1.632-2.080 2.176-3.371 0.8-2.645 0.8-4.064c0-1.899-0.459-3.659-1.387-5.269s-2.176-2.912-3.765-3.893-3.317-1.483-5.205-1.547z"></path>
</svg>
