<!-- Generated by IcoMoon.io -->
<svg version="1.1" xmlns="http://www.w3.org/2000/svg" width="32" height="32" viewBox="0 0 32 32">
<title>moon-waxing-gibbous</title>
<path d="M3.989 15.403c0-2.165 0.533-4.171 1.611-6.016s2.528-3.307 4.373-4.373 3.851-1.611 6.016-1.611c1.621 0 3.179 0.32 4.661 0.949s2.763 1.493 3.84 2.56 1.931 2.347 2.56 3.829 0.949 3.029 0.949 4.661-0.32 3.179-0.949 4.661-1.493 2.763-2.56 3.84-2.347 1.931-3.84 2.56-3.040 0.949-4.661 0.949-3.179-0.32-4.661-0.949-2.763-1.493-3.829-2.56-1.92-2.347-2.56-3.84-0.949-3.029-0.949-4.661zM11.243 15.403c0 4.736 1.248 8.299 3.733 10.688 0.075 0 0.181 0 0.32 0.011s0.267 0.021 0.373 0.021 0.213 0.011 0.32 0.011c1.451 0 2.837-0.288 4.16-0.853s2.475-1.333 3.435-2.293 1.717-2.101 2.293-3.424 0.853-2.709 0.853-4.171c0-1.451-0.288-2.837-0.853-4.16s-1.333-2.464-2.293-3.424-2.101-1.717-3.435-2.293-2.72-0.853-4.16-0.853c-0.384 0-0.672 0.011-0.864 0.032-1.152 1.301-2.091 2.869-2.816 4.715s-1.067 3.851-1.067 5.995z"></path>
</svg>
