<!-- Generated by IcoMoon.io -->
<svg version="1.1" xmlns="http://www.w3.org/2000/svg" width="32" height="32" viewBox="0 0 32 32">
<title>rain</title>
<path d="M4.949 18.037c0-1.227 0.384-2.315 1.152-3.275s1.739-1.568 2.912-1.845c0.331-1.451 1.088-2.645 2.251-3.584s2.496-1.397 4-1.397c1.472 0 2.773 0.459 3.925 1.365s1.899 2.080 2.24 3.509h0.341c0.949 0 1.835 0.235 2.645 0.693s1.461 1.099 1.931 1.899c0.469 0.8 0.715 1.685 0.715 2.635 0 0.939-0.224 1.803-0.672 2.603s-1.067 1.44-1.845 1.92c-0.779 0.48-1.632 0.736-2.56 0.757-0.139 0-0.213-0.064-0.213-0.181v-1.419c0-0.128 0.075-0.192 0.213-0.192 0.907-0.043 1.685-0.405 2.325-1.088s0.96-1.483 0.96-2.411-0.352-1.728-1.045-2.411-1.515-1.024-2.464-1.024h-1.717c-0.128 0-0.192-0.064-0.192-0.181l-0.085-0.619c-0.117-1.152-0.619-2.123-1.483-2.891-0.875-0.779-1.877-1.163-3.040-1.163s-2.187 0.384-3.040 1.163c-0.864 0.779-1.344 1.739-1.451 2.891l-0.075 0.565c0 0.128-0.075 0.203-0.213 0.203l-0.565 0.032c-0.885 0.107-1.632 0.491-2.24 1.141s-0.907 1.419-0.907 2.304c0 0.928 0.32 1.728 0.96 2.411s1.419 1.045 2.325 1.088c0.117 0 0.181 0.064 0.181 0.192v1.419c0 0.117-0.064 0.181-0.181 0.181-1.429-0.064-2.635-0.608-3.627-1.632s-1.461-2.24-1.461-3.659zM10.656 25.173c0-0.043 0.011-0.117 0.043-0.213l1.739-6.155c0.064-0.203 0.181-0.363 0.341-0.469s0.331-0.16 0.491-0.16c0.075 0 0.16 0.011 0.256 0.032 0.256 0.043 0.448 0.181 0.576 0.395s0.16 0.448 0.085 0.715l-1.739 6.112c-0.128 0.459-0.427 0.683-0.875 0.683-0.043 0-0.075-0.011-0.117-0.021-0.064-0.021-0.096-0.032-0.107-0.032-0.235-0.064-0.405-0.181-0.523-0.352-0.117-0.181-0.171-0.352-0.171-0.533zM13.451 28.171l2.603-9.355c0.043-0.203 0.149-0.363 0.32-0.469s0.341-0.16 0.523-0.16c0.096 0 0.192 0.011 0.288 0.032 0.235 0.064 0.405 0.203 0.523 0.416s0.139 0.437 0.075 0.683l-2.592 9.365c-0.043 0.181-0.139 0.331-0.309 0.459s-0.341 0.192-0.544 0.192c-0.096 0-0.192-0.021-0.267-0.053-0.213-0.053-0.395-0.192-0.555-0.416-0.117-0.192-0.139-0.416-0.064-0.693zM17.856 25.195c0-0.043 0.011-0.117 0.043-0.245l1.739-6.155c0.064-0.203 0.171-0.363 0.32-0.469 0.16-0.107 0.32-0.16 0.491-0.16 0.085 0 0.181 0.011 0.277 0.032 0.224 0.064 0.384 0.171 0.491 0.331s0.16 0.331 0.16 0.501c0 0.032-0.011 0.085-0.021 0.149s-0.021 0.107-0.021 0.128l-1.739 6.112c-0.043 0.203-0.139 0.373-0.299 0.491s-0.341 0.181-0.544 0.181l-0.256-0.053c-0.213-0.064-0.373-0.171-0.491-0.341-0.096-0.16-0.149-0.331-0.149-0.501z"></path>
</svg>
