<?xml version="1.0" encoding="UTF-8" standalone="no"?>
<!DOCTYPE svg PUBLIC "-//W3C//DTD SVG 1.1//EN" "http://www.w3.org/Graphics/SVG/1.1/DTD/svg11.dtd">
<svg width="100%" height="100%" viewBox="0 0 1494 1712" version="1.1" xmlns="http://www.w3.org/2000/svg" xmlns:xlink="http://www.w3.org/1999/xlink" xml:space="preserve" xmlns:serif="http://www.serif.com/" style="fill-rule:evenodd;clip-rule:evenodd;stroke-linejoin:round;stroke-miterlimit:2;">
    <g transform="matrix(1,0,0,1,-11266,-9269)">
        <g transform="matrix(4.16667,0,0,4.16667,0,0)">
            <path d="M2841.46,2635.42L2842.89,2632.2L2893.04,2519.62L2844.32,2519.5L2885.81,2423.12L2889.8,2423.12L2861.72,2507.01L2914.05,2507.41L2841.46,2635.42Z" style="fill-rule:nonzero;"/>
            <path d="M3028.25,2329.68C3028.39,2328.05 3028.47,2326.43 3028.47,2324.82C3028.47,2294.38 3003.7,2269.6 2973.23,2269.6C2962.8,2269.6 2952.84,2272.49 2944.2,2277.87C2938.83,2246.43 2910.01,2222.89 2876.28,2224.75C2844.17,2226.34 2818.75,2249.84 2814.58,2279.95C2808.8,2277.91 2802.79,2276.86 2796.71,2276.86C2766.28,2276.86 2741.48,2301.63 2741.48,2332.1C2741.48,2332.75 2741.5,2333.42 2741.55,2334.1C2726.13,2338.31 2703.99,2347.21 2704.03,2378.77C2704.06,2402.2 2723.53,2422.33 2750.07,2423.59L2758.21,2411.04C2757.24,2411.07 2756.16,2411.11 2755.39,2411.14L2753.41,2411.18C2733.29,2411.18 2716.89,2396.64 2716.88,2378.77C2716.86,2357.44 2728.48,2350.54 2749.97,2345.19L2754.8,2343.35L2754.94,2338.49L2754.7,2335.88C2754.52,2334.62 2754.35,2333.39 2754.35,2332.1C2754.35,2308.71 2773.35,2289.72 2796.71,2289.72C2803.77,2289.72 2810.69,2291.57 2817.3,2295.3L2827.05,2300.75L2826.85,2289.57C2826.37,2261.84 2848.39,2239.02 2876.92,2237.59L2879.71,2237.53C2907.79,2237.53 2930.8,2258.78 2932.16,2285.97C2932.21,2286.95 2932.16,2287.93 2932.03,2290.42L2931.45,2306.93L2943.05,2295.14C2951.08,2286.95 2961.82,2282.46 2973.23,2282.46C2996.6,2282.46 3015.62,2301.45 3015.62,2324.82C3015.62,2327.72 3015.31,2330.55 3014.76,2333.3L3013.45,2339.74L3019.93,2340.88C3036.49,2343.77 3048.58,2356.6 3049.34,2372.07C3050.12,2387.59 3039.44,2405.23 3023.2,2410.33L3027.49,2422.3C3047.97,2415.48 3063.32,2394.32 3062.17,2371.43C3061.22,2351.95 3047.58,2335.5 3028.25,2329.68Z" style="fill-rule:nonzero;"/>
            <path d="M2792.43,2556.94C2792.43,2558.49 2790.66,2559.73 2788.47,2559.73C2786.28,2559.73 2784.51,2558.49 2784.51,2556.94L2784.51,2402.69C2784.51,2401.15 2786.28,2399.91 2788.47,2399.91C2790.66,2399.91 2792.43,2401.15 2792.43,2402.69L2792.43,2556.94Z" style="fill-rule:nonzero;"/>
            <path d="M2828.62,2580.64C2828.62,2582.19 2826.85,2583.45 2824.67,2583.45C2822.47,2583.45 2820.7,2582.19 2820.7,2580.64L2820.7,2426.41C2820.7,2424.84 2822.47,2423.59 2824.67,2423.59C2826.85,2423.59 2828.62,2424.84 2828.62,2426.41L2828.62,2580.64Z" style="fill-rule:nonzero;"/>
            <path d="M2926.5,2595.36C2926.5,2596.91 2924.72,2598.16 2922.55,2598.16C2920.35,2598.16 2918.58,2596.91 2918.58,2595.36L2918.58,2441.11C2918.58,2439.59 2920.35,2438.33 2922.55,2438.33C2924.72,2438.33 2926.5,2439.59 2926.5,2441.11L2926.5,2595.36Z" style="fill-rule:nonzero;"/>
            <path d="M2967.54,2546.96C2967.54,2548.51 2965.76,2549.75 2963.59,2549.75C2961.41,2549.75 2959.64,2548.51 2959.64,2546.96L2959.64,2392.71C2959.64,2391.19 2961.41,2389.93 2963.59,2389.93C2965.76,2389.93 2967.54,2391.19 2967.54,2392.71L2967.54,2546.96Z" style="fill-rule:nonzero;"/>
        </g>
    </g>
</svg>
