<!-- Generated by IcoMoon.io -->
<svg version="1.1" xmlns="http://www.w3.org/2000/svg" width="32" height="32" viewBox="0 0 32 32">
<title>rain-mix</title>
<path d="M4.96 18.091c0 1.408 0.501 2.624 1.493 3.637 0.992 1.024 2.197 1.557 3.605 1.6 0.128 0 0.192-0.064 0.192-0.181v-1.419c0-0.128-0.064-0.192-0.192-0.192-0.896-0.043-1.675-0.405-2.315-1.088s-0.971-1.461-0.971-2.368c0-0.896 0.299-1.675 0.907-2.336s1.344-1.035 2.24-1.109l0.565-0.075c0.128 0 0.203-0.064 0.203-0.192l0.075-0.533c0.107-1.163 0.587-2.144 1.451-2.933s1.877-1.184 3.051-1.184c1.152 0 2.165 0.395 3.029 1.173s1.365 1.739 1.493 2.891l0.075 0.619c0 0.128 0.064 0.192 0.203 0.192h1.707c0.96 0 1.781 0.341 2.475 1.035 0.683 0.683 1.035 1.504 1.035 2.453 0 0.896-0.32 1.685-0.96 2.368-0.64 0.672-1.419 1.035-2.325 1.088-0.139 0-0.213 0.064-0.213 0.192v1.419c0 0.117 0.075 0.181 0.213 0.181 1.419-0.043 2.624-0.576 3.605-1.6s1.472-2.229 1.472-3.648c0-0.949-0.235-1.835-0.715-2.645-0.469-0.811-1.12-1.451-1.931-1.92s-1.696-0.704-2.645-0.704h-0.331c-0.352-1.429-1.099-2.592-2.251-3.509-1.141-0.907-2.453-1.365-3.925-1.365-1.504 0-2.837 0.469-4 1.397s-1.909 2.123-2.24 3.573c-1.205 0.309-2.176 0.939-2.933 1.888s-1.141 2.059-1.141 3.296zM10.72 25.579c0 0.181 0.053 0.363 0.171 0.544s0.288 0.299 0.501 0.373c0.245 0.075 0.469 0.064 0.683-0.043 0.203-0.096 0.352-0.299 0.416-0.597l0.149-0.651c0.053-0.245 0.021-0.469-0.096-0.672s-0.299-0.352-0.555-0.427c-0.235-0.075-0.469-0.043-0.683 0.085s-0.363 0.32-0.427 0.565l-0.149 0.629c0 0.032-0.011 0.096-0.011 0.192zM11.531 22.485c0 0.224 0.085 0.427 0.267 0.608 0.171 0.181 0.363 0.267 0.597 0.267 0.256 0 0.469-0.085 0.64-0.256s0.256-0.373 0.256-0.629c0-0.245-0.085-0.459-0.256-0.629s-0.384-0.256-0.64-0.256c-0.245 0-0.448 0.085-0.619 0.245-0.16 0.192-0.245 0.405-0.245 0.651zM12.181 20.064c-0.011 0.171 0.032 0.331 0.149 0.48 0.107 0.16 0.277 0.267 0.512 0.341 0.224 0.064 0.437 0.043 0.661-0.075s0.363-0.299 0.437-0.544l0.299-0.96c0.075-0.256 0.053-0.491-0.075-0.693s-0.32-0.341-0.576-0.416c-0.235-0.075-0.459-0.053-0.672 0.075-0.213 0.117-0.363 0.299-0.437 0.533l-0.256 0.981c0 0.021-0.011 0.064-0.021 0.128-0.011 0.053-0.021 0.107-0.021 0.149zM13.429 28.907c0 0.192 0.053 0.363 0.16 0.533s0.277 0.288 0.512 0.352c0.085 0.021 0.181 0.032 0.267 0.032 0.459 0 0.736-0.213 0.843-0.651l0.149-0.629c0.064-0.277 0.032-0.512-0.085-0.725-0.128-0.213-0.309-0.341-0.555-0.395-0.224-0.075-0.448-0.053-0.672 0.075s-0.363 0.309-0.437 0.544l-0.149 0.629c-0.021 0.096-0.032 0.171-0.032 0.235zM14.251 25.813c0 0.235 0.085 0.437 0.267 0.619 0.171 0.171 0.373 0.256 0.608 0.256 0.256 0 0.459-0.085 0.629-0.245 0.171-0.171 0.245-0.373 0.245-0.629 0-0.245-0.085-0.448-0.245-0.619-0.171-0.171-0.373-0.245-0.629-0.245s-0.459 0.085-0.629 0.245-0.245 0.373-0.245 0.619zM14.923 23.392c-0.011 0.16 0.032 0.331 0.139 0.501s0.267 0.277 0.48 0.32c0.245 0.064 0.469 0.043 0.683-0.064s0.352-0.309 0.437-0.597l0.288-0.96c0.075-0.235 0.053-0.459-0.075-0.672s-0.309-0.352-0.565-0.427c-0.235-0.075-0.459-0.043-0.683 0.085s-0.363 0.32-0.437 0.565l-0.245 0.96c-0.011 0.085-0.021 0.181-0.021 0.288zM17.867 25.685c0 0.171 0.053 0.341 0.16 0.512s0.277 0.288 0.491 0.352c0.032 0 0.085 0.011 0.149 0.021s0.107 0.021 0.149 0.021c0.437 0 0.704-0.235 0.811-0.704l0.149-0.64c0.075-0.224 0.053-0.448-0.075-0.672-0.117-0.224-0.299-0.363-0.544-0.437-0.267-0.064-0.512-0.043-0.725 0.085s-0.363 0.309-0.437 0.565l-0.096 0.629c0 0.021-0.011 0.075-0.021 0.128s-0.011 0.096-0.011 0.139zM18.656 22.528c0 0.235 0.085 0.448 0.267 0.608 0.16 0.171 0.363 0.256 0.608 0.256 0.256 0 0.459-0.085 0.629-0.245s0.245-0.373 0.245-0.619c0-0.256-0.085-0.459-0.245-0.629s-0.373-0.245-0.629-0.245c-0.256 0-0.459 0.085-0.629 0.245-0.16 0.171-0.245 0.373-0.245 0.629zM19.307 20.064c0 0.181 0.053 0.352 0.171 0.512s0.288 0.277 0.523 0.341c0.021 0 0.064 0.011 0.128 0.021s0.117 0.021 0.149 0.021c0.107 0 0.235-0.032 0.384-0.096 0.224-0.117 0.373-0.309 0.437-0.555l0.256-0.96c0.064-0.245 0.043-0.469-0.085-0.672-0.117-0.213-0.299-0.352-0.544-0.427s-0.469-0.053-0.683 0.064c-0.203 0.117-0.352 0.288-0.416 0.544l-0.299 0.971c0 0.021-0.011 0.064-0.021 0.128 0 0.032 0 0.075 0 0.107z"></path>
</svg>
