<?xml version="1.0" encoding="UTF-8" standalone="no"?>
<!DOCTYPE svg PUBLIC "-//W3C//DTD SVG 1.1//EN" "http://www.w3.org/Graphics/SVG/1.1/DTD/svg11.dtd">
<svg width="100%" height="100%" viewBox="0 0 1573 1628" version="1.1" xmlns="http://www.w3.org/2000/svg" xmlns:xlink="http://www.w3.org/1999/xlink" xml:space="preserve" xmlns:serif="http://www.serif.com/" style="fill-rule:evenodd;clip-rule:evenodd;stroke-linejoin:round;stroke-miterlimit:2;">
    <g transform="matrix(1,0,0,1,-6225,-9311)">
        <g transform="matrix(4.16667,0,0,4.16667,0,0)">
            <path d="M1718.67,2415.52L1712.92,2415.52L1653.29,2510.77L1723.33,2510.88L1651.23,2622.1L1649.18,2625.29L1753.51,2498.81L1678.3,2498.43L1718.67,2415.52Z" style="fill-rule:nonzero;"/>
            <path d="M1609.09,2492.28C1587.77,2463.72 1589.17,2414.5 1588.15,2430.27C1585.49,2471.39 1569.29,2492.28 1569.29,2492.28C1567.94,2494.83 1567.15,2497.66 1567.15,2500.68C1567.15,2511.58 1577.01,2520.4 1589.17,2520.4C1601.35,2520.4 1611.2,2511.58 1611.2,2500.68C1611.2,2497.66 1610.41,2494.83 1609.06,2492.28L1609.09,2492.28Z" style="fill-rule:nonzero;"/>
            <path d="M1678.65,2427.25C1678.65,2424.61 1677.98,2422.13 1676.79,2419.89L1676.81,2419.89C1658.19,2394.93 1659.43,2351.99 1658.53,2365.74C1656.2,2401.66 1642.06,2419.89 1642.06,2419.89C1640.88,2422.13 1640.19,2424.61 1640.19,2427.25C1640.19,2436.76 1648.8,2444.45 1659.43,2444.45C1670.05,2444.45 1678.65,2436.76 1678.65,2427.25Z" style="fill-rule:nonzero;"/>
            <path d="M1739.89,2405.31C1738.53,2425.99 1730.38,2436.49 1730.38,2436.49C1729.72,2437.78 1729.32,2439.21 1729.32,2440.74C1729.32,2446.2 1734.28,2450.65 1740.4,2450.65C1746.52,2450.65 1751.47,2446.2 1751.47,2440.74C1751.47,2439.21 1751.08,2437.78 1750.4,2436.49L1750.41,2436.49C1739.68,2422.13 1740.4,2397.36 1739.89,2405.31Z" style="fill-rule:nonzero;"/>
            <path d="M1868,2282.92C1857.21,2249.49 1823.54,2229.95 1789.91,2235.79C1803.06,2244.19 1813.46,2257.01 1818.64,2273.03C1824.33,2290.68 1822.54,2308.91 1815.14,2324.41C1807.34,2303.35 1787.1,2288.27 1763.37,2288.27C1752.95,2288.27 1742.96,2291.14 1734.33,2296.53C1728.97,2265.1 1700.15,2241.58 1666.42,2243.41C1634.31,2245.03 1608.87,2268.52 1604.73,2298.63C1598.93,2296.59 1592.94,2295.55 1586.86,2295.55C1556.4,2295.55 1531.61,2320.31 1531.61,2350.78C1531.61,2351.43 1531.63,2352.07 1531.69,2352.78C1516.27,2356.98 1494.11,2365.89 1494.16,2397.44C1494.19,2420.88 1513.67,2441.02 1540.21,2442.26L1548.33,2429.71C1547.38,2429.76 1546.29,2429.79 1545.53,2429.82L1543.55,2429.85C1523.42,2429.85 1507.03,2415.31 1507.01,2397.44C1506.98,2376.12 1518.63,2369.21 1540.11,2363.87L1544.94,2362.04L1545.07,2357.17L1544.83,2354.54C1544.65,2353.3 1544.48,2352.05 1544.48,2350.78C1544.48,2327.39 1563.49,2308.39 1586.86,2308.39C1593.91,2308.39 1600.83,2310.25 1607.43,2313.96L1617.19,2319.43L1616.99,2308.23C1616.52,2280.5 1638.51,2257.68 1667.06,2256.28L1669.83,2256.19C1697.9,2256.19 1720.95,2277.45 1722.3,2304.65C1722.34,2305.64 1722.3,2306.61 1722.18,2309.08L1721.58,2325.58L1733.18,2313.79C1741.23,2305.64 1751.94,2301.11 1763.37,2301.11C1785.31,2301.11 1803.41,2317.88 1805.54,2339.27C1797.43,2348.91 1786.65,2356.51 1773.78,2360.67C1770.6,2361.69 1767.41,2362.39 1764.22,2362.96C1781.14,2373.77 1802.55,2377.2 1823.13,2370.56C1824.99,2369.96 1826.77,2369.24 1828.54,2368.5C1834.94,2374.24 1839.04,2382.04 1839.48,2390.75C1840.26,2406.25 1829.57,2423.91 1813.33,2429.01L1817.63,2440.97C1838.09,2434.16 1853.45,2413 1852.32,2390.1C1851.79,2379.43 1847.37,2369.75 1840.4,2362.16C1865.64,2345.31 1877.79,2313.24 1868,2282.92Z" style="fill-rule:nonzero;"/>
        </g>
    </g>
</svg>
