<!-- Generated by IcoMoon.io -->
<svg version="1.1" xmlns="http://www.w3.org/2000/svg" width="34" height="32" viewBox="0 0 34 32">
<title>raindrops</title>
<path d="M8.286 13.924c0-0.507 0.253-1.15 0.741-1.969s0.975-1.501 1.423-2.027c0.117-0.136 0.273-0.331 0.448-0.546s0.292-0.331 0.312-0.351l0.721 0.838c0.546 0.604 1.033 1.287 1.482 2.086s0.682 1.443 0.682 1.969c0 0.799-0.273 1.501-0.838 2.066-0.546 0.565-1.228 0.858-2.047 0.858-0.799 0-1.501-0.292-2.066-0.858-0.565-0.585-0.858-1.267-0.858-2.066zM14.368 22.014c0-0.565 0.156-1.209 0.468-1.969 0.312-0.741 0.702-1.443 1.17-2.066 0.897-1.189 1.735-2.183 2.554-2.982 0.078-0.058 0.253-0.214 0.507-0.468l0.487 0.468c0.76 0.721 1.618 1.715 2.573 2.963 0.507 0.663 0.897 1.365 1.209 2.105s0.468 1.384 0.468 1.949c0 1.345-0.448 2.456-1.365 3.372s-2.047 1.365-3.372 1.365c-1.326 0-2.437-0.468-3.353-1.384s-1.345-2.047-1.345-3.353zM17.331 8.564c0-0.838 0.643-1.949 1.949-3.314l0.487 0.546c0.37 0.429 0.702 0.897 0.994 1.443 0.292 0.526 0.448 0.975 0.448 1.326 0 0.546-0.195 0.975-0.565 1.345-0.37 0.351-0.819 0.546-1.365 0.546-0.565 0-1.033-0.175-1.404-0.546-0.351-0.37-0.546-0.819-0.546-1.345z"></path>
</svg>
