<?xml version="1.0" encoding="UTF-8" standalone="no"?>
<!DOCTYPE svg PUBLIC "-//W3C//DTD SVG 1.1//EN" "http://www.w3.org/Graphics/SVG/1.1/DTD/svg11.dtd">
<svg width="100%" height="100%" viewBox="0 0 1729 1729" version="1.1" xmlns="http://www.w3.org/2000/svg" xmlns:xlink="http://www.w3.org/1999/xlink" xml:space="preserve" xmlns:serif="http://www.serif.com/" style="fill-rule:evenodd;clip-rule:evenodd;stroke-linejoin:round;stroke-miterlimit:2;">
    <g transform="matrix(4.16667,0,0,4.16667,-13542,-9260.5)">
        <g>
            <path d="M3644.71,2512.78C3639.84,2518.66 3633.37,2522.06 3626.52,2522.41C3621.55,2522.66 3611.33,2522.71 3600.22,2522.65C3595.36,2509.24 3584.13,2498.57 3569.51,2494.06C3569.64,2492.58 3569.7,2491.08 3569.7,2489.56C3569.7,2459.42 3545.2,2434.92 3515.07,2434.92C3504.95,2434.92 3495.25,2437.67 3486.8,2442.82C3485.89,2437.8 3484.34,2433.02 3482.31,2428.5C3481.84,2427.45 3481.19,2426.5 3480.67,2425.49C3481.75,2405.9 3497.61,2390.13 3518.14,2389.1L3520.25,2389.04C3541.37,2389.04 3558.7,2405.05 3559.75,2425.49C3559.78,2426.34 3559.74,2427.17 3559.65,2428.71L3558.7,2446.24L3571.06,2433.74C3577.09,2427.61 3585.08,2424.26 3593.57,2424.26C3610.99,2424.26 3625.16,2438.43 3625.16,2455.86C3625.16,2458 3624.96,2460.1 3624.52,2462.12L3623.1,2468.88L3629.92,2470.07C3642.13,2472.21 3651.06,2481.63 3651.62,2493.02C3651.96,2499.86 3649.44,2507.05 3644.71,2512.78ZM3589.49,2536.01C3589.94,2545.02 3586.64,2554.48 3580.43,2561.98C3574.03,2569.71 3565.52,2574.22 3556.44,2574.65C3538.81,2575.54 3468.94,2574.34 3468.82,2574.34C3437.83,2574.3 3390.82,2574.19 3388.32,2574.07L3388.16,2577.09L3388.09,2574.07C3388.09,2574.07 3355.35,2573.64 3329.26,2573.64C3317.1,2573.64 3306.38,2573.74 3301,2573.99L3299.04,2574.06C3279.48,2574.06 3263.57,2559.92 3263.53,2542.56C3263.5,2521.85 3274.84,2515.12 3295.77,2509.95L3300.9,2508.69L3300.68,2500.29C3300.53,2499.1 3300.34,2497.93 3300.34,2496.7C3300.34,2473.94 3318.86,2455.43 3341.64,2455.43C3348.51,2455.43 3355.25,2457.24 3361.67,2460.84L3371.81,2466.53L3371.62,2454.9C3371.15,2427.86 3392.61,2405.6 3420.44,2404.22L3423.14,2404.14C3436.16,2404.14 3448.05,2408.86 3457.11,2416.64C3462.34,2421.12 3466.66,2426.59 3469.64,2432.81C3472.38,2438.49 3474.03,2444.77 3474.37,2451.41C3474.4,2452.35 3474.35,2453.25 3474.23,2455.75L3473.69,2472.82L3485.67,2460.64C3493.51,2452.69 3503.96,2448.28 3515.07,2448.28C3537.83,2448.28 3556.35,2466.8 3556.35,2489.56C3556.35,2492.4 3556.05,2495.14 3555.52,2497.8L3554.16,2504.51L3560.89,2505.7C3571.78,2507.62 3580.59,2514 3585.44,2522.54C3587.76,2526.6 3589.24,2531.11 3589.49,2535.93L3589.49,2536.01ZM3638.45,2458.49C3638.5,2457.61 3638.52,2456.74 3638.52,2455.86C3638.52,2431.08 3618.35,2410.92 3593.57,2410.92C3585.9,2410.92 3578.52,2412.84 3571.96,2416.46C3566.82,2393.02 3545.56,2375.68 3520.25,2375.68L3517.48,2375.76C3495.15,2376.87 3477.01,2391.17 3470.18,2410.64C3457.69,2397.7 3439.71,2389.89 3419.78,2390.86C3388.23,2392.44 3363.19,2415.43 3358.91,2445C3353.29,2443.04 3347.52,2442.08 3341.64,2442.08C3311.51,2442.08 3286.99,2466.57 3286.99,2496.7C3286.99,2497.26 3287.01,2497.81 3287.06,2498.4C3271.78,2502.58 3250.15,2511.48 3250.18,2542.57C3250.22,2567.29 3272.14,2587.4 3299.04,2587.4L3301.66,2587.35C3318.42,2586.51 3387.89,2587.43 3387.91,2587.43L3387.94,2586.27C3388.05,2586.29 3388.16,2586.3 3388.29,2586.33L3388.36,2587.4L3388.32,2586.33C3397.56,2587.58 3418.95,2587.61 3468.69,2587.7C3468.69,2587.7 3506.22,2588.34 3533.37,2588.34C3543.53,2588.34 3552.27,2588.23 3557.1,2588C3569.97,2587.37 3581.91,2581.14 3590.73,2570.5C3598.89,2560.65 3603.27,2548.12 3602.85,2536.02L3602.85,2536.01C3604.64,2536.02 3606.44,2536.02 3608.14,2536.02C3616.3,2536.02 3623.3,2535.95 3627.18,2535.77C3637.84,2535.2 3647.7,2530.08 3654.98,2521.29C3661.84,2513.04 3665.45,2502.48 3664.95,2492.36C3664.19,2476.77 3653.59,2463.58 3638.45,2458.49Z" style="fill-rule:nonzero;"/>
            <path d="M3323.16,2420.24C3322.94,2417.58 3318.06,2354.74 3366.37,2324.96C3406.06,2300.5 3447.37,2307.44 3485.83,2345.06L3476.51,2354.61C3442.41,2321.28 3407.7,2315.12 3373.4,2336.33C3332.01,2361.84 3336.43,2418.53 3336.47,2419.11L3323.16,2420.24Z" style="fill-rule:nonzero;"/>
            <path d="M3279.94,2431.05C3279.56,2427.25 3271.67,2337.56 3344.75,2290.9C3401.83,2254.48 3473.3,2274.62 3511.61,2312.09L3502.26,2321.63C3467.64,2287.75 3403.15,2269.46 3351.95,2302.14C3285.69,2344.46 3293.15,2428.9 3293.23,2429.76L3279.94,2431.05Z" style="fill-rule:nonzero;"/>
        </g>
    </g>
</svg>
