<?xml version="1.0" encoding="UTF-8" standalone="no"?>
<!DOCTYPE svg PUBLIC "-//W3C//DTD SVG 1.1//EN" "http://www.w3.org/Graphics/SVG/1.1/DTD/svg11.dtd">
<svg width="100%" height="100%" viewBox="0 0 1493 1402" version="1.1" xmlns="http://www.w3.org/2000/svg" xmlns:xlink="http://www.w3.org/1999/xlink" xml:space="preserve" xmlns:serif="http://www.serif.com/" style="fill-rule:evenodd;clip-rule:evenodd;stroke-linejoin:round;stroke-miterlimit:2;">
    <g transform="matrix(1,0,0,1,-6265,-4029)">
        <g transform="matrix(4.16667,0,0,4.16667,0,0)">
            <path d="M1827.88,1072.04C1828.04,1070.41 1828.11,1068.8 1828.11,1067.19C1828.11,1036.75 1803.31,1011.96 1772.87,1011.96C1762.45,1011.96 1752.47,1014.84 1743.83,1020.23C1738.47,988.795 1709.65,965.259 1675.91,967.121C1643.81,968.716 1618.39,992.202 1614.22,1022.34C1608.42,1020.28 1602.43,1019.23 1596.35,1019.23C1565.9,1019.23 1541.11,1044.01 1541.11,1074.47C1541.11,1075.12 1541.14,1075.77 1541.2,1076.47C1525.76,1080.67 1503.62,1089.59 1503.67,1121.14C1503.69,1144.58 1523.18,1164.69 1549.71,1165.96L1557.84,1153.42C1556.88,1153.44 1555.79,1153.46 1555.03,1153.51L1553.05,1153.56C1532.92,1153.56 1516.53,1139 1516.51,1121.12C1516.49,1099.82 1528.13,1092.91 1549.6,1087.58L1554.43,1085.73L1554.57,1080.86L1554.33,1078.24C1554.16,1077 1553.97,1075.75 1553.97,1074.47C1553.97,1051.09 1572.99,1032.08 1596.35,1032.08C1603.4,1032.08 1610.33,1033.95 1616.93,1037.66L1626.69,1043.13L1626.49,1031.94C1626.01,1004.21 1648.01,981.38 1676.55,979.96L1679.34,979.88C1707.4,979.88 1730.45,1001.16 1731.8,1028.35C1731.85,1029.33 1731.79,1030.28 1731.67,1032.78L1731.08,1049.3L1742.67,1037.51C1750.73,1029.33 1761.44,1024.82 1772.87,1024.82C1796.23,1024.82 1815.26,1043.83 1815.26,1067.19C1815.26,1070.1 1814.95,1072.91 1814.4,1075.66L1813.08,1082.12L1819.59,1083.25C1836.13,1086.15 1848.21,1098.98 1848.98,1114.43C1849.76,1129.96 1839.07,1147.59 1822.83,1152.69L1827.12,1164.66C1847.59,1157.85 1862.97,1136.69 1861.81,1113.81C1860.85,1094.3 1847.23,1077.86 1827.88,1072.04Z" style="fill-rule:nonzero;"/>
            <path d="M1618.56,1215.96L1618.58,1215.96C1597.27,1187.4 1598.67,1138.19 1597.65,1153.95C1594.99,1195.08 1578.78,1215.96 1578.78,1215.96C1577.43,1218.53 1576.65,1221.36 1576.65,1224.38C1576.65,1235.27 1586.51,1244.11 1598.67,1244.11C1610.84,1244.11 1620.7,1235.27 1620.7,1224.38C1620.7,1221.36 1619.91,1218.53 1618.56,1215.96Z" style="fill-rule:nonzero;"/>
            <path d="M1686.3,1177.21C1667.69,1152.25 1668.94,1109.3 1668.03,1123.05C1665.7,1158.98 1651.56,1177.21 1651.56,1177.21C1650.37,1179.44 1649.7,1181.92 1649.7,1184.55C1649.7,1194.06 1658.31,1201.78 1668.94,1201.78C1679.54,1201.78 1688.16,1194.06 1688.16,1184.55C1688.16,1181.92 1687.47,1179.44 1686.3,1177.21Z" style="fill-rule:nonzero;"/>
            <path d="M1667.02,1269.81L1667.05,1269.81C1652.57,1250.44 1653.53,1217.05 1652.84,1227.75C1651.03,1255.64 1640.04,1269.81 1640.04,1269.81C1639.13,1271.55 1638.59,1273.49 1638.59,1275.53C1638.59,1282.91 1645.28,1288.9 1653.53,1288.9C1661.78,1288.9 1668.48,1282.91 1668.48,1275.53C1668.48,1273.49 1667.95,1271.55 1667.02,1269.81Z" style="fill-rule:nonzero;"/>
            <path d="M1630.7,1129.68L1630.71,1129.68C1619.99,1115.31 1620.7,1090.57 1620.19,1098.49C1618.84,1119.17 1610.7,1129.68 1610.7,1129.68C1610.01,1130.97 1609.63,1132.39 1609.63,1133.91C1609.63,1139.4 1614.59,1143.84 1620.7,1143.84C1626.82,1143.84 1631.77,1139.4 1631.77,1133.91C1631.77,1132.39 1631.38,1130.97 1630.7,1129.68Z" style="fill-rule:nonzero;"/>
            <path d="M1744.94,1150.89C1744.94,1158.93 1738.44,1165.42 1730.42,1165.42C1722.4,1165.42 1715.91,1158.93 1715.91,1150.89C1715.91,1142.88 1722.4,1136.39 1730.42,1136.39C1738.44,1136.39 1744.94,1142.88 1744.94,1150.89Z" style="fill-rule:nonzero;"/>
            <path d="M1807.64,1195.09C1807.64,1203.12 1801.13,1209.61 1793.12,1209.61C1785.11,1209.61 1778.62,1203.12 1778.62,1195.09C1778.62,1187.07 1785.11,1180.59 1793.12,1180.59C1801.13,1180.59 1807.64,1187.07 1807.64,1195.09Z" style="fill-rule:nonzero;"/>
            <path d="M1753.47,1288.89C1753.47,1296.92 1746.97,1303.41 1738.95,1303.41C1730.94,1303.41 1724.46,1296.92 1724.46,1288.89C1724.46,1280.87 1730.94,1274.39 1738.95,1274.39C1746.97,1274.39 1753.47,1280.87 1753.47,1288.89Z" style="fill-rule:nonzero;"/>
            <path d="M1799.52,1145.31C1799.52,1151.1 1794.84,1155.78 1789.06,1155.78C1783.27,1155.78 1778.61,1151.1 1778.61,1145.31C1778.61,1139.53 1783.27,1134.86 1789.06,1134.86C1794.84,1134.86 1799.52,1139.53 1799.52,1145.31Z" style="fill-rule:nonzero;"/>
            <path d="M1755.06,1215.15C1755.06,1222.46 1749.12,1228.37 1741.84,1228.37C1734.53,1228.37 1728.63,1222.46 1728.63,1215.15C1728.63,1207.84 1734.53,1201.94 1741.84,1201.94C1749.12,1201.94 1755.06,1207.84 1755.06,1215.15Z" style="fill-rule:nonzero;"/>
            <path d="M1806.35,1257.28C1806.35,1264.59 1800.41,1270.5 1793.12,1270.5C1785.81,1270.5 1779.92,1264.59 1779.92,1257.28C1779.92,1249.98 1785.81,1244.08 1793.12,1244.08C1800.41,1244.08 1806.35,1249.98 1806.35,1257.28Z" style="fill-rule:nonzero;"/>
        </g>
    </g>
</svg>
