<?xml version="1.0" encoding="UTF-8" standalone="no"?>
<!DOCTYPE svg PUBLIC "-//W3C//DTD SVG 1.1//EN" "http://www.w3.org/Graphics/SVG/1.1/DTD/svg11.dtd">
<svg width="100%" height="100%" viewBox="0 0 1785 1785" version="1.1" xmlns="http://www.w3.org/2000/svg" xmlns:xlink="http://www.w3.org/1999/xlink" xml:space="preserve" xmlns:serif="http://www.serif.com/" style="fill-rule:evenodd;clip-rule:evenodd;stroke-linejoin:round;stroke-miterlimit:2;">
    <g transform="matrix(4.16667,0,0,4.16667,-867,-6539)">
        <g>
            <path d="M532.71,1746.56C509.463,1746.56 490.562,1727.65 490.562,1704.39C490.562,1681.15 509.463,1662.23 532.71,1662.23C555.957,1662.23 574.874,1681.15 574.874,1704.39C574.874,1727.65 555.957,1746.56 532.71,1746.56ZM532.71,1653.33C504.555,1653.33 481.658,1676.24 481.658,1704.39C481.658,1713.99 484.362,1722.95 488.981,1730.62C485.259,1729.83 481.399,1729.39 477.449,1729.39C467.026,1729.39 457.059,1732.27 448.413,1737.66C443.049,1706.23 414.241,1682.69 380.495,1684.55C348.405,1686.15 322.97,1709.63 318.807,1739.77C313.002,1737.71 307.016,1736.66 300.938,1736.66C270.474,1736.66 245.692,1761.43 245.692,1791.9C245.692,1792.55 245.723,1793.2 245.784,1793.9C230.346,1798.11 208.208,1807.02 208.254,1838.57C208.269,1862.01 227.748,1882.13 254.292,1883.39L262.421,1870.84C261.463,1870.87 260.354,1870.9 259.609,1870.95L257.635,1870.99C237.503,1870.99 221.108,1856.44 221.093,1838.56C221.063,1817.25 232.701,1810.34 254.186,1805.01L259.018,1803.16L259.153,1798.29L258.911,1795.67C258.743,1794.43 258.547,1793.18 258.547,1791.9C258.547,1768.51 277.569,1749.51 300.938,1749.51C308.004,1749.51 314.917,1751.39 321.511,1755.08L331.266,1760.55L331.083,1749.38C330.597,1721.64 352.598,1698.81 381.133,1697.39L383.914,1697.32C411.992,1697.32 435.042,1718.59 436.379,1745.79C436.44,1746.76 436.364,1747.72 436.243,1750.21L435.665,1766.72L447.258,1754.93C455.311,1746.76 466.023,1742.25 477.449,1742.25C500.817,1742.25 519.84,1761.25 519.84,1784.62C519.84,1787.53 519.537,1790.34 518.974,1793.09L517.668,1799.55L524.171,1800.69C540.717,1803.59 552.797,1816.41 553.557,1831.87C554.347,1847.38 543.635,1865.02 527.422,1870.13L531.707,1882.09C552.174,1875.29 567.535,1854.13 566.396,1831.24C565.423,1811.74 551.809,1795.3 532.467,1789.47C532.619,1787.86 532.695,1786.23 532.695,1784.62C532.695,1773.56 529.39,1763.27 523.768,1754.63C526.678,1755.14 529.656,1755.46 532.71,1755.46C560.865,1755.46 583.777,1732.55 583.777,1704.39C583.777,1676.24 560.865,1653.33 532.71,1653.33Z" style="fill-rule:nonzero;"/>
            <path d="M487.629,1664.57C488.89,1666.04 491.139,1666.19 492.627,1664.91C494.086,1663.61 494.239,1661.38 492.947,1659.9L466.555,1629.73C465.263,1628.25 463.015,1628.13 461.556,1629.41C460.082,1630.69 459.93,1632.93 461.206,1634.41L487.629,1664.57Z" style="fill-rule:nonzero;"/>
            <path d="M532.892,1647.15C534.837,1647.15 536.417,1645.55 536.387,1643.6L536.114,1603.51C536.099,1601.53 534.503,1599.97 532.543,1599.98C530.583,1600 529.003,1601.58 529.033,1603.55L529.306,1643.63C529.322,1645.6 530.917,1647.17 532.892,1647.15Z" style="fill-rule:nonzero;"/>
            <path d="M431.562,1698.48L471.493,1701.74C473.468,1701.88 475.169,1700.43 475.322,1698.48C475.474,1696.54 474.03,1694.82 472.07,1694.65L432.125,1691.4C430.165,1691.26 428.463,1692.7 428.311,1694.65C428.144,1696.6 429.587,1698.31 431.562,1698.48Z" style="fill-rule:nonzero;"/>
            <path d="M624.118,1752.51L588.64,1733.86C586.908,1732.94 584.75,1733.62 583.838,1735.34C582.927,1737.08 583.595,1739.22 585.343,1740.14L620.806,1758.8C622.538,1759.7 624.68,1759.06 625.607,1757.28C626.519,1755.58 625.85,1753.44 624.118,1752.51Z" style="fill-rule:nonzero;"/>
            <path d="M632.43,1685.18L592.636,1689.84C590.691,1690.07 589.278,1691.83 589.521,1693.78C589.749,1695.72 591.497,1697.11 593.441,1696.89L633.265,1692.22C635.21,1692 636.623,1690.25 636.365,1688.28C636.152,1686.35 634.404,1684.95 632.43,1685.18Z" style="fill-rule:nonzero;"/>
            <path d="M549.5,1756.8C547.646,1757.44 546.658,1759.47 547.327,1761.32L560.652,1799.13C561.29,1800.98 563.311,1801.93 565.18,1801.3C567.034,1800.63 567.991,1798.61 567.338,1796.77L554.012,1758.96C553.359,1757.11 551.338,1756.14 549.5,1756.8Z" style="fill-rule:nonzero;"/>
            <path d="M573.901,1660.88L598.562,1629.31C599.762,1627.77 599.488,1625.53 597.969,1624.33C596.404,1623.11 594.186,1623.39 592.97,1624.95L568.31,1656.54C567.095,1658.07 567.368,1660.29 568.902,1661.51C570.467,1662.71 572.686,1662.44 573.901,1660.88Z" style="fill-rule:nonzero;"/>
            <path d="M323.167,1933.4C301.835,1904.83 303.263,1855.62 302.245,1871.38C299.571,1912.52 283.359,1933.4 283.359,1933.4C282.022,1935.97 281.231,1938.79 281.231,1941.81C281.231,1952.7 291.092,1961.54 303.263,1961.54C315.433,1961.54 325.279,1952.7 325.279,1941.81C325.279,1938.79 324.504,1935.97 323.137,1933.4L323.167,1933.4Z" style="fill-rule:nonzero;"/>
            <path d="M390.888,1894.64C372.275,1869.69 373.521,1826.73 372.625,1840.48C370.284,1876.4 356.139,1894.64 356.139,1894.64C354.954,1896.87 354.285,1899.35 354.285,1901.99C354.285,1911.5 362.885,1919.21 373.521,1919.21C384.126,1919.21 392.742,1911.5 392.742,1901.99C392.742,1899.35 392.042,1896.87 390.873,1894.64L390.888,1894.64Z" style="fill-rule:nonzero;"/>
            <path d="M453.974,1846.43C452.622,1867.12 444.478,1877.62 444.478,1877.62C443.794,1878.91 443.398,1880.34 443.398,1881.85C443.398,1887.33 448.352,1891.77 454.491,1891.77C460.599,1891.77 465.552,1887.33 465.552,1881.85C465.552,1880.34 465.172,1878.91 464.488,1877.62C453.761,1863.25 454.491,1838.5 453.974,1846.43Z" style="fill-rule:nonzero;"/>
            <path d="M443.354,1944.65C426.29,1921.83 427.43,1882.5 426.609,1895.09C424.482,1927.97 411.537,1944.65 411.537,1944.65C410.458,1946.72 409.834,1948.99 409.834,1951.39C409.834,1960.08 417.721,1967.15 427.43,1967.15C437.154,1967.15 445.04,1960.08 445.04,1951.39C445.04,1948.99 444.417,1946.72 443.323,1944.65L443.354,1944.65Z" style="fill-rule:nonzero;"/>
        </g>
    </g>
</svg>
