<?xml version="1.0" encoding="UTF-8" standalone="no"?>
<!DOCTYPE svg PUBLIC "-//W3C//DTD SVG 1.1//EN" "http://www.w3.org/Graphics/SVG/1.1/DTD/svg11.dtd">
<svg width="100%" height="100%" viewBox="0 0 1572 1572" version="1.1" xmlns="http://www.w3.org/2000/svg" xmlns:xlink="http://www.w3.org/1999/xlink" xml:space="preserve" xmlns:serif="http://www.serif.com/" style="fill-rule:evenodd;clip-rule:evenodd;stroke-linejoin:round;stroke-miterlimit:2;">
    <g transform="matrix(4.16667,0,0,4.16667,-11227,-6645.5)">
        <g>
            <path d="M2809.46,1895.45C2788.12,1866.88 2789.52,1817.67 2788.52,1833.43C2785.85,1874.57 2769.63,1895.45 2769.63,1895.45C2768.3,1898.01 2767.51,1900.85 2767.51,1903.87C2767.51,1914.76 2777.37,1923.59 2789.52,1923.59C2801.71,1923.59 2811.55,1914.76 2811.55,1903.87C2811.55,1900.85 2810.77,1898.01 2809.43,1895.45L2809.46,1895.45Z" style="fill-rule:nonzero;"/>
            <path d="M2858.89,1802.54C2856.58,1838.46 2842.42,1856.69 2842.42,1856.69C2841.24,1858.93 2840.54,1861.4 2840.54,1864.03C2840.54,1873.55 2849.17,1881.26 2859.78,1881.26C2870.42,1881.26 2879.01,1873.55 2879.01,1864.03C2879.01,1861.4 2878.34,1858.93 2877.16,1856.69C2858.56,1831.74 2859.78,1788.78 2858.89,1802.54Z" style="fill-rule:nonzero;"/>
            <path d="M2929.63,1906.71C2912.56,1883.88 2913.71,1844.55 2912.9,1857.16C2910.76,1890.01 2897.83,1906.71 2897.83,1906.71C2896.75,1908.77 2896.12,1911.04 2896.12,1913.44C2896.12,1922.15 2903.98,1929.2 2913.71,1929.2C2923.44,1929.2 2931.31,1922.15 2931.31,1913.44C2931.31,1911.04 2930.68,1908.77 2929.61,1906.71L2929.63,1906.71Z" style="fill-rule:nonzero;"/>
            <path d="M2950.77,1839.66C2940.04,1825.3 2940.75,1800.56 2940.26,1808.49C2938.9,1829.17 2930.75,1839.66 2930.75,1839.66C2930.07,1840.97 2929.68,1842.39 2929.68,1843.9C2929.68,1849.38 2934.65,1853.83 2940.75,1853.83C2946.88,1853.83 2951.83,1849.38 2951.83,1843.9C2951.83,1842.39 2951.45,1840.97 2950.75,1839.66L2950.77,1839.66Z" style="fill-rule:nonzero;"/>
            <path d="M3068.36,1686.1C3057.59,1652.67 3023.89,1633.12 2990.25,1638.95C3003.4,1647.37 3013.84,1660.19 3018.99,1676.21C3024.68,1693.84 3022.9,1712.06 3015.5,1727.55C3007.69,1706.52 2987.46,1691.45 2963.72,1691.45C2953.29,1691.45 2943.32,1694.32 2934.69,1699.71C2929.34,1668.28 2900.51,1644.75 2866.78,1646.6C2834.66,1648.2 2809.25,1671.69 2805.09,1701.82C2799.29,1699.76 2793.31,1698.72 2787.22,1698.72C2756.77,1698.72 2731.97,1723.49 2731.97,1753.95C2731.97,1754.61 2732.01,1755.25 2732.04,1755.95C2716.62,1760.16 2694.48,1769.08 2694.52,1800.62C2694.55,1824.06 2714.03,1844.19 2740.56,1845.45L2748.7,1832.9C2747.75,1832.93 2746.64,1832.95 2745.88,1832.99L2743.91,1833.04C2723.78,1833.04 2707.39,1818.49 2707.39,1800.61C2707.36,1779.3 2718.99,1772.4 2740.46,1767.06L2745.3,1765.22L2745.44,1760.34L2745.19,1757.73C2745.01,1756.48 2744.84,1755.23 2744.84,1753.95C2744.84,1730.57 2763.84,1711.56 2787.22,1711.56C2794.26,1711.56 2801.2,1713.44 2807.79,1717.14L2817.56,1722.61L2817.35,1711.43C2816.88,1683.69 2838.88,1660.87 2867.43,1659.45L2870.21,1659.37C2898.27,1659.37 2921.32,1680.64 2922.65,1707.84C2922.72,1708.81 2922.65,1709.77 2922.54,1712.27L2921.96,1728.78L2933.54,1716.99C2941.59,1708.81 2952.32,1704.3 2963.72,1704.3C2985.66,1704.3 3003.77,1721.05 3005.9,1742.44C2997.78,1752.08 2987,1759.68 2974.12,1763.83C2970.96,1764.87 2967.8,1765.57 2964.6,1766.13C2981.5,1776.94 3002.92,1780.38 3023.5,1773.74C3025.36,1773.14 3027.15,1772.43 3028.92,1771.69C3035.31,1777.42 3039.42,1785.22 3039.85,1793.92C3040.62,1809.43 3029.92,1827.07 3013.7,1832.19L3017.99,1844.14C3038.45,1837.34 3053.82,1816.17 3052.68,1793.29C3052.15,1782.62 3047.73,1772.94 3040.76,1765.34C3065.99,1748.49 3078.14,1716.42 3068.36,1686.1Z" style="fill-rule:nonzero;"/>
        </g>
    </g>
</svg>
