<!-- Generated by IcoMoon.io -->
<svg version="1.1" xmlns="http://www.w3.org/2000/svg" width="32" height="32" viewBox="0 0 32 32">
<title>refresh</title>
<path d="M10.421 16.565c0 1.003 0.256 1.941 0.757 2.795s1.184 1.536 2.037 2.027c0.853 0.501 1.781 0.747 2.784 0.747 1.024 0 1.952-0.245 2.805-0.736s1.525-1.163 2.016-2.016c0.491-0.853 0.736-1.792 0.736-2.805 0-0.256-0.085-0.469-0.256-0.651s-0.373-0.267-0.629-0.267c-0.245 0-0.459 0.085-0.64 0.267s-0.267 0.395-0.267 0.651c0 1.045-0.373 1.941-1.109 2.677s-1.632 1.109-2.677 1.109c-1.035 0-1.909-0.373-2.635-1.109s-1.088-1.632-1.088-2.677c0-0.907 0.277-1.728 0.843-2.464s1.216-1.131 1.963-1.173l-0.405 0.395c-0.171 0.192-0.256 0.395-0.256 0.619 0 0.235 0.085 0.448 0.256 0.64 0.384 0.373 0.821 0.373 1.291 0l1.963-1.941c0.171-0.128 0.256-0.352 0.256-0.661 0-0.277-0.085-0.48-0.256-0.608l-1.941-1.995c-0.192-0.171-0.395-0.256-0.608-0.256-0.267 0-0.491 0.085-0.672 0.267s-0.267 0.395-0.267 0.64c0 0.256 0.085 0.48 0.256 0.651l0.405 0.384c-1.333 0.235-2.443 0.875-3.328 1.92s-1.333 2.229-1.333 3.573z"></path>
</svg>
