<?xml version="1.0" encoding="UTF-8" standalone="no"?>
<!DOCTYPE svg PUBLIC "-//W3C//DTD SVG 1.1//EN" "http://www.w3.org/Graphics/SVG/1.1/DTD/svg11.dtd">
<svg width="100%" height="100%" viewBox="0 0 560 560" version="1.1" xmlns="http://www.w3.org/2000/svg" xmlns:xlink="http://www.w3.org/1999/xlink" xml:space="preserve" xmlns:serif="http://www.serif.com/" style="fill-rule:evenodd;clip-rule:evenodd;stroke-linejoin:round;stroke-miterlimit:2;">
    <g transform="matrix(4.16667,0,0,4.16667,-14870,-14069)">
        <g>
            <path d="M3678.77,3376.79L3665.46,3380.41L3670.5,3398.94C3661.88,3394.18 3652.01,3391.44 3641.45,3391.44C3608.09,3391.44 3581.07,3418.49 3581.07,3451.84C3581.07,3480.69 3601.3,3504.81 3628.37,3510.78L3633.37,3500.67C3609.84,3496.8 3591.82,3476.49 3591.82,3451.84C3591.82,3424.42 3614.06,3402.19 3641.45,3402.19C3650.07,3402.19 3658.11,3404.45 3665.15,3408.33L3644.08,3408.91L3644.47,3422.68L3690.9,3421.39L3678.77,3376.79Z" style="fill-rule:nonzero;"/>
        </g>
    </g>
</svg>
