<!-- Generated by IcoMoon.io -->
<svg version="1.1" xmlns="http://www.w3.org/2000/svg" width="32" height="32" viewBox="0 0 32 32">
<title>showers</title>
<path d="M4.907 18.059c0-1.237 0.384-2.325 1.163-3.285 0.768-0.96 1.76-1.579 2.965-1.845 0.309-1.472 1.045-2.667 2.208-3.616s2.496-1.419 4.011-1.419c1.483 0 2.805 0.459 3.968 1.365 1.152 0.907 1.909 2.080 2.261 3.52h0.363c0.96 0 1.845 0.235 2.645 0.704 0.811 0.469 1.44 1.109 1.909 1.92 0.459 0.811 0.693 1.696 0.693 2.656 0 1.429-0.491 2.645-1.461 3.669-0.981 1.024-2.176 1.557-3.595 1.6-0.128 0-0.192-0.064-0.192-0.181v-1.429c0-0.117 0.064-0.181 0.192-0.181 0.896-0.075 1.675-0.448 2.315-1.12s0.96-1.461 0.96-2.368c0-0.949-0.341-1.771-1.024-2.464-0.683-0.683-1.493-1.035-2.443-1.035h-1.739c-0.128 0-0.203-0.064-0.235-0.192l-0.075-0.608c-0.075-0.757-0.32-1.451-0.747-2.069s-0.971-1.099-1.632-1.451c-0.661-0.352-1.387-0.523-2.155-0.523-1.173 0-2.187 0.384-3.051 1.163s-1.355 1.749-1.461 2.901l-0.075 0.576c0 0.096-0.053 0.149-0.171 0.149l-0.576 0.117c-0.896 0.075-1.653 0.437-2.251 1.099-0.608 0.661-0.907 1.44-0.907 2.347 0 0.928 0.32 1.728 0.949 2.4s1.397 1.035 2.315 1.088c0.128 0 0.192 0.064 0.192 0.181v1.429c0 0.117-0.064 0.181-0.192 0.181-0.704-0.032-1.365-0.192-2.005-0.48s-1.184-0.672-1.632-1.141c-0.459-0.469-0.821-1.013-1.088-1.653s-0.405-1.301-0.405-2.005zM10.688 25.28c0-0.032 0.011-0.085 0.021-0.139s0.021-0.096 0.021-0.117l0.288-1.099c0.075-0.235 0.213-0.427 0.427-0.544 0.213-0.128 0.437-0.149 0.683-0.075s0.427 0.213 0.555 0.427c0.128 0.213 0.149 0.437 0.075 0.683l-0.256 1.077c-0.139 0.469-0.405 0.704-0.811 0.704-0.032 0-0.053 0-0.096 0-0.032 0-0.075-0.011-0.117-0.011-0.043-0.011-0.075-0.011-0.107-0.011-0.224-0.064-0.395-0.192-0.512-0.363s-0.171-0.363-0.171-0.533zM12.096 20.139c0-0.021 0-0.064 0.011-0.117s0.011-0.085 0.011-0.096l0.32-1.12c0.064-0.203 0.181-0.363 0.341-0.48 0.16-0.107 0.331-0.16 0.501-0.16 0.021 0 0.053 0 0.085 0s0.064 0.011 0.096 0.011c0.032 0.011 0.064 0.011 0.085 0.011 0.245 0.075 0.427 0.213 0.544 0.427 0.128 0.213 0.149 0.437 0.075 0.683l-0.256 1.067c-0.075 0.299-0.213 0.501-0.427 0.629s-0.448 0.128-0.693 0.021c-0.235-0.064-0.405-0.181-0.523-0.363s-0.171-0.341-0.171-0.512zM13.408 28.619c0-0.032 0.011-0.075 0.021-0.139s0.021-0.096 0.021-0.128l0.309-1.056c0.064-0.256 0.213-0.448 0.427-0.576s0.448-0.16 0.693-0.085c0.245 0.075 0.416 0.213 0.544 0.437s0.139 0.448 0.075 0.693l-0.267 1.109c-0.117 0.437-0.395 0.651-0.853 0.651-0.053 0-0.139-0.011-0.256-0.043-0.235-0.043-0.405-0.149-0.523-0.32-0.128-0.171-0.192-0.352-0.192-0.544zM14.837 23.531c0-0.064 0.011-0.149 0.043-0.267l0.288-1.099c0.075-0.245 0.213-0.427 0.437-0.544 0.213-0.128 0.448-0.149 0.693-0.075 0.245 0.064 0.416 0.203 0.544 0.416 0.117 0.213 0.139 0.437 0.064 0.693l-0.256 1.056c-0.139 0.48-0.395 0.725-0.768 0.725-0.043 0-0.16-0.021-0.331-0.064-0.235-0.043-0.405-0.149-0.523-0.32-0.128-0.16-0.192-0.341-0.192-0.523zM17.845 25.323c0-0.075 0.011-0.16 0.032-0.256l0.299-1.056c0.075-0.256 0.213-0.448 0.437-0.576s0.437-0.16 0.672-0.096c0.245 0.075 0.437 0.213 0.565 0.437 0.128 0.213 0.16 0.437 0.096 0.672l-0.309 1.131c-0.107 0.437-0.384 0.651-0.843 0.651-0.096 0-0.192-0.011-0.277-0.032-0.213-0.043-0.373-0.149-0.491-0.32-0.107-0.192-0.171-0.373-0.181-0.555zM19.317 20.245c0-0.032 0.021-0.128 0.053-0.277l0.32-1.099c0.043-0.224 0.139-0.395 0.309-0.501s0.341-0.16 0.523-0.149c0.043-0.011 0.139 0 0.256 0.032 0.235 0.053 0.416 0.192 0.555 0.405 0.128 0.181 0.149 0.405 0.075 0.693l-0.256 1.099c-0.139 0.459-0.405 0.693-0.811 0.693-0.064 0-0.181-0.021-0.363-0.064-0.224-0.064-0.384-0.181-0.491-0.331-0.117-0.171-0.171-0.331-0.171-0.501z"></path>
</svg>
