<?xml version="1.0" encoding="UTF-8" standalone="no"?>
<!DOCTYPE svg PUBLIC "-//W3C//DTD SVG 1.1//EN" "http://www.w3.org/Graphics/SVG/1.1/DTD/svg11.dtd">
<svg width="100%" height="100%" viewBox="0 0 1915 1915" version="1.1" xmlns="http://www.w3.org/2000/svg" xmlns:xlink="http://www.w3.org/1999/xlink" xml:space="preserve" xmlns:serif="http://www.serif.com/" style="fill-rule:evenodd;clip-rule:evenodd;stroke-linejoin:round;stroke-miterlimit:2;">
    <g transform="matrix(4.16667,0,0,4.16667,-8706,-3772.5)">
        <g>
            <path d="M2413.82,1143.34C2413.96,1141.72 2414.04,1140.11 2414.04,1138.5C2414.04,1108.04 2389.26,1083.26 2358.81,1083.26C2348.37,1083.26 2338.4,1086.14 2329.77,1091.53C2324.4,1060.09 2295.58,1036.57 2261.85,1038.42C2229.75,1040.02 2204.32,1063.51 2200.16,1093.65C2194.35,1091.58 2188.37,1090.54 2182.29,1090.54C2151.83,1090.54 2127.06,1115.3 2127.06,1145.77C2127.06,1146.43 2127.06,1147.08 2127.13,1147.78C2111.68,1151.97 2089.55,1160.9 2089.6,1192.44C2089.63,1215.89 2109.11,1236 2135.65,1237.27L2143.77,1224.72C2142.81,1224.75 2141.72,1224.77 2140.97,1224.81L2138.98,1224.87C2118.85,1224.87 2102.46,1210.32 2102.43,1192.43C2102.42,1171.12 2114.05,1164.2 2135.54,1158.88L2140.37,1157.05L2140.51,1152.16L2140.27,1149.54C2140.1,1148.3 2139.91,1147.05 2139.91,1145.77C2139.91,1122.4 2158.92,1103.38 2182.29,1103.38C2189.34,1103.38 2196.27,1105.26 2202.87,1108.96L2212.61,1114.43L2212.44,1103.25C2211.95,1075.51 2233.94,1052.68 2262.5,1051.27L2265.25,1051.19C2293.35,1051.19 2316.38,1072.47 2317.74,1099.67C2317.77,1100.62 2317.74,1101.59 2317.6,1104.09L2317.01,1120.6L2328.62,1108.81C2336.65,1100.62 2347.39,1096.12 2358.81,1096.12C2382.17,1096.12 2401.2,1115.14 2401.2,1138.5C2401.2,1141.41 2400.89,1144.21 2400.33,1146.96L2399.01,1153.42L2405.52,1154.56C2422.07,1157.47 2434.13,1170.28 2434.9,1185.74C2435.7,1201.25 2424.98,1218.9 2408.76,1224.01L2413.06,1235.96C2433.53,1229.16 2448.88,1208 2447.73,1185.11C2446.79,1165.61 2433.17,1149.18 2413.82,1143.34Z" style="fill-rule:nonzero;"/>
            <path d="M2189.98,1214.81C2189.98,1223.2 2183.19,1229.99 2174.8,1229.99C2166.43,1229.99 2159.63,1223.2 2159.63,1214.81C2159.63,1206.43 2166.43,1199.63 2174.8,1199.63C2183.19,1199.63 2189.98,1206.43 2189.98,1214.81Z" style="fill-rule:nonzero;"/>
            <path d="M2280.53,1252.95C2280.53,1264.5 2271.16,1273.85 2259.6,1273.85C2248.05,1273.85 2238.69,1264.5 2238.69,1252.95C2238.69,1241.4 2248.05,1232.03 2259.6,1232.03C2271.16,1232.03 2280.53,1241.4 2280.53,1252.95Z" style="fill-rule:nonzero;"/>
            <path d="M2345.13,1233.54C2345.13,1241.66 2338.54,1248.24 2330.39,1248.24C2322.29,1248.24 2315.7,1241.66 2315.7,1233.54C2315.7,1225.41 2322.29,1218.82 2330.39,1218.82C2338.54,1218.82 2345.13,1225.41 2345.13,1233.54Z" style="fill-rule:nonzero;"/>
            <path d="M2274.32,1320.21C2274.32,1328.33 2267.73,1334.91 2259.6,1334.91C2251.5,1334.91 2244.9,1328.33 2244.9,1320.21C2244.9,1312.08 2251.5,1305.49 2259.6,1305.49C2267.73,1305.49 2274.32,1312.08 2274.32,1320.21Z" style="fill-rule:nonzero;"/>
            <path d="M2204.7,1288.59C2204.7,1296.71 2198.1,1303.3 2189.97,1303.3C2181.87,1303.3 2175.27,1296.71 2175.27,1288.59C2175.27,1280.46 2181.87,1273.88 2189.97,1273.88C2198.1,1273.88 2204.7,1280.46 2204.7,1288.59Z" style="fill-rule:nonzero;"/>
            <path d="M2343.23,1320.35C2343.23,1327.52 2337.42,1333.31 2330.26,1333.31C2323.1,1333.31 2317.29,1327.52 2317.29,1320.35C2317.29,1313.19 2323.1,1307.39 2330.26,1307.39C2337.42,1307.39 2343.23,1313.19 2343.23,1320.35Z" style="fill-rule:nonzero;"/>
            <path d="M2391.81,1259.67C2391.81,1266.83 2386,1272.63 2378.84,1272.63C2371.68,1272.63 2365.87,1266.83 2365.87,1259.67C2365.87,1252.5 2371.68,1246.7 2378.84,1246.7C2386,1246.7 2391.81,1252.5 2391.81,1259.67Z" style="fill-rule:nonzero;"/>
            <path d="M2426.08,1010.64C2399.34,1010.64 2377.59,1032.39 2377.59,1059.14C2377.59,1085.89 2399.34,1107.64 2426.08,1107.64C2452.85,1107.64 2474.61,1085.89 2474.61,1059.14C2474.61,1032.39 2452.85,1010.64 2426.08,1010.64ZM2426.08,1121C2391.99,1121 2364.24,1093.25 2364.24,1059.14C2364.24,1025.03 2391.99,997.281 2426.08,997.281C2460.2,997.281 2487.97,1025.03 2487.97,1059.14C2487.97,1093.25 2460.2,1121 2426.08,1121Z" style="fill-rule:nonzero;"/>
            <path d="M2379.01,1006.46C2380.54,1008.2 2380.37,1010.86 2378.63,1012.38C2376.89,1013.92 2374.21,1013.73 2372.72,1012L2341.46,976.283C2339.92,974.528 2340.1,971.876 2341.84,970.357C2343.58,968.845 2346.24,968.997 2347.79,970.76L2379.01,1006.46Z" style="fill-rule:nonzero;"/>
            <path d="M2430.45,987.139C2430.48,989.464 2428.61,991.348 2426.3,991.37C2423.98,991.386 2422.07,989.517 2422.07,987.2L2421.72,939.756C2421.72,937.409 2423.6,935.532 2425.9,935.517C2428.2,935.494 2430.1,937.355 2430.13,939.687L2430.45,987.139Z" style="fill-rule:nonzero;"/>
            <path d="M2354.3,1047.61C2356.62,1047.79 2358.34,1049.84 2358.15,1052.12C2357.97,1054.43 2355.96,1056.17 2353.63,1055.97L2306.32,1052.12C2304,1051.93 2302.27,1049.91 2302.47,1047.61C2302.68,1045.3 2304.69,1043.58 2307.01,1043.74L2354.3,1047.61Z" style="fill-rule:nonzero;"/>
            <path d="M2488.4,1101.44C2486.34,1100.37 2485.53,1097.83 2486.61,1095.78C2487.7,1093.73 2490.25,1092.94 2492.32,1094.03L2534.29,1116.11C2536.38,1117.19 2537.14,1119.74 2536.06,1121.77C2534.99,1123.84 2532.44,1124.62 2530.38,1123.55L2488.4,1101.44Z" style="fill-rule:nonzero;"/>
            <path d="M2498.02,1050.23C2495.71,1050.51 2493.62,1048.87 2493.36,1046.56C2493.08,1044.25 2494.73,1042.16 2497.05,1041.89L2544.17,1036.38C2546.51,1036.12 2548.56,1037.77 2548.83,1040.07C2549.1,1042.39 2547.45,1044.46 2545.15,1044.73L2498.02,1050.23Z" style="fill-rule:nonzero;"/>
            <path d="M2467.09,1168.49C2467.87,1170.68 2466.72,1173.08 2464.53,1173.86C2462.34,1174.62 2459.94,1173.49 2459.18,1171.29L2443.39,1126.53C2442.62,1124.33 2443.77,1121.93 2445.96,1121.18C2448.15,1120.39 2450.55,1121.55 2451.31,1123.73L2467.09,1168.49Z" style="fill-rule:nonzero;"/>
            <path d="M2474.84,1007.63C2473.41,1009.44 2470.79,1009.78 2468.94,1008.37C2467.12,1006.94 2466.79,1004.3 2468.22,1002.48L2497.45,965.069C2498.87,963.231 2501.51,962.904 2503.34,964.325C2505.17,965.753 2505.49,968.396 2504.08,970.22L2474.84,1007.63Z" style="fill-rule:nonzero;"/>
        </g>
    </g>
</svg>
