<!-- Generated by IcoMoon.io -->
<svg version="1.1" xmlns="http://www.w3.org/2000/svg" width="32" height="32" viewBox="0 0 32 32">
<title>sleet</title>
<path d="M4.363 18.080c0-1.237 0.384-2.336 1.152-3.296s1.749-1.589 2.923-1.856c0.331-1.461 1.077-2.656 2.24-3.595s2.507-1.408 4.021-1.408c0.864 0 1.653 0.139 2.347 0.427 0 0.011 0 0.011 0.011 0.021 0.896 0.341 1.685 0.896 2.357 1.653h0.032c0.725 0.779 1.205 1.707 1.461 2.795h0.331c1.152 0 2.155 0.309 3.019 0.917v-0.011c0.565 0.384 1.045 0.853 1.429 1.419s0.64 1.184 0.779 1.856c0.043 0.224 0.064 0.405 0.085 0.555v0.064c0 0.011 0 0.064 0.011 0.181s0.011 0.203 0.011 0.256v0.032c0 0.939-0.224 1.813-0.683 2.613-0.448 0.8-1.067 1.451-1.856 1.931-0.779 0.48-1.643 0.736-2.581 0.768-0.139 0-0.213-0.064-0.213-0.181v-1.429c0-0.139 0.075-0.203 0.213-0.203 0.917-0.043 1.685-0.405 2.325-1.088s0.96-1.483 0.96-2.411c0-0.949-0.341-1.76-1.035-2.443-0.683-0.683-1.504-1.024-2.464-1.024h-1.717c-0.128 0-0.192-0.064-0.192-0.181l-0.085-0.629c-0.107-1.067-0.555-1.984-1.355-2.763-0.011-0.011-0.011-0.021-0.021-0.032s-0.021-0.021-0.021-0.032c-0.011-0.011-0.021-0.021-0.043-0.021 0-0.021-0.011-0.032-0.021-0.032-0.779-0.704-1.685-1.109-2.731-1.195-0.075-0.011-0.192-0.011-0.363-0.011-1.173 0-2.187 0.395-3.051 1.173s-1.355 1.749-1.461 2.901l-0.085 0.629c-0.032 0.096-0.117 0.149-0.235 0.149l-0.523 0.032c-0.896 0.107-1.653 0.491-2.251 1.141s-0.896 1.429-0.896 2.325v0.043h0.032c0.011 0.512 0.117 0.992 0.32 1.44 0.213 0.459 0.491 0.843 0.853 1.163 0.224 0.192 0.48 0.363 0.789 0.512v0.011c0.427 0.203 0.853 0.32 1.291 0.341 0.117 0 0.181 0.064 0.181 0.192v1.429c0 0.117-0.064 0.181-0.181 0.181-0.555-0.032-1.077-0.139-1.579-0.32v0.011c-0.885-0.309-1.643-0.821-2.251-1.525s-1.013-1.536-1.184-2.464v-0.032c-0.011-0.011-0.011-0.021-0.011-0.043-0.064-0.277-0.085-0.597-0.085-0.939zM10.229 25.728c0-0.032 0.011-0.075 0.021-0.139 0.011-0.053 0.021-0.096 0.021-0.128l0.096-0.629c0.075-0.256 0.213-0.437 0.437-0.565s0.459-0.149 0.725-0.085c0.245 0.075 0.416 0.224 0.544 0.437 0.117 0.224 0.139 0.448 0.075 0.672l-0.149 0.64c-0.107 0.469-0.373 0.704-0.811 0.704-0.032 0-0.085-0.011-0.149-0.021s-0.107-0.021-0.149-0.021c-0.224-0.064-0.384-0.181-0.491-0.352-0.117-0.16-0.171-0.331-0.171-0.512zM11.019 22.592c0-0.256 0.085-0.459 0.245-0.629s0.373-0.245 0.629-0.245 0.459 0.085 0.629 0.245 0.245 0.373 0.245 0.629c0 0.245-0.085 0.448-0.245 0.619s-0.373 0.245-0.629 0.245c-0.245 0-0.448-0.085-0.608-0.256-0.171-0.171-0.267-0.373-0.267-0.608zM12.768 28.981c0-0.043 0.011-0.117 0.043-0.245l0.139-0.629c0.075-0.245 0.224-0.427 0.437-0.544 0.224-0.128 0.448-0.149 0.672-0.075 0.245 0.043 0.437 0.181 0.565 0.395s0.16 0.459 0.085 0.725l-0.139 0.629c-0.107 0.437-0.395 0.651-0.853 0.651-0.075 0-0.171-0.011-0.256-0.032-0.235-0.064-0.405-0.181-0.523-0.352-0.107-0.171-0.171-0.341-0.171-0.523zM13.611 25.877c0-0.245 0.085-0.459 0.245-0.619 0.171-0.171 0.373-0.245 0.629-0.245s0.459 0.085 0.629 0.245c0.171 0.171 0.245 0.373 0.245 0.619 0 0.256-0.085 0.459-0.245 0.629-0.171 0.171-0.373 0.245-0.629 0.245-0.245 0-0.448-0.085-0.619-0.256s-0.256-0.373-0.256-0.619zM14.272 23.456c0-0.107 0.011-0.203 0.032-0.288l0.245-0.96c0.075-0.245 0.224-0.437 0.437-0.565 0.224-0.128 0.448-0.16 0.683-0.085 0.256 0.075 0.437 0.213 0.565 0.427s0.149 0.437 0.075 0.672l-0.277 0.96c-0.085 0.299-0.235 0.491-0.437 0.597s-0.437 0.128-0.683 0.064c-0.213-0.043-0.373-0.149-0.48-0.32-0.128-0.171-0.171-0.341-0.16-0.501zM17.216 25.739c0-0.032 0-0.085 0.011-0.139s0.011-0.096 0.011-0.117l0.096-0.629c0.075-0.256 0.213-0.437 0.437-0.565s0.459-0.149 0.725-0.085c0.245 0.075 0.427 0.224 0.544 0.437 0.128 0.224 0.149 0.448 0.075 0.672l-0.149 0.64c-0.107 0.469-0.373 0.704-0.811 0.704-0.032 0-0.085-0.011-0.149-0.021s-0.117-0.021-0.149-0.021c-0.213-0.064-0.373-0.181-0.48-0.352-0.096-0.171-0.16-0.341-0.16-0.523zM18.005 22.603c0-0.256 0.085-0.459 0.245-0.629 0.171-0.171 0.373-0.245 0.629-0.245s0.459 0.085 0.629 0.245c0.171 0.171 0.245 0.373 0.245 0.629 0 0.245-0.085 0.459-0.245 0.619s-0.363 0.245-0.619 0.245c-0.256 0-0.459-0.085-0.619-0.256-0.171-0.16-0.267-0.363-0.267-0.608z"></path>
</svg>
