<!-- Generated by IcoMoon.io -->
<svg version="1.1" xmlns="http://www.w3.org/2000/svg" width="32" height="32" viewBox="0 0 32 32">
<title>smoke</title>
<path d="M6.763 13.312c0-1.003 0.32-1.899 0.949-2.688s1.429-1.291 2.4-1.504c0.267-1.195 0.875-2.187 1.835-2.955s2.048-1.152 3.285-1.152c1.195 0 2.272 0.373 3.221 1.12s1.557 1.707 1.845 2.869h0.288c1.195 0 2.219 0.416 3.072 1.259 0.843 0.832 1.269 1.856 1.269 3.040 0 0.64-0.128 1.248-0.395 1.813s-0.629 1.056-1.099 1.461v0.032c0 0.629-0.203 1.195-0.597 1.696s-0.896 0.811-1.493 0.949c-0.149 0.661-0.48 1.227-0.971 1.685s-1.077 0.747-1.739 0.853c0.309 0.363 0.459 0.768 0.459 1.205 0 0.512-0.181 0.949-0.544 1.323-0.363 0.363-0.8 0.555-1.312 0.555s-0.949-0.181-1.312-0.555c-0.363-0.363-0.544-0.811-0.544-1.323 0-0.203 0.032-0.405 0.107-0.608h-0.107c-0.619 0-1.152-0.224-1.6-0.672s-0.672-0.981-0.672-1.6c0-0.427 0.107-0.811 0.32-1.141-0.555-0.309-0.949-0.747-1.195-1.333h-1.365v-0.011c-1.141-0.075-2.112-0.523-2.912-1.355s-1.195-1.813-1.195-2.965zM8.256 13.045c0 0.853 0.299 1.579 0.896 2.176s1.323 0.896 2.165 0.896c0.523 0 1.013-0.117 1.461-0.363 0.128 0.789 0.501 1.451 1.109 1.984s1.333 0.789 2.155 0.789c0.928 0 1.717-0.331 2.368-0.981 0.437 0.512 0.981 0.757 1.643 0.757 0.608 0 1.12-0.213 1.557-0.64 0.427-0.427 0.64-0.949 0.64-1.557 0.427-0.288 0.768-0.651 1.013-1.109 0.245-0.448 0.373-0.939 0.373-1.461 0-0.843-0.299-1.568-0.907-2.155s-1.333-0.885-2.187-0.885c-0.597 0-1.141 0.16-1.632 0.469 0.064-0.256 0.085-0.544 0.085-0.843 0-1.024-0.363-1.899-1.099-2.624s-1.621-1.077-2.656-1.077c-1.003 0-1.867 0.352-2.592 1.035s-1.109 1.536-1.141 2.528c-0.021 0-0.053 0-0.085 0-0.043 0-0.075 0-0.096 0-0.843 0-1.557 0.299-2.165 0.896s-0.907 1.333-0.907 2.165z"></path>
</svg>
