<?xml version="1.0" encoding="UTF-8" standalone="no"?>
<!DOCTYPE svg PUBLIC "-//W3C//DTD SVG 1.1//EN" "http://www.w3.org/Graphics/SVG/1.1/DTD/svg11.dtd">
<svg width="100%" height="100%" viewBox="0 0 1500 1500" version="1.1" xmlns="http://www.w3.org/2000/svg" xmlns:xlink="http://www.w3.org/1999/xlink" xml:space="preserve" xmlns:serif="http://www.serif.com/" style="fill-rule:evenodd;clip-rule:evenodd;stroke-linejoin:round;stroke-miterlimit:2;">
    <g transform="matrix(4.16667,0,0,4.16667,-13657,-6681.5)">
        <g>
            <path d="M3612.82,1730.33C3633.68,1712.63 3642.99,1683.5 3634.06,1655.84C3623.28,1622.41 3589.61,1602.86 3555.97,1608.7C3569.12,1617.11 3579.53,1629.93 3584.69,1645.96C3588.6,1658.07 3588.95,1670.47 3586.43,1682.08C3576.39,1671.8 3562.4,1665.39 3546.94,1665.39C3536.5,1665.39 3526.54,1668.27 3517.9,1673.67C3512.54,1642.22 3483.7,1618.69 3449.97,1620.55C3417.88,1622.14 3392.46,1645.64 3388.28,1675.78C3382.49,1673.7 3376.49,1672.67 3370.43,1672.67C3339.98,1672.67 3315.18,1697.42 3315.18,1727.89C3315.18,1728.56 3315.2,1729.21 3315.25,1729.91C3299.83,1734.1 3277.69,1743.03 3277.73,1774.58C3277.76,1798.02 3297.23,1818.13 3323.77,1819.39L3331.91,1806.85C3330.93,1806.87 3329.86,1806.9 3329.09,1806.94L3327.11,1807C3306.99,1807 3290.59,1792.44 3290.58,1774.56C3290.56,1753.26 3302.18,1746.33 3323.66,1741.01L3328.5,1739.17L3328.64,1734.29L3328.4,1731.67C3328.22,1730.43 3328.05,1729.18 3328.05,1727.89C3328.05,1704.53 3347.06,1685.51 3370.43,1685.51C3377.47,1685.51 3384.39,1687.39 3390.99,1691.08L3400.74,1696.55L3400.56,1685.37C3400.07,1657.64 3422.08,1634.81 3450.63,1633.4L3453.39,1633.32C3481.49,1633.32 3504.51,1654.6 3505.87,1681.79C3505.91,1682.75 3505.87,1683.72 3505.73,1686.21L3505.15,1702.73L3516.75,1690.94C3524.78,1682.75 3535.52,1678.24 3546.94,1678.24C3561.28,1678.24 3573.97,1685.43 3581.64,1696.37C3573.78,1713.46 3559.14,1727.36 3539.84,1733.58C3536.67,1734.62 3533.49,1735.31 3530.29,1735.87C3547.21,1746.69 3568.61,1750.13 3589.21,1743.49C3593.19,1742.2 3596.95,1740.53 3600.53,1738.62C3613.43,1743.44 3622.38,1754.66 3623.03,1767.88C3623.82,1783.39 3613.12,1801.02 3596.9,1806.14L3601.2,1818.1C3621.67,1811.29 3637.01,1790.13 3635.87,1767.24C3635.1,1751.67 3626.19,1738.16 3612.82,1730.33Z" style="fill-rule:nonzero;"/>
            <rect x="3350.22" y="1810.5" width="3.7" height="3.71"/>
            <path d="M3366.65,1825.51L3363.9,1822.67L3366.65,1821.45L3366.65,1825.51ZM3366.65,1834.43L3363.9,1833.31L3366.65,1830.27L3366.65,1834.43ZM3362.37,1831.89L3361.14,1828.82L3365.22,1828.82L3362.37,1831.89ZM3362.18,1824.11L3365.22,1826.95L3361.14,1826.95L3362.18,1824.11ZM3368.73,1830.27L3371.66,1833.09L3368.73,1834.54L3368.73,1830.27ZM3368.73,1821.45L3371.66,1822.67L3368.73,1825.51L3368.73,1821.45ZM3372.98,1824.11L3374.06,1826.95L3369.95,1826.95L3372.98,1824.11ZM3372.8,1831.89L3369.95,1828.82L3374.32,1828.82L3372.8,1831.89ZM3372.71,1840.07L3373.47,1835.2L3378.48,1840.21L3378.58,1846.37L3380.38,1840.93L3386.17,1838.78L3380.01,1838.78L3374.98,1833.94L3379.83,1832.55L3376.98,1828.82L3384.07,1828.82L3388.44,1833.48L3386.06,1827.79L3388.44,1822.41L3384.07,1826.95L3376.98,1826.95L3379.53,1822.96L3374.98,1822.11L3380.01,1817L3386.17,1817L3380.52,1814.96L3378.37,1809.31L3378.37,1815.57L3373.47,1820.69L3372.71,1815.83L3368.63,1818.61L3368.63,1811.69L3373.1,1807.03L3367.77,1809.69L3362.18,1807.24L3366.65,1811.69L3366.65,1818.61L3362.49,1816.11L3361.82,1820.69L3356.77,1815.57L3356.77,1809.31L3354.82,1814.96L3349,1817.2L3355.28,1817.2L3360.29,1822.11L3355.13,1823.23L3358.31,1826.95L3351.21,1826.95L3346.72,1822.41L3348.88,1827.97L3346.72,1833.48L3351.21,1828.82L3358.31,1828.82L3355.13,1832.96L3360.29,1833.78L3355.28,1838.78L3349,1838.78L3354.82,1840.79L3356.7,1846.37L3356.77,1840.21L3361.62,1835.37L3362.49,1840.37L3366.65,1837.27L3366.65,1844.4L3362.18,1848.76L3367.63,1846.36L3372.98,1848.76L3368.63,1844.4L3368.63,1837.27L3372.71,1840.07Z" style="fill-rule:nonzero;"/>
            <rect x="3381.01" y="1841.44" width="3.72" height="3.69"/>
            <path d="M3364.91,1850.04L3367.55,1852.66L3370.2,1850.04L3367.55,1847.41L3364.91,1850.04Z" style="fill-rule:nonzero;"/>
            <path d="M3367.43,1802.81L3364.81,1805.42L3367.43,1808.05L3370.08,1805.42L3367.43,1802.81Z" style="fill-rule:nonzero;"/>
            <rect x="3381.3" y="1810.5" width="3.7" height="3.71"/>
            <path d="M3392.24,1827.84L3389.6,1825.24L3386.96,1827.84L3389.6,1830.46L3392.24,1827.84Z" style="fill-rule:nonzero;"/>
            <path d="M3345.19,1825.32L3342.58,1827.97L3345.22,1830.54L3347.82,1827.97L3345.19,1825.32Z" style="fill-rule:nonzero;"/>
            <rect x="3350.41" y="1841.44" width="3.72" height="3.69"/>
            <rect x="3499.46" y="1780.46" width="4.78" height="4.82"/>
            <path d="M3517.2,1810.03L3520.76,1806.09L3520.76,1811.5L3517.2,1810.03ZM3515.22,1808.2L3513.61,1804.22L3518.9,1804.22L3515.22,1808.2ZM3514.97,1798.11L3518.9,1801.8L3513.61,1801.8L3514.97,1798.11ZM3520.76,1794.66L3520.76,1799.93L3517.2,1796.24L3520.76,1794.66ZM3523.45,1806.09L3527.25,1809.77L3523.45,1811.62L3523.45,1806.09ZM3523.45,1794.66L3527.25,1796.24L3523.45,1799.93L3523.45,1794.66ZM3528.97,1798.11L3530.34,1801.8L3525.02,1801.8L3528.97,1798.11ZM3528.75,1808.2L3525.02,1804.22L3530.69,1804.22L3528.75,1808.2ZM3514.97,1830.07L3522.03,1826.97L3528.97,1830.07L3523.32,1824.42L3523.32,1815.19L3528.64,1818.81L3529.61,1812.5L3536.08,1818.99L3536.22,1826.99L3538.59,1819.92L3546.08,1817.13L3538.08,1817.13L3531.57,1810.88L3537.83,1809.04L3534.16,1804.22L3543.35,1804.22L3549.02,1810.29L3545.93,1802.9L3549.02,1795.91L3543.35,1801.8L3534.16,1801.8L3537.47,1796.63L3531.57,1795.52L3538.08,1788.91L3546.08,1788.91L3538.75,1786.25L3535.97,1778.92L3535.97,1787.04L3529.61,1793.68L3528.64,1787.37L3523.32,1790.98L3523.32,1782.02L3529.13,1775.97L3522.2,1779.43L3514.97,1776.25L3520.76,1782.02L3520.76,1790.98L3515.37,1787.73L3514.48,1793.68L3507.96,1787.04L3507.96,1778.92L3505.43,1786.25L3497.86,1789.15L3506,1789.15L3512.51,1795.52L3505.82,1796.99L3509.93,1801.8L3500.71,1801.8L3494.94,1795.91L3497.72,1803.11L3494.94,1810.29L3500.71,1804.22L3509.93,1804.22L3505.82,1809.58L3512.51,1810.64L3506,1817.13L3497.86,1817.13L3505.43,1819.74L3507.86,1826.99L3507.96,1818.99L3514.24,1812.73L3515.37,1819.2L3520.76,1815.19L3520.76,1824.42L3514.97,1830.07Z" style="fill-rule:nonzero;"/>
            <rect x="3499.67" y="1820.59" width="4.84" height="4.77"/>
            <path d="M3525.33,1831.75L3521.93,1828.34L3518.5,1831.75L3521.93,1835.12L3525.33,1831.75Z" style="fill-rule:nonzero;"/>
            <path d="M3496.33,1803.11L3492.92,1799.69L3489.53,1803.11L3492.96,1806.46L3496.33,1803.11Z" style="fill-rule:nonzero;"/>
            <rect x="3539.37" y="1820.59" width="4.82" height="4.77"/>
            <path d="M3550.51,1799.58L3547.11,1802.95L3550.51,1806.35L3553.94,1802.95L3550.51,1799.58Z" style="fill-rule:nonzero;"/>
            <rect x="3539.73" y="1780.46" width="4.81" height="4.82"/>
            <path d="M3521.77,1770.5L3518.38,1773.88L3521.77,1777.3L3525.19,1773.88L3521.77,1770.5Z" style="fill-rule:nonzero;"/>
            <path d="M3413.08,1932.54L3409.35,1928.55L3415.03,1928.55L3413.08,1932.54ZM3407.79,1935.96L3407.79,1930.42L3411.59,1934.1L3407.79,1935.96ZM3407.79,1918.99L3411.59,1920.57L3407.79,1924.27L3407.79,1918.99ZM3413.29,1922.45L3414.68,1926.13L3409.35,1926.13L3413.29,1922.45ZM3405.08,1924.27L3401.52,1920.57L3405.08,1918.99L3405.08,1924.27ZM3405.08,1935.84L3401.52,1934.36L3405.08,1930.42L3405.08,1935.84ZM3399.55,1932.54L3397.94,1928.55L3403.24,1928.55L3399.55,1932.54ZM3399.31,1922.45L3403.24,1926.13L3397.94,1926.13L3399.31,1922.45ZM3433.35,1934.6L3430.26,1927.22L3433.35,1920.25L3427.69,1926.13L3418.47,1926.13L3421.8,1920.96L3415.9,1919.85L3422.4,1913.23L3430.4,1913.23L3423.08,1910.57L3420.29,1903.24L3420.29,1911.37L3413.93,1918.01L3412.95,1911.71L3407.65,1915.32L3407.65,1906.36L3413.44,1900.31L3406.53,1903.75L3399.31,1900.57L3405.08,1906.36L3405.08,1915.32L3399.69,1912.06L3398.82,1918.01L3392.28,1911.37L3392.28,1903.24L3389.76,1910.57L3382.19,1913.48L3390.34,1913.48L3396.84,1919.85L3390.15,1921.31L3394.27,1926.13L3385.04,1926.13L3379.26,1920.25L3382.06,1927.45L3379.26,1934.6L3385.04,1928.55L3394.27,1928.55L3390.15,1933.91L3396.84,1934.97L3390.34,1941.46L3382.19,1941.46L3389.76,1944.08L3392.19,1951.33L3392.28,1943.33L3398.57,1937.05L3399.69,1943.52L3405.08,1939.52L3405.08,1948.75L3399.31,1954.4L3406.37,1951.29L3413.29,1954.4L3407.65,1948.75L3407.65,1939.52L3412.95,1943.14L3413.93,1936.84L3420.41,1943.33L3420.55,1951.33L3422.92,1944.25L3430.4,1941.46L3422.4,1941.46L3415.9,1935.21L3422.17,1933.37L3418.47,1928.55L3427.69,1928.55L3433.35,1934.6Z" style="fill-rule:nonzero;"/>
            <path d="M3406.1,1894.83L3402.7,1898.22L3406.1,1901.62L3409.53,1898.22L3406.1,1894.83Z" style="fill-rule:nonzero;"/>
            <rect x="3424.07" y="1904.79" width="4.8" height="4.81"/>
            <rect x="3383.78" y="1904.79" width="4.79" height="4.81"/>
            <rect x="3384" y="1944.91" width="4.84" height="4.78"/>
            <path d="M3377.26,1924.02L3373.87,1927.45L3377.29,1930.79L3380.67,1927.45L3377.26,1924.02Z" style="fill-rule:nonzero;"/>
            <path d="M3431.44,1927.29L3434.85,1930.67L3438.25,1927.29L3434.85,1923.91L3431.44,1927.29Z" style="fill-rule:nonzero;"/>
            <rect x="3423.69" y="1944.91" width="4.83" height="4.78"/>
            <path d="M3402.82,1956.07L3406.26,1959.46L3409.66,1956.07L3406.26,1952.67L3402.82,1956.07Z" style="fill-rule:nonzero;"/>
            <path d="M3475.4,1849.94L3473.03,1852.29L3475.4,1854.66L3477.77,1852.29L3475.4,1849.94Z" style="fill-rule:nonzero;"/>
            <rect x="3487.88" y="1856.87" width="3.34" height="3.34"/>
            <path d="M3480.25,1876.14L3477.66,1873.37L3481.6,1873.37L3480.25,1876.14ZM3476.58,1878.51L3476.58,1874.66L3479.19,1877.23L3476.58,1878.51ZM3476.58,1866.73L3479.19,1867.83L3476.58,1870.38L3476.58,1866.73ZM3480.41,1869.12L3481.35,1871.67L3477.66,1871.67L3480.41,1869.12ZM3474.7,1870.38L3472.21,1867.83L3474.7,1866.73L3474.7,1870.38ZM3474.7,1878.42L3472.21,1877.4L3474.7,1874.66L3474.7,1878.42ZM3470.86,1876.14L3469.73,1873.37L3473.41,1873.37L3470.86,1876.14ZM3470.66,1869.12L3473.41,1871.67L3469.73,1871.67L3470.66,1869.12ZM3494.32,1877.58L3492.18,1872.43L3494.32,1867.6L3490.38,1871.67L3483.99,1871.67L3486.32,1868.09L3482.21,1867.32L3486.74,1862.74L3492.3,1862.74L3487.19,1860.87L3485.27,1855.79L3485.27,1861.44L3480.86,1866.05L3480.17,1861.66L3476.47,1864.17L3476.47,1857.94L3480.51,1853.75L3475.71,1856.14L3470.66,1853.94L3474.7,1857.94L3474.7,1864.17L3470.95,1861.91L3470.35,1866.05L3465.8,1861.44L3465.8,1855.79L3464.06,1860.87L3458.81,1862.9L3464.44,1862.9L3468.96,1867.32L3464.33,1868.34L3467.17,1871.67L3460.77,1871.67L3456.75,1867.6L3458.69,1872.6L3456.75,1877.58L3460.77,1873.37L3467.17,1873.37L3464.33,1877.08L3468.96,1877.82L3464.44,1882.34L3458.81,1882.34L3464.06,1884.14L3465.75,1889.19L3465.8,1883.63L3470.17,1879.28L3470.95,1883.77L3474.7,1880.98L3474.7,1887.4L3470.66,1891.3L3475.58,1889.17L3480.41,1891.3L3476.47,1887.4L3476.47,1880.98L3480.17,1883.5L3480.86,1879.12L3485.34,1883.63L3485.44,1889.19L3487.08,1884.27L3492.3,1882.34L3486.74,1882.34L3482.21,1877.98L3486.56,1876.72L3483.99,1873.37L3490.38,1873.37L3494.32,1877.58Z" style="fill-rule:nonzero;"/>
            <rect x="3459.88" y="1856.87" width="3.35" height="3.34"/>
            <path d="M3455.36,1870.21L3453,1872.6L3455.38,1874.92L3457.73,1872.6L3455.36,1870.21Z" style="fill-rule:nonzero;"/>
            <path d="M3492.99,1872.48L3495.37,1874.85L3497.75,1872.48L3495.37,1870.14L3492.99,1872.48Z" style="fill-rule:nonzero;"/>
            <rect x="3487.64" y="1884.72" width="3.34" height="3.33"/>
            <rect x="3460.06" y="1884.72" width="3.35" height="3.33"/>
            <path d="M3473.14,1892.49L3475.49,1894.83L3477.86,1892.49L3475.49,1890.12L3473.14,1892.49Z" style="fill-rule:nonzero;"/>
            <rect x="3426.93" y="1801.01" width="2.35" height="2.36"/>
            <path d="M3441.25,1814.57L3439.44,1812.63L3442.22,1812.63L3441.25,1814.57ZM3438.67,1816.24L3438.67,1813.54L3440.51,1815.35L3438.67,1816.24ZM3438.67,1807.95L3440.51,1808.73L3438.67,1810.51L3438.67,1807.95ZM3441.37,1809.63L3442.05,1811.44L3439.44,1811.44L3441.37,1809.63ZM3437.35,1810.51L3435.61,1808.73L3437.35,1807.95L3437.35,1810.51ZM3437.35,1816.18L3435.61,1815.47L3437.35,1813.54L3437.35,1816.18ZM3434.64,1814.57L3433.86,1812.63L3436.44,1812.63L3434.64,1814.57ZM3434.51,1809.63L3436.44,1811.44L3433.86,1811.44L3434.51,1809.63ZM3451.16,1815.6L3449.66,1811.97L3451.16,1808.56L3448.39,1811.44L3443.89,1811.44L3445.52,1808.92L3442.64,1808.37L3445.81,1805.14L3449.73,1805.14L3446.15,1803.83L3444.8,1800.25L3444.8,1804.22L3441.68,1807.48L3441.21,1804.38L3438.6,1806.15L3438.6,1801.78L3441.44,1798.82L3438.07,1800.5L3434.51,1798.96L3437.35,1801.78L3437.35,1806.15L3434.71,1804.57L3434.29,1807.48L3431.09,1804.22L3431.09,1800.25L3429.86,1803.83L3426.15,1805.26L3430.13,1805.26L3433.31,1808.37L3430.05,1809.09L3432.07,1811.44L3427.54,1811.44L3424.72,1808.56L3426.08,1812.08L3424.72,1815.6L3427.54,1812.63L3432.07,1812.63L3430.05,1815.24L3433.31,1815.76L3430.13,1818.95L3426.15,1818.95L3429.86,1820.21L3431.05,1823.76L3431.09,1819.85L3434.15,1816.77L3434.71,1819.95L3437.35,1817.98L3437.35,1822.5L3434.51,1825.26L3437.98,1823.75L3441.37,1825.26L3438.6,1822.5L3438.6,1817.98L3441.21,1819.75L3441.68,1816.68L3444.85,1819.85L3444.91,1823.76L3446.08,1820.3L3449.73,1818.95L3445.81,1818.95L3442.64,1815.88L3445.7,1814.98L3443.89,1812.63L3448.39,1812.63L3451.16,1815.6Z" style="fill-rule:nonzero;"/>
            <path d="M3437.84,1796.14L3436.19,1797.79L3437.84,1799.45L3439.52,1797.79L3437.84,1796.14Z" style="fill-rule:nonzero;"/>
            <path d="M3451.91,1810.35L3450.24,1812L3451.91,1813.66L3453.58,1812L3451.91,1810.35Z" style="fill-rule:nonzero;"/>
            <rect x="3427.04" y="1820.62" width="2.38" height="2.34"/>
            <rect x="3446.64" y="1801.01" width="2.35" height="2.36"/>
            <path d="M3423.73,1810.41L3422.08,1812.08L3423.76,1813.72L3425.41,1812.08L3423.73,1810.41Z" style="fill-rule:nonzero;"/>
            <path d="M3436.25,1826.07L3437.91,1827.73L3439.57,1826.07L3437.91,1824.41L3436.25,1826.07Z" style="fill-rule:nonzero;"/>
            <rect x="3446.46" y="1820.62" width="2.37" height="2.34"/>
            <path d="M3537.93,1896.11L3539.82,1897.99L3541.72,1896.11L3539.82,1894.19L3537.93,1896.11Z" style="fill-rule:nonzero;"/>
            <path d="M3553.87,1880.04L3555.79,1881.93L3557.68,1880.04L3555.79,1878.14L3553.87,1880.04Z" style="fill-rule:nonzero;"/>
            <rect x="3527.4" y="1889.87" width="2.69" height="2.66"/>
            <path d="M3543.62,1882.98L3541.54,1880.74L3544.7,1880.74L3543.62,1882.98ZM3540.67,1884.87L3540.67,1881.77L3542.79,1883.84L3540.67,1884.87ZM3540.67,1875.41L3542.79,1876.29L3540.67,1878.34L3540.67,1875.41ZM3543.73,1877.34L3544.52,1879.39L3541.54,1879.39L3543.73,1877.34ZM3539.17,1878.34L3537.18,1876.29L3539.17,1875.41L3539.17,1878.34ZM3539.17,1884.8L3537.18,1883.99L3539.17,1881.77L3539.17,1884.8ZM3536.08,1882.98L3535.18,1880.74L3538.14,1880.74L3536.08,1882.98ZM3535.94,1877.34L3538.14,1879.39L3535.18,1879.39L3535.94,1877.34ZM3554.94,1884.11L3553.23,1880L3554.94,1876.11L3551.77,1879.39L3546.64,1879.39L3548.5,1876.5L3545.19,1875.89L3548.84,1872.19L3553.29,1872.19L3549.19,1870.71L3547.67,1866.63L3547.67,1871.15L3544.12,1874.86L3543.55,1871.33L3540.6,1873.34L3540.6,1868.34L3543.84,1864.96L3539.98,1866.91L3535.94,1865.12L3539.17,1868.34L3539.17,1873.34L3536.15,1871.53L3535.66,1874.86L3532.03,1871.15L3532.03,1866.63L3530.62,1870.71L3526.4,1872.32L3530.94,1872.32L3534.54,1875.89L3530.83,1876.7L3533.13,1879.39L3527.98,1879.39L3524.74,1876.11L3526.31,1880.12L3524.74,1884.11L3527.98,1880.74L3533.13,1880.74L3530.83,1883.72L3534.54,1884.33L3530.94,1887.94L3526.4,1887.94L3530.62,1889.4L3531.98,1893.45L3532.03,1888.99L3535.52,1885.5L3536.15,1889.1L3539.17,1886.86L3539.17,1892.02L3535.94,1895.16L3539.87,1893.43L3543.73,1895.16L3540.6,1892.02L3540.6,1886.86L3543.55,1888.89L3544.12,1885.36L3547.73,1888.99L3547.8,1893.45L3549.12,1889.49L3553.29,1887.94L3548.84,1887.94L3545.19,1884.46L3548.71,1883.42L3546.64,1880.74L3551.77,1880.74L3554.94,1884.11Z" style="fill-rule:nonzero;"/>
            <rect x="3549.56" y="1889.87" width="2.69" height="2.66"/>
            <rect x="3549.75" y="1867.48" width="2.69" height="2.69"/>
            <path d="M3539.73,1865.71L3541.65,1863.8L3539.73,1861.92L3537.83,1863.8L3539.73,1865.71Z" style="fill-rule:nonzero;"/>
            <rect x="3527.27" y="1867.48" width="2.67" height="2.69"/>
            <path d="M3523.63,1878.2L3521.75,1880.12L3523.65,1881.99L3525.55,1880.12L3523.63,1878.2Z" style="fill-rule:nonzero;"/>
        </g>
    </g>
</svg>
