<?xml version="1.0" encoding="UTF-8" standalone="no"?>
<!DOCTYPE svg PUBLIC "-//W3C//DTD SVG 1.1//EN" "http://www.w3.org/Graphics/SVG/1.1/DTD/svg11.dtd">
<svg width="100%" height="100%" viewBox="0 0 638 640" version="1.1" xmlns="http://www.w3.org/2000/svg" xmlns:xlink="http://www.w3.org/1999/xlink" xml:space="preserve" xmlns:serif="http://www.serif.com/" style="fill-rule:evenodd;clip-rule:evenodd;stroke-linejoin:round;stroke-miterlimit:2;">
    <g transform="matrix(1,0,0,1,-8972,-14136)">
        <g transform="matrix(4.16667,0,0,4.16667,0,0)">
            <path d="M2298.14,3461.86L2290.07,3469.86L2298.14,3477.93L2306.25,3469.86L2298.14,3461.86ZM2246.52,3482.33L2237.68,3472.87L2251.11,3472.87L2246.52,3482.33ZM2233.94,3490.41L2233.94,3477.35L2242.92,3486.08L2233.94,3490.41ZM2233.94,3450.22L2242.92,3453.96L2233.94,3462.69L2233.94,3450.22ZM2247.04,3458.4L2250.28,3467.14L2237.68,3467.14L2247.04,3458.4ZM2227.55,3462.69L2219.08,3453.96L2227.55,3450.22L2227.55,3462.69ZM2227.55,3490.16L2219.08,3486.69L2227.55,3477.35L2227.55,3490.16ZM2214.4,3482.33L2210.59,3472.87L2223.15,3472.87L2214.4,3482.33ZM2213.8,3458.4L2223.15,3467.14L2210.59,3467.14L2213.8,3458.4ZM2294.57,3487.22L2287.24,3469.72L2294.57,3453.18L2281.13,3467.14L2259.32,3467.14L2267.18,3454.88L2253.15,3452.24L2268.64,3436.57L2287.63,3436.57L2270.23,3430.25L2263.64,3412.83L2263.64,3432.11L2248.52,3447.87L2246.23,3432.91L2233.6,3441.49L2233.6,3420.22L2247.37,3405.86L2230.97,3414.04L2213.8,3406.52L2227.55,3420.22L2227.55,3441.49L2214.77,3433.76L2212.65,3447.87L2197.18,3432.11L2197.18,3412.83L2191.16,3430.25L2173.25,3437.13L2192.53,3437.13L2207.95,3452.24L2192.11,3455.72L2201.85,3467.14L2179.99,3467.14L2166.28,3453.18L2172.89,3470.25L2166.28,3487.22L2179.99,3472.87L2201.85,3472.87L2192.11,3485.61L2207.95,3488.12L2192.53,3503.51L2173.25,3503.51L2191.16,3509.72L2196.96,3526.9L2197.18,3507.93L2212.07,3493.06L2214.77,3508.4L2227.55,3498.92L2227.55,3520.77L2213.8,3534.22L2230.55,3526.82L2247.04,3534.22L2233.6,3520.77L2233.6,3498.92L2246.23,3507.49L2248.52,3492.54L2263.92,3507.93L2264.24,3526.9L2269.84,3510.14L2287.63,3503.51L2268.64,3503.51L2253.15,3488.7L2268.07,3484.31L2259.32,3472.87L2281.13,3472.87L2294.57,3487.22ZM2238.1,3400.91L2229.96,3392.87L2221.87,3400.91L2229.96,3408.98L2238.1,3400.91ZM2283.99,3416.5L2272.57,3416.5L2272.57,3427.94L2283.99,3427.94L2283.99,3416.5ZM2188.36,3416.5L2176.99,3416.5L2176.99,3427.94L2188.36,3427.94L2188.36,3416.5ZM2271.7,3522.99L2283.14,3522.99L2283.14,3511.69L2271.7,3511.69L2271.7,3522.99ZM2161.51,3462.13L2153.49,3470.25L2161.6,3478.18L2169.61,3470.25L2161.51,3462.13ZM2222.19,3538.2L2230.3,3546.21L2238.41,3538.2L2230.3,3530.09L2222.19,3538.2ZM2177.53,3522.99L2189.01,3522.99L2189.01,3511.69L2177.53,3511.69L2177.53,3522.99Z" style="fill-rule:nonzero;"/>
        </g>
    </g>
</svg>
