<?xml version="1.0" encoding="UTF-8" standalone="no"?>
<!DOCTYPE svg PUBLIC "-//W3C//DTD SVG 1.1//EN" "http://www.w3.org/Graphics/SVG/1.1/DTD/svg11.dtd">
<svg width="100%" height="100%" viewBox="0 0 1494 1494" version="1.1" xmlns="http://www.w3.org/2000/svg" xmlns:xlink="http://www.w3.org/1999/xlink" xml:space="preserve" xmlns:serif="http://www.serif.com/" style="fill-rule:evenodd;clip-rule:evenodd;stroke-linejoin:round;stroke-miterlimit:2;">
    <g transform="matrix(4.16667,0,0,4.16667,-3601,-6684.5)">
        <g>
            <path d="M1188.69,1719.09C1188.82,1717.46 1188.9,1715.85 1188.9,1714.23C1188.9,1683.78 1164.12,1659.01 1133.67,1659.01C1123.25,1659.01 1113.26,1661.89 1104.63,1667.27C1099.25,1635.83 1070.45,1612.3 1036.72,1614.16C1004.63,1615.76 979.175,1639.25 975.027,1669.38C969.223,1667.32 963.236,1666.27 957.144,1666.27C926.695,1666.27 901.913,1691.05 901.913,1721.5C901.913,1722.17 901.928,1722.81 901.989,1723.52C886.567,1727.73 864.414,1736.64 864.459,1768.19C864.49,1791.63 883.968,1811.75 910.513,1813L918.642,1800.46C917.669,1800.48 916.576,1800.52 915.831,1800.55L913.855,1800.6C893.723,1800.6 877.329,1786.04 877.314,1768.18C877.283,1746.86 888.922,1739.95 910.392,1734.62L915.223,1732.78L915.36,1727.9L915.132,1725.29C914.949,1724.04 914.767,1722.78 914.767,1721.5C914.767,1698.14 933.791,1679.13 957.144,1679.13C964.209,1679.13 971.138,1681.01 977.716,1684.7L987.486,1690.17L987.289,1678.99C986.818,1651.26 1008.8,1628.42 1037.35,1627L1040.13,1626.94C1068.21,1626.94 1091.25,1648.2 1092.6,1675.4C1092.65,1676.36 1092.58,1677.34 1092.46,1679.82L1091.89,1696.34L1103.48,1684.55C1111.52,1676.36 1122.24,1671.86 1133.67,1671.86C1157.04,1671.86 1176.06,1690.87 1176.06,1714.23C1176.06,1717.15 1175.74,1719.96 1175.2,1722.71L1173.89,1729.16L1180.38,1730.31C1196.94,1733.2 1209.02,1746.02 1209.78,1761.48C1210.55,1777 1199.87,1794.63 1183.63,1799.75L1187.93,1811.7C1208.39,1804.9 1223.76,1783.74 1222.62,1760.85C1221.66,1741.35 1208.01,1724.91 1188.69,1719.09Z" style="fill-rule:nonzero;"/>
            <path d="M976.334,1818.86L973.705,1821.46L976.334,1824.08L978.978,1821.46L976.334,1818.86ZM959.544,1825.52L956.688,1822.43L961.049,1822.43L959.544,1825.52ZM955.457,1828.14L955.457,1823.88L958.39,1826.71L955.457,1828.14ZM955.457,1815.07L958.39,1816.29L955.457,1819.13L955.457,1815.07ZM959.711,1817.73L960.775,1820.56L956.688,1820.56L959.711,1817.73ZM953.391,1819.13L950.625,1816.29L953.391,1815.07L953.391,1819.13ZM953.391,1828.04L950.625,1826.9L953.391,1823.88L953.391,1828.04ZM949.121,1825.52L947.875,1822.43L951.962,1822.43L949.121,1825.52ZM948.909,1817.73L951.962,1820.56L947.875,1820.56L948.909,1817.73ZM975.164,1827.1L972.794,1821.42L975.164,1816.02L970.803,1820.56L963.708,1820.56L966.276,1816.58L961.717,1815.72L966.731,1810.63L972.915,1810.63L967.263,1808.57L965.121,1802.92L965.121,1809.19L960.198,1814.32L959.453,1809.44L955.351,1812.22L955.351,1805.31L959.833,1800.65L954.5,1803.31L948.909,1800.86L953.391,1805.31L953.391,1812.22L949.228,1809.73L948.543,1814.32L943.515,1809.19L943.515,1802.92L941.555,1808.57L935.735,1810.81L941.995,1810.81L947.009,1815.72L941.858,1816.85L945.034,1820.56L937.923,1820.56L933.471,1816.02L935.614,1821.58L933.471,1827.1L937.923,1822.43L945.034,1822.43L941.858,1826.56L947.009,1827.38L941.995,1832.39L935.735,1832.39L941.555,1834.41L943.438,1840L943.515,1833.83L948.346,1829L949.228,1833.98L953.391,1830.89L953.391,1838L948.909,1842.37L954.363,1839.96L959.711,1842.37L955.351,1838L955.351,1830.89L959.453,1833.69L960.198,1828.81L965.212,1833.83L965.318,1840L967.126,1834.54L972.915,1832.39L966.731,1832.39L961.717,1827.56L966.564,1826.15L963.708,1822.43L970.803,1822.43L975.164,1827.1ZM956.81,1799.04L954.166,1796.42L951.537,1799.04L954.166,1801.66L956.81,1799.04ZM971.73,1804.12L968.007,1804.12L968.007,1807.82L971.73,1807.82L971.73,1804.12ZM940.643,1804.12L936.951,1804.12L936.951,1807.82L940.643,1807.82L940.643,1804.12ZM967.734,1838.72L971.457,1838.72L971.457,1835.06L967.734,1835.06L967.734,1838.72ZM931.921,1818.93L929.308,1821.58L931.952,1824.17L934.55,1821.58L931.921,1818.93ZM951.643,1843.66L954.272,1846.27L956.916,1843.66L954.272,1841.03L951.643,1843.66ZM937.133,1838.72L940.855,1838.72L940.855,1835.06L937.133,1835.06L937.133,1838.72Z" style="fill-rule:nonzero;"/>
            <path d="M1137.26,1793.19L1133.84,1796.57L1137.26,1799.96L1140.67,1796.57L1137.26,1793.19ZM1115.48,1801.81L1111.76,1797.84L1117.43,1797.84L1115.48,1801.81ZM1110.19,1805.23L1110.19,1799.71L1113.98,1803.4L1110.19,1805.23ZM1110.19,1788.28L1113.98,1789.86L1110.19,1793.55L1110.19,1788.28ZM1115.71,1791.73L1117.08,1795.42L1111.76,1795.42L1115.71,1791.73ZM1107.49,1793.55L1103.92,1789.86L1107.49,1788.28L1107.49,1793.55ZM1107.49,1805.12L1103.92,1803.64L1107.49,1799.71L1107.49,1805.12ZM1101.96,1801.81L1100.35,1797.84L1105.64,1797.84L1101.96,1801.81ZM1101.7,1791.73L1105.64,1795.42L1100.35,1795.42L1101.7,1791.73ZM1135.74,1803.9L1132.65,1796.5L1135.74,1789.52L1130.08,1795.42L1120.88,1795.42L1124.2,1790.24L1118.29,1789.13L1124.81,1782.53L1132.82,1782.53L1125.48,1779.86L1122.7,1772.53L1122.7,1780.65L1116.33,1787.29L1115.36,1780.98L1110.06,1784.6L1110.06,1775.63L1115.85,1769.58L1108.93,1773.04L1101.7,1769.86L1107.49,1775.63L1107.49,1784.6L1102.11,1781.35L1101.21,1787.29L1094.7,1780.65L1094.7,1772.53L1092.16,1779.86L1084.61,1782.77L1092.72,1782.77L1099.22,1789.13L1092.55,1790.6L1096.66,1795.42L1087.45,1795.42L1081.66,1789.52L1084.46,1796.73L1081.66,1803.9L1087.45,1797.84L1096.66,1797.84L1092.55,1803.19L1099.22,1804.25L1092.72,1810.74L1084.61,1810.74L1092.16,1813.36L1094.59,1820.61L1094.7,1812.6L1100.97,1806.33L1102.11,1812.82L1107.49,1808.81L1107.49,1818.02L1101.7,1823.69L1108.75,1820.58L1115.71,1823.69L1110.06,1818.02L1110.06,1808.81L1115.36,1812.42L1116.33,1806.13L1122.82,1812.6L1122.96,1820.61L1125.31,1813.54L1132.82,1810.74L1124.81,1810.74L1118.29,1804.5L1124.57,1802.66L1120.88,1797.84L1130.08,1797.84L1135.74,1803.9ZM1111.93,1767.49L1108.51,1764.11L1105.1,1767.49L1108.51,1770.91L1111.93,1767.49ZM1131.28,1774.08L1126.47,1774.08L1126.47,1778.9L1131.28,1778.9L1131.28,1774.08ZM1090.97,1774.08L1086.19,1774.08L1086.19,1778.9L1090.97,1778.9L1090.97,1774.08ZM1126.1,1818.96L1130.93,1818.96L1130.93,1814.2L1126.1,1814.2L1126.1,1818.96ZM1079.65,1793.3L1076.27,1796.73L1079.7,1800.07L1083.06,1796.73L1079.65,1793.3ZM1105.24,1825.37L1108.65,1828.72L1112.08,1825.37L1108.65,1821.94L1105.24,1825.37ZM1086.42,1818.96L1091.25,1818.96L1091.25,1814.2L1086.42,1814.2L1086.42,1818.96Z" style="fill-rule:nonzero;"/>
            <path d="M1021.58,1917.52L1018.16,1920.89L1021.58,1924.29L1025,1920.89L1021.58,1917.52ZM999.794,1926.15L996.086,1922.16L1001.75,1922.16L999.794,1926.15ZM994.521,1929.56L994.521,1924.04L998.305,1927.73L994.521,1929.56ZM994.521,1912.62L998.305,1914.19L994.521,1917.86L994.521,1912.62ZM1000.04,1916.06L1001.4,1919.75L996.086,1919.75L1000.04,1916.06ZM991.817,1917.86L988.247,1914.19L991.817,1912.62L991.817,1917.86ZM991.817,1929.46L988.247,1927.98L991.817,1924.04L991.817,1929.46ZM986.286,1926.15L984.676,1922.16L989.963,1922.16L986.286,1926.15ZM986.028,1916.06L989.963,1919.75L984.676,1919.75L986.028,1916.06ZM1020.08,1928.22L1016.98,1920.83L1020.08,1913.87L1014.41,1919.75L1005.2,1919.75L1008.53,1914.57L1002.62,1913.47L1009.14,1906.85L1017.13,1906.85L1009.79,1904.19L1007.03,1896.85L1007.03,1904.98L1000.66,1911.63L999.687,1905.31L994.37,1908.93L994.37,1899.97L1000.17,1893.92L993.26,1897.37L986.028,1894.19L991.817,1899.97L991.817,1908.93L986.438,1905.66L985.542,1911.63L979.023,1904.98L979.023,1896.85L976.486,1904.19L968.934,1907.11L977.063,1907.11L983.566,1913.47L976.881,1914.93L980.983,1919.75L971.775,1919.75L965.987,1913.87L968.783,1921.06L965.987,1928.22L971.775,1922.16L980.983,1922.16L976.881,1927.54L983.566,1928.58L977.063,1935.08L968.934,1935.08L976.486,1937.69L978.917,1944.94L979.023,1936.93L985.298,1930.67L986.438,1937.15L991.817,1933.14L991.817,1942.37L986.028,1948.01L993.093,1944.91L1000.04,1948.01L994.37,1942.37L994.37,1933.14L999.687,1936.75L1000.66,1930.45L1007.15,1936.93L1007.28,1944.94L1009.64,1937.86L1017.13,1935.08L1009.14,1935.08L1002.62,1928.83L1008.9,1926.98L1005.2,1922.16L1014.41,1922.16L1020.08,1928.22ZM996.253,1891.82L992.834,1888.44L989.432,1891.82L992.834,1895.23L996.253,1891.82ZM1015.61,1898.4L1010.79,1898.4L1010.79,1903.23L1015.61,1903.23L1015.61,1898.4ZM975.301,1898.4L970.515,1898.4L970.515,1903.23L975.301,1903.23L975.301,1898.4ZM1010.43,1943.3L1015.25,1943.3L1015.25,1938.53L1010.43,1938.53L1010.43,1943.3ZM963.981,1917.62L960.593,1921.06L964.011,1924.41L967.4,1921.06L963.981,1917.62ZM989.568,1949.7L992.987,1953.07L996.405,1949.7L992.987,1946.28L989.568,1949.7ZM970.743,1943.3L975.589,1943.3L975.589,1938.53L970.743,1938.53L970.743,1943.3Z" style="fill-rule:nonzero;"/>
            <path d="M1082.12,1863.76L1079.75,1866.1L1082.12,1868.47L1084.49,1866.1L1082.12,1863.76ZM1066.98,1869.74L1064.4,1866.99L1068.33,1866.99L1066.98,1869.74ZM1063.31,1872.13L1063.31,1868.28L1065.93,1870.84L1063.31,1872.13ZM1063.31,1860.34L1065.93,1861.44L1063.31,1863.99L1063.31,1860.34ZM1067.13,1862.74L1068.09,1865.29L1064.4,1865.29L1067.13,1862.74ZM1061.42,1863.99L1058.94,1861.44L1061.42,1860.34L1061.42,1863.99ZM1061.42,1872.02L1058.94,1871.01L1061.42,1868.28L1061.42,1872.02ZM1057.59,1869.74L1056.47,1866.99L1060.15,1866.99L1057.59,1869.74ZM1057.41,1862.74L1060.15,1865.29L1056.47,1865.29L1057.41,1862.74ZM1081.05,1871.19L1078.91,1866.05L1081.05,1861.21L1077.13,1865.29L1070.74,1865.29L1073.04,1861.71L1068.94,1860.93L1073.47,1856.34L1079.03,1856.34L1073.93,1854.49L1072,1849.41L1072,1855.05L1067.57,1859.66L1066.89,1855.28L1063.21,1857.77L1063.21,1851.56L1067.24,1847.36L1062.44,1849.75L1057.41,1847.55L1061.42,1851.56L1061.42,1857.77L1057.68,1855.52L1057.08,1859.66L1052.55,1855.05L1052.55,1849.41L1050.79,1854.49L1045.53,1856.51L1051.18,1856.51L1055.69,1860.93L1051.06,1861.95L1053.9,1865.29L1047.5,1865.29L1043.49,1861.21L1045.42,1866.22L1043.49,1871.19L1047.5,1866.99L1053.9,1866.99L1051.06,1870.69L1055.69,1871.44L1051.18,1875.94L1045.53,1875.94L1050.79,1877.75L1052.47,1882.8L1052.55,1877.24L1056.89,1872.89L1057.68,1877.39L1061.42,1874.59L1061.42,1881L1057.41,1884.92L1062.32,1882.78L1067.13,1884.92L1063.21,1881L1063.21,1874.59L1066.89,1877.11L1067.57,1872.74L1072.07,1877.24L1072.16,1882.8L1073.8,1877.89L1079.03,1875.94L1073.47,1875.94L1068.94,1871.61L1073.3,1870.32L1070.74,1866.99L1077.13,1866.99L1081.05,1871.19ZM1064.51,1845.91L1062.14,1843.55L1059.78,1845.91L1062.14,1848.26L1064.51,1845.91ZM1077.97,1850.49L1074.61,1850.49L1074.61,1853.83L1077.97,1853.83L1077.97,1850.49ZM1049.96,1850.49L1046.62,1850.49L1046.62,1853.83L1049.96,1853.83L1049.96,1850.49ZM1074.37,1881.67L1077.72,1881.67L1077.72,1878.34L1074.37,1878.34L1074.37,1881.67ZM1042.09,1863.82L1039.74,1866.22L1042.11,1868.52L1044.45,1866.22L1042.09,1863.82ZM1059.87,1886.08L1062.24,1888.44L1064.61,1886.08L1062.24,1883.72L1059.87,1886.08ZM1046.79,1881.67L1050.15,1881.67L1050.15,1878.34L1046.79,1878.34L1046.79,1881.67Z" style="fill-rule:nonzero;"/>
            <path d="M1038.65,1803.97L1036.97,1805.61L1038.65,1807.27L1040.3,1805.61L1038.65,1803.97ZM1027.99,1808.18L1026.17,1806.23L1028.95,1806.23L1027.99,1808.18ZM1025.4,1809.85L1025.4,1807.16L1027.25,1808.95L1025.4,1809.85ZM1025.4,1801.57L1027.25,1802.34L1025.4,1804.13L1025.4,1801.57ZM1028.1,1803.25L1028.77,1805.06L1026.17,1805.06L1028.1,1803.25ZM1024.09,1804.13L1022.34,1802.34L1024.09,1801.57L1024.09,1804.13ZM1024.09,1809.8L1022.34,1809.08L1024.09,1807.16L1024.09,1809.8ZM1021.38,1808.18L1020.59,1806.23L1023.18,1806.23L1021.38,1808.18ZM1021.25,1803.25L1023.18,1805.06L1020.59,1805.06L1021.25,1803.25ZM1037.9,1809.2L1036.4,1805.58L1037.9,1802.17L1035.12,1805.06L1030.64,1805.06L1032.25,1802.53L1029.36,1801.98L1032.55,1798.75L1036.47,1798.75L1032.87,1797.44L1031.52,1793.88L1031.52,1797.84L1028.4,1801.09L1027.93,1798L1025.33,1799.76L1025.33,1795.38L1028.18,1792.42L1024.79,1794.12L1021.25,1792.56L1024.09,1795.38L1024.09,1799.76L1021.45,1798.18L1021.02,1801.09L1017.83,1797.84L1017.83,1793.88L1016.58,1797.44L1012.89,1798.88L1016.87,1798.88L1020.05,1801.98L1016.78,1802.7L1018.79,1805.06L1014.29,1805.06L1011.45,1802.17L1012.82,1805.7L1011.45,1809.2L1014.29,1806.23L1018.79,1806.23L1016.78,1808.85L1020.05,1809.37L1016.87,1812.55L1012.89,1812.55L1016.58,1813.81L1017.78,1817.37L1017.83,1813.45L1020.9,1810.4L1021.45,1813.56L1024.09,1811.6L1024.09,1816.12L1021.25,1818.87L1024.7,1817.36L1028.1,1818.87L1025.33,1816.12L1025.33,1811.6L1027.93,1813.37L1028.4,1810.28L1031.58,1813.45L1031.66,1817.37L1032.8,1813.91L1036.47,1812.55L1032.55,1812.55L1029.36,1809.5L1032.45,1808.58L1030.64,1806.23L1035.12,1806.23L1037.9,1809.2ZM1026.26,1791.4L1024.58,1789.75L1022.92,1791.4L1024.58,1793.07L1026.26,1791.4ZM1035.71,1794.63L1033.36,1794.63L1033.36,1796.98L1035.71,1796.98L1035.71,1794.63ZM1016.01,1794.63L1013.67,1794.63L1013.67,1796.98L1016.01,1796.98L1016.01,1794.63ZM1033.19,1816.57L1035.55,1816.57L1035.55,1814.23L1033.19,1814.23L1033.19,1816.57ZM1010.48,1804.02L1008.82,1805.7L1010.49,1807.33L1012.13,1805.7L1010.48,1804.02ZM1022.98,1819.68L1024.65,1821.35L1026.32,1819.68L1024.65,1818.02L1022.98,1819.68ZM1013.77,1816.57L1016.14,1816.57L1016.14,1814.23L1013.77,1814.23L1013.77,1816.57Z" style="fill-rule:nonzero;"/>
            <path d="M1142.51,1871.75L1140.6,1873.63L1142.51,1875.55L1144.41,1873.63L1142.51,1871.75ZM1130.36,1876.58L1128.28,1874.36L1131.45,1874.36L1130.36,1876.58ZM1127.41,1878.5L1127.41,1875.4L1129.52,1877.46L1127.41,1878.5ZM1127.41,1869.02L1129.52,1869.9L1127.41,1871.96L1127.41,1869.02ZM1130.48,1870.95L1131.25,1873L1128.28,1873L1130.48,1870.95ZM1125.91,1871.96L1123.9,1869.9L1125.91,1869.02L1125.91,1871.96ZM1125.91,1878.42L1123.9,1877.6L1125.91,1875.4L1125.91,1878.42ZM1122.81,1876.58L1121.91,1874.36L1124.87,1874.36L1122.81,1876.58ZM1122.67,1870.95L1124.87,1873L1121.91,1873L1122.67,1870.95ZM1141.68,1877.74L1139.94,1873.61L1141.68,1869.71L1138.52,1873L1133.37,1873L1135.23,1870.12L1131.92,1869.5L1135.55,1865.79L1140.04,1865.79L1135.93,1864.32L1134.38,1860.23L1134.38,1864.76L1130.84,1868.48L1130.3,1864.94L1127.33,1866.96L1127.33,1861.97L1130.55,1858.58L1126.71,1860.52L1122.67,1858.74L1125.91,1861.97L1125.91,1866.96L1122.9,1865.16L1122.4,1868.48L1118.75,1864.76L1118.75,1860.23L1117.35,1864.32L1113.13,1865.94L1117.65,1865.94L1121.29,1869.5L1117.56,1870.32L1119.84,1873L1114.71,1873L1111.49,1869.71L1113.04,1873.74L1111.49,1877.74L1114.71,1874.36L1119.84,1874.36L1117.56,1877.34L1121.29,1877.93L1117.65,1881.54L1113.13,1881.54L1117.35,1883.01L1118.7,1887.07L1118.75,1882.6L1122.26,1879.1L1122.9,1882.72L1125.91,1880.47L1125.91,1885.62L1122.67,1888.78L1126.62,1887.04L1130.48,1888.78L1127.33,1885.62L1127.33,1880.47L1130.3,1882.51L1130.84,1878.96L1134.46,1882.6L1134.54,1887.07L1135.84,1883.11L1140.04,1881.54L1135.55,1881.54L1131.92,1878.06L1135.43,1877.05L1133.37,1874.36L1138.52,1874.36L1141.68,1877.74ZM1128.37,1857.41L1126.47,1855.53L1124.57,1857.41L1126.47,1859.32L1128.37,1857.41ZM1139.19,1861.1L1136.5,1861.1L1136.5,1863.77L1139.19,1863.77L1139.19,1861.1ZM1116.68,1861.1L1114.01,1861.1L1114.01,1863.77L1116.68,1863.77L1116.68,1861.1ZM1136.28,1886.15L1138.99,1886.15L1138.99,1883.5L1136.28,1883.5L1136.28,1886.15ZM1110.36,1871.82L1108.48,1873.74L1110.38,1875.59L1112.28,1873.74L1110.36,1871.82ZM1124.66,1889.73L1126.56,1891.6L1128.46,1889.73L1126.56,1887.81L1124.66,1889.73ZM1114.15,1886.15L1116.83,1886.15L1116.83,1883.5L1114.15,1883.5L1114.15,1886.15Z" style="fill-rule:nonzero;"/>
        </g>
    </g>
</svg>
