<!-- Generated by IcoMoon.io -->
<svg version="1.1" xmlns="http://www.w3.org/2000/svg" width="32" height="32" viewBox="0 0 32 32">
<title>snow</title>
<path d="M4.949 18.080c0-1.237 0.373-2.325 1.131-3.285s1.728-1.579 2.923-1.877c0.331-1.451 1.077-2.645 2.24-3.584s2.496-1.397 4-1.397c1.472 0 2.773 0.459 3.925 1.365s1.899 2.080 2.24 3.509h0.341c0.949 0 1.835 0.235 2.645 0.704s1.461 1.109 1.931 1.92c0.469 0.811 0.715 1.696 0.715 2.645 0 1.408-0.491 2.635-1.483 3.648-0.981 1.024-2.187 1.557-3.605 1.6-0.139 0-0.213-0.064-0.213-0.181v-1.419c0-0.128 0.075-0.192 0.213-0.192 0.907-0.043 1.685-0.405 2.325-1.088s0.96-1.472 0.96-2.379c0-0.949-0.341-1.76-1.035-2.453s-1.515-1.035-2.475-1.035h-1.717c-0.128 0-0.192-0.064-0.192-0.181l-0.085-0.619c-0.117-1.152-0.619-2.123-1.483-2.901-0.875-0.779-1.877-1.173-3.040-1.173-1.173 0-2.187 0.395-3.051 1.184s-1.355 1.76-1.461 2.933l-0.064 0.533c0 0.128-0.075 0.203-0.213 0.203l-0.565 0.075c-0.885 0.075-1.632 0.437-2.24 1.109s-0.907 1.44-0.907 2.336c0 0.907 0.32 1.696 0.96 2.379s1.419 1.035 2.325 1.088c0.117 0 0.181 0.064 0.181 0.192v1.419c0 0.117-0.064 0.181-0.181 0.181-1.429-0.043-2.635-0.576-3.627-1.6-0.928-1.024-1.419-2.251-1.419-3.659zM11.733 22.421c0-0.235 0.085-0.448 0.256-0.619s0.373-0.256 0.629-0.256c0.245 0 0.459 0.085 0.629 0.256s0.256 0.384 0.256 0.619c0 0.256-0.085 0.469-0.256 0.64-0.171 0.181-0.373 0.267-0.629 0.267-0.245 0-0.459-0.085-0.629-0.267-0.171-0.171-0.256-0.384-0.256-0.64zM11.733 26.293c0-0.256 0.085-0.469 0.256-0.64 0.171-0.16 0.373-0.245 0.619-0.245s0.459 0.085 0.629 0.245c0.171 0.171 0.256 0.373 0.256 0.629s-0.085 0.459-0.256 0.629c-0.171 0.171-0.373 0.245-0.629 0.245-0.245 0-0.459-0.085-0.629-0.245-0.16-0.16-0.245-0.373-0.245-0.619zM15.136 24.48c0-0.245 0.085-0.469 0.267-0.661 0.171-0.171 0.373-0.256 0.608-0.256 0.245 0 0.459 0.096 0.64 0.277s0.277 0.395 0.277 0.64c0 0.245-0.085 0.459-0.267 0.64s-0.395 0.267-0.651 0.267c-0.245 0-0.448-0.085-0.619-0.267s-0.256-0.395-0.256-0.64zM15.136 20.619c0-0.245 0.085-0.459 0.267-0.64 0.192-0.171 0.395-0.256 0.608-0.256 0.256 0 0.469 0.085 0.651 0.267s0.267 0.384 0.267 0.64c0 0.245-0.085 0.459-0.267 0.629s-0.395 0.256-0.651 0.256c-0.245 0-0.448-0.085-0.619-0.256-0.171-0.181-0.256-0.395-0.256-0.64zM15.136 28.384c0-0.245 0.085-0.459 0.267-0.651 0.171-0.171 0.373-0.256 0.608-0.256 0.256 0 0.469 0.085 0.651 0.267s0.267 0.395 0.267 0.64-0.085 0.459-0.267 0.629c-0.181 0.171-0.395 0.256-0.651 0.256-0.245 0-0.448-0.085-0.619-0.256-0.171-0.181-0.256-0.384-0.256-0.629zM18.571 22.421c0-0.235 0.085-0.437 0.267-0.619s0.395-0.267 0.64-0.267c0.245 0 0.459 0.085 0.629 0.256s0.256 0.384 0.256 0.619c0 0.256-0.085 0.469-0.256 0.64-0.171 0.181-0.373 0.267-0.629 0.267s-0.469-0.085-0.64-0.267c-0.171-0.171-0.267-0.384-0.267-0.629zM18.571 26.293c0-0.235 0.085-0.448 0.267-0.64 0.171-0.16 0.384-0.245 0.64-0.245s0.459 0.085 0.629 0.245 0.245 0.373 0.245 0.629c0 0.256-0.085 0.459-0.245 0.629-0.171 0.171-0.373 0.245-0.629 0.245s-0.469-0.085-0.64-0.256c-0.171-0.16-0.267-0.363-0.267-0.608z"></path>
</svg>
