<!-- Generated by IcoMoon.io -->
<svg version="1.1" xmlns="http://www.w3.org/2000/svg" width="32" height="32" viewBox="0 0 32 32">
<title>snowflake</title>
<path d="M7.957 15.371c0-0.203 0.075-0.384 0.213-0.533s0.309-0.224 0.512-0.224c0.203 0 0.384 0.075 0.523 0.224s0.213 0.32 0.213 0.533c0 0.203-0.075 0.373-0.213 0.512s-0.32 0.213-0.512 0.213-0.373-0.075-0.512-0.213c-0.16-0.149-0.224-0.32-0.224-0.512zM10.069 15.371c0-0.203 0.075-0.384 0.213-0.533s0.309-0.224 0.512-0.224h3.445l-2.432-2.432c-0.149-0.128-0.224-0.299-0.224-0.501s0.075-0.373 0.224-0.523c0.149-0.149 0.32-0.224 0.523-0.224s0.373 0.075 0.523 0.224l2.421 2.421v-3.424c0-0.203 0.075-0.384 0.224-0.533s0.32-0.224 0.533-0.224c0.203 0 0.373 0.075 0.512 0.224s0.213 0.32 0.213 0.533v3.445l2.443-2.453c0.149-0.149 0.32-0.224 0.512-0.224s0.373 0.075 0.523 0.224c0.128 0.149 0.192 0.32 0.192 0.523s-0.064 0.373-0.192 0.501l-2.432 2.432h3.445c0.192 0 0.363 0.075 0.501 0.224s0.213 0.32 0.213 0.533c0 0.192-0.075 0.363-0.213 0.501s-0.309 0.213-0.501 0.213h-3.445l2.443 2.443c0.128 0.128 0.192 0.299 0.192 0.501s-0.064 0.373-0.192 0.523c-0.149 0.149-0.331 0.224-0.523 0.224s-0.373-0.075-0.512-0.224l-2.443-2.453v3.456c0 0.203-0.075 0.384-0.213 0.523s-0.309 0.213-0.512 0.213c-0.203 0-0.384-0.075-0.533-0.213s-0.224-0.32-0.224-0.523v-3.435l-2.421 2.421c-0.149 0.149-0.32 0.224-0.523 0.224s-0.373-0.075-0.523-0.224-0.224-0.32-0.224-0.523 0.075-0.363 0.224-0.501l2.453-2.443h-3.456c-0.203 0-0.373-0.075-0.512-0.213-0.171-0.117-0.235-0.288-0.235-0.48zM10.080 20.533c0-0.192 0.075-0.373 0.224-0.512 0.128-0.149 0.299-0.224 0.501-0.224s0.373 0.075 0.523 0.224c0.149 0.149 0.224 0.32 0.224 0.512s-0.075 0.373-0.224 0.512c-0.149 0.149-0.32 0.224-0.523 0.224s-0.373-0.075-0.501-0.224c-0.149-0.139-0.224-0.309-0.224-0.512zM10.080 10.176c0-0.192 0.075-0.373 0.224-0.512 0.128-0.149 0.299-0.224 0.501-0.224s0.373 0.075 0.523 0.224c0.149 0.149 0.224 0.32 0.224 0.512s-0.075 0.373-0.224 0.523c-0.149 0.149-0.32 0.224-0.523 0.224s-0.373-0.075-0.501-0.224c-0.149-0.149-0.224-0.331-0.224-0.523zM15.253 22.667c0-0.192 0.075-0.363 0.224-0.501s0.32-0.213 0.533-0.213c0.203 0 0.373 0.075 0.512 0.213s0.213 0.309 0.213 0.501c0 0.203-0.075 0.384-0.213 0.523s-0.309 0.213-0.512 0.213c-0.203 0-0.384-0.075-0.533-0.213s-0.224-0.309-0.224-0.523zM15.253 8.043c0-0.203 0.075-0.384 0.224-0.523s0.32-0.213 0.533-0.213c0.203 0 0.373 0.075 0.512 0.213s0.213 0.32 0.213 0.523c0 0.192-0.075 0.363-0.213 0.501s-0.309 0.213-0.512 0.213c-0.203 0-0.384-0.075-0.533-0.213s-0.224-0.309-0.224-0.501zM20.448 20.533c0-0.192 0.075-0.373 0.224-0.512 0.128-0.149 0.299-0.224 0.501-0.224s0.373 0.075 0.523 0.224c0.149 0.149 0.224 0.32 0.224 0.512s-0.075 0.373-0.224 0.512c-0.149 0.149-0.32 0.224-0.523 0.224s-0.373-0.075-0.501-0.224c-0.149-0.139-0.224-0.309-0.224-0.512zM20.448 10.176c0-0.192 0.075-0.373 0.224-0.512 0.128-0.149 0.299-0.224 0.501-0.224s0.373 0.075 0.523 0.224c0.149 0.149 0.224 0.32 0.224 0.512s-0.075 0.373-0.224 0.523c-0.149 0.149-0.32 0.224-0.523 0.224s-0.373-0.075-0.501-0.224c-0.149-0.149-0.224-0.331-0.224-0.523zM22.581 15.371c0-0.203 0.075-0.384 0.213-0.533s0.32-0.224 0.523-0.224c0.192 0 0.363 0.075 0.501 0.224s0.213 0.32 0.213 0.533c0 0.192-0.075 0.363-0.213 0.501s-0.309 0.213-0.501 0.213c-0.203 0-0.384-0.075-0.523-0.213s-0.213-0.309-0.213-0.501z"></path>
</svg>
