<!-- Generated by IcoMoon.io -->
<svg version="1.1" xmlns="http://www.w3.org/2000/svg" width="32" height="32" viewBox="0 0 32 32">
<title>solar-eclipse</title>
<path d="M4.661 15.595c0-0.256 0.085-0.48 0.267-0.661 0.181-0.171 0.405-0.256 0.64-0.256h2.176c0.245 0 0.448 0.085 0.619 0.267 0.16 0.181 0.245 0.395 0.245 0.651s-0.075 0.469-0.235 0.651c-0.16 0.181-0.373 0.267-0.619 0.267h-2.176c-0.245 0-0.459-0.085-0.64-0.267s-0.277-0.395-0.277-0.651zM7.712 22.987c0-0.245 0.085-0.459 0.245-0.651l1.568-1.525c0.16-0.171 0.373-0.245 0.629-0.245s0.469 0.085 0.64 0.245 0.256 0.363 0.256 0.608c0 0.256-0.085 0.491-0.256 0.683l-1.515 1.515c-0.437 0.341-0.875 0.341-1.312 0-0.171-0.171-0.256-0.384-0.256-0.629zM7.712 8.224c0-0.245 0.085-0.459 0.245-0.651 0.213-0.181 0.437-0.267 0.683-0.267 0.235 0 0.448 0.085 0.629 0.256l1.525 1.568c0.171 0.16 0.256 0.373 0.256 0.629s-0.085 0.469-0.256 0.64-0.384 0.256-0.64 0.256c-0.256 0-0.469-0.085-0.629-0.256l-1.557-1.525c-0.171-0.171-0.256-0.395-0.256-0.651zM10.432 15.595c0-0.992 0.245-1.92 0.747-2.773s1.173-1.536 2.037-2.037 1.781-0.747 2.773-0.747c0.747 0 1.461 0.149 2.155 0.448 0.683 0.299 1.28 0.693 1.771 1.195 0.501 0.501 0.896 1.088 1.184 1.771s0.437 1.408 0.437 2.155c0 1.003-0.245 1.931-0.747 2.784s-1.173 1.525-2.027 2.027c-0.853 0.501-1.781 0.747-2.784 0.747s-1.931-0.245-2.784-0.747c-0.853-0.501-1.525-1.173-2.027-2.027-0.48-0.864-0.736-1.792-0.736-2.795zM15.083 23.893c0-0.256 0.085-0.469 0.267-0.64s0.395-0.256 0.64-0.256c0.256 0 0.48 0.085 0.651 0.256s0.256 0.384 0.256 0.64v2.123c0 0.256-0.085 0.48-0.267 0.661s-0.395 0.267-0.64 0.267-0.469-0.085-0.64-0.267c-0.181-0.181-0.267-0.405-0.267-0.661v-2.123zM15.083 7.36v-2.176c0-0.245 0.085-0.459 0.267-0.64s0.395-0.277 0.651-0.277 0.459 0.085 0.64 0.267c0.181 0.181 0.267 0.395 0.267 0.64v2.187c0 0.245-0.085 0.448-0.267 0.619s-0.395 0.245-0.64 0.245-0.469-0.085-0.64-0.245-0.277-0.373-0.277-0.619zM15.2 11.968c0.928 0.117 1.707 0.523 2.336 1.227s0.949 1.536 0.949 2.485c0 0.885-0.277 1.664-0.832 2.347-0.555 0.672-1.259 1.109-2.112 1.291 0.213 0.021 0.373 0.043 0.469 0.043 1.035 0 1.931-0.373 2.667-1.109s1.109-1.621 1.109-2.667c0-1.024-0.373-1.899-1.109-2.635-0.736-0.725-1.621-1.088-2.667-1.088-0.288 0.021-0.555 0.053-0.811 0.107zM20.971 21.419c0-0.245 0.085-0.448 0.245-0.597 0.16-0.171 0.363-0.245 0.597-0.245 0.256 0 0.469 0.085 0.64 0.245l1.557 1.525c0.171 0.181 0.256 0.405 0.256 0.651s-0.085 0.459-0.256 0.629c-0.427 0.331-0.853 0.331-1.28 0l-1.515-1.515c-0.16-0.192-0.245-0.416-0.245-0.693zM20.971 9.771c0-0.267 0.085-0.48 0.245-0.629l1.515-1.568c0.181-0.171 0.395-0.256 0.629-0.256 0.256 0 0.469 0.085 0.64 0.267 0.181 0.181 0.267 0.395 0.267 0.64 0 0.267-0.085 0.491-0.256 0.661l-1.557 1.525c-0.192 0.171-0.405 0.256-0.64 0.256-0.245 0-0.437-0.085-0.597-0.256s-0.245-0.384-0.245-0.64zM23.381 15.595c0-0.256 0.085-0.469 0.256-0.661 0.171-0.171 0.373-0.256 0.608-0.256h2.155c0.245 0 0.459 0.096 0.64 0.277s0.277 0.395 0.277 0.64-0.096 0.459-0.277 0.64c-0.181 0.181-0.395 0.267-0.64 0.267h-2.155c-0.245 0-0.459-0.085-0.619-0.267s-0.245-0.384-0.245-0.64z"></path>
</svg>
