<!-- Generated by IcoMoon.io -->
<svg version="1.1" xmlns="http://www.w3.org/2000/svg" width="32" height="32" viewBox="0 0 32 32">
<title>sunglasses</title>
<path d="M1.13 15.006c0.38 0.759 0.297 1.699 0.534 2.355 0.239 0.654 0.587 1.379 0.965 1.928 2.27 3.281 8.766 2.631 10.826-0.535 0.785-1.209 0.948-2.549 1.284-4.501 0.795-0.355 2.292-0.53 2.788 0.214-0.401 4.767 3.669 7.44 8.039 6.967 3.271-0.356 4.476-3.048 5.252-5.897 1.217-0.566 1.217-2.278 1.135-4.146-4.143-0.491-7.555-0.815-11.102 0.074-1.046 0.264-2.060 1.096-3.001 1.182-0.39 0.034-1.050-0.316-1.716-0.324-0.551-0.008-1.189 0.278-1.609 0.217-0.548-0.086-1.079-0.643-1.607-0.858-3.633-1.492-7.345-1.355-12.625-0.671-0.055 0.825-0.42 1.988-0.236 2.708 0.166 0.645 0.862 0.858 1.072 1.286z"></path>
</svg>
