<?xml version="1.0" encoding="UTF-8" standalone="no"?>
<!DOCTYPE svg PUBLIC "-//W3C//DTD SVG 1.1//EN" "http://www.w3.org/Graphics/SVG/1.1/DTD/svg11.dtd">
<svg width="100%" height="100%" viewBox="0 0 1022 1022" version="1.1" xmlns="http://www.w3.org/2000/svg" xmlns:xlink="http://www.w3.org/1999/xlink" xml:space="preserve" xmlns:serif="http://www.serif.com/" style="fill-rule:evenodd;clip-rule:evenodd;stroke-linejoin:round;stroke-miterlimit:2;">
    <g transform="matrix(4.16667,0,0,4.16667,-14348,-12093.5)">
        <g>
            <path d="M3452.18,3017.46C3455.09,3023.28 3454.46,3030.48 3456.27,3035.51C3458.1,3040.52 3460.77,3046.08 3463.67,3050.29C3481.07,3075.44 3530.86,3070.46 3546.65,3046.19C3552.67,3036.92 3553.92,3026.65 3556.49,3011.69C3562.58,3008.97 3574.06,3007.63 3577.86,3013.33C3574.79,3049.87 3605.98,3070.36 3639.48,3066.73C3664.55,3064 3673.79,3043.37 3679.74,3021.53C3689.07,3017.19 3689.07,3004.07 3688.44,2989.75C3656.68,2985.99 3630.53,2983.5 3603.34,2990.32C3595.32,2992.34 3587.55,2998.72 3580.34,2999.38C3577.35,2999.64 3572.29,2996.96 3567.19,2996.9C3562.97,2996.84 3558.08,2999.03 3554.86,2998.56C3550.66,2997.9 3546.59,2993.63 3542.54,2991.98C3514.69,2980.54 3486.24,2981.59 3445.77,2986.84C3445.35,2993.16 3442.55,3002.08 3443.96,3007.6C3445.23,3012.54 3450.57,3014.18 3452.18,3017.46Z" style="fill-rule:nonzero;"/>
        </g>
    </g>
</svg>
