<!-- Generated by IcoMoon.io -->
<svg version="1.1" xmlns="http://www.w3.org/2000/svg" width="32" height="32" viewBox="0 0 32 32">
<title>sunrise</title>
<path d="M2.933 16.384c0-0.267 0.107-0.512 0.32-0.736 0.235-0.203 0.491-0.309 0.747-0.309h2.485c0.288 0 0.523 0.107 0.715 0.309s0.288 0.459 0.288 0.736c0 0.309-0.096 0.565-0.288 0.768s-0.437 0.309-0.715 0.309h-2.485c-0.288 0-0.533-0.107-0.747-0.32-0.213-0.224-0.32-0.48-0.32-0.757zM6.485 7.872c0-0.288 0.096-0.533 0.277-0.725 0.245-0.213 0.491-0.32 0.757-0.32 0.277 0 0.523 0.107 0.725 0.309l1.749 1.76c0.203 0.235 0.299 0.48 0.299 0.736 0 0.299-0.096 0.555-0.288 0.747s-0.427 0.299-0.704 0.299c-0.256 0-0.512-0.107-0.747-0.309l-1.792-1.717c-0.181-0.224-0.277-0.491-0.277-0.779zM8.619 22.272c0-0.299 0.107-0.544 0.309-0.725 0.192-0.181 0.427-0.277 0.725-0.277h2.805l3.317-3.115c0.107-0.085 0.224-0.085 0.363 0l3.371 3.115h2.955c0.288 0 0.533 0.096 0.736 0.299 0.203 0.192 0.309 0.437 0.309 0.715 0 0.288-0.107 0.533-0.309 0.736s-0.448 0.309-0.736 0.309h-3.605c-0.107 0-0.213-0.021-0.309-0.075l-2.571-2.421-2.549 2.421c-0.085 0.053-0.181 0.075-0.299 0.075h-3.477c-0.288 0-0.533-0.107-0.736-0.309-0.203-0.213-0.299-0.459-0.299-0.747zM9.6 16.384c0 1.035 0.224 1.973 0.661 2.816 0.021 0.128 0.117 0.192 0.267 0.192h2.005c0.075 0 0.128-0.032 0.16-0.085 0.032-0.064 0.021-0.128-0.021-0.203-0.683-0.821-1.024-1.728-1.024-2.72 0-1.195 0.427-2.219 1.28-3.061s1.877-1.259 3.083-1.259c1.195 0 2.208 0.416 3.051 1.259s1.269 1.856 1.269 3.061c0 1.003-0.341 1.909-1.013 2.72-0.043 0.075-0.053 0.139-0.032 0.203s0.075 0.085 0.16 0.085h2.027c0.139 0 0.224-0.064 0.245-0.192 0.469-0.821 0.683-1.76 0.683-2.816 0-0.864-0.171-1.696-0.512-2.475-0.341-0.789-0.8-1.461-1.365-2.037-0.565-0.565-1.248-1.024-2.037-1.365s-1.611-0.501-2.475-0.501c-0.864 0-1.696 0.171-2.485 0.501-0.789 0.341-1.472 0.789-2.048 1.365-0.576 0.565-1.035 1.248-1.376 2.037-0.331 0.779-0.501 1.6-0.501 2.475zM14.965 6.827v-2.453c0-0.309 0.096-0.555 0.299-0.757s0.459-0.299 0.757-0.299c0.299 0 0.544 0.096 0.747 0.299s0.299 0.469 0.299 0.768v2.453c0 0.309-0.096 0.555-0.299 0.757-0.192 0.192-0.448 0.299-0.747 0.299-0.309 0-0.555-0.096-0.757-0.299s-0.299-0.459-0.299-0.768zM21.739 9.643c0-0.267 0.096-0.512 0.288-0.736l1.728-1.76c0.203-0.203 0.459-0.309 0.747-0.309s0.544 0.107 0.736 0.309c0.203 0.203 0.299 0.448 0.299 0.736 0 0.309-0.096 0.565-0.277 0.779l-1.792 1.717c-0.224 0.203-0.48 0.309-0.747 0.309-0.288 0-0.523-0.096-0.704-0.299s-0.277-0.448-0.277-0.747zM24.523 16.384c0-0.288 0.096-0.533 0.288-0.736s0.427-0.309 0.704-0.309h2.507c0.288 0 0.533 0.107 0.736 0.309s0.309 0.459 0.309 0.736c0 0.299-0.107 0.544-0.309 0.757s-0.448 0.32-0.736 0.32h-2.507c-0.288 0-0.523-0.107-0.715-0.309-0.181-0.213-0.277-0.469-0.277-0.768z"></path>
</svg>
