<!-- Generated by IcoMoon.io -->
<svg version="1.1" xmlns="http://www.w3.org/2000/svg" width="32" height="32" viewBox="0 0 32 32">
<title>sunset</title>
<path d="M3.072 16.501c0-0.299 0.107-0.533 0.32-0.725 0.181-0.192 0.427-0.277 0.725-0.277h2.464c0.288 0 0.523 0.096 0.715 0.288 0.181 0.192 0.277 0.427 0.277 0.715 0 0.299-0.096 0.555-0.288 0.757s-0.427 0.309-0.704 0.309h-2.453c-0.288 0-0.533-0.107-0.736-0.32-0.213-0.213-0.32-0.459-0.32-0.747zM6.581 8.117c0-0.299 0.085-0.544 0.267-0.725 0.213-0.213 0.459-0.32 0.747-0.32 0.309 0 0.544 0.107 0.725 0.32l1.728 1.739c0.491 0.469 0.491 0.949 0 1.44-0.203 0.203-0.427 0.299-0.693 0.299-0.235 0-0.469-0.096-0.725-0.299l-1.771-1.728c-0.181-0.192-0.277-0.437-0.277-0.725zM8.683 22.283c0-0.277 0.107-0.523 0.32-0.736 0.192-0.192 0.437-0.288 0.725-0.288h3.435c0.117 0 0.213 0.021 0.299 0.085l2.507 2.368 2.549-2.379c0.075-0.053 0.181-0.085 0.309-0.085h3.52c0.288 0 0.533 0.096 0.736 0.299s0.309 0.448 0.309 0.725c0 0.288-0.107 0.533-0.309 0.736s-0.448 0.309-0.736 0.309h-2.859l-3.349 3.029c-0.128 0.096-0.245 0.096-0.352 0l-3.285-3.029h-2.773c-0.288 0-0.533-0.107-0.736-0.309-0.203-0.192-0.309-0.437-0.309-0.725zM9.685 16.501c0 1.056 0.203 1.995 0.619 2.795 0.064 0.117 0.16 0.171 0.288 0.171h1.995c0.085 0 0.139-0.021 0.16-0.075s-0.011-0.117-0.075-0.192c-0.629-0.789-0.949-1.696-0.949-2.699 0-1.173 0.416-2.176 1.259-2.997s1.856-1.237 3.040-1.237c1.173 0 2.176 0.416 3.019 1.237 0.832 0.832 1.259 1.824 1.259 2.987 0 1.003-0.32 1.909-0.949 2.699-0.075 0.075-0.096 0.139-0.075 0.192s0.075 0.075 0.16 0.075h2.005c0.139 0 0.224-0.053 0.256-0.171 0.437-0.832 0.661-1.771 0.661-2.795 0-0.843-0.171-1.664-0.501-2.443s-0.789-1.461-1.355-2.027-1.237-1.013-2.016-1.355c-0.779-0.341-1.6-0.501-2.453-0.501s-1.675 0.171-2.453 0.501c-0.779 0.341-1.451 0.789-2.016 1.355s-1.013 1.237-1.355 2.027-0.523 1.611-0.523 2.453zM14.976 7.104v-2.485c0-0.288 0.107-0.533 0.309-0.736s0.448-0.309 0.736-0.309c0.288 0 0.533 0.107 0.736 0.309s0.309 0.448 0.309 0.736v2.475c0 0.288-0.107 0.533-0.309 0.736s-0.448 0.309-0.736 0.309c-0.288 0-0.533-0.107-0.736-0.309-0.213-0.203-0.309-0.437-0.309-0.725zM21.664 9.856c0-0.299 0.096-0.544 0.277-0.715l1.739-1.739c0.171-0.213 0.416-0.32 0.725-0.32 0.288 0 0.533 0.107 0.725 0.309s0.288 0.448 0.288 0.736c0 0.299-0.085 0.544-0.267 0.725l-1.771 1.739c-0.245 0.203-0.491 0.299-0.736 0.299-0.277 0-0.512-0.096-0.704-0.299-0.181-0.203-0.277-0.448-0.277-0.736zM24.427 16.501c0-0.288 0.096-0.523 0.277-0.715s0.427-0.288 0.715-0.288h2.475c0.288 0 0.533 0.096 0.736 0.288s0.309 0.427 0.309 0.715c0 0.288-0.107 0.533-0.309 0.747s-0.448 0.32-0.736 0.32h-2.475c-0.277 0-0.512-0.107-0.704-0.309s-0.288-0.459-0.288-0.757z"></path>
</svg>
