<!-- Generated by IcoMoon.io -->
<svg version="1.1" xmlns="http://www.w3.org/2000/svg" width="32" height="32" viewBox="0 0 32 32">
<title>thermometer</title>
<path d="M10.571 20.864c0-0.907 0.213-1.749 0.629-2.539s1.003-1.44 1.76-1.963v-10.581c0-0.853 0.288-1.579 0.875-2.165s1.312-0.896 2.165-0.896c0.864 0 1.589 0.299 2.176 0.885 0.587 0.597 0.885 1.312 0.885 2.165v10.581c0.757 0.523 1.333 1.184 1.749 1.963s0.619 1.632 0.619 2.539c0 0.981-0.245 1.899-0.725 2.731s-1.141 1.493-1.973 1.973-1.739 0.725-2.731 0.725c-0.981 0-1.888-0.245-2.72-0.725s-1.493-1.141-1.984-1.973-0.725-1.739-0.725-2.72zM12.448 20.864c0 0.992 0.352 1.845 1.045 2.549s1.536 1.056 2.517 1.056c0.992 0 1.845-0.352 2.56-1.067s1.077-1.557 1.077-2.528c0-0.661-0.171-1.28-0.512-1.845s-0.811-1.003-1.408-1.312l-0.299-0.149c-0.107-0.043-0.16-0.149-0.16-0.309v-11.477c0-0.341-0.117-0.629-0.363-0.864-0.245-0.224-0.544-0.341-0.907-0.341-0.341 0-0.64 0.117-0.885 0.341s-0.363 0.512-0.363 0.864v11.456c0 0.16-0.053 0.267-0.149 0.309l-0.288 0.149c-0.587 0.309-1.045 0.747-1.376 1.312s-0.491 1.173-0.491 1.856zM13.28 20.864c0 0.757 0.256 1.408 0.779 1.941s1.141 0.8 1.877 0.8 1.365-0.267 1.909-0.8c0.544-0.533 0.811-1.184 0.811-1.931 0-0.672-0.235-1.269-0.693-1.781s-1.024-0.821-1.685-0.907v-7.851c0-0.064-0.032-0.139-0.107-0.203-0.075-0.075-0.149-0.107-0.235-0.107-0.096 0-0.171 0.032-0.224 0.085-0.053 0.064-0.085 0.128-0.085 0.224v7.829c-0.651 0.096-1.205 0.395-1.664 0.907-0.459 0.523-0.683 1.109-0.683 1.792z"></path>
</svg>
