<!-- Generated by IcoMoon.io -->
<svg version="1.1" xmlns="http://www.w3.org/2000/svg" width="32" height="32" viewBox="0 0 32 32">
<title>thunderstorm</title>
<path d="M4.939 18.037c0 1.184 0.352 2.24 1.056 3.168s1.621 1.568 2.752 1.909l-0.704 1.792c-0.032 0.149 0.021 0.235 0.149 0.235h2.272l-1.045 4.587h0.299l4.181-6.133c0.043-0.043 0.043-0.096 0.011-0.149s-0.085-0.075-0.16-0.075h-2.325l2.645-4.949c0.075-0.149 0.021-0.235-0.149-0.235h-3.136c-0.096 0-0.181 0.053-0.245 0.16l-1.141 3.061c-0.757-0.192-1.387-0.608-1.888-1.237s-0.747-1.344-0.747-2.144c0-0.885 0.299-1.653 0.907-2.315 0.608-0.651 1.355-1.035 2.24-1.141l0.565-0.075c0.139 0 0.213-0.064 0.213-0.192l0.075-0.544c0.117-1.152 0.597-2.123 1.461-2.901s1.877-1.173 3.040-1.173c1.163 0 2.176 0.395 3.040 1.173 0.875 0.779 1.365 1.749 1.493 2.901l0.075 0.619c0 0.117 0.064 0.181 0.192 0.181h1.707c0.971 0 1.792 0.341 2.475 1.013s1.035 1.493 1.035 2.432c0 0.907-0.32 1.696-0.949 2.357s-1.419 1.035-2.347 1.109c-0.139 0-0.213 0.064-0.213 0.192v1.461c0 0.117 0.075 0.181 0.213 0.181 1.419-0.043 2.624-0.587 3.616-1.611s1.483-2.251 1.483-3.68c0-0.96-0.235-1.845-0.715-2.656-0.469-0.811-1.12-1.451-1.931-1.92-0.821-0.469-1.707-0.704-2.667-0.704h-0.331c-0.352-1.419-1.109-2.581-2.251-3.477s-2.453-1.355-3.925-1.355c-1.504 0-2.848 0.469-4.011 1.397s-1.909 2.123-2.24 3.584c-1.184 0.277-2.155 0.885-2.923 1.845s-1.152 2.080-1.152 3.307zM13.621 28.395c0 0.416 0.203 0.693 0.619 0.821 0.011 0 0.053 0 0.117 0.011s0.117 0.011 0.149 0.011c0.181 0 0.352-0.053 0.523-0.16s0.288-0.277 0.341-0.512l2.4-9.269c0.064-0.256 0.043-0.48-0.075-0.693-0.117-0.203-0.288-0.341-0.533-0.416-0.181-0.021-0.277-0.032-0.277-0.032-0.171 0-0.341 0.053-0.501 0.16s-0.277 0.267-0.331 0.48l-2.411 9.301c-0.011 0.107-0.021 0.203-0.021 0.299zM18.059 25.131c0 0.139 0.032 0.277 0.107 0.405 0.149 0.235 0.331 0.395 0.544 0.469 0.117 0.032 0.224 0.053 0.32 0.053s0.213-0.021 0.341-0.085c0.224-0.096 0.373-0.299 0.448-0.608l1.536-6.048c0.032-0.149 0.053-0.245 0.053-0.288 0-0.16-0.053-0.32-0.171-0.48s-0.277-0.277-0.491-0.341c-0.181-0.021-0.277-0.032-0.277-0.032-0.181 0-0.352 0.053-0.501 0.16s-0.256 0.267-0.32 0.48l-1.557 6.080c0 0.021 0 0.053-0.011 0.117-0.021 0.053-0.021 0.085-0.021 0.117z"></path>
</svg>
