<?xml version="1.0" encoding="UTF-8" standalone="no"?>
<!DOCTYPE svg PUBLIC "-//W3C//DTD SVG 1.1//EN" "http://www.w3.org/Graphics/SVG/1.1/DTD/svg11.dtd">
<svg width="100%" height="100%" viewBox="0 0 1704 1704" version="1.1" xmlns="http://www.w3.org/2000/svg" xmlns:xlink="http://www.w3.org/1999/xlink" xml:space="preserve" xmlns:serif="http://www.serif.com/" style="fill-rule:evenodd;clip-rule:evenodd;stroke-linejoin:round;stroke-miterlimit:2;">
    <g transform="matrix(4.16667,0,0,4.16667,-13549.5,-1255)">
        <g>
            <path d="M3601.48,406.277C3601.64,404.659 3601.71,403.045 3601.71,401.427C3601.71,370.981 3576.93,346.2 3546.46,346.2C3536.03,346.2 3526.07,349.083 3517.43,354.469C3512.08,323.036 3483.25,299.508 3449.52,301.354C3417.41,302.961 3391.99,326.447 3387.82,356.582C3382.03,354.511 3376.02,353.47 3369.96,353.47C3339.51,353.47 3314.72,378.241 3314.72,408.705C3314.72,409.366 3314.73,410.015 3314.79,410.71C3299.36,414.912 3277.22,423.831 3277.26,455.385C3277.3,478.822 3296.77,498.939 3323.32,500.2L3331.44,487.653C3330.47,487.684 3329.4,487.71 3328.63,487.752L3326.65,487.802C3306.53,487.802 3290.13,473.249 3290.11,455.366C3290.1,434.064 3301.71,427.146 3323.2,421.813L3328.04,419.978L3328.18,415.105L3327.93,412.477C3327.75,411.235 3327.59,409.993 3327.59,408.705C3327.59,385.332 3346.59,366.321 3369.96,366.321C3377,366.321 3383.92,368.197 3390.53,371.893L3400.29,377.359L3400.09,366.184C3399.62,338.447 3421.62,315.614 3450.17,314.205L3452.94,314.128C3481.02,314.128 3504.04,335.404 3505.39,362.598C3505.45,363.566 3505.39,364.532 3505.26,367.023L3504.68,383.532L3516.28,371.745C3524.32,363.566 3535.06,359.05 3546.46,359.05C3569.83,359.05 3588.86,378.073 3588.86,401.427C3588.86,404.344 3588.55,407.151 3588,409.894L3586.68,416.366L3593.17,417.495C3609.72,420.396 3621.81,433.221 3622.58,448.681C3623.36,464.19 3612.67,481.831 3596.45,486.939L3600.74,498.897C3621.2,492.098 3636.56,470.936 3635.41,448.042C3634.45,428.544 3620.82,412.116 3601.48,406.277Z" style="fill-rule:nonzero;"/>
            <path d="M3349.05,536.898L3349.09,536.898C3332.7,514.946 3333.79,477.155 3332.99,489.252C3330.95,520.86 3318.5,536.898 3318.5,536.898C3317.48,538.865 3316.86,541.058 3316.86,543.359C3316.86,551.739 3324.45,558.523 3333.79,558.523C3343.14,558.523 3350.7,551.739 3350.7,543.359C3350.7,541.058 3350.1,538.865 3349.05,536.898Z" style="fill-rule:nonzero;"/>
            <path d="M3425.94,494.343C3411.83,475.422 3412.77,442.838 3412.09,453.273C3410.32,480.527 3399.58,494.343 3399.58,494.343C3398.68,496.045 3398.17,497.932 3398.17,499.923C3398.17,507.137 3404.69,512.99 3412.77,512.99C3420.83,512.99 3427.33,507.137 3427.33,499.923C3427.33,497.932 3426.82,496.045 3425.94,494.343Z" style="fill-rule:nonzero;"/>
            <path d="M3505.77,548.841L3505.79,548.841C3495.19,534.672 3495.91,510.244 3495.4,518.064C3494.07,538.49 3486.04,548.841 3486.04,548.841C3485.38,550.124 3484.98,551.515 3484.98,553.026C3484.98,558.424 3489.86,562.808 3495.91,562.808C3501.93,562.808 3506.83,558.424 3506.83,553.026C3506.83,551.515 3506.45,550.124 3505.77,548.841Z" style="fill-rule:nonzero;"/>
            <path d="M3545.16,484.011L3545.17,484.011C3532.92,467.608 3533.74,439.325 3533.16,448.384C3531.61,472.022 3522.31,484.011 3522.31,484.011C3521.55,485.493 3521.1,487.125 3521.1,488.854C3521.1,495.114 3526.74,500.193 3533.74,500.193C3540.72,500.193 3546.38,495.114 3546.38,488.854C3546.38,487.125 3545.94,485.493 3545.16,484.011Z" style="fill-rule:nonzero;"/>
            <path d="M3404.2,709.956L3406.26,706.772L3478.37,595.547L3408.31,595.429L3467.95,500.2L3473.72,500.2L3433.35,583.088L3508.54,583.464L3404.2,709.956Z" style="fill-rule:nonzero;"/>
        </g>
    </g>
</svg>
