<?xml version="1.0" encoding="UTF-8" standalone="no"?>
<!DOCTYPE svg PUBLIC "-//W3C//DTD SVG 1.1//EN" "http://www.w3.org/Graphics/SVG/1.1/DTD/svg11.dtd">
<svg width="100%" height="100%" viewBox="0 0 1915 1915" version="1.1" xmlns="http://www.w3.org/2000/svg" xmlns:xlink="http://www.w3.org/1999/xlink" xml:space="preserve" xmlns:serif="http://www.serif.com/" style="fill-rule:evenodd;clip-rule:evenodd;stroke-linejoin:round;stroke-miterlimit:2;">
    <g transform="matrix(4.16667,0,0,4.16667,-11055.5,-3773)">
        <g>
            <path d="M3028.25,1010.56C3028.41,1008.95 3028.48,1007.33 3028.48,1005.71C3028.48,975.261 3003.71,950.487 2973.24,950.487C2962.8,950.487 2952.84,953.362 2944.2,958.752C2938.84,927.316 2910.02,903.788 2876.28,905.641C2844.18,907.241 2818.75,930.734 2814.59,960.868C2808.8,958.798 2802.8,957.757 2796.72,957.757C2766.28,957.757 2741.49,982.52 2741.49,1012.98C2741.49,1013.64 2741.5,1014.3 2741.56,1015C2726.13,1019.19 2704,1028.12 2704.03,1059.66C2704.07,1083.1 2723.54,1103.23 2750.08,1104.48L2758.21,1091.94C2757.24,1091.96 2756.16,1091.99 2755.4,1092.03L2753.42,1092.09C2733.3,1092.09 2716.89,1077.54 2716.89,1059.65C2716.87,1038.35 2728.48,1031.43 2749.97,1026.1L2754.8,1024.27L2754.94,1019.38L2754.7,1016.76C2754.53,1015.51 2754.35,1014.27 2754.35,1012.98C2754.35,989.62 2773.36,970.604 2796.72,970.604C2803.77,970.604 2810.69,972.48 2817.3,976.176L2827.05,981.646L2826.87,970.463C2826.4,942.73 2848.39,919.901 2876.94,918.492L2879.71,918.412C2907.79,918.412 2930.81,939.687 2932.16,966.885C2932.23,967.846 2932.16,968.811 2932.03,971.31L2931.45,987.819L2943.05,976.032C2951.08,967.846 2961.84,963.337 2973.24,963.337C2996.6,963.337 3015.63,982.36 3015.63,1005.71C3015.63,1008.62 3015.32,1011.43 3014.76,1014.18L3013.46,1020.65L3019.95,1021.78C3036.5,1024.68 3048.58,1037.5 3049.35,1052.96C3050.13,1068.47 3039.44,1086.11 3023.21,1091.23L3027.51,1103.18C3047.98,1096.38 3063.33,1075.22 3062.18,1052.33C3061.22,1032.83 3047.59,1016.4 3028.25,1010.56Z" style="fill-rule:nonzero;"/>
            <path d="M2886.37,1127.8C2884.63,1127.8 2882.87,1127.79 2881.1,1127.78C2809.86,1127.04 2776.61,1113.91 2775.25,1113.35L2778.58,1105.1C2778.89,1105.22 2811.89,1118.15 2881.2,1118.87C2950.9,1119.8 2993.15,1105.17 2993.56,1105.02L2996.49,1113.43C2994.77,1114.03 2954.37,1127.8 2886.37,1127.8Z" style="fill-rule:nonzero;"/>
            <path d="M2886.64,1164.86L2885.95,1164.86C2843.98,1164.75 2789.13,1150.86 2786.82,1150.27L2789,1141.64C2789.57,1141.78 2845.14,1155.85 2885.99,1155.96L2886.62,1155.96C2935.2,1155.96 2982.24,1141.85 2982.73,1141.7L2985.31,1150.21C2983.34,1150.81 2936.55,1164.86 2886.64,1164.86Z" style="fill-rule:nonzero;"/>
            <path d="M2898.27,1198.25C2849.29,1198.25 2817.32,1190.1 2815.98,1189.77L2818.2,1181.14C2818.51,1181.23 2850.51,1189.35 2898.27,1189.35C2945.83,1189.35 2977.69,1178.57 2978.02,1178.46L2980.92,1186.88C2979.56,1187.34 2947.43,1198.25 2898.27,1198.25Z" style="fill-rule:nonzero;"/>
            <path d="M2887.24,1228.2C2884.2,1228.2 2881.13,1228.14 2878.01,1228.02C2835.54,1226.33 2820.61,1218.81 2819.98,1218.5L2824.08,1210.59L2822.03,1214.54L2824.05,1210.58C2824.19,1210.65 2838.35,1217.53 2878.35,1219.12C2919.01,1220.78 2950.44,1210.41 2950.77,1210.31L2953.59,1218.77C2952.36,1219.18 2924.86,1228.2 2887.24,1228.2Z" style="fill-rule:nonzero;"/>
            <path d="M2867.63,1263.27C2840.74,1263.27 2812.8,1256.75 2811.61,1256.47L2813.67,1247.81C2813.95,1247.87 2841.8,1254.37 2867.63,1254.37C2893.37,1254.37 2917.11,1247.91 2917.35,1247.84L2919.72,1256.43C2918.71,1256.71 2894.57,1263.27 2867.63,1263.27Z" style="fill-rule:nonzero;"/>
            <path d="M2855.52,1300.53C2836.56,1300.53 2811.42,1295.64 2810.36,1295.44L2812.07,1286.7C2812.33,1286.75 2837.44,1291.62 2855.52,1291.62C2873.64,1291.62 2898.72,1286.75 2898.99,1286.7L2900.69,1295.44C2899.63,1295.64 2874.49,1300.53 2855.52,1300.53Z" style="fill-rule:nonzero;"/>
            <path d="M2865.26,1333.74C2850.85,1333.74 2831.89,1328.79 2831.09,1328.59L2833.36,1319.97C2833.54,1320.02 2852.02,1324.84 2865.26,1324.84C2878.51,1324.84 2896.95,1320.02 2897.15,1319.97L2899.41,1328.59C2898.61,1328.79 2879.66,1333.74 2865.26,1333.74Z" style="fill-rule:nonzero;"/>
            <path d="M2882.01,1364.89C2871.18,1364.89 2857.78,1360.72 2857.19,1360.53L2859.86,1352.05C2859.98,1352.07 2873.2,1356.46 2883.06,1355.97C2892.57,1355.64 2905.81,1350.47 2905.92,1350.42L2909.19,1358.7C2908.58,1358.93 2894.4,1364.48 2883.38,1364.87C2882.93,1364.89 2882.47,1364.89 2882.01,1364.89Z" style="fill-rule:nonzero;"/>
        </g>
    </g>
</svg>
