<!-- Generated by IcoMoon.io -->
<svg version="1.1" xmlns="http://www.w3.org/2000/svg" width="32" height="32" viewBox="0 0 32 32">
<title>tornado</title>
<path d="M4.405 16.203c0 0.736 0.384 1.365 1.152 1.888 1.408 0.992 3.531 1.483 6.379 1.483 1.28 0 2.464-0.107 3.563-0.331 1.152-0.245 2.101-0.64 2.827-1.173s1.099-1.152 1.099-1.877c0-0.224-0.043-0.437-0.128-0.661 1.483-0.363 2.645-0.853 3.488-1.472s1.269-1.333 1.269-2.133c0-0.203-0.032-0.416-0.096-0.64 2.443-0.864 3.659-2.027 3.659-3.499 0-0.939-0.533-1.771-1.589-2.496-2.080-1.387-5.131-2.080-9.152-2.080-1.899 0-3.616 0.171-5.152 0.501-1.675 0.341-3.019 0.875-4.043 1.6s-1.536 1.557-1.536 2.485c0 0.555 0.171 1.056 0.512 1.515-1.259 0.715-1.888 1.589-1.888 2.624 0 0.8 0.395 1.504 1.173 2.112-1.024 0.597-1.536 1.312-1.536 2.155zM5.045 21.003c0 0.779 0.48 1.397 1.44 1.835s2.176 0.661 3.637 0.661c1.483 0 2.699-0.224 3.669-0.661s1.451-1.056 1.451-1.835c0-0.288-0.096-0.533-0.277-0.736s-0.427-0.299-0.715-0.299c-0.235 0-0.448 0.085-0.64 0.245s-0.309 0.373-0.363 0.608c-0.213 0.171-0.597 0.32-1.173 0.459s-1.227 0.213-1.952 0.213c-1.173 0-2.133-0.171-2.859-0.501 0.171-0.171 0.256-0.384 0.277-0.64s-0.043-0.48-0.16-0.661c-0.171-0.224-0.384-0.373-0.651-0.427s-0.512 0-0.747 0.139c-0.629 0.437-0.939 0.96-0.939 1.6zM6.411 16.203c0-0.011 0.064-0.075 0.203-0.192 0.096-0.096 0.299-0.213 0.597-0.363s0.651-0.267 1.024-0.373l0.128-0.064c1.728 0.576 3.744 0.864 6.048 0.864 1.013 0 1.931-0.053 2.752-0.171l0.277 0.245c-0.096 0.171-0.32 0.341-0.672 0.533-0.427 0.224-1.088 0.437-1.984 0.608s-1.845 0.267-2.848 0.267-1.952-0.085-2.848-0.267-1.568-0.384-2.005-0.608c-0.363-0.149-0.587-0.309-0.672-0.48zM6.528 25.184c0 0.672 0.384 1.195 1.152 1.557s1.717 0.544 2.848 0.544c1.152 0 2.123-0.181 2.901-0.544s1.173-0.885 1.173-1.557c0-0.267-0.096-0.512-0.299-0.715s-0.437-0.309-0.704-0.309c-0.501 0-0.832 0.256-0.981 0.768-0.416 0.256-1.109 0.395-2.091 0.395-0.853 0-1.536-0.128-2.048-0.395-0.16-0.512-0.48-0.768-0.981-0.768-0.267 0-0.501 0.096-0.683 0.299s-0.288 0.437-0.288 0.725zM6.752 11.936c0-0.085 0.053-0.181 0.16-0.299 0.256-0.32 0.768-0.64 1.515-0.939 2.048 1.099 4.864 1.643 8.437 1.643 1.824 0 3.541-0.171 5.141-0.501v0.096c0 0.16-0.096 0.32-0.299 0.48-0.437 0.384-1.248 0.747-2.443 1.099-1.291 0.384-2.912 0.576-4.864 0.576-1.963 0-3.584-0.192-4.875-0.576-1.237-0.341-2.059-0.704-2.475-1.088-0.203-0.16-0.299-0.32-0.299-0.491zM8.139 7.797c0-0.192 0.128-0.395 0.373-0.629 0.48-0.448 1.44-0.875 2.859-1.291 1.525-0.448 3.349-0.672 5.483-0.672 2.144 0 3.989 0.224 5.536 0.672 1.44 0.416 2.389 0.853 2.859 1.301 0.235 0.235 0.363 0.448 0.363 0.629s-0.117 0.373-0.363 0.597c-0.469 0.448-1.419 0.885-2.859 1.312-1.547 0.448-3.381 0.672-5.536 0.672-2.133 0-3.968-0.224-5.483-0.672-1.429-0.427-2.389-0.864-2.859-1.323-0.245-0.224-0.373-0.416-0.373-0.597z"></path>
</svg>
