<!-- Generated by IcoMoon.io -->
<svg version="1.1" xmlns="http://www.w3.org/2000/svg" width="32" height="32" viewBox="0 0 32 32">
<title>umbrella</title>
<path d="M4.949 15.627c0.011-0.363 0.192-0.917 0.533-1.685s0.811-1.579 1.419-2.453c1.984-2.784 4.789-4.245 8.405-4.405v-0.459c0-0.224 0.075-0.395 0.224-0.533s0.32-0.203 0.512-0.203c0.203 0 0.373 0.064 0.533 0.203 0.149 0.139 0.235 0.32 0.235 0.533v0.469c1.045 0.043 2.027 0.203 2.933 0.48s1.696 0.629 2.368 1.067c0.672 0.437 1.248 0.885 1.717 1.355 0.48 0.459 0.907 0.96 1.28 1.504 0.437 0.629 0.821 1.312 1.131 2.027s0.533 1.291 0.651 1.717c0.117 0.427 0.181 0.64 0.192 0.651v0.203c0 0.192-0.075 0.341-0.224 0.469s-0.32 0.181-0.523 0.181c-0.331 0-0.544-0.096-0.64-0.277-0.832-0.939-1.739-1.397-2.72-1.397-0.363 0.021-0.736 0.107-1.099 0.245s-0.661 0.288-0.875 0.448c-0.224 0.149-0.427 0.309-0.619 0.469s-0.288 0.235-0.299 0.245c-0.203 0.181-0.395 0.277-0.565 0.277-0.245 0-0.427-0.064-0.555-0.192-0.779-0.779-1.483-1.248-2.144-1.408v8.256l-0.011 0.224-0.043 0.245-0.064 0.267-0.096 0.277-0.139 0.288-0.181 0.277-0.224 0.267c-0.544 0.629-1.312 0.939-2.325 0.939-1.077 0-1.888-0.309-2.432-0.939-0.128-0.128-0.235-0.267-0.331-0.405-0.096-0.149-0.171-0.288-0.224-0.437-0.053-0.139-0.096-0.277-0.128-0.405s-0.053-0.256-0.064-0.384c-0.021-0.16-0.032-0.267-0.032-0.352s0-0.171 0-0.245 0.011-0.128 0.011-0.139c0-0.192 0.085-0.363 0.245-0.501 0.171-0.139 0.363-0.192 0.587-0.149 0.192 0 0.341 0.085 0.469 0.245s0.192 0.363 0.192 0.597c-0.064 0.437 0.021 0.811 0.267 1.12 0.224 0.309 0.693 0.469 1.408 0.469 0.555 0 0.96-0.128 1.205-0.384 0.139-0.139 0.245-0.309 0.309-0.512s0.096-0.363 0.085-0.501l-0.011-0.203v-7.851c-0.779 0.192-1.472 0.597-2.059 1.216-0.043 0.085-0.128 0.171-0.245 0.245s-0.224 0.117-0.32 0.117c-0.192 0-0.405-0.117-0.64-0.363-0.853-0.949-1.76-1.419-2.72-1.397-0.427 0.011-0.832 0.075-1.195 0.213-0.373 0.139-0.651 0.277-0.843 0.416-0.181 0.139-0.384 0.299-0.576 0.48s-0.309 0.288-0.341 0.309c-0.224 0.149-0.405 0.235-0.544 0.235s-0.32-0.064-0.512-0.181c-0.171-0.107-0.277-0.224-0.32-0.341-0.032-0.128-0.043-0.309-0.032-0.544zM7.179 14.112c0.725-0.384 1.408-0.565 2.048-0.565h0.085c1.227 0 2.347 0.469 3.36 1.419 0.405-0.352 0.896-0.661 1.483-0.939 0.576-0.277 1.205-0.437 1.888-0.48h0.085c1.227 0 2.347 0.469 3.36 1.419 0.405-0.352 0.896-0.661 1.483-0.939 0.576-0.277 1.205-0.437 1.888-0.48h0.096c0.597 0 1.227 0.16 1.867 0.469-0.469-0.917-0.789-1.504-0.939-1.771-1.909-2.496-4.555-3.744-7.925-3.744-1.685 0-3.189 0.32-4.523 0.96-1.323 0.64-2.411 1.568-3.253 2.784-0.245 0.363-0.587 0.992-1.003 1.867z"></path>
</svg>
