<!-- Generated by IcoMoon.io -->
<svg version="1.1" xmlns="http://www.w3.org/2000/svg" width="32" height="32" viewBox="0 0 32 32">
<title>windy</title>
<path d="M4.96 16.533c0-0.235 0.085-0.437 0.245-0.597 0.171-0.16 0.373-0.235 0.608-0.235h12.885c0.235 0 0.427 0.075 0.576 0.235s0.235 0.363 0.235 0.608c0 0.235-0.075 0.427-0.235 0.576-0.149 0.149-0.341 0.235-0.576 0.235h-12.885c-0.235 0-0.448-0.075-0.608-0.235-0.171-0.16-0.245-0.352-0.245-0.587zM7.531 13.44c0-0.235 0.085-0.427 0.245-0.587s0.363-0.245 0.597-0.245h12.896c0.224 0 0.416 0.085 0.576 0.245s0.235 0.352 0.235 0.587c0 0.235-0.075 0.427-0.235 0.597-0.16 0.16-0.352 0.245-0.576 0.245h-12.885c-0.235 0-0.437-0.085-0.597-0.245s-0.256-0.363-0.256-0.597zM9.259 19.563c0-0.224 0.085-0.416 0.256-0.576 0.149-0.149 0.341-0.235 0.576-0.235h12.907c0.235 0 0.437 0.075 0.597 0.235 0.16 0.149 0.235 0.341 0.235 0.576s-0.085 0.437-0.245 0.597-0.363 0.245-0.597 0.245h-12.896c-0.235 0-0.427-0.085-0.597-0.245s-0.235-0.363-0.235-0.597zM20.544 16.533c0-0.245 0.075-0.448 0.235-0.608s0.363-0.235 0.608-0.235h4.821c0.245 0 0.448 0.075 0.608 0.235s0.235 0.363 0.235 0.597c0 0.235-0.075 0.427-0.235 0.576s-0.363 0.235-0.597 0.235h-4.821c-0.245 0-0.448-0.075-0.608-0.235-0.171-0.139-0.245-0.331-0.245-0.565z"></path>
</svg>
