<?xml version="1.0" encoding="UTF-8" standalone="no"?>
<!DOCTYPE svg PUBLIC "-//W3C//DTD SVG 1.1//EN" "http://www.w3.org/Graphics/SVG/1.1/DTD/svg11.dtd">
<svg width="100%" height="100%" viewBox="0 0 1896 1360" version="1.1" xmlns="http://www.w3.org/2000/svg" xmlns:xlink="http://www.w3.org/1999/xlink" xml:space="preserve" xmlns:serif="http://www.serif.com/" style="fill-rule:evenodd;clip-rule:evenodd;stroke-linejoin:round;stroke-miterlimit:2;">
    <g transform="matrix(1,0,0,1,-3400,-4050)">
        <g transform="matrix(4.16667,0,0,4.16667,0,0)">
            <path d="M1162.42,1125.79C1156.76,1125.79 1151.39,1124.69 1146.4,1122.76C1140.72,1114.12 1132.76,1107.13 1123.41,1102.55C1119.99,1096.26 1118.05,1089.07 1118.05,1081.43C1118.05,1056.96 1137.95,1037.06 1162.42,1037.06C1186.89,1037.06 1206.78,1056.96 1206.78,1081.43C1206.78,1105.89 1186.89,1125.79 1162.42,1125.79ZM1142.47,1154.46C1142.47,1157.52 1142.16,1160.46 1141.58,1163.33L1140.2,1170.11L1147,1171.3C1164.34,1174.34 1176.99,1187.77 1177.79,1203.96C1178.55,1219.04 1168.89,1235.89 1153.92,1242.54C1147.81,1237.08 1139.5,1235.42 1132.46,1238.35C1124.85,1241.52 1120.42,1247.83 1120.63,1255.2C1120.78,1261.39 1124.17,1266.86 1128.83,1268.55C1132.32,1269.77 1136.02,1268.71 1138.67,1265.64L1131.85,1260.09C1131.23,1259.89 1129.7,1257.93 1129.59,1255.07C1129.48,1252.46 1130.51,1248.89 1135.93,1246.61C1139.85,1244.98 1144.68,1246.1 1148.25,1249.46C1153.09,1254.01 1154.36,1261.35 1151.65,1269.09C1147.72,1280.29 1138.73,1278.59 1115.9,1271.36C1091.94,1263.73 1059.12,1253.33 1031.63,1279.63C1023.6,1287.31 1005.92,1290.8 984.265,1288.87C966.176,1287.29 947.305,1284.01 931.815,1270.81C911.82,1253.78 892.31,1249.41 879.076,1248.82C890.928,1246 907.565,1245.2 925.502,1254.31C947.26,1265.33 973.478,1275.72 995.144,1275.72C1007.44,1275.72 1018.28,1272.38 1025.95,1263.89C1042.92,1245.19 1063.24,1247.27 1081.11,1249.08C1097.04,1250.74 1113.53,1252.39 1119.17,1234.44C1122.23,1224.67 1120.07,1215.53 1113.3,1209.33C1106.21,1202.88 1094.99,1200.75 1086.61,1204.28C1077.07,1208.26 1076.19,1214.78 1076.27,1217.39C1076.41,1222.75 1080.28,1227.83 1085.7,1229.76C1090.34,1231.41 1094.99,1230.26 1098.08,1226.69L1091.29,1220.81C1091.01,1221.14 1090.37,1221.88 1088.72,1221.31C1086.86,1220.65 1085.28,1218.75 1085.24,1217.15C1085.18,1214.84 1088.6,1213.18 1090.08,1212.55C1095.31,1210.38 1102.7,1211.82 1107.24,1215.96C1110.19,1218.65 1113.17,1223.57 1110.58,1231.75C1107.31,1242.28 1098.96,1241.91 1082.02,1240.17C1063.98,1238.33 1039.32,1235.79 1019.31,1257.86C1000.93,1278.13 955.207,1259.32 929.566,1246.29C901.032,1231.81 875.338,1239.38 863.51,1244.55C856.726,1243.85 850.488,1241.66 845.247,1238.22C856.072,1231.43 888.922,1214.67 925.069,1234.45C946.857,1246.39 965.409,1250.46 980.566,1250.46C1002.67,1250.45 1017.54,1241.8 1024.73,1236.33C1035.85,1227.88 1036.34,1212.73 1031.16,1202.77C1026.66,1194.1 1016.55,1186.59 1001.59,1191.31C992.128,1194.33 988.938,1203.13 990.7,1210.27C992.493,1217.63 999.634,1224.15 1011.56,1222.04L1010.03,1213.21C1003.42,1214.32 1000.2,1211.34 999.406,1208.15C998.669,1205.14 999.893,1201.27 1004.3,1199.86C1016.07,1196.09 1021.45,1203.54 1023.2,1206.9C1026.73,1213.72 1026.24,1223.92 1019.3,1229.19C1008.59,1237.35 978.377,1253.43 929.376,1226.58C886.521,1203.13 847.692,1225.74 838.173,1232.13C832.886,1226.31 829.589,1219.01 829.573,1210.96C829.551,1188.66 841.729,1181.4 864.224,1175.83L869.299,1173.9L869.443,1168.79L869.185,1166.04C869.002,1164.75 868.813,1163.44 868.813,1162.09C868.813,1137.61 888.732,1117.7 913.202,1117.7C920.594,1117.7 927.834,1119.66 934.74,1123.53L944.965,1129.26L944.768,1117.55C944.274,1088.5 967.301,1064.59 997.196,1063.12L1000.12,1063.03C1029.52,1063.03 1053.65,1085.32 1055.06,1113.8C1055.12,1114.82 1055.06,1115.82 1054.93,1118.44L1054.32,1135.74L1066.47,1123.38C1074.89,1114.82 1086.12,1110.09 1098.08,1110.09C1108.17,1110.09 1117.45,1113.51 1124.92,1119.2C1126.41,1120.69 1128.02,1122.05 1129.68,1123.35C1137.58,1131.37 1142.47,1142.36 1142.47,1154.46ZM1162.42,1028.15C1133.05,1028.15 1109.15,1052.05 1109.15,1081.43C1109.15,1087.36 1110.17,1093.05 1111.97,1098.38C1107.51,1097.27 1102.87,1096.62 1098.08,1096.62C1087.16,1096.62 1076.71,1099.64 1067.66,1105.29C1062.04,1072.36 1031.87,1047.72 996.535,1049.67C962.91,1051.33 936.267,1075.94 931.921,1107.5C925.844,1105.33 919.561,1104.24 913.202,1104.24C881.302,1104.24 855.335,1130.2 855.335,1162.09C855.335,1162.78 855.366,1163.47 855.427,1164.2C839.26,1168.6 816.074,1177.93 816.119,1210.98C816.134,1234.95 835.621,1255.56 862.416,1257.75L862.416,1257.93C862.499,1257.91 862.742,1257.86 863.1,1257.82C863.518,1257.84 863.928,1257.91 864.346,1257.93L864.528,1257.65C872.269,1256.89 900.014,1256.25 926.003,1277.64C943.644,1292.19 963.928,1296.1 983.483,1297.81C987.662,1298.18 991.673,1298.36 995.547,1298.36C1014.45,1298.36 1029.52,1294.06 1037.83,1286.1C1061.49,1263.5 1088.98,1272.23 1113.18,1279.92C1132.73,1286.1 1152.93,1292.54 1160.12,1272.06C1162.34,1265.7 1162.55,1259.46 1160.99,1253.94C1179.28,1244.97 1192.32,1224.93 1191.23,1203.29C1190.23,1182.87 1175.96,1165.66 1155.71,1159.55C1155.86,1157.86 1155.94,1156.16 1155.94,1154.46C1155.94,1147.12 1154.5,1140.12 1151.99,1133.66C1155.37,1134.33 1158.85,1134.69 1162.42,1134.69C1191.79,1134.69 1215.69,1110.8 1215.69,1081.43C1215.69,1052.05 1191.79,1028.15 1162.42,1028.15Z" style="fill-rule:nonzero;"/>
            <path d="M1115.19,1039.71C1116.53,1041.26 1118.89,1041.43 1120.43,1040.07C1121.98,1038.72 1122.11,1036.38 1120.78,1034.83L1093.14,1003.23C1091.79,1001.67 1089.43,1001.54 1087.88,1002.89C1086.35,1004.22 1086.19,1006.58 1087.55,1008.14L1115.19,1039.71Z" style="fill-rule:nonzero;"/>
            <path d="M1162.61,1021.47C1164.64,1021.47 1166.31,1019.79 1166.28,1017.74L1166,975.759C1165.97,973.681 1164.29,972.055 1162.24,972.066C1160.19,972.082 1158.55,973.753 1158.56,975.804L1158.86,1017.79C1158.88,1019.86 1160.54,1021.48 1162.61,1021.47Z" style="fill-rule:nonzero;"/>
            <path d="M1056.48,1075.23L1098.32,1078.65C1100.38,1078.79 1102.15,1077.27 1102.31,1075.23C1102.47,1073.19 1100.97,1071.39 1098.91,1071.23L1057.08,1067.8C1055.02,1067.66 1053.24,1069.17 1053.07,1071.23C1052.89,1073.27 1054.42,1075.06 1056.48,1075.23Z" style="fill-rule:nonzero;"/>
            <path d="M1258.16,1131.82L1221.01,1112.29C1219.17,1111.33 1216.92,1112.03 1215.98,1113.85C1215.03,1115.66 1215.73,1117.9 1217.55,1118.86L1254.68,1138.41C1256.52,1139.36 1258.76,1138.67 1259.71,1136.83C1260.65,1135.04 1259.99,1132.78 1258.16,1131.82Z" style="fill-rule:nonzero;"/>
            <path d="M1266.87,1061.3L1225.19,1066.18C1223.14,1066.42 1221.68,1068.27 1221.92,1070.31C1222.15,1072.34 1224.01,1073.78 1226.04,1073.56L1267.74,1068.69C1269.79,1068.45 1271.26,1066.62 1270.99,1064.55C1270.77,1062.52 1268.93,1061.07 1266.87,1061.3Z" style="fill-rule:nonzero;"/>
            <path d="M1184.73,1138.58C1184.06,1136.64 1181.94,1135.62 1180,1136.32C1178.07,1136.98 1177.04,1139.11 1177.74,1141.04L1191.69,1180.65C1192.36,1182.57 1194.48,1183.59 1196.43,1182.92C1198.36,1182.22 1199.39,1180.11 1198.69,1178.17L1184.73,1138.58Z" style="fill-rule:nonzero;"/>
            <path d="M1205.56,1035.85L1231.4,1002.78C1232.66,1001.17 1232.38,998.816 1230.77,997.566C1229.13,996.282 1226.81,996.582 1225.55,998.204L1199.7,1031.3C1198.43,1032.92 1198.71,1035.24 1200.33,1036.51C1201.98,1037.77 1204.28,1037.47 1205.56,1035.85Z" style="fill-rule:nonzero;"/>
        </g>
    </g>
</svg>
