<?xml version="1.0" encoding="UTF-8" standalone="no"?>
<!DOCTYPE svg PUBLIC "-//W3C//DTD SVG 1.1//EN" "http://www.w3.org/Graphics/SVG/1.1/DTD/svg11.dtd">
<svg width="100%" height="100%" viewBox="0 0 1493 991" version="1.1" xmlns="http://www.w3.org/2000/svg" xmlns:xlink="http://www.w3.org/1999/xlink" xml:space="preserve" xmlns:serif="http://www.serif.com/" style="fill-rule:evenodd;clip-rule:evenodd;stroke-linejoin:round;stroke-miterlimit:2;">
    <g transform="matrix(1,0,0,1,-8917,-1591)">
        <g transform="matrix(4.16667,0,0,4.16667,0,0)">
            <path d="M2462.61,566.261C2456.77,561.076 2448.86,559.457 2442.18,562.238C2434.89,565.277 2430.67,571.298 2430.86,578.332C2431.02,584.235 2434.24,589.47 2438.7,591.08C2442.04,592.243 2445.56,591.225 2448.09,588.296L2441.59,583.005C2441,582.814 2439.52,580.935 2439.43,578.203C2439.33,575.715 2440.3,572.312 2445.49,570.135C2449.2,568.589 2453.83,569.649 2457.23,572.847C2461.86,577.211 2463.08,584.212 2460.47,591.593C2456.72,602.286 2448.12,600.668 2426.36,593.754C2403.48,586.48 2372.14,576.551 2345.88,601.652C2338.23,608.987 2321.34,612.33 2300.67,610.483C2283.39,608.983 2265.38,605.841 2250.59,593.245C2231.49,576.976 2212.85,572.806 2200.22,572.243C2211.54,569.546 2227.44,568.779 2244.58,577.482C2265.34,588.011 2290.39,597.936 2311.04,597.936C2322.8,597.936 2333.12,594.734 2340.45,586.628C2356.69,568.779 2376.07,570.762 2393.13,572.501C2408.34,574.078 2424.08,575.666 2429.47,558.511C2432.38,549.194 2430.32,540.453 2423.85,534.543C2417.1,528.385 2406.39,526.361 2398.36,529.715C2389.27,533.524 2388.45,539.743 2388.49,542.239C2388.65,547.348 2392.35,552.202 2397.53,554.052C2401.94,555.617 2406.37,554.519 2409.33,551.112L2402.85,545.505C2402.56,545.817 2401.98,546.523 2400.39,545.973C2398.65,545.35 2397.11,543.534 2397.08,542.007C2397,539.811 2400.28,538.212 2401.68,537.62C2406.67,535.542 2413.75,536.924 2418.08,540.878C2420.9,543.446 2423.73,548.142 2421.28,555.948C2418.15,566.006 2410.17,565.649 2393.98,563.981C2376.78,562.234 2353.22,559.818 2334.12,580.87C2316.58,600.216 2272.92,582.264 2248.44,569.831C2221.19,555.993 2196.66,563.229 2185.37,568.164C2178.89,567.503 2172.94,565.406 2167.94,562.128C2178.27,555.636 2209.64,539.641 2244.15,558.531C2264.96,569.93 2282.65,573.8 2297.12,573.8C2318.24,573.797 2332.44,565.547 2339.31,560.32C2349.92,552.252 2350.37,537.787 2345.43,528.271C2341.14,520.014 2331.49,512.834 2317.21,517.335C2308.17,520.215 2305.12,528.628 2306.79,535.447C2308.53,542.462 2315.35,548.688 2326.74,546.668L2325.26,538.235C2318.97,539.299 2315.87,536.457 2315.12,533.403C2314.41,530.543 2315.59,526.839 2319.8,525.498C2331.03,521.894 2336.16,529.004 2337.83,532.218C2341.23,538.725 2340.74,548.46 2334.12,553.501C2323.89,561.285 2295.06,576.65 2248.27,551.017C2207.36,528.628 2170.28,550.197 2161.18,556.312C2156.14,550.751 2152.98,543.781 2152.98,536.1C2152.94,514.794 2164.59,507.885 2186.05,502.556L2190.88,500.713L2191.02,495.835L2190.8,493.218C2190.63,491.976 2190.43,490.723 2190.43,489.443C2190.43,466.066 2209.45,447.062 2232.82,447.062C2239.88,447.062 2246.8,448.931 2253.37,452.635L2263.15,458.101L2262.96,446.915C2262.49,419.189 2284.47,396.356 2313.02,394.939L2315.8,394.859C2343.87,394.859 2366.93,416.138 2368.26,443.329C2368.32,444.304 2368.25,445.262 2368.14,447.758L2367.55,464.278L2379.13,452.487C2387.19,444.304 2397.91,439.792 2409.33,439.792C2432.69,439.792 2451.73,458.808 2451.73,482.168C2451.73,485.071 2451.41,487.889 2450.86,490.635L2449.55,497.097L2456.05,498.229C2472.6,501.127 2484.67,513.955 2485.44,529.411C2486.17,543.827 2476.92,559.924 2462.61,566.261ZM2498.27,528.784C2497.3,509.279 2483.69,492.842 2464.34,487.023C2464.5,485.394 2464.57,483.779 2464.57,482.168C2464.57,451.719 2439.78,426.934 2409.33,426.934C2398.92,426.934 2388.94,429.81 2380.29,435.211C2374.92,403.77 2346.13,380.239 2312.38,382.096C2280.3,383.687 2254.84,407.182 2250.71,437.315C2244.9,435.252 2238.92,434.205 2232.82,434.205C2202.36,434.205 2177.56,458.982 2177.56,489.443C2177.56,490.1 2177.61,490.749 2177.68,491.445C2162.22,495.645 2140.08,504.572 2140.12,536.111C2140.15,559.005 2158.75,578.678 2184.35,580.764L2184.35,580.935C2184.42,580.915 2184.66,580.873 2185,580.824C2185.4,580.851 2185.77,580.915 2186.18,580.935L2186.35,580.668C2193.73,579.943 2220.23,579.332 2245.03,599.768C2261.9,613.659 2281.24,617.381 2299.92,619.015C2303.9,619.372 2307.73,619.535 2311.46,619.535C2329.49,619.535 2343.87,615.429 2351.81,607.843C2374.4,586.256 2400.62,594.601 2423.74,601.929C2442.43,607.843 2461.71,613.986 2468.55,594.434C2470.68,588.361 2470.89,582.405 2469.4,577.136C2486.85,568.566 2499.31,549.429 2498.27,528.784Z" style="fill-rule:nonzero;"/>
        </g>
    </g>
</svg>
