<!-- Generated by IcoMoon.io -->
<svg version="1.1" xmlns="http://www.w3.org/2000/svg" width="32" height="32" viewBox="0 0 32 32">
<title>wind</title>
<path d="M3.307 18.101c0 0.256 0.096 0.48 0.299 0.661 0.171 0.203 0.395 0.299 0.672 0.299h15.669c0.309 0 0.565 0.107 0.779 0.32s0.32 0.48 0.32 0.789c0 0.309-0.107 0.565-0.32 0.768s-0.469 0.309-0.789 0.309c-0.309 0-0.576-0.107-0.779-0.309-0.171-0.192-0.384-0.277-0.64-0.277-0.267 0-0.491 0.096-0.683 0.277s-0.288 0.405-0.288 0.651c0 0.267 0.096 0.491 0.299 0.672 0.597 0.587 1.301 0.885 2.091 0.885 0.832 0 1.547-0.288 2.144-0.864s0.885-1.269 0.885-2.101-0.299-1.536-0.896-2.133c-0.597-0.597-1.312-0.896-2.133-0.896h-15.659c-0.267 0-0.491 0.096-0.683 0.277s-0.288 0.405-0.288 0.672zM3.307 14.603c0 0.245 0.096 0.459 0.299 0.651 0.181 0.192 0.405 0.277 0.672 0.277h21.376c0.832 0 1.547-0.288 2.144-0.875 0.597-0.576 0.896-1.28 0.896-2.101s-0.299-1.536-0.896-2.123-1.312-0.885-2.144-0.885c-0.821 0-1.515 0.288-2.080 0.853-0.192 0.171-0.288 0.405-0.288 0.715 0 0.277 0.096 0.501 0.277 0.672s0.405 0.256 0.672 0.256c0.256 0 0.48-0.085 0.672-0.256 0.203-0.224 0.448-0.331 0.747-0.331 0.309 0 0.565 0.107 0.779 0.32s0.32 0.469 0.32 0.779c0 0.309-0.107 0.565-0.32 0.768s-0.469 0.309-0.779 0.309h-21.376c-0.267 0-0.491 0.096-0.683 0.277-0.192 0.203-0.288 0.427-0.288 0.693z"></path>
</svg>
