<?xml version="1.0" encoding="UTF-8" standalone="no"?>
<!DOCTYPE svg PUBLIC "-//W3C//DTD SVG 1.1//EN" "http://www.w3.org/Graphics/SVG/1.1/DTD/svg11.dtd">
<svg width="100%" height="100%" viewBox="0 0 900 900" version="1.1" xmlns="http://www.w3.org/2000/svg" xmlns:xlink="http://www.w3.org/1999/xlink" xml:space="preserve" xmlns:serif="http://www.serif.com/" style="fill-rule:evenodd;clip-rule:evenodd;stroke-linejoin:round;stroke-miterlimit:2;">
    <rect id="Artboard1" x="0" y="0" width="900" height="900" style="fill:none;"/>
    <g transform="matrix(20.9571,0,0,20.9571,-11427.8,-13429.2)">
        <g id="Artboard11" serif:id="Artboard1">
            <path d="M585.214,668.606C583.685,673.383 579.846,676.862 573.585,678.98C572.047,677.487 570.636,675.719 569.402,673.57C565.213,679.007 557.627,681.072 548.323,681.432L560.48,672.172C561.212,671.688 561.677,671.088 561.82,670.35C559.746,669.143 557.823,668.614 555.959,668.353C557.097,666.517 560.365,665.741 564.755,665.523L578.808,643.101C578.808,643.101 583.836,650.633 581.786,656.116C579.248,662.904 573.972,669.072 575.018,668.671C578.009,669.423 581.396,669.423 585.214,668.606Z"/>
        </g>
    </g>
</svg>
