<?xml version="1.0" encoding="UTF-8" standalone="no"?>
<!DOCTYPE svg PUBLIC "-//W3C//DTD SVG 1.1//EN" "http://www.w3.org/Graphics/SVG/1.1/DTD/svg11.dtd">
<svg width="100%" height="100%" viewBox="0 0 856 464" version="1.1" xmlns="http://www.w3.org/2000/svg" xmlns:xlink="http://www.w3.org/1999/xlink" xml:space="preserve" xmlns:serif="http://www.serif.com/" style="fill-rule:evenodd;clip-rule:evenodd;stroke-linejoin:round;stroke-miterlimit:2;">
    <g transform="matrix(1,0,0,1,-2710,-521)">
        <g transform="matrix(4.16667,0,0,4.16667,0,0)">
            <path d="M839.663,176.375C839.594,176.375 839.529,176.394 839.46,176.395C840.739,173.436 841.455,170.178 841.455,166.75C841.455,153.307 830.559,142.41 817.116,142.41C812.366,142.41 807.947,143.793 804.201,146.146C799.134,133.83 787.027,125.151 772.884,125.151C754.181,125.151 739.019,140.313 739.019,159.016C739.019,160.43 739.133,161.814 739.301,163.183C739.206,163.182 739.114,163.168 739.019,163.168C726.479,163.168 716.313,173.334 716.313,185.874C716.313,198.414 726.479,208.58 739.019,208.58L839.663,208.58C848.557,208.58 855.766,201.37 855.766,192.477C855.766,183.583 848.557,176.375 839.663,176.375Z" style="fill:rgb(189,214,239);fill-rule:nonzero;"/>
            <path d="M799.313,197.555C799.229,197.555 799.152,197.579 799.068,197.58C800.61,194.013 801.475,190.084 801.475,185.951C801.475,169.743 788.336,156.605 772.129,156.605C766.401,156.605 761.074,158.271 756.557,161.109C750.447,146.259 735.851,135.795 718.797,135.795C696.247,135.795 677.966,154.076 677.966,176.626C677.966,178.331 678.104,180 678.307,181.65C678.192,181.648 678.081,181.633 677.966,181.633C662.847,181.633 650.59,193.89 650.59,209.009C650.59,224.128 662.847,236.385 677.966,236.385L799.313,236.385C810.036,236.385 818.729,227.693 818.729,216.97C818.729,206.248 810.036,197.555 799.313,197.555Z" style="fill:white;fill-rule:nonzero;"/>
        </g>
    </g>
</svg>
