<?xml version="1.0" encoding="UTF-8" standalone="no"?>
<!DOCTYPE svg PUBLIC "-//W3C//DTD SVG 1.1//EN" "http://www.w3.org/Graphics/SVG/1.1/DTD/svg11.dtd">
<svg width="100%" height="100%" viewBox="0 0 1242 595" version="1.1" xmlns="http://www.w3.org/2000/svg" xmlns:xlink="http://www.w3.org/1999/xlink" xml:space="preserve" xmlns:serif="http://www.serif.com/" style="fill-rule:evenodd;clip-rule:evenodd;stroke-linejoin:round;stroke-miterlimit:2;">
    <g id="a" transform="matrix(1,0,0,0.47844,0,0)">
        <rect x="0" y="0" width="1242" height="1242" style="fill:none;"/>
        <clipPath id="_clip1">
            <rect x="0" y="0" width="1242" height="1242"/>
        </clipPath>
        <g clip-path="url(#_clip1)">
            <g transform="matrix(1,0,0,2.09013,0,-645.422)">
                <g transform="matrix(-1,0,0,1,1251.17,-59.2588)">
                    <path d="M329.366,554.699L624.765,404.066L765.84,477.694L465.586,627.068L329.366,554.699Z" style="fill:url(#_Linear2);"/>
                </g>
                <path d="M1129.94,597.336L844.931,597.336L785.581,567.809L1113.6,393.545L1242.16,459.623L1241.82,597.336L1218.85,597.336C1201.43,572.269 1185.99,546.178 1173.86,505.133C1159.9,555.87 1145.04,577.925 1129.94,597.336Z" style="fill:url(#_Linear3);"/>
                <path d="M310.274,331.348L844.931,597.336L342.333,597.336C325.958,571.766 311.446,541.312 300.039,502.709C286.853,550.624 272.816,576.805 258.557,597.336L147.082,597.336C139.998,583.494 133.304,567.932 126.995,550.676L143.706,557.386L122.141,514.732L146.88,514.732C130.837,492.456 115.839,467.439 102.442,438.217L310.274,331.348ZM31.888,474.496C22.701,489.973 13.404,502.587 4.089,514.732L30.201,514.732L8.887,557.386L26.638,550.676C20.334,567.405 13.603,583.076 6.305,597.336L-207.004,597.336L31.888,474.496Z" style="fill:url(#_Linear4);"/>
                <path d="M0,698.437L0,831.438L0,698.437ZM1129.94,597.336C1126.04,602.353 1122.12,607.193 1118.2,612.307L1138.55,612.307L1121.93,645.552L1135.77,640.323C1123.67,672.446 1109.54,682.563 1091.74,700.603L1103.21,700.603C1098.59,713.849 1083.62,721.522 1073.5,730.897C992.954,740.577 919.152,764.591 818.883,797.385C665.109,762.818 516.716,734.079 377,715.382C374.075,712.683 371.283,709.064 369.16,704.262L379.412,704.262C363.662,688.376 349.85,671.443 337.914,638.794L350.206,643.73L334.343,612.353L352.541,612.353C349.068,607.53 345.661,602.533 342.333,597.336L1129.94,597.336ZM1242,724.45L1242,725.109L1241.63,724.45L1242,724.45ZM258.557,597.336C254.884,602.624 251.195,607.539 247.502,612.353L266.711,612.353L251.032,643.73L264.09,638.794C252.939,668.388 239.969,682.332 223.736,698.814C205.222,697.34 186.932,696.093 168.843,695.083C166.043,690.792 163.808,686.001 162.459,680.424L191.843,680.424C181.386,671.125 174.443,660.772 169.473,649.827L183.409,649.827C170.323,636.628 158.221,619.104 147.082,597.336L258.557,597.336ZM1242,686.194C1231.77,675.625 1222.43,663.42 1213.99,640.323L1227.02,645.552L1210.21,612.307L1229.49,612.307C1225.87,607.285 1222.32,602.332 1218.85,597.336L1242,597.336L1242,686.194ZM6.305,597.336C4.25,601.351 2.15,605.255 0,609.042L0,597.336L6.305,597.336Z" style="fill:url(#_Linear5);"/>
                <path d="M992.526,745.489C987.465,745.527 982.762,745.558 980.067,745.582C961.104,745.751 953.947,745.581 937.624,745.265C918.104,744.887 876.808,741.783 876.808,741.783C876.808,741.783 920.297,738.611 934.466,738.22C956.006,737.627 995.449,737.479 1018.75,738.22C1020.79,738.285 1022.99,738.366 1025.3,738.46C1014.41,740.557 1003.51,742.904 992.526,745.489ZM558.701,741.575C558.701,741.575 578.538,738.487 601.968,738.204C622.981,737.95 682.584,737.729 705.317,738.204C738.708,738.9 750.878,741.575 750.878,741.575C750.878,741.575 732.338,744.289 698.89,744.871C692.931,744.975 665.95,745.114 659.385,745.171C640.895,745.331 620.964,745.17 605.048,744.871C586.015,744.513 558.701,741.575 558.701,741.575ZM378.951,703.795C383.403,703.544 387.532,703.357 390.903,703.279C416.737,702.683 464.738,702.535 492.688,703.279C521.164,704.037 555.942,706.854 555.942,706.854C555.942,706.854 514.19,709.727 484.782,710.348C477.455,710.503 469.603,710.606 461.528,710.667C438.784,710.836 414.269,710.665 394.691,710.348C387.64,710.234 379.664,709.872 371.96,709.421C370.969,707.914 370.047,706.246 369.223,704.403L371.03,704.282L371.34,704.262L379.412,704.262L378.951,703.795ZM723.247,694.542C723.247,694.542 766.232,690.297 786.395,689.775C817.049,688.98 874.004,688.783 907.17,689.775C940.958,690.785 982.224,694.542 982.224,694.542C982.224,694.542 932.683,698.372 897.789,699.201C889.094,699.408 879.777,699.545 870.196,699.626C843.209,699.852 814.12,699.624 790.89,699.201C763.111,698.695 723.247,694.542 723.247,694.542ZM493.967,662.786C493.967,662.786 511.126,660.495 519.175,660.213C531.412,659.784 554.148,659.678 567.387,660.213C580.875,660.758 597.348,662.786 597.348,662.786C597.348,662.786 577.572,664.855 563.642,665.302C560.171,665.414 556.452,665.488 552.627,665.531C541.855,665.653 530.242,665.53 520.969,665.302C509.88,665.029 493.967,662.786 493.967,662.786ZM1129.41,654.952C1105.6,655.026 1076.26,654.883 1057.17,654.64C1031.49,654.312 1002.2,651.624 1002.2,651.624C1002.2,651.624 1034.37,648.877 1053.02,648.539C1069.41,648.242 1102.06,648.074 1132.62,648.11C1131.56,650.524 1130.49,652.799 1129.41,654.952ZM1217.57,649.354C1247.44,650.349 1280.59,651.758 1280.59,651.758C1280.59,651.758 1249.58,652.828 1219.51,653.687C1218.86,652.293 1218.21,650.85 1217.57,649.354ZM458.396,629.483C458.396,629.483 493.851,625.966 534.634,625.533C596.637,624.875 829.25,624.711 896.333,625.533C964.676,626.37 982.224,629.483 982.224,629.483C982.224,629.483 947.938,632.658 877.358,633.345C810.238,633.998 607.395,633.82 543.726,633.345C487.539,632.925 458.396,629.483 458.396,629.483ZM256.192,633.404C243.459,633.482 230.196,633.338 219.376,633.093C204.917,632.765 184.168,630.077 184.168,630.077C184.168,630.077 206.541,627.331 217.036,626.992C227.701,626.649 244.481,626.478 259.595,626.594L256.192,633.404Z" style="fill:white;fill-opacity:0.25;"/>
                <path d="M818.883,797.385C919.152,764.591 992.954,740.577 1073.5,730.897C1083.62,721.522 1098.59,713.849 1103.21,700.603L1091.74,700.603C1109.54,682.563 1123.67,672.446 1135.77,640.323L1121.93,645.552L1138.55,612.307L1118.2,612.307C1137.29,587.41 1156.29,568.985 1173.86,505.133C1188.4,554.354 1207.71,582.07 1229.49,612.307L1210.21,612.307L1227.02,645.552L1213.99,640.323C1222.43,663.419 1231.76,675.624 1242,686.194C1242.35,686.557 1242,686.976 1242,686.976L1242,901.094C1099.19,864.135 955.595,828.116 818.883,797.385Z" style="fill:url(#_Linear6);"/>
                <path d="M0,698.437C0,698.437 -9.022,624.934 0,609.042C9.78,591.815 18.56,572.114 26.638,550.676L8.887,557.386L30.201,514.732L4.089,514.732C28.589,482.789 52.963,447.602 75.509,365.679C94.169,428.829 118.941,475.937 146.88,514.732L122.141,514.732L143.706,557.386L126.995,550.676C143.222,595.059 161.998,628.232 183.409,649.827L169.473,649.827C174.443,660.772 181.386,671.125 191.843,680.424L162.459,680.424C163.808,686.001 166.043,690.792 168.843,695.083C186.932,696.093 205.222,697.34 223.736,698.814C239.969,682.332 252.939,668.388 264.09,638.794L251.032,643.73L266.711,612.353L247.502,612.353C265.525,588.856 283.454,562.972 300.039,502.709C313.766,549.163 331.988,583.816 352.541,612.353L334.343,612.353L350.206,643.73L337.914,638.794C349.85,671.443 363.662,688.376 379.412,704.262L369.16,704.262C371.283,709.064 374.075,712.683 377,715.382C641.715,750.806 937.573,822.278 1242,901.094L0,901.094L0,698.437Z" style="fill:url(#_Linear7);"/>
            </g>
        </g>
    </g>
    <defs>
        <linearGradient id="_Linear2" x1="0" y1="0" x2="1" y2="0" gradientUnits="userSpaceOnUse" gradientTransform="matrix(-1.54889e-14,252.953,-129.238,-7.91354e-15,630.167,403.641)"><stop offset="0" style="stop-color:black;stop-opacity:0.3"/><stop offset="1" style="stop-color:black;stop-opacity:0.4"/></linearGradient>
        <linearGradient id="_Linear3" x1="0" y1="0" x2="1" y2="0" gradientUnits="userSpaceOnUse" gradientTransform="matrix(1.24786e-14,-203.791,203.791,1.24786e-14,1113.6,597.336)"><stop offset="0" style="stop-color:black;stop-opacity:0.2"/><stop offset="1" style="stop-color:black;stop-opacity:0.3"/></linearGradient>
        <linearGradient id="_Linear4" x1="0" y1="0" x2="1" y2="0" gradientUnits="userSpaceOnUse" gradientTransform="matrix(1.62871e-14,-265.988,265.988,1.62871e-14,310.274,597.336)"><stop offset="0" style="stop-color:black;stop-opacity:0.1"/><stop offset="1" style="stop-color:black;stop-opacity:0.2"/></linearGradient>
        <linearGradient id="_Linear5" x1="0" y1="0" x2="1" y2="0" gradientUnits="userSpaceOnUse" gradientTransform="matrix(1.22495e-14,-200.049,37.7069,2.30888e-15,818.883,797.385)"><stop offset="0" style="stop-color:white;stop-opacity:0.2"/><stop offset="1" style="stop-color:white;stop-opacity:0.3"/></linearGradient>
        <linearGradient id="_Linear6" x1="0" y1="0" x2="1" y2="0" gradientUnits="userSpaceOnUse" gradientTransform="matrix(2.42456e-14,-395.961,395.961,2.42456e-14,1138.55,901.094)"><stop offset="0" style="stop-color:black;stop-opacity:0.05"/><stop offset="1" style="stop-color:black;stop-opacity:0.15"/></linearGradient>
        <linearGradient id="_Linear7" x1="0" y1="0" x2="1" y2="0" gradientUnits="userSpaceOnUse" gradientTransform="matrix(3.27847e-14,-535.415,535.415,3.27847e-14,75.5087,901.094)"><stop offset="0" style="stop-color:white;stop-opacity:0"/><stop offset="1" style="stop-color:white;stop-opacity:0.1"/></linearGradient>
    </defs>
</svg>
