<?xml version="1.0" encoding="UTF-8" standalone="no"?>
<!DOCTYPE svg PUBLIC "-//W3C//DTD SVG 1.1//EN" "http://www.w3.org/Graphics/SVG/1.1/DTD/svg11.dtd">
<svg width="100%" height="100%" viewBox="0 0 1242 912" version="1.1" xmlns="http://www.w3.org/2000/svg" xmlns:xlink="http://www.w3.org/1999/xlink" xml:space="preserve" xmlns:serif="http://www.serif.com/" style="fill-rule:evenodd;clip-rule:evenodd;stroke-linejoin:round;stroke-miterlimit:2;">
    <g id="a" transform="matrix(1,0,0,0.734017,0,0)">
        <rect x="0" y="0" width="1242" height="1242" style="fill:none;"/>
        <clipPath id="_clip1">
            <rect x="0" y="0" width="1242" height="1242"/>
        </clipPath>
        <g clip-path="url(#_clip1)">
            <g id="v2" transform="matrix(1,0,0,1.36237,0,0)">
                <g>
                    <path d="M653.198,445.603C684.86,434.64 718.718,396.068 734.474,393.032C748.78,390.276 766.726,412.16 804.747,425.116C769.003,451.432 737.951,475.48 719.169,481.092C716.083,478.934 713.017,476.924 709.968,475.177C694.189,466.143 677.262,459.243 661.341,450.462C658.527,448.91 655.816,447.287 653.198,445.603Z" style="fill:url(#_Linear2);"/>
                    <path d="M719.325,481.045C760.154,468.657 858.369,370.099 937.157,349.33C947.013,346.733 981.657,371.599 997.507,376.379C977.029,392.996 950.672,412.331 915.102,433.545C894.724,428.084 875.221,421.856 860.479,423.983C808.424,431.492 770.796,474.953 744.345,499.148L744.27,499.216C744.27,499.216 730.716,488.732 719.325,481.045Z" style="fill:url(#_Linear3);"/>
                    <path d="M513.959,397.601L513.755,397.449C524.062,394.843 566.651,368.196 577.292,370.425C594.293,373.985 611.797,423.136 661.341,450.462C677.262,459.243 690.811,464.611 709.968,475.177C721.207,481.376 744.27,499.216 744.27,499.216L744.27,499.216C744.61,499.494 745.102,499.906 745.524,500.243C747.705,501.979 751.238,503.381 752.666,504.034C753.231,504.292 757.714,506.792 768.01,509.567C776.202,511.774 788.295,513.857 797.706,517.57C813.537,523.814 825.295,530.862 830.289,534.579C801.595,527.9 768.282,520.247 744.354,510.584C740.791,509.146 737.24,507.777 733.695,506.458L733.665,506.447L733.634,506.435L733.105,506.238L732.704,506.09L732.675,506.079C731.076,505.488 729.478,504.906 727.883,504.333L727.501,504.195L726.953,503.999L726.879,503.973L726.819,503.951L726.382,503.795L725.964,503.647L725.911,503.628L725.83,503.599L725.263,503.397L724.953,503.287L724.933,503.28C723.648,502.825 722.363,502.374 721.078,501.927L721.072,501.925C720.495,501.723 719.918,501.523 719.342,501.324L719.141,501.254L718.236,500.942L717.438,500.666L717.258,500.604L717.208,500.587L715.861,500.124L715.204,499.899L714.201,499.556L713.344,499.263L713.211,499.218L712.971,499.136L711.998,498.805L711.412,498.605L711.207,498.535L710.738,498.376C709.994,498.123 709.249,497.87 708.505,497.617L705.29,496.524L703.902,496.052L701.804,495.337L699.676,494.609L699.146,494.427L697.585,493.891L696.843,493.634L695.479,493.163L694.084,492.678L693.995,492.647L692.27,492.043L691.965,491.936L690.295,491.347L689.753,491.155L689.359,491.015L688.646,490.761L688.301,490.637L687.356,490.299L687.246,490.259L686.19,489.878L685.881,489.766L685.136,489.496L684.745,489.353L684.076,489.109L683.661,488.957L683.008,488.716L682.593,488.563L681.919,488.313L681.532,488.17L680.754,487.879L680.474,487.774L679.418,487.377L679.186,487.289L678.361,486.976L677.984,486.833L677.3,486.571L676.885,486.412L676.232,486.16L675.81,485.996L675.149,485.74L674.743,485.581L674.026,485.3L673.68,485.164L672.618,484.743L671.882,484.452C671.882,484.452 671.146,484.164 671.146,484.164C670.902,484.069 670.657,483.973 670.412,483.878L669.906,483.684C668.767,483.246 667.631,482.819 666.496,482.401L666.444,482.382L666.373,482.356C665.687,482.103 665.002,481.854 664.316,481.608L664.195,481.564L664.074,481.521C663.36,481.264 662.647,481.012 661.935,480.762L661.832,480.726L661.774,480.705C661.407,480.577 661.04,480.449 660.674,480.322L660.571,480.286L660.462,480.248C660.109,480.126 659.756,480.005 659.4,479.883C658.949,479.728 658.498,479.575 658.047,479.422L658.031,479.416L657.788,479.334L656.79,478.998L656.704,478.969L656.581,478.928L656.021,478.741L655.531,478.577L655.389,478.53L655.131,478.444L654.511,478.24L654.271,478.16L654.134,478.115L653.68,477.965C653.197,477.807 652.713,477.648 652.229,477.49L651.212,477.159C647.349,475.904 643.47,474.674 639.543,473.408L638.837,473.181L637.962,472.898L637.069,472.608L636.296,472.357L635.045,471.948L634.604,471.803L633.236,471.352L633.021,471.281L631.682,470.835L631.45,470.757L630.248,470.353L630.028,470.279L628.739,469.84L628.151,469.639L627.989,469.584L627.086,469.272L626.133,468.941L626.11,468.933L625.211,468.618L625.111,468.583L624.218,468.268L624.188,468.257C623.223,467.914 622.254,467.566 621.279,467.21L620.512,466.93C620.034,466.754 619.554,466.576 619.07,466.396L617.699,465.881L616.884,465.571C616.884,465.571 615.995,465.231 615.995,465.231L615.721,465.124L615.095,464.882L614.773,464.757L614.169,464.52L613.858,464.398L613.153,464.119L612.954,464.04L612.023,463.668L611.928,463.629L611.087,463.289L610.893,463.21L610.112,462.891L609.95,462.824L609.026,462.442C608.4,462.182 607.771,461.918 607.139,461.65L606.217,461.257L605.95,461.141L605.284,460.854L604.972,460.719L604.331,460.439L604.027,460.306L603.327,459.997L603.092,459.893L602.149,459.472C601.811,459.319 601.474,459.167 601.136,459.015L600.141,458.561L600.08,458.532L599.096,458.078C599.096,458.078 598.52,457.811 598.52,457.811C598.328,457.72 598.135,457.63 597.943,457.54L597.45,457.308L597.258,457.217L596.783,456.992C596.408,456.813 596.032,456.633 595.654,456.451L595.366,456.313L594.905,456.089L594.584,455.933L594.133,455.713L593.784,455.542L593.412,455.359L593.04,455.175L592.66,454.986L592.241,454.778L591.857,454.586L591.446,454.379L591.013,454.16L590.674,453.989L590.44,453.87L589.924,453.607L589.537,453.409L589.109,453.188L588.717,452.986L588.259,452.749L587.903,452.563L587.158,452.173L586.785,451.976L586.335,451.738L585.939,451.528L585.492,451.289L585.109,451.085L584.36,450.681L583.969,450.47L583.532,450.232L583.105,449.999L582.699,449.776L582.262,449.536L581.841,449.303L581.494,449.111L581.056,448.867L580.698,448.667L580.204,448.39L579.875,448.205L579.357,447.912L579.112,447.773L578.578,447.469L577.93,447.098L577.83,447.041L577.218,446.689L577.016,446.571L576.384,446.205L576.296,446.154C575.574,445.733 574.848,445.307 574.118,444.873L573.424,444.46L573.134,444.287L572.593,443.962L572.173,443.709C571.771,443.467 571.368,443.222 570.964,442.976L570.548,442.722L569.731,442.221C569.731,442.221 568.937,441.728 568.937,441.728C568.937,441.728 568.306,441.331 568.306,441.331L567.575,440.866L566.907,440.436L566.302,440.042L565.543,439.542L564.925,439.129L564.251,438.675L563.574,438.213C563.574,438.213 562.983,437.806 562.983,437.806C562.983,437.806 562.262,437.303 562.262,437.303L561.65,436.873L561.054,436.449C561.054,436.449 559.764,435.519 559.764,435.519L558.471,434.567L557.911,434.15L556.633,433.185L555.375,432.218L554.711,431.702L553.815,430.998L553.041,430.385L552.067,429.604C552.067,429.604 551.29,428.975 551.29,428.975L550.346,428.205L549.558,427.556L548.657,426.808C548.657,426.808 547.844,426.128 547.844,426.128L547.012,425.428L545.793,424.392C545.793,424.392 544.723,423.478 544.723,423.478L543.535,422.455L542.364,421.44L541.093,420.333L539.386,418.839C539.386,418.839 538.069,417.682 538.069,417.682L537.523,417.202C536.068,415.923 534.612,414.64 533.147,413.358L533.019,413.246L532.339,412.652L532.21,412.539L531.054,411.531L530.709,411.233L530.517,411.066L530.111,410.714L529.892,410.524L529.797,410.442C527.249,408.24 524.659,406.043 521.989,403.867C519.398,401.754 516.732,399.661 513.959,397.601Z" style="fill:url(#_Linear4);"/>
                    <path d="M915.102,433.545C1028.58,365.869 1048.27,317.328 1082.61,315.056C1100.13,313.896 1125.22,347.708 1137.42,358.864C1096.23,399.585 1042.32,434.085 963.587,440.516C948.187,441.774 931.365,437.904 915.102,433.545Z" style="fill:url(#_Linear5);"/>
                    <path d="M744.345,499.148C770.796,474.953 808.424,431.492 860.479,423.983C886.989,420.158 928.894,443.35 963.587,440.516C1127.62,427.118 1183.9,291.892 1242,232.332L1242,329.113C1168.67,333.806 1127.76,430.107 1083.86,449.397C1042.16,467.723 1011.24,446.373 958.676,467.064C928.236,479.046 907.451,514.111 869.409,544.374C858.089,541.023 830.289,534.579 830.289,534.579C825.295,530.862 813.537,523.814 797.706,517.57C788.295,513.857 776.202,511.774 768.01,509.567C757.714,506.792 753.231,504.292 752.666,504.034C751.238,503.381 747.705,501.979 745.524,500.243C745.102,499.906 744.61,499.494 744.27,499.216L744.345,499.148Z" style="fill:url(#_Linear6);"/>
                </g>
                <g>
                    <path d="M0.007,322.941C0.007,322.941 -20.266,323.584 1.178,315.232C22.623,306.879 48.312,278.921 62.566,278.908C85.94,278.887 101.055,275.625 122.086,268.022C161.734,253.69 214.338,198.24 228.862,205.475C255.153,218.569 310.342,306.338 360.535,331.338C404.465,353.219 451.61,364.054 487.132,381.24C523.779,398.971 540.077,423.959 569.731,442.221C612.735,468.703 641.17,472.236 672.618,484.743C696.741,494.338 720.282,500.864 744.354,510.584C780.746,525.28 838.849,535.328 869.41,544.374C851.155,558.899 828.923,572.321 799.743,581.556C784.491,581.59 671.231,581.66 648.562,576.318C618.31,569.189 591.552,553.114 558.224,553.236C534.598,553.322 526.874,566.898 510.173,569.638C361.835,593.981 363.895,531.323 296.496,513.669C278.288,508.9 237.58,521.765 224.628,530.53C209.788,520.282 195.205,509.809 180.803,499.149C117.201,441.963 7.946,343.937 0.007,322.941Z" style="fill:url(#_Linear7);"/>
                    <path d="M225.162,530.972L224.628,530.53C237.58,521.765 278.288,508.9 296.496,513.669C363.895,531.323 361.835,593.981 510.173,569.638C526.874,566.898 534.598,553.322 558.224,553.236C591.552,553.114 618.31,569.189 648.562,576.318C672.88,582.048 801.446,581.551 801.446,581.551C795.966,583.167 790.327,584.521 784.634,585.656C749.725,592.618 712.802,591.362 698.123,592.079C695.138,592.225 696.806,594.084 697.737,594.759C698.876,595.584 701.626,594.872 702.3,596.116C702.934,597.287 701.628,598.271 699.185,598.108C642.144,594.318 495.304,629.735 441.653,648.558L440.403,648.999C358.31,615.712 289.799,575.746 225.162,530.972Z" style="fill:url(#_Linear8);"/>
                    <path d="M27.026,698.996L8.505,577.796L-4.24,654.547L-6.487,710.448L-39.581,590.838L0.007,322.941C7.946,343.937 117.201,441.963 180.803,499.149C258.823,556.894 339.316,608.01 440.403,648.999C440.403,648.999 453.929,654.988 461.002,657.192L461.337,657.298C461.337,657.298 469.97,661.283 468.148,662.946C467.612,663.435 466.292,664.027 464.53,664.611C461.956,665.404 458.436,666.151 455.37,666.729L454.959,666.787L454.913,666.794L454.539,666.844L454.483,666.851L454.092,666.9L454.066,666.903L453.643,666.952L453.235,666.995L453.153,667.003L452.839,667.033L452.714,667.044L452.444,667.067L452.307,667.078L452.047,667.097L451.912,667.107L451.639,667.124L451.526,667.131L451.144,667.15L450.771,667.164L450.653,667.168L450.402,667.174L450.264,667.176L450.037,667.178L449.896,667.179L449.673,667.178L449.509,667.176L449.455,667.175L449.179,667.168L449.133,667.167L448.85,667.156C439.652,666.717 424.958,660.378 412.527,660.251L412.229,660.249C412.03,660.249 411.833,660.25 411.636,660.253C384.901,660.638 365.381,669.811 343.12,670.03L342.568,670.034C341.463,670.037 340.349,670.018 339.227,669.975C322.904,669.343 298.389,662.636 284.279,662.089L282.286,654.547L281.663,662.521C275.729,662.634 269.6,666.298 263.377,671.681L263.081,671.939L259.411,652.536L256.031,678C256.031,678 242.775,688.317 235.08,688.723C234.96,688.729 234.838,688.733 234.712,688.735L234.523,688.736C226.574,688.726 209.86,680.436 209.86,680.436L206.199,662.698L203.471,678.799C202.438,678.623 201.45,678.532 200.5,678.513L200.217,678.51C189.202,678.455 183.445,688.119 172.944,688.486C172.665,688.496 172.37,688.502 172.06,688.505L171.585,688.508C166.9,688.51 159.588,687.903 159.588,687.903L155.045,661.364L151.069,688.533C146.99,688.966 143.879,689.826 141.524,691.019L141.299,691.135L137.88,667.844L132.951,694.383C131.592,695 130.256,695.588 128.941,696.147L128.379,696.384L121.917,661.08L116.017,697.036L109.459,625.283L101.106,694.475L97.226,693.197L93.907,679.477L91.756,692.352L86.374,692.265L80.657,656.565L74.527,692.756L68.178,693.865L59.123,637.93L48.893,698.996L40.188,609.88L29.713,698.996L27.026,698.996Z" style="fill:url(#_Linear9);"/>
                    <path d="M461.337,657.298C461.337,657.298 469.97,661.283 468.148,662.946C466.325,664.609 455.426,667.469 448.85,667.156C439.432,666.707 424.251,660.071 411.636,660.253C383.353,660.66 363.147,670.902 339.227,669.975C322.904,669.343 298.389,662.636 284.279,662.089L282.286,654.547L281.663,662.521C275.635,662.636 269.406,666.415 263.081,671.939L259.411,652.536L256.031,678C256.031,678 242.775,688.317 235.08,688.723C227.385,689.129 209.86,680.436 209.86,680.436L206.199,662.698L203.471,678.799C190.242,676.557 184.432,688.085 172.944,688.486C168.49,688.642 159.588,687.903 159.588,687.903L155.045,661.364L151.069,688.533C146.858,688.98 143.68,689.882 141.299,691.135L137.88,667.844L132.951,694.383C131.398,695.089 129.874,695.756 128.379,696.384L121.917,661.08L116.017,697.036L109.459,625.283L101.106,694.475L97.226,693.197L93.907,679.477L91.756,692.352L86.374,692.265L80.657,656.565L74.527,692.756L68.178,693.865L59.123,637.93L48.893,698.996L40.188,609.88L29.713,698.996L27.026,698.996L8.505,577.796L-4.24,654.547L-10.923,820.777L0,815.469C8.148,816.588 181.328,787.7 210.267,779.892C213.158,779.112 217.631,776.48 217.563,774.653C217.325,770.51 209.858,768.93 209.858,768.93C209.858,768.93 206.684,764.733 200.636,762.993C190.029,759.941 148.863,752.086 146.218,750.62C143.574,740.652 164.099,735.543 174.995,732.27C210.528,721.594 312.233,700.29 364.869,692.644C403.21,687.075 460.427,680.886 479.572,673.865C483.882,672.285 484.708,669.035 484.288,666.01C483.255,658.564 461.337,657.298 461.337,657.298Z" style="fill:url(#_Linear10);"/>
                </g>
                <g>
                    <path d="M654.237,658.47C653.909,659.195 653.727,660.018 653.727,660.948C653.727,661.326 653.727,659.208 654.237,658.47ZM1250.93,463.357C1248.35,461.383 1245.78,460.177 1243.28,459.92C1216.68,457.193 1177.51,532.174 1143.84,556.568C1088.57,596.607 1023.31,577.606 1023.31,577.606L1018.73,552.697L1015.41,575.105C1001.46,570.658 987.083,568.157 971.755,569.941L965.283,538.521L960.53,573.051C949.498,577.632 939.992,585.256 931.22,594.34L928.388,581.665L926.162,598.447C908.356,612.58 892.465,621.75 879.239,624.006L875.164,603.916L872.121,625.116C863.158,625.439 854.039,626.336 846.167,622.651L839.293,584.641L834.287,619.074C834.287,619.074 797.124,602.836 781.529,603.126C759.839,603.529 740.902,625.14 740.902,625.14L738.079,613.154L736.37,630.48C717.513,647.323 693.452,658.277 682.035,658.494C672.949,658.666 667.856,653.45 663.138,653.859C662.499,653.914 661.861,653.998 661.235,654.113C673.388,650.396 694.674,653.033 695.728,642.461C696.976,629.93 609.362,645.028 605.071,633.429C601.948,624.99 628.267,620.323 652.088,616.032C663.792,613.924 676.341,608.685 686.505,606.634C699.043,604.103 709.03,603.458 711.669,598.119C712.724,595.985 705.746,594.128 705.746,594.128C877.914,595.666 900.911,489.801 958.676,467.064C1011.24,446.373 1042.16,467.723 1083.86,449.397C1128.24,429.895 1169.57,331.674 1244.44,328.991C1247.82,328.869 1253.9,323.277 1253.9,323.277L1250.93,463.357Z" style="fill:url(#_Linear11);"/>
                    <path d="M959.6,684.56L959.421,684.543C959.421,684.543 912.982,685.141 894.045,684.347C877.905,683.67 855.399,679.778 845.798,679.778C829.643,679.778 694.321,676.391 665.043,669.48C660.445,668.395 653.727,665.672 653.727,660.948C653.727,656.224 658.42,654.268 663.138,653.859C667.856,653.45 672.949,658.666 682.035,658.494C693.452,658.277 717.513,647.323 736.37,630.48L738.079,613.154L740.902,625.14C740.902,625.14 759.839,603.529 781.529,603.126C797.124,602.836 834.287,619.074 834.287,619.074L839.293,584.641L846.167,622.651C854.039,626.336 863.158,625.439 872.121,625.116L875.164,603.916L879.239,624.006C892.465,621.75 908.356,612.58 926.162,598.447L928.388,581.665L931.22,594.34C939.992,585.256 949.498,577.632 960.53,573.051L965.283,538.521L971.755,569.941C987.083,568.157 1001.46,570.658 1015.41,575.105L1018.73,552.697L1023.31,577.606C1023.31,577.606 1088.57,596.607 1143.84,556.568C1177.51,532.174 1216.68,457.193 1243.28,459.92C1269.89,462.647 1303.47,572.932 1303.47,572.932L1247.27,605.118C1244.49,572.661 1242.51,550.539 1242.51,550.539C1242.51,550.539 1227.5,549.489 1210.24,558.757C1155.45,588.185 1117.21,665.144 1081.54,667.84C1043.02,670.751 1034.23,645.851 993.89,659.487C981.872,663.549 970.763,673.563 959.6,684.56Z" style="fill:url(#_Linear12);"/>
                    <path d="M1242.51,859.038C1224.11,861.851 1162.39,859.873 1163,846.886C1163.21,842.373 1187.16,840.457 1183.15,835.566C1175.88,826.68 1038.37,831.296 1037.68,811.244C1037.45,804.562 1053.55,800.772 1052.63,794.151C1051.44,785.627 1038.83,787.045 1031.42,784.869C1021.38,781.917 1005.78,774.788 991.009,771.387C966.447,765.734 906.128,766.081 883.981,760.39C872.685,757.488 858.895,755.38 849.604,753.868C842.523,752.716 833.191,752.722 828.234,751.319C824.955,750.39 817.781,745.9 820.864,744.448C847.384,731.955 840.979,748.165 912.371,721.997C942.745,710.864 965.844,668.966 993.89,659.487C1034.23,645.851 1043.02,670.751 1081.54,667.84C1117.21,665.144 1155.45,588.185 1210.24,558.757C1227.5,549.489 1242.51,550.539 1242.51,550.539C1242.51,550.539 1264.95,801.669 1264.95,853.086C1264.95,860.825 1250.16,857.869 1242.51,859.038Z" style="fill:url(#_Linear13);"/>
                </g>
                <g>
                    <path d="M959.6,684.56C944.712,699.224 929.73,715.634 912.371,721.997C840.979,748.165 847.384,731.955 820.864,744.448C817.781,745.9 824.955,750.39 828.234,751.319C833.191,752.722 842.523,752.716 849.604,753.868C858.895,755.38 872.685,757.488 883.981,760.39C906.128,766.081 966.447,765.734 991.009,771.387C1005.78,774.788 1021.38,781.917 1031.42,784.869C1038.83,787.045 1051.44,785.627 1052.63,794.151C1053.55,800.772 1037.45,804.562 1037.68,811.244C1038.37,831.296 1175.88,826.68 1183.15,835.566C1187.16,840.457 1163.21,842.373 1163,846.886C1162.39,859.873 1224.11,861.851 1242.51,859.038C1244.02,858.807 1242,911.649 1242,911.649L0,911.649L0,815.469C8.148,816.588 181.328,787.7 210.267,779.892C213.158,779.112 217.631,776.48 217.563,774.653C217.325,770.51 209.858,768.93 209.858,768.93C209.858,768.93 206.684,764.733 200.636,762.993C190.029,759.941 148.863,752.086 146.218,750.62C143.574,740.652 164.099,735.543 174.995,732.27C210.528,721.594 312.233,700.29 364.869,692.644C403.21,687.075 460.427,680.886 479.572,673.865C483.882,672.285 484.708,669.035 484.288,666.01C483.255,658.564 461.337,657.298 461.337,657.298L461.002,657.192C453.929,654.988 441.653,648.558 441.653,648.558C495.304,629.735 642.144,594.318 699.185,598.108C701.628,598.271 702.934,597.287 702.3,596.116C701.626,594.872 698.876,595.584 697.737,594.759C696.806,594.084 695.138,592.225 698.123,592.079C712.802,591.362 749.725,592.618 784.634,585.656C785.627,585.458 786.619,585.253 787.608,585.041C774.716,588.38 760.57,590.928 744.955,592.468L744.949,592.469L743.648,592.594L742.349,592.714L742.312,592.718L741.045,592.83L741.005,592.833L739.715,592.942L739.648,592.947L738.421,593.046L738.329,593.053L737.05,593.151L736.958,593.158L735.764,593.244L735.626,593.254L734.356,593.341L734.243,593.348L733.074,593.423L732.896,593.434L731.632,593.511L731.501,593.518L730.352,593.583L730.138,593.595L728.878,593.662L728.735,593.669L727.597,593.724L727.353,593.736L726.093,593.792L725.944,593.799L724.81,593.845L724.541,593.856L723.278,593.903L723.128,593.908L721.99,593.946L721.701,593.955L720.433,593.993L720.288,593.997L719.138,594.027L718.834,594.034L717.557,594.063L717.425,594.065L716.255,594.087L715.938,594.092L714.65,594.111L714.539,594.112L713.34,594.126L713.014,594.129L711.713,594.138L711.63,594.139L710.393,594.143L710.061,594.144L708.745,594.144L708.699,594.144L707.416,594.139L707.079,594.137L705.746,594.128C705.772,594.135 705.798,594.142 705.824,594.149L705.972,594.191C706.391,594.312 707.339,594.598 708.349,595.003L708.496,595.062L708.8,595.189L708.952,595.255L709.103,595.323C709.154,595.346 709.204,595.369 709.254,595.393L709.342,595.434C710.291,595.884 711.161,596.426 711.555,597.017L711.578,597.051C711.587,597.067 711.597,597.082 711.606,597.098L711.624,597.13C711.677,597.225 711.718,597.322 711.744,597.419C711.76,597.482 711.771,597.546 711.775,597.609L711.777,597.625L711.778,597.663C711.778,597.699 711.777,597.735 711.773,597.772L711.766,597.821C711.762,597.85 711.756,597.879 711.748,597.908C711.73,597.978 711.704,598.048 711.669,598.119C711.598,598.263 711.521,598.404 711.439,598.542C711.271,598.823 711.082,599.091 710.871,599.345C710.776,599.46 710.676,599.573 710.573,599.683C709.979,600.312 709.246,600.86 708.387,601.346L708.245,601.425C708.015,601.552 707.776,601.674 707.528,601.792L707.501,601.805L707.428,601.84C707.246,601.925 707.059,602.009 706.867,602.091C706.542,602.23 706.203,602.364 705.853,602.492L705.499,602.619C704.803,602.863 704.062,603.088 703.278,603.302C702.867,603.413 702.445,603.522 702.012,603.628C701.688,603.707 701.359,603.784 701.023,603.86C699.168,604.281 697.132,604.664 694.952,605.059L694.316,605.175C693.963,605.238 693.61,605.302 693.257,605.366L692.177,605.56L691.078,605.76C690.705,605.829 690.333,605.897 689.96,605.966L689.262,606.097C688.359,606.267 687.439,606.445 686.505,606.634C686.153,606.705 685.799,606.779 685.443,606.858L685.06,606.942L684.856,606.989C684.576,607.053 684.293,607.119 684.009,607.187C683.375,607.339 682.733,607.501 682.084,607.671L681.578,607.805C681.373,607.86 681.166,607.915 680.96,607.972L680.557,608.082L680.172,608.19C679.115,608.485 678.043,608.798 676.958,609.123C675.222,609.644 673.452,610.195 671.66,610.754L669.874,611.312L668.771,611.655L667.829,611.946C667.093,612.173 666.354,612.398 665.613,612.621C664.83,612.857 664.046,613.089 663.261,613.317L663.21,613.332L662.651,613.492L662.491,613.538C661.726,613.756 660.961,613.969 660.196,614.174C659.592,614.337 658.987,614.495 658.384,614.648C658.13,614.713 657.877,614.776 657.624,614.839L657.067,614.975C656.648,615.076 656.229,615.174 655.811,615.269C655.239,615.399 654.669,615.524 654.1,615.641L653.739,615.716C653.188,615.828 652.637,615.933 652.088,616.032C651.15,616.201 650.207,616.371 649.266,616.541L647.6,616.842L645.349,617.252C644.6,617.39 643.85,617.528 643.101,617.666L640.861,618.084C640.489,618.154 640.118,618.225 639.746,618.295L638.849,618.467C637.4,618.746 635.964,619.028 634.546,619.315C631.92,619.847 629.362,620.394 626.921,620.962L625.92,621.197C624.429,621.552 622.985,621.916 621.599,622.288L621.139,622.413C620.63,622.552 620.129,622.692 619.637,622.834C618.715,623.099 617.825,623.369 616.968,623.644L616.797,623.698C616.662,623.743 616.526,623.787 616.391,623.831L616.068,623.939C615.31,624.193 614.581,624.451 613.886,624.714L613.701,624.784C613.58,624.831 613.46,624.877 613.34,624.924L613.055,625.036C612.85,625.118 612.648,625.2 612.45,625.283C611.818,625.546 611.218,625.813 610.655,626.085L610.378,626.22L610.083,626.369C609.693,626.568 609.322,626.77 608.972,626.974C608.262,627.388 607.633,627.813 607.093,628.25L607.011,628.316L606.914,628.397C606.882,628.424 606.85,628.451 606.818,628.479L606.747,628.541C606.709,628.575 606.671,628.609 606.634,628.643C606.303,628.944 606.014,629.252 605.77,629.565L605.705,629.651L605.642,629.737L605.581,629.823L605.569,629.841C605.236,630.325 605.01,630.822 604.898,631.335C604.866,631.48 604.844,631.627 604.831,631.775C604.806,632.062 604.816,632.353 604.863,632.649L604.88,632.745C604.903,632.869 604.933,632.994 604.969,633.119C604.987,633.181 605.006,633.244 605.028,633.307C605.042,633.348 605.056,633.389 605.071,633.429C605.161,633.673 605.288,633.905 605.45,634.125C605.521,634.222 605.599,634.316 605.682,634.407C605.792,634.528 605.914,634.645 606.046,634.758C606.322,634.995 606.646,635.217 607.014,635.423C607.647,635.778 608.412,636.09 609.297,636.364L609.487,636.422L609.613,636.459C609.737,636.495 609.863,636.53 609.99,636.565L610.25,636.633C610.658,636.738 611.087,636.837 611.538,636.929C611.667,636.956 611.797,636.982 611.927,637.007L612.225,637.063C612.95,637.197 613.72,637.316 614.532,637.42C615.14,637.499 615.772,637.571 616.428,637.635C616.953,637.687 617.493,637.734 618.046,637.777C618.183,637.788 618.321,637.798 618.458,637.808L618.816,637.833C619.31,637.867 619.813,637.898 620.323,637.926C622.235,638.03 624.276,638.092 626.419,638.122L627.329,638.133C629.383,638.152 631.523,638.144 633.72,638.115C639.728,638.037 646.187,637.809 652.582,637.592L654.563,637.525L656.553,637.459C661.768,637.29 666.87,637.15 671.577,637.129L672.508,637.126C677.901,637.12 682.74,637.281 686.588,637.747L686.604,637.749L686.932,637.789C687.04,637.804 687.147,637.818 687.255,637.832L687.568,637.875C687.761,637.902 687.951,637.931 688.138,637.96C689.774,638.214 691.189,638.537 692.339,638.941C692.692,639.066 693.021,639.198 693.323,639.338C693.438,639.391 693.549,639.446 693.656,639.501C694.315,639.843 694.828,640.229 695.181,640.666L695.209,640.701L695.244,640.746C695.264,640.774 695.285,640.802 695.304,640.83C695.422,641 695.517,641.177 695.588,641.361C695.605,641.405 695.62,641.449 695.634,641.494L695.654,641.559C695.681,641.657 695.702,641.757 695.717,641.859C695.744,642.052 695.748,642.253 695.728,642.461L695.712,642.605C694.479,653.008 673.332,650.413 661.235,654.113C658.175,654.675 655.403,655.987 654.269,658.402L654.237,658.47C653.727,659.208 653.304,661.718 653.852,662.045C654.79,666.098 660.814,668.482 665.043,669.48C665.157,669.507 665.273,669.534 665.391,669.561C665.571,669.602 665.755,669.643 665.942,669.684C666.352,669.773 666.78,669.862 667.226,669.951C667.908,670.086 668.63,670.22 669.387,670.352L669.836,670.429L670.136,670.479C670.911,670.609 671.724,670.738 672.573,670.865L672.714,670.886L672.992,670.927C679.013,671.814 686.754,672.633 695.612,673.385L697.123,673.511C705.157,674.177 714.062,674.789 723.411,675.347C734.71,676.023 746.656,676.62 758.493,677.14C762.819,677.33 767.131,677.509 771.387,677.679L775.026,677.822C783.317,678.142 791.371,678.423 798.905,678.664C818.83,679.303 835.16,679.666 842.764,679.756L843.941,679.768C844.307,679.771 844.645,679.774 844.954,679.775C845.265,679.777 845.546,679.778 845.798,679.778C845.947,679.778 846.1,679.779 846.257,679.781L846.735,679.789C847.06,679.797 847.397,679.808 847.744,679.822L848.275,679.846L848.822,679.875C849.748,679.927 850.741,679.999 851.794,680.087L852.432,680.142C852.863,680.179 853.302,680.22 853.749,680.262C854.163,680.302 854.585,680.343 855.012,680.386C857.093,680.596 859.335,680.848 861.685,681.122C862.509,681.218 863.347,681.317 864.196,681.418L867.469,681.809C872.411,682.4 877.609,683.017 882.64,683.506L882.741,683.516L882.907,683.532C884.257,683.662 885.595,683.782 886.912,683.891L887.732,683.956C888.004,683.978 888.275,683.999 888.546,684.019L889.353,684.078C889.89,684.116 890.422,684.151 890.949,684.184C891.476,684.217 891.997,684.247 892.514,684.274L893.284,684.313C893.54,684.325 893.793,684.336 894.045,684.347C895.064,684.39 896.162,684.428 897.331,684.463C898.197,684.489 899.1,684.513 900.035,684.535C901.972,684.581 904.05,684.618 906.223,684.648C912.277,684.732 919.095,684.761 925.784,684.759C926.692,684.759 927.598,684.758 928.5,684.756L931.188,684.751L933.835,684.743C938.809,684.725 943.484,684.694 947.442,684.662C954.606,684.605 959.421,684.543 959.421,684.543L959.6,684.56ZM653.796,661.763L653.8,661.786L653.798,661.778L653.796,661.763ZM653.775,661.629L653.779,661.66L653.777,661.643L653.775,661.629ZM653.759,661.502L653.761,661.522L653.759,661.506L653.759,661.502ZM653.744,661.346L653.746,661.375L653.745,661.368L653.744,661.346ZM653.734,661.207L653.737,661.248L653.735,661.229L653.734,661.207ZM653.729,661.076L653.73,661.115L653.729,661.089L653.729,661.076ZM653.73,660.759L653.729,660.794L653.729,660.775L653.73,660.759ZM653.737,660.589L653.735,660.61L653.736,660.604L653.737,660.589ZM653.747,660.426L653.745,660.455L653.746,660.436L653.747,660.426ZM653.763,660.252L653.76,660.282L653.761,660.27L653.763,660.252ZM653.78,660.102L653.778,660.121L653.78,660.102ZM653.805,659.93L653.8,659.961L653.802,659.946L653.805,659.93ZM653.829,659.785L653.829,659.789L653.829,659.785ZM653.862,659.62L653.856,659.649L653.859,659.632L653.862,659.62ZM653.897,659.465L653.892,659.484L653.894,659.479L653.897,659.465ZM653.934,659.32L653.928,659.342L653.932,659.328L653.934,659.32ZM653.978,659.165L653.971,659.188L653.974,659.179L653.978,659.165ZM654.02,659.031L654.018,659.037L654.02,659.031ZM654.072,658.878L654.065,658.899L654.068,658.888L654.072,658.878ZM654.18,658.602L654.175,658.615L654.18,658.602Z" style="fill:none;"/>
                    <path d="M483.787,664.551L483.787,664.551C483.787,664.551 487.52,668.3 487.939,670.753C492.535,697.635 433.655,709.219 390.37,720.782C349.969,731.575 250.776,737.862 252.168,756.583C253.189,770.323 317.486,772.663 359.445,769.543C372.322,768.586 394.704,771.54 395.203,784.442C396.191,810.013 303.703,831.09 253.931,840.635C169.606,856.806 0,889.333 0,889.333L0,815.469L0.103,815.481C9.496,816.363 181.441,787.67 210.267,779.892C213.158,779.112 217.631,776.48 217.563,774.653C217.325,770.51 209.858,768.93 209.858,768.93C209.858,768.93 206.684,764.733 200.636,762.993C190.029,759.941 148.863,752.086 146.218,750.62C143.574,740.652 164.099,735.543 174.995,732.27C210.528,721.594 312.233,700.29 364.869,692.644C403.21,687.075 460.427,680.886 479.572,673.865C483.882,672.285 484.708,669.035 484.288,666.01C484.217,665.495 484.045,665.009 483.787,664.551Z" style="fill:url(#_Linear14);"/>
                    <path d="M783.631,585.854L783.617,586.04C771.81,588.89 758.974,591.086 744.955,592.468L743.648,592.594L742.312,592.718L741.005,592.833L739.648,592.947L738.329,593.053L736.958,593.158L735.626,593.254L734.243,593.348L732.896,593.434L731.501,593.518L730.138,593.595L728.735,593.669L727.353,593.736L725.944,593.799L724.541,593.856L723.128,593.908L721.701,593.955L720.288,593.997L718.834,594.034L717.425,594.065L715.938,594.092L714.539,594.112L713.014,594.129L711.63,594.139L710.061,594.144L708.699,594.144L707.079,594.137L705.746,594.128L705.972,594.191C706.391,594.312 707.339,594.598 708.349,595.003L708.98,595.268L709.342,595.434C710.291,595.884 711.161,596.426 711.555,597.017L711.624,597.13C711.677,597.225 711.718,597.322 711.744,597.419C711.76,597.482 711.771,597.546 711.775,597.609L711.773,597.772L711.748,597.908C711.73,597.978 711.704,598.048 711.669,598.119C711.598,598.263 711.521,598.404 711.439,598.542C711.271,598.823 711.082,599.091 710.871,599.345C710.776,599.46 710.676,599.573 710.573,599.683C709.979,600.312 709.246,600.86 708.387,601.346L708.245,601.425C708.015,601.552 707.776,601.674 707.528,601.792L706.867,602.091C706.542,602.23 706.203,602.364 705.853,602.492L705.499,602.619C704.803,602.863 704.062,603.088 703.278,603.302C702.867,603.413 702.445,603.522 702.012,603.628C701.688,603.707 701.359,603.784 701.023,603.86C699.168,604.281 697.132,604.664 694.952,605.059L692.177,605.56L691.078,605.76C690.705,605.829 690.333,605.897 689.96,605.966L689.262,606.097C688.359,606.267 687.439,606.445 686.505,606.634C686.153,606.705 685.799,606.779 685.443,606.858L684.856,606.989C684.576,607.053 684.293,607.119 684.009,607.187C683.375,607.339 682.733,607.501 682.084,607.671L680.96,607.972L680.172,608.19C679.115,608.485 678.043,608.798 676.958,609.123C675.222,609.644 673.452,610.195 671.66,610.754L668.771,611.655L667.829,611.946C667.093,612.173 666.354,612.398 665.613,612.621C664.83,612.857 664.046,613.089 663.261,613.317L662.491,613.538C661.726,613.756 660.961,613.969 660.196,614.174C659.592,614.337 658.987,614.495 658.384,614.648C658.13,614.713 657.877,614.776 657.624,614.839L657.067,614.975C656.648,615.076 656.229,615.174 655.811,615.269C655.239,615.399 654.669,615.524 654.1,615.641L653.739,615.716C653.188,615.828 652.637,615.933 652.088,616.032C651.15,616.201 650.207,616.371 649.266,616.541L647.6,616.842L645.349,617.252C644.6,617.39 643.85,617.528 643.101,617.666L640.861,618.084C640.489,618.154 640.118,618.225 639.746,618.295L638.849,618.467C637.4,618.746 635.964,619.028 634.546,619.315C631.92,619.847 629.362,620.394 626.921,620.962L625.92,621.197C624.429,621.552 622.985,621.916 621.599,622.288L621.139,622.413C620.63,622.552 620.129,622.692 619.637,622.834C618.715,623.099 617.825,623.369 616.968,623.644L616.068,623.939C615.31,624.193 614.581,624.451 613.886,624.714L613.055,625.036C612.85,625.118 612.648,625.2 612.45,625.283C611.818,625.546 611.218,625.813 610.655,626.085L610.083,626.369C609.693,626.568 609.322,626.77 608.972,626.974C608.262,627.388 607.633,627.813 607.093,628.25L606.747,628.541C606.709,628.575 606.671,628.609 606.634,628.643C606.303,628.944 606.014,629.252 605.77,629.565L605.569,629.841C605.236,630.325 605.01,630.822 604.898,631.335C604.866,631.48 604.844,631.627 604.831,631.775C604.806,632.062 604.816,632.353 604.863,632.649L604.88,632.745C604.903,632.869 604.933,632.994 604.969,633.119L605.071,633.429C605.161,633.673 605.288,633.905 605.45,634.125C605.521,634.222 605.599,634.316 605.682,634.407C605.792,634.528 605.914,634.645 606.046,634.758C606.322,634.995 606.646,635.217 607.014,635.423C607.647,635.778 608.412,636.09 609.297,636.364L609.613,636.459L610.25,636.633C610.658,636.738 611.087,636.837 611.538,636.929L612.225,637.063C612.95,637.197 613.72,637.316 614.532,637.42C615.14,637.499 615.772,637.571 616.428,637.635C616.953,637.687 617.493,637.734 618.046,637.777L618.816,637.833C619.31,637.867 619.813,637.898 620.323,637.926C622.235,638.03 624.276,638.092 626.419,638.122L627.329,638.133C629.383,638.152 631.523,638.144 633.72,638.115C639.728,638.037 646.187,637.809 652.582,637.592L654.563,637.525L656.553,637.459C661.768,637.29 666.87,637.15 671.577,637.129L672.508,637.126C677.901,637.12 682.74,637.281 686.588,637.747L687.255,637.832L688.138,637.96C689.774,638.214 691.189,638.537 692.339,638.941C692.692,639.066 693.021,639.198 693.323,639.338C693.438,639.391 693.549,639.446 693.656,639.501C694.315,639.843 694.828,640.229 695.181,640.666L695.304,640.83C695.422,641 695.517,641.177 695.588,641.361L695.654,641.559C695.681,641.657 695.702,641.757 695.717,641.859C695.744,642.052 695.748,642.253 695.728,642.461L695.712,642.605C694.479,653.008 673.332,650.413 661.235,654.113C658.175,654.675 655.403,655.987 654.269,658.402L654.237,658.47C653.727,659.208 653.598,661.729 653.852,662.045C654.79,666.098 660.814,668.482 665.043,669.48L665.942,669.684C666.352,669.773 666.78,669.862 667.226,669.951C667.908,670.086 668.63,670.22 669.387,670.352L670.136,670.479C670.911,670.609 671.724,670.738 672.573,670.865L672.992,670.927C679.013,671.814 686.754,672.633 695.612,673.385L697.123,673.511C705.157,674.177 714.062,674.789 723.411,675.347C734.71,676.023 746.656,676.62 758.493,677.14C762.819,677.33 767.131,677.509 771.387,677.679L775.026,677.822C783.317,678.142 791.371,678.423 798.905,678.664C818.83,679.303 835.16,679.666 842.764,679.756L843.941,679.768C844.307,679.771 844.645,679.774 844.954,679.775L846.257,679.781L846.735,679.789C847.06,679.797 847.397,679.808 847.744,679.822L848.275,679.846L848.822,679.875C849.748,679.927 850.741,679.999 851.794,680.087L852.432,680.142C852.863,680.179 853.302,680.22 853.749,680.262C854.163,680.302 854.585,680.343 855.012,680.386C857.093,680.596 859.335,680.848 861.685,681.122C862.509,681.218 863.347,681.317 864.196,681.418L867.469,681.809C872.411,682.4 877.609,683.017 882.64,683.506L882.907,683.532C884.257,683.662 885.595,683.782 886.912,683.891L887.732,683.956C888.004,683.978 888.275,683.999 888.546,684.019L889.353,684.078C889.89,684.116 890.422,684.151 890.949,684.184C891.476,684.217 891.997,684.247 892.514,684.274L893.284,684.313C893.54,684.325 893.793,684.336 894.045,684.347C895.064,684.39 896.162,684.428 897.331,684.463C898.197,684.489 899.1,684.513 900.035,684.535C901.972,684.581 904.05,684.618 906.223,684.648C912.277,684.732 919.095,684.761 925.784,684.759C926.692,684.759 927.598,684.758 928.5,684.756L931.188,684.751L933.835,684.743C938.809,684.725 943.484,684.694 947.442,684.662C954.606,684.605 959.421,684.543 959.421,684.543L959.6,684.56C944.712,699.224 929.73,715.634 912.371,721.997C840.979,748.165 847.384,731.955 820.864,744.448C817.781,745.9 824.955,750.39 828.234,751.319C833.191,752.722 842.523,752.716 849.604,753.868C858.895,755.38 872.685,757.488 883.981,760.39C906.128,766.081 966.447,765.734 991.009,771.387C1005.78,774.788 1021.38,781.917 1031.42,784.869C1038.83,787.045 1051.44,785.627 1052.63,794.151C1053.55,800.772 1037.45,804.562 1037.68,811.244C1038.37,831.296 1175.88,826.68 1183.15,835.566C1187.16,840.457 1163.21,842.373 1163,846.886C1162.4,859.756 1223,861.815 1242,859.113L1242,897.486C1242,897.486 1224.66,886.202 1152.36,875.404C1060.21,861.64 988.273,875.663 916.876,870.241C827.959,863.489 763.362,845.89 724.736,834.115C707.982,829.007 684.374,816.611 685.124,799.589C685.939,781.067 704.47,780.346 717.014,776.468C738.894,769.704 781.262,765.29 778.811,757.364C771.782,734.625 702.667,727.559 680.526,724.329C666.577,722.293 648.049,719.339 651.333,715.261C654.617,711.184 697.684,709.084 699.098,699.307C699.491,696.591 679.483,694.957 660.762,692.104C639.713,688.896 619.018,684.527 606.197,682.673C599.787,681.746 588.179,680.467 588.283,673.492C588.397,665.86 610.018,667.839 610.126,660.598C610.212,654.823 577.77,652.283 566.32,650.252C557.807,648.742 542.855,646.942 543.066,639.132C543.712,615.206 673.416,603.37 699.864,598.124C701.863,598.078 702.872,597.173 702.3,596.116C701.626,594.872 698.876,595.584 697.737,594.759C696.806,594.084 695.138,592.225 698.123,592.079C712.661,591.369 749.018,592.594 783.631,585.854Z" style="fill:url(#_Linear15);"/>
                </g>
                <g>
                    <g transform="matrix(1,0,0,1,-183.146,-476.605)">
                        <path d="M585.214,668.606C583.685,673.383 579.846,676.862 573.585,678.98C572.047,677.487 570.636,675.719 569.402,673.57C565.213,679.007 557.627,681.072 548.323,681.432L560.48,672.172C561.212,671.688 561.677,671.088 561.82,670.35C559.746,669.143 557.823,668.614 555.959,668.353C557.097,666.517 560.365,665.741 564.755,665.523L578.808,643.101C578.808,643.101 583.836,650.633 581.786,656.116C579.248,662.904 573.972,669.072 575.018,668.671C578.009,669.423 581.396,669.423 585.214,668.606Z" style="fill:url(#_Linear6);"/>
                    </g>
                    <g transform="matrix(-1.19292,0,0,1,847.772,-514.935)">
                        <path d="M585.214,668.606C583.685,673.383 579.846,676.862 573.585,678.98C572.047,677.487 570.636,675.719 569.402,673.57C565.213,679.007 557.627,681.072 548.323,681.432L560.48,672.172C561.212,671.688 561.677,671.088 561.82,670.35C559.746,669.143 557.823,668.614 555.959,668.353C557.097,666.517 560.365,665.741 564.755,665.523L578.808,643.101C578.808,643.101 583.836,650.633 581.786,656.116C579.248,662.904 573.972,669.072 575.018,668.671C578.009,669.423 581.396,669.423 585.214,668.606Z" style="fill:url(#_Linear6);"/>
                    </g>
                </g>
            </g>
        </g>
    </g>
    <defs>
        <linearGradient id="_Linear2" x1="0" y1="0" x2="1" y2="0" gradientUnits="userSpaceOnUse" gradientTransform="matrix(0,-85.2879,85.2879,0,720.556,479.625)"><stop offset="0" style="stop-color:black;stop-opacity:0.05"/><stop offset="1" style="stop-color:black;stop-opacity:0.09"/></linearGradient>
        <linearGradient id="_Linear3" x1="0" y1="0" x2="1" y2="0" gradientUnits="userSpaceOnUse" gradientTransform="matrix(9.18943e-15,-150.075,150.075,9.18943e-15,744.27,499.216)"><stop offset="0" style="stop-color:black;stop-opacity:0.1"/><stop offset="1" style="stop-color:black;stop-opacity:0.15"/></linearGradient>
        <linearGradient id="_Linear4" x1="0" y1="0" x2="1" y2="0" gradientUnits="userSpaceOnUse" gradientTransform="matrix(8.35924e-15,-136.517,136.517,8.35924e-15,734.636,506.809)"><stop offset="0" style="stop-color:black;stop-opacity:0.1"/><stop offset="1" style="stop-color:black;stop-opacity:0.15"/></linearGradient>
        <linearGradient id="_Linear5" x1="0" y1="0" x2="1" y2="0" gradientUnits="userSpaceOnUse" gradientTransform="matrix(7.69876e-15,-125.73,125.73,7.69876e-15,957.498,440.757)"><stop offset="0" style="stop-color:black;stop-opacity:0.15"/><stop offset="1" style="stop-color:black;stop-opacity:0.2"/></linearGradient>
        <linearGradient id="_Linear6" x1="0" y1="0" x2="1" y2="0" gradientUnits="userSpaceOnUse" gradientTransform="matrix(2.15667e-14,-352.21,352.21,2.15667e-14,776.455,584.543)"><stop offset="0" style="stop-color:black;stop-opacity:0.2"/><stop offset="1" style="stop-color:black;stop-opacity:0.25"/></linearGradient>
        <linearGradient id="_Linear7" x1="0" y1="0" x2="1" y2="0" gradientUnits="userSpaceOnUse" gradientTransform="matrix(2.30449e-14,-376.352,376.352,2.30449e-14,800.923,581.179)"><stop offset="0" style="stop-color:black;stop-opacity:0.25"/><stop offset="1" style="stop-color:black;stop-opacity:0.29"/></linearGradient>
        <linearGradient id="_Linear8" x1="0" y1="0" x2="1" y2="0" gradientUnits="userSpaceOnUse" gradientTransform="matrix(8.3496e-15,-136.359,33.0126,2.02144e-15,440.403,648.999)"><stop offset="0" style="stop-color:black;stop-opacity:0.3"/><stop offset="1" style="stop-color:black;stop-opacity:0.35"/></linearGradient>
        <linearGradient id="_Linear9" x1="0" y1="0" x2="1" y2="0" gradientUnits="userSpaceOnUse" gradientTransform="matrix(2.23985e-14,-365.795,365.795,2.23985e-14,234.712,688.735)"><stop offset="0" style="stop-color:black;stop-opacity:0.35"/><stop offset="1" style="stop-color:black;stop-opacity:0.4"/></linearGradient>
        <linearGradient id="_Linear10" x1="0" y1="0" x2="1" y2="0" gradientUnits="userSpaceOnUse" gradientTransform="matrix(1.4259e-14,-232.867,232.867,1.4259e-14,25.9916,814.429)"><stop offset="0" style="stop-color:black;stop-opacity:0.41"/><stop offset="1" style="stop-color:black;stop-opacity:0.45"/></linearGradient>
        <linearGradient id="_Linear11" x1="0" y1="0" x2="1" y2="0" gradientUnits="userSpaceOnUse" gradientTransform="matrix(2.05247e-14,-335.193,335.193,2.05247e-14,682.689,658.47)"><stop offset="0" style="stop-color:black;stop-opacity:0.35"/><stop offset="1" style="stop-color:black;stop-opacity:0.4"/></linearGradient>
        <linearGradient id="_Linear12" x1="0" y1="0" x2="1" y2="0" gradientUnits="userSpaceOnUse" gradientTransform="matrix(1.35244e-14,-220.871,220.871,1.35244e-14,959.5,687.613)"><stop offset="0" style="stop-color:black;stop-opacity:0.4"/><stop offset="1" style="stop-color:black;stop-opacity:0.45"/></linearGradient>
        <linearGradient id="_Linear13" x1="0" y1="0" x2="1" y2="0" gradientUnits="userSpaceOnUse" gradientTransform="matrix(1.9028e-14,-310.751,216.312,1.32453e-14,1197.48,858.886)"><stop offset="0" style="stop-color:black;stop-opacity:0.45"/><stop offset="1" style="stop-color:black;stop-opacity:0.51"/></linearGradient>
        <linearGradient id="_Linear14" x1="0" y1="0" x2="1" y2="0" gradientUnits="userSpaceOnUse" gradientTransform="matrix(1.99989e-14,-326.608,326.608,1.99989e-14,440.268,911.649)"><stop offset="0" style="stop-color:white;stop-opacity:0"/><stop offset="1" style="stop-color:rgb(166,166,166);stop-opacity:0.3"/></linearGradient>
        <linearGradient id="_Linear15" x1="0" y1="0" x2="1" y2="0" gradientUnits="userSpaceOnUse" gradientTransform="matrix(1.99989e-14,-326.608,326.608,1.99989e-14,440.268,911.649)"><stop offset="0" style="stop-color:white;stop-opacity:0"/><stop offset="1" style="stop-color:rgb(166,166,166);stop-opacity:0.3"/></linearGradient>
    </defs>
</svg>
