<?xml version="1.0" encoding="UTF-8" standalone="no"?>
<!DOCTYPE svg PUBLIC "-//W3C//DTD SVG 1.1//EN" "http://www.w3.org/Graphics/SVG/1.1/DTD/svg11.dtd">
<svg width="100%" height="100%" viewBox="0 0 330 755" version="1.1" xmlns="http://www.w3.org/2000/svg" xmlns:xlink="http://www.w3.org/1999/xlink" xml:space="preserve" xmlns:serif="http://www.serif.com/" style="fill-rule:evenodd;clip-rule:evenodd;stroke-linejoin:round;stroke-miterlimit:2;">
    <g transform="matrix(1,0,0,1,-590,-3880)">
        <g transform="matrix(4.16667,0,0,4.16667,0,0)">
            <path d="M196.186,1036.46L196.186,946.411C196.186,938.137 189.479,931.43 181.205,931.43C172.931,931.43 166.224,938.137 166.224,946.411L166.224,1036.46C151.904,1042.36 141.816,1056.44 141.816,1072.88C141.816,1094.64 159.451,1112.27 181.205,1112.27C202.959,1112.27 220.594,1094.64 220.594,1072.88C220.594,1056.44 210.506,1042.36 196.186,1036.46Z" style="fill:white;fill-rule:nonzero;"/>
            <path d="M181.205,1105.08C163.451,1105.08 149.008,1090.64 149.008,1072.88C149.008,1059.79 156.84,1048.1 168.962,1043.11L173.416,1041.28L173.416,946.411C173.416,942.115 176.91,938.621 181.205,938.621C185.5,938.621 188.995,942.115 188.995,946.411L188.995,1041.28L193.448,1043.11C205.57,1048.1 213.403,1059.79 213.403,1072.88C213.403,1090.64 198.958,1105.08 181.205,1105.08Z" style="fill:rgb(202,230,253);fill-rule:nonzero;"/>
            <path d="M193.448,1043.11L188.995,1041.28L188.995,1026.94L173.416,1026.94L173.416,1041.28L168.962,1043.11C156.84,1048.1 149.008,1059.79 149.008,1072.89C149.008,1090.64 163.451,1105.08 181.205,1105.08C198.958,1105.08 213.402,1090.64 213.402,1072.89C213.402,1059.79 205.57,1048.1 193.448,1043.11Z" style="fill:rgb(75,169,249);fill-rule:nonzero;"/>
            <path d="M181.205,1089.24C179.671,1089.24 178.416,1087.98 178.416,1086.45L178.416,1060.72C178.416,1059.19 179.671,1057.93 181.205,1057.93C182.739,1057.93 183.995,1059.19 183.995,1060.72L183.995,1086.45C183.995,1087.98 182.739,1089.24 181.205,1089.24Z" style="fill:white;fill-rule:nonzero;"/>
            <path d="M168.277,1082.41C167.412,1081.14 167.741,1079.4 169.009,1078.53L190.257,1064.03C191.524,1063.17 193.268,1063.5 194.133,1064.76C194.998,1066.03 194.669,1067.77 193.402,1068.64L172.154,1083.14C170.887,1084.01 169.142,1083.68 168.277,1082.41Z" style="fill:white;fill-rule:nonzero;"/>
            <path d="M194.133,1082.41C194.998,1081.14 194.669,1079.4 193.402,1078.53L172.154,1064.03C170.887,1063.17 169.142,1063.5 168.277,1064.76C167.412,1066.03 167.741,1067.77 169.009,1068.64L190.257,1083.14C191.524,1084.01 193.268,1083.68 194.133,1082.41Z" style="fill:white;fill-rule:nonzero;"/>
        </g>
    </g>
</svg>
