<?xml version="1.0" encoding="UTF-8" standalone="no"?>
<!DOCTYPE svg PUBLIC "-//W3C//DTD SVG 1.1//EN" "http://www.w3.org/Graphics/SVG/1.1/DTD/svg11.dtd">
<svg width="100%" height="100%" viewBox="0 0 1301 1259" version="1.1" xmlns="http://www.w3.org/2000/svg" xmlns:xlink="http://www.w3.org/1999/xlink" xml:space="preserve" xmlns:serif="http://www.serif.com/" style="fill-rule:evenodd;clip-rule:evenodd;stroke-linejoin:round;stroke-miterlimit:2;">
    <g transform="matrix(1,0,0,1,-1109,-1457)">
        <g transform="matrix(4.16667,0,0,4.16667,0,0)">
            <path d="M422.864,443.062C388.023,443.062 359.679,471.403 359.679,506.251C359.679,541.099 388.023,569.44 422.864,569.44C457.719,569.44 486.057,541.099 486.057,506.251C486.057,471.403 457.719,443.062 422.864,443.062ZM422.864,582.795C380.654,582.795 346.323,548.46 346.323,506.251C346.323,464.042 380.654,429.707 422.864,429.707C465.081,429.707 499.412,464.042 499.412,506.251C499.412,548.46 465.081,582.795 422.864,582.795Z" style="fill-rule:nonzero;"/>
            <path d="M363.272,439.549C365.202,441.767 364.989,445.121 362.786,447.055C360.552,449 357.194,448.764 355.28,446.561L315.7,401.347C313.77,399.121 313.998,395.767 316.193,393.853C318.404,391.919 321.777,392.121 323.707,394.347L363.272,439.549Z" style="fill-rule:nonzero;"/>
            <path d="M428.394,415.102C428.425,418.03 426.054,420.427 423.123,420.45C420.182,420.469 417.789,418.121 417.766,415.163L417.341,355.092C417.318,352.137 419.688,349.755 422.605,349.732C425.553,349.721 427.938,352.061 427.969,355.024L428.394,415.102Z" style="fill-rule:nonzero;"/>
            <path d="M331.988,491.646C334.928,491.889 337.078,494.46 336.857,497.374C336.614,500.303 334.069,502.479 331.122,502.251L271.242,497.374C268.309,497.127 266.113,494.556 266.379,491.646C266.607,488.713 269.16,486.544 272.115,486.75L331.988,491.646Z" style="fill-rule:nonzero;"/>
            <path d="M341.636,548.559C344.128,546.983 347.41,547.731 348.975,550.208C350.54,552.677 349.811,555.974 347.318,557.551L296.532,589.648C294.032,591.228 290.75,590.488 289.201,588.003C287.621,585.516 288.365,582.237 290.857,580.665L341.636,548.559Z" style="fill-rule:nonzero;"/>
            <path d="M387.005,588.151C388.054,585.39 391.115,584.011 393.858,585.044C396.593,586.082 397.991,589.135 396.973,591.908L375.8,648.13C374.744,650.881 371.69,652.268 368.97,651.226C366.182,650.189 364.807,647.131 365.84,644.373L387.005,588.151Z" style="fill-rule:nonzero;"/>
            <path d="M501.752,559.814C499.138,558.443 498.143,555.241 499.519,552.643C500.871,550.044 504.092,549.034 506.698,550.417L559.87,578.367C562.483,579.753 563.478,582.97 562.096,585.535C560.736,588.159 557.53,589.139 554.901,587.783L501.752,559.814Z" style="fill-rule:nonzero;"/>
            <path d="M513.922,494.981C511.005,495.323 508.361,493.233 508.027,490.335C507.677,487.418 509.759,484.759 512.692,484.421L572.359,477.443C575.292,477.109 577.935,479.194 578.254,482.096C578.612,485.037 576.522,487.662 573.59,488.022L513.922,494.981Z" style="fill-rule:nonzero;"/>
            <path d="M474.767,644.697C475.754,647.462 474.311,650.505 471.531,651.496C468.75,652.45 465.727,651.018 464.754,648.245L444.774,591.566C443.801,588.809 445.26,585.759 448.018,584.793C450.791,583.81 453.83,585.253 454.802,588.038L474.767,644.697Z" style="fill-rule:nonzero;"/>
            <path d="M484.598,441.026C482.774,443.351 479.462,443.765 477.13,441.964C474.813,440.153 474.41,436.822 476.21,434.508L513.208,387.14C515.016,384.827 518.359,384.402 520.668,386.217C522.979,388.018 523.388,391.368 521.573,393.697L484.598,441.026Z" style="fill-rule:nonzero;"/>
        </g>
    </g>
</svg>
