<?xml version="1.0" encoding="UTF-8" standalone="no"?>
<!DOCTYPE svg PUBLIC "-//W3C//DTD SVG 1.1//EN" "http://www.w3.org/Graphics/SVG/1.1/DTD/svg11.dtd">
<svg width="100%" height="100%" viewBox="0 0 1521 1033" version="1.1" xmlns="http://www.w3.org/2000/svg" xmlns:xlink="http://www.w3.org/1999/xlink" xml:space="preserve" xmlns:serif="http://www.serif.com/" style="fill-rule:evenodd;clip-rule:evenodd;stroke-linejoin:round;stroke-miterlimit:2;">
    <g transform="matrix(1,0,0,1,-8903,-6915)">
        <g transform="matrix(4.16667,0,0,4.16667,0,0)">
            <path d="M2443.12,1893.63C2425.52,1894.5 2355.64,1893.31 2355.5,1893.31C2324.52,1893.26 2277.49,1893.13 2274.99,1893.04L2274.84,1896.08L2274.77,1893.03C2274.77,1893.03 2242.65,1892.62 2216.71,1892.62C2204.24,1892.62 2193.16,1892.71 2187.68,1892.99L2185.76,1893.03C2166.19,1893.03 2150.25,1878.9 2150.21,1861.54C2150.2,1840.85 2161.53,1834.12 2182.45,1828.92L2187.58,1827.61L2187.37,1819.22C2187.21,1818.05 2187.03,1816.88 2187.03,1815.68C2187.03,1792.91 2205.55,1774.39 2228.33,1774.39C2235.19,1774.39 2241.92,1776.22 2248.36,1779.83L2258.49,1785.5L2258.3,1773.89C2257.82,1746.84 2279.29,1724.56 2307.15,1723.18L2309.86,1723.11C2337.25,1723.11 2359.73,1743.87 2361.05,1770.44C2361.1,1771.34 2361.03,1772.21 2360.91,1774.74L2360.36,1791.8L2372.35,1779.63C2380.2,1771.66 2390.65,1767.26 2401.76,1767.26C2415.61,1767.26 2427.83,1774.18 2435.32,1784.69C2427.25,1794.08 2416.64,1801.49 2403.98,1805.56C2400.82,1806.61 2397.65,1807.31 2394.45,1807.87C2408.25,1816.69 2425.05,1820.49 2441.96,1818.01L2440.89,1823.51L2447.61,1824.68C2463.69,1827.5 2475.44,1839.97 2476.18,1854.98C2477.05,1872.41 2463.08,1892.63 2443.12,1893.63ZM2457.96,1813.72C2491.57,1800.22 2509.54,1762.85 2498.23,1727.83C2487.45,1694.4 2453.76,1674.85 2420.13,1680.7C2433.28,1689.09 2443.69,1701.93 2448.86,1717.94C2455.03,1737.08 2452.42,1756.92 2443.34,1773.2C2433.32,1761.42 2418.41,1753.91 2401.76,1753.91C2391.63,1753.91 2381.92,1756.65 2373.48,1761.81C2367.94,1731.01 2339.96,1708.04 2306.48,1709.85C2274.92,1711.41 2249.89,1734.41 2245.59,1763.98C2239.97,1762.02 2234.2,1761.03 2228.33,1761.03C2198.19,1761.03 2173.67,1785.55 2173.67,1815.68C2173.67,1816.24 2173.68,1816.8 2173.74,1817.39C2158.49,1821.56 2136.84,1830.46 2136.86,1861.56C2136.9,1886.28 2158.84,1906.39 2185.76,1906.39L2188.35,1906.32C2205.15,1905.52 2274.58,1906.39 2274.6,1906.38L2274.61,1905.23C2274.73,1905.26 2274.85,1905.27 2274.98,1905.3L2275.05,1906.37L2275.01,1905.3C2284.24,1906.55 2305.63,1906.58 2355.36,1906.67C2355.36,1906.67 2392.71,1907.31 2419.83,1907.31C2430.1,1907.31 2438.92,1907.22 2443.79,1906.97C2469.49,1905.68 2490.85,1881.08 2489.53,1854.31C2488.6,1835.7 2475.98,1820.01 2457.96,1813.72Z" style="fill-rule:nonzero;"/>
            <path d="M2385.64,1723.25L2395.59,1716.97L2406.45,1721.58L2403.53,1710.18L2411.29,1701.28L2399.52,1700.52L2393.46,1690.42L2389.12,1701.37L2377.62,1704L2386.69,1711.52L2385.64,1723.25Z" style="fill-rule:nonzero;"/>
            <path d="M2349.2,1687.36L2357.54,1682.07L2366.62,1685.95L2364.19,1676.38L2370.69,1668.92L2360.83,1668.29L2355.74,1659.82L2352.1,1669.01L2342.46,1671.19L2350.08,1677.52L2349.2,1687.36Z" style="fill-rule:nonzero;"/>
        </g>
    </g>
</svg>
