<?xml version="1.0" encoding="UTF-8" standalone="no"?>
<!DOCTYPE svg PUBLIC "-//W3C//DTD SVG 1.1//EN" "http://www.w3.org/Graphics/SVG/1.1/DTD/svg11.dtd">
<svg width="100%" height="100%" viewBox="0 0 613 613" version="1.1" xmlns="http://www.w3.org/2000/svg" xmlns:xlink="http://www.w3.org/1999/xlink" xml:space="preserve" xmlns:serif="http://www.serif.com/" style="fill-rule:evenodd;clip-rule:evenodd;stroke-linejoin:round;stroke-miterlimit:2;">
    <g transform="matrix(1,0,0,1,-6815,-14168)">
        <g transform="matrix(4.16667,0,0,4.16667,0,0)">
            <path d="M1689.9,3473.84C1689.9,3510.69 1711.46,3540.56 1711.46,3540.56C1674.61,3540.56 1644.76,3510.69 1644.76,3473.84C1644.76,3436.96 1674.61,3407.11 1711.46,3407.11C1711.46,3407.11 1689.9,3436.96 1689.9,3473.84Z" style="fill-rule:nonzero;"/>
            <path d="M1709.07,3405C1671.12,3405 1640.24,3435.89 1640.24,3473.84C1640.24,3511.8 1671.12,3542.7 1709.07,3542.7C1747.06,3542.7 1777.94,3511.8 1777.94,3473.84C1777.94,3435.89 1747.06,3405 1709.07,3405ZM1709.07,3547.29C1668.6,3547.29 1635.64,3514.32 1635.64,3473.84C1635.64,3433.35 1668.6,3400.4 1709.07,3400.4C1749.58,3400.4 1782.54,3433.35 1782.54,3473.84C1782.54,3514.32 1749.58,3547.29 1709.07,3547.29Z" style="fill-rule:nonzero;"/>
        </g>
    </g>
</svg>
