<?xml version="1.0" encoding="UTF-8" standalone="no"?>
<!DOCTYPE svg PUBLIC "-//W3C//DTD SVG 1.1//EN" "http://www.w3.org/Graphics/SVG/1.1/DTD/svg11.dtd">
<svg width="100%" height="100%" viewBox="0 0 613 613" version="1.1" xmlns="http://www.w3.org/2000/svg" xmlns:xlink="http://www.w3.org/1999/xlink" xml:space="preserve" xmlns:serif="http://www.serif.com/" style="fill-rule:evenodd;clip-rule:evenodd;stroke-linejoin:round;stroke-miterlimit:2;">
    <g transform="matrix(1,0,0,1,-4999,-14168)">
        <g transform="matrix(4.16667,0,0,4.16667,0,0)">
            <path d="M1273.3,3405C1235.35,3405 1204.46,3435.89 1204.46,3473.84C1204.46,3511.8 1235.35,3542.7 1273.3,3542.7C1311.27,3542.7 1342.16,3511.8 1342.16,3473.84C1342.16,3435.89 1311.27,3405 1273.3,3405ZM1273.3,3547.29C1232.82,3547.29 1199.87,3514.32 1199.87,3473.84C1199.87,3433.35 1232.82,3400.4 1273.3,3400.4C1313.81,3400.4 1346.74,3433.35 1346.74,3473.84C1346.74,3514.32 1313.81,3547.29 1273.3,3547.29Z" style="fill-rule:nonzero;"/>
            <path d="M1339.37,3473.84C1339.37,3510.33 1309.8,3539.93 1273.3,3539.93C1236.82,3539.93 1207.22,3510.33 1207.22,3473.84C1207.22,3437.36 1236.82,3407.76 1273.3,3407.76C1309.8,3407.76 1339.37,3437.36 1339.37,3473.84Z" style="fill-rule:nonzero;"/>
        </g>
    </g>
</svg>
