<?xml version="1.0" encoding="UTF-8" standalone="no"?>
<!DOCTYPE svg PUBLIC "-//W3C//DTD SVG 1.1//EN" "http://www.w3.org/Graphics/SVG/1.1/DTD/svg11.dtd">
<svg width="100%" height="100%" viewBox="0 0 613 613" version="1.1" xmlns="http://www.w3.org/2000/svg" xmlns:xlink="http://www.w3.org/1999/xlink" xml:space="preserve" xmlns:serif="http://www.serif.com/" style="fill-rule:evenodd;clip-rule:evenodd;stroke-linejoin:round;stroke-miterlimit:2;">
    <g transform="matrix(1,0,0,1,-5967,-14168)">
        <g transform="matrix(4.16667,0,0,4.16667,0,0)">
            <path d="M1503.29,3410.09C1469.19,3411.31 1441.82,3439.44 1441.82,3473.84C1441.82,3508.25 1469.19,3536.38 1503.29,3537.59L1503.29,3410.09ZM1507.89,3542.21L1505.59,3542.21C1467.9,3542.21 1437.23,3511.55 1437.23,3473.84C1437.23,3436.14 1467.9,3405.47 1505.59,3405.47L1507.89,3405.47L1507.89,3542.21Z" style="fill-rule:nonzero;"/>
            <path d="M1505.59,3405C1467.64,3405 1436.75,3435.89 1436.75,3473.84C1436.75,3511.8 1467.64,3542.7 1505.59,3542.7C1543.55,3542.7 1574.44,3511.8 1574.44,3473.84C1574.44,3435.89 1543.55,3405 1505.59,3405ZM1505.59,3547.29C1465.1,3547.29 1432.16,3514.32 1432.16,3473.84C1432.16,3433.35 1465.1,3400.4 1505.59,3400.4C1546.08,3400.4 1579.03,3433.35 1579.03,3473.84C1579.03,3514.32 1546.08,3547.29 1505.59,3547.29Z" style="fill-rule:nonzero;"/>
            <path d="M1505.59,3407.76L1505.59,3539.93C1469.11,3539.93 1439.53,3510.33 1439.53,3473.84C1439.53,3437.36 1469.11,3407.76 1505.59,3407.76Z" style="fill-rule:nonzero;"/>
        </g>
    </g>
</svg>
