<?xml version="1.0" encoding="UTF-8" standalone="no"?>
<!DOCTYPE svg PUBLIC "-//W3C//DTD SVG 1.1//EN" "http://www.w3.org/Graphics/SVG/1.1/DTD/svg11.dtd">
<svg width="100%" height="100%" viewBox="0 0 560 554" version="1.1" xmlns="http://www.w3.org/2000/svg" xmlns:xlink="http://www.w3.org/1999/xlink" xml:space="preserve" xmlns:serif="http://www.serif.com/" style="fill-rule:evenodd;clip-rule:evenodd;stroke-linejoin:round;stroke-miterlimit:2;">
    <g transform="matrix(1,0,0,1,-10805,-14182)">
        <g transform="matrix(4.16667,0,0,4.16667,0,0)">
            <path d="M2666.26,3422.9L2727.41,3422.9L2727.41,3435.21L2681.07,3435.21L2681.07,3472.95L2723.87,3472.95L2723.87,3485.07L2681.07,3485.07L2681.07,3536.45L2666.26,3536.45L2666.26,3422.9Z" style="fill-rule:nonzero;"/>
            <path d="M2617.28,3412.98C2609.17,3412.98 2602.58,3419.56 2602.58,3427.66C2602.58,3435.77 2609.17,3442.38 2617.28,3442.38C2625.4,3442.38 2631.97,3435.77 2631.97,3427.66C2631.97,3419.56 2625.4,3412.98 2617.28,3412.98ZM2617.28,3451.55C2604.12,3451.55 2593.4,3440.84 2593.4,3427.66C2593.4,3414.5 2604.12,3403.79 2617.28,3403.79C2630.45,3403.79 2641.16,3414.5 2641.16,3427.66C2641.16,3440.84 2630.45,3451.55 2617.28,3451.55Z" style="fill-rule:nonzero;"/>
        </g>
    </g>
</svg>
