<?xml version="1.0" encoding="UTF-8" standalone="no"?>
<!DOCTYPE svg PUBLIC "-//W3C//DTD SVG 1.1//EN" "http://www.w3.org/Graphics/SVG/1.1/DTD/svg11.dtd">
<svg width="100%" height="100%" viewBox="0 0 1466 806" version="1.1" xmlns="http://www.w3.org/2000/svg" xmlns:xlink="http://www.w3.org/1999/xlink" xml:space="preserve" xmlns:serif="http://www.serif.com/" style="fill-rule:evenodd;clip-rule:evenodd;stroke-linejoin:round;stroke-miterlimit:2;">
    <g transform="matrix(1,0,0,1,-4666,-12051)">
        <g transform="matrix(4.16667,0,0,4.16667,0,0)">
            <path d="M1225.81,2994.49C1228.05,2997.07 1231.96,2997.36 1234.54,2995.11C1237.13,2992.86 1237.38,2988.95 1235.15,2986.37L1189.32,2933.6C1187.05,2931 1183.14,2930.76 1180.55,2932.99C1177.98,2935.21 1177.71,2939.12 1179.96,2941.72L1225.81,2994.49Z" style="fill-rule:nonzero;"/>
            <path d="M1295.69,2974.69C1299.1,2974.72 1301.89,2971.97 1301.9,2968.53L1302.2,2898.64C1302.21,2895.18 1299.45,2892.43 1296.02,2892.41C1292.62,2892.39 1289.84,2895.13 1289.82,2898.56L1289.54,2968.47C1289.51,2971.91 1292.26,2974.67 1295.69,2974.69Z" style="fill-rule:nonzero;"/>
            <path d="M1125,3030.12L1193.41,3044.46C1196.76,3045.14 1200.03,3043 1200.73,3039.66C1201.41,3036.36 1199.3,3033.05 1195.95,3032.33L1127.54,3017.99C1124.17,3017.31 1120.91,3019.45 1120.2,3022.79C1119.47,3026.14 1121.62,3029.4 1125,3030.12Z" style="fill-rule:nonzero;"/>
            <path d="M1388.16,3039.63C1388.85,3042.94 1392.13,3045.08 1395.47,3044.38L1463.93,3030.16C1467.27,3029.46 1469.44,3026.2 1468.7,3022.85C1468.04,3019.52 1464.76,3017.37 1461.4,3018.07L1392.97,3032.29C1389.62,3032.97 1387.44,3036.25 1388.16,3039.63Z" style="fill-rule:nonzero;"/>
            <path d="M1363.78,2992.77L1414.05,2944.19C1416.51,2941.84 1416.58,2937.9 1414.2,2935.44C1411.82,2932.98 1407.92,2932.93 1405.46,2935.3L1355.17,2983.91C1352.72,2986.28 1352.66,2990.19 1355.03,2992.63C1357.41,2995.11 1361.3,2995.15 1363.78,2992.77Z" style="fill-rule:nonzero;"/>
            <path d="M1295.86,2999.91C1335.76,2999.91 1368.44,3031.39 1370.24,3072.29L1221.29,3072.29C1222.47,3032.18 1255.47,2999.91 1295.86,2999.91ZM1383.72,3072.29C1382.51,3024.83 1343.61,2986.55 1295.86,2986.55C1248.1,2986.55 1209.21,3024.83 1208.01,3072.29L1120.06,3072.29L1120.06,3085.65L1471.66,3085.65L1471.66,3072.29L1383.72,3072.29Z" style="fill-rule:nonzero;"/>
        </g>
    </g>
</svg>
