<?xml version="1.0" encoding="UTF-8" standalone="no"?>
<!DOCTYPE svg PUBLIC "-//W3C//DTD SVG 1.1//EN" "http://www.w3.org/Graphics/SVG/1.1/DTD/svg11.dtd">
<svg width="100%" height="100%" viewBox="0 0 1494 1179" version="1.1" xmlns="http://www.w3.org/2000/svg" xmlns:xlink="http://www.w3.org/1999/xlink" xml:space="preserve" xmlns:serif="http://www.serif.com/" style="fill-rule:evenodd;clip-rule:evenodd;stroke-linejoin:round;stroke-miterlimit:2;">
    <g transform="matrix(1,0,0,1,-11266,-1497)">
        <g transform="matrix(4.16667,0,0,4.16667,0,0)">
            <path d="M3028.25,464.445C3028.39,462.815 3028.47,461.201 3028.47,459.59C3028.47,429.141 3003.68,404.355 2973.23,404.355C2962.8,404.355 2952.84,407.231 2944.19,412.632C2938.82,381.192 2910.01,357.66 2876.28,359.518C2844.18,361.109 2818.75,384.603 2814.58,414.737C2808.77,412.674 2802.8,411.625 2796.72,411.625C2766.26,411.625 2741.49,436.404 2741.49,466.864C2741.49,467.521 2741.5,468.171 2741.55,468.866C2726.12,473.067 2704,481.994 2704.02,513.533C2704.05,536.974 2723.53,557.095 2750.08,558.356L2758.21,545.821C2757.24,545.844 2756.14,545.862 2755.39,545.908L2753.41,545.957C2733.28,545.957 2716.89,531.405 2716.89,513.521C2716.86,492.216 2728.48,485.306 2749.97,479.977L2754.8,478.134L2754.94,473.257L2754.7,470.64C2754.53,469.398 2754.33,468.144 2754.33,466.864C2754.33,443.488 2773.36,424.484 2796.72,424.484C2803.77,424.484 2810.69,426.353 2817.3,430.056L2827.05,435.522L2826.85,424.335C2826.38,396.61 2848.38,373.777 2876.93,372.36L2879.71,372.281C2907.77,372.281 2930.81,393.56 2932.16,420.75C2932.22,421.726 2932.16,422.684 2932.02,425.179L2931.44,441.699L2943.05,429.908C2951.08,421.726 2961.81,417.213 2973.23,417.213C2996.6,417.213 3015.63,436.229 3015.63,459.59C3015.63,462.492 3015.31,465.311 3014.76,468.057L3013.46,474.518L3019.93,475.65C3036.5,478.548 3048.58,491.376 3049.34,506.832C3050.12,522.353 3039.41,539.982 3023.21,545.095L3027.49,557.061C3047.98,550.25 3063.32,529.088 3062.18,506.206C3061.22,486.7 3047.59,470.264 3028.25,464.445Z" style="fill-rule:nonzero;"/>
            <path d="M2818.93,608.356L2818.95,608.356C2797.61,579.795 2799.04,530.584 2798.03,546.349C2795.36,587.479 2779.14,608.356 2779.14,608.356C2777.79,610.932 2777.03,613.762 2777.03,616.781C2777.03,627.675 2786.87,636.507 2799.04,636.507C2811.21,636.507 2821.06,627.675 2821.06,616.781C2821.06,613.762 2820.29,610.932 2818.93,608.356Z" style="fill-rule:nonzero;"/>
            <path d="M2886.66,569.607L2886.68,569.607C2868.05,544.655 2869.28,501.697 2868.4,515.448C2866.06,551.374 2851.93,569.607 2851.93,569.607C2850.75,571.841 2850.06,574.317 2850.06,576.954C2850.06,586.461 2858.68,594.176 2869.28,594.176C2879.91,594.176 2888.52,586.461 2888.52,576.954C2888.52,574.317 2887.82,571.841 2886.66,569.607Z" style="fill-rule:nonzero;"/>
            <path d="M2939.12,619.623C2922.08,596.797 2923.23,557.471 2922.39,570.067C2920.28,602.928 2907.31,619.623 2907.31,619.623C2906.24,621.673 2905.63,623.953 2905.63,626.357C2905.63,635.056 2913.48,642.114 2923.23,642.114C2932.92,642.114 2940.82,635.056 2940.82,626.357C2940.82,623.953 2940.19,621.673 2939.12,619.623Z" style="fill-rule:nonzero;"/>
            <path d="M2960.27,552.582C2949.55,538.216 2950.27,513.476 2949.76,521.396C2948.4,542.083 2940.27,552.582 2940.27,552.582C2939.56,553.873 2939.18,555.302 2939.18,556.813C2939.18,562.303 2944.15,566.743 2950.27,566.743C2956.36,566.743 2961.35,562.303 2961.35,556.813C2961.35,555.302 2960.96,553.873 2960.27,552.582Z" style="fill-rule:nonzero;"/>
        </g>
    </g>
</svg>
