<?xml version="1.0" encoding="UTF-8" standalone="no"?>
<!DOCTYPE svg PUBLIC "-//W3C//DTD SVG 1.1//EN" "http://www.w3.org/Graphics/SVG/1.1/DTD/svg11.dtd">
<svg width="100%" height="100%" viewBox="0 0 1493 1558" version="1.1" xmlns="http://www.w3.org/2000/svg" xmlns:xlink="http://www.w3.org/1999/xlink" xml:space="preserve" xmlns:serif="http://www.serif.com/" style="fill-rule:evenodd;clip-rule:evenodd;stroke-linejoin:round;stroke-miterlimit:2;">
    <g transform="matrix(1,0,0,1,-8917,-9346)">
        <g transform="matrix(4.16667,0,0,4.16667,0,0)">
            <path d="M2464.34,2348.28C2464.52,2346.67 2464.59,2345.06 2464.59,2343.43C2464.59,2313 2439.79,2288.2 2409.33,2288.2C2398.92,2288.2 2388.95,2291.1 2380.29,2296.48C2374.93,2265.04 2346.13,2241.51 2312.4,2243.36C2280.29,2244.96 2254.85,2268.45 2250.69,2298.59C2244.91,2296.53 2238.9,2295.48 2232.81,2295.48C2202.37,2295.48 2177.57,2320.26 2177.57,2350.69C2177.57,2351.36 2177.61,2352.02 2177.66,2352.71C2162.25,2356.92 2140.09,2365.83 2140.12,2397.4C2140.16,2420.83 2159.63,2440.95 2186.18,2442.19L2194.31,2429.67C2193.35,2429.67 2192.25,2429.72 2191.49,2429.75L2189.53,2429.81C2169.4,2429.81 2152.98,2415.25 2152.98,2397.37C2152.96,2376.08 2164.59,2369.15 2186.06,2363.82L2190.9,2361.98L2191.03,2357.09L2190.79,2354.49C2190.62,2353.25 2190.45,2351.98 2190.45,2350.69C2190.45,2327.34 2209.47,2308.33 2232.81,2308.33C2239.88,2308.33 2246.8,2310.2 2253.39,2313.91L2263.17,2319.38L2262.95,2308.2C2262.48,2280.45 2284.48,2257.63 2313.03,2256.22L2315.82,2256.14C2343.88,2256.14 2366.92,2277.41 2368.26,2304.59C2368.32,2305.58 2368.26,2306.54 2368.13,2309.05L2367.56,2325.56L2379.14,2313.74C2387.19,2305.58 2397.92,2301.05 2409.33,2301.05C2432.69,2301.05 2451.73,2320.08 2451.73,2343.43C2451.73,2346.35 2451.41,2349.17 2450.87,2351.91L2449.56,2358.37L2456.05,2359.51C2472.6,2362.39 2484.7,2375.22 2485.46,2390.69C2486.22,2406.21 2475.55,2423.84 2459.31,2428.96L2463.6,2440.9C2484.07,2434.09 2499.44,2412.94 2498.28,2390.06C2497.31,2370.55 2483.68,2354.11 2464.34,2348.28Z" style="fill-rule:nonzero;"/>
            <path d="M2228.52,2575.57C2228.52,2577.1 2226.75,2578.38 2224.56,2578.38C2222.37,2578.38 2220.6,2577.1 2220.6,2575.57L2220.6,2421.32C2220.6,2419.77 2222.37,2418.52 2224.56,2418.52C2226.75,2418.52 2228.52,2419.77 2228.52,2421.32L2228.52,2575.57Z" style="fill-rule:nonzero;"/>
            <path d="M2264.73,2599.25C2264.73,2600.82 2262.95,2602.07 2260.78,2602.07C2258.58,2602.07 2256.81,2600.82 2256.81,2599.25L2256.81,2445.02C2256.81,2443.45 2258.58,2442.19 2260.78,2442.19C2262.95,2442.19 2264.73,2443.45 2264.73,2445.02L2264.73,2599.25Z" style="fill-rule:nonzero;"/>
            <path d="M2319.22,2565.57C2319.22,2567.12 2317.45,2568.38 2315.29,2568.38C2313.1,2568.38 2311.33,2567.12 2311.33,2565.57L2311.33,2411.33C2311.33,2409.78 2313.1,2408.54 2315.29,2408.54C2317.45,2408.54 2319.22,2409.78 2319.22,2411.33L2319.22,2565.57Z" style="fill-rule:nonzero;"/>
            <path d="M2362.61,2613.99C2362.61,2615.53 2360.83,2616.8 2358.66,2616.8C2356.46,2616.8 2354.69,2615.53 2354.69,2613.99L2354.69,2459.74C2354.69,2458.19 2356.46,2456.95 2358.66,2456.95C2360.83,2456.95 2362.61,2458.19 2362.61,2459.74L2362.61,2613.99Z" style="fill-rule:nonzero;"/>
            <path d="M2403.66,2565.57C2403.66,2567.12 2401.87,2568.38 2399.7,2568.38C2397.5,2568.38 2395.73,2567.12 2395.73,2565.57L2395.73,2411.33C2395.73,2409.78 2397.5,2408.54 2399.7,2408.54C2401.87,2408.54 2403.66,2409.78 2403.66,2411.33L2403.66,2565.57Z" style="fill-rule:nonzero;"/>
        </g>
    </g>
</svg>
