<?xml version="1.0" encoding="UTF-8" standalone="no"?>
<!DOCTYPE svg PUBLIC "-//W3C//DTD SVG 1.1//EN" "http://www.w3.org/Graphics/SVG/1.1/DTD/svg11.dtd">
<svg width="100%" height="100%" viewBox="0 0 1753 1765" version="1.1" xmlns="http://www.w3.org/2000/svg" xmlns:xlink="http://www.w3.org/1999/xlink" xml:space="preserve" xmlns:serif="http://www.serif.com/" style="fill-rule:evenodd;clip-rule:evenodd;stroke-linejoin:round;stroke-miterlimit:2;">
    <g transform="matrix(1,0,0,1,-6135,-6549)">
        <g transform="matrix(4.16667,0,0,4.16667,0,0)">
            <path d="M1744.16,1636.37C1745.43,1637.84 1747.67,1638 1749.15,1636.71C1750.61,1635.42 1750.75,1633.18 1749.47,1631.7L1723.08,1601.54C1721.79,1600.05 1719.56,1599.92 1718.08,1601.21C1716.62,1602.49 1716.46,1604.73 1717.75,1606.21L1744.16,1636.37Z" style="fill-rule:nonzero;"/>
            <path d="M1789.42,1618.95C1791.36,1618.94 1792.94,1617.34 1792.93,1615.38L1792.64,1575.31C1792.63,1573.32 1791.03,1571.77 1789.07,1571.78C1787.11,1571.8 1785.54,1573.38 1785.54,1575.35L1785.83,1615.43C1785.85,1617.4 1787.44,1618.96 1789.42,1618.95Z" style="fill-rule:nonzero;"/>
            <path d="M1880.65,1724.31L1845.18,1705.66C1843.43,1704.74 1841.28,1705.42 1840.37,1707.14C1839.45,1708.88 1840.12,1711.01 1841.87,1711.93L1877.32,1730.6C1879.08,1731.5 1881.21,1730.84 1882.13,1729.09C1883.03,1727.38 1882.38,1725.23 1880.65,1724.31Z" style="fill-rule:nonzero;"/>
            <path d="M1888.96,1656.98L1849.18,1661.63C1847.22,1661.86 1845.82,1663.63 1846.05,1665.58C1846.28,1667.51 1848.04,1668.89 1849.98,1668.68L1889.79,1664.03C1891.74,1663.8 1893.15,1662.04 1892.89,1660.08C1892.68,1658.14 1890.92,1656.75 1888.96,1656.98Z" style="fill-rule:nonzero;"/>
            <path d="M1806.01,1728.6C1804.17,1729.24 1803.2,1731.27 1803.87,1733.11L1817.18,1770.92C1817.83,1772.77 1819.85,1773.73 1821.71,1773.08C1823.54,1772.43 1824.53,1770.41 1823.86,1768.56L1810.54,1730.75C1809.89,1728.9 1807.87,1727.93 1806.01,1728.6Z" style="fill-rule:nonzero;"/>
            <path d="M1830.43,1632.68L1855.1,1601.1C1856.29,1599.56 1856.03,1597.32 1854.48,1596.12C1852.93,1594.91 1850.71,1595.18 1849.5,1596.73L1824.84,1628.33C1823.62,1629.87 1823.9,1632.1 1825.43,1633.31C1826.99,1634.52 1829.2,1634.22 1830.43,1632.68Z" style="fill-rule:nonzero;"/>
            <path d="M1747.09,1676.19C1747.09,1652.95 1765.99,1634.03 1789.24,1634.03C1812.48,1634.03 1831.4,1652.95 1831.4,1676.19C1831.4,1699.44 1812.48,1718.35 1789.24,1718.35C1786.37,1718.35 1783.58,1718.05 1780.88,1717.51C1774.38,1711 1766.26,1706.15 1757.19,1703.52C1750.9,1696.15 1747.09,1686.62 1747.09,1676.19ZM1796.83,1761.37C1796.99,1759.75 1797.06,1758.14 1797.06,1756.52C1797.06,1745.75 1793.91,1735.72 1788.55,1727.22C1788.78,1727.22 1789.01,1727.25 1789.24,1727.25C1817.39,1727.25 1840.3,1704.35 1840.3,1676.19C1840.3,1648.04 1817.39,1625.13 1789.24,1625.13C1761.08,1625.13 1738.18,1648.04 1738.18,1676.19C1738.18,1685.39 1740.66,1693.99 1744.92,1701.45C1743.89,1701.39 1742.86,1701.29 1741.82,1701.29C1731.39,1701.29 1721.43,1704.17 1712.78,1709.56C1710.08,1693.75 1701.44,1679.95 1689.24,1670.37L1728.02,1673.53C1730,1673.68 1731.7,1672.23 1731.85,1670.27C1732,1668.33 1730.57,1666.61 1728.6,1666.46L1688.65,1663.18C1686.71,1663.04 1684.99,1664.49 1684.84,1666.46C1684.81,1666.73 1684.88,1666.98 1684.93,1667.24C1673.58,1659.73 1659.71,1655.63 1644.88,1656.45C1612.77,1658.04 1587.34,1681.54 1583.17,1711.67C1577.37,1709.61 1571.38,1708.57 1565.31,1708.57C1534.86,1708.57 1510.06,1733.34 1510.06,1763.79C1510.06,1764.46 1510.09,1765.11 1510.15,1765.81C1494.71,1770.01 1472.58,1778.93 1472.62,1810.48C1472.64,1833.92 1492.13,1854.04 1518.67,1855.29L1526.79,1842.76C1525.83,1842.77 1524.72,1842.81 1523.98,1842.84L1522,1842.89C1501.87,1842.89 1485.49,1828.33 1485.46,1810.46C1485.43,1789.15 1497.07,1782.24 1518.54,1776.91L1523.38,1775.07L1523.52,1770.19L1523.28,1767.58C1523.11,1766.33 1522.91,1765.07 1522.91,1763.79C1522.91,1740.43 1541.94,1721.42 1565.31,1721.42C1572.36,1721.42 1579.28,1723.3 1585.88,1727L1595.65,1732.45L1595.45,1721.27C1594.96,1693.55 1616.97,1670.71 1645.5,1669.28L1648.28,1669.23C1676.36,1669.23 1699.39,1690.48 1700.75,1717.69C1700.81,1718.65 1700.75,1719.63 1700.61,1722.1L1700.03,1738.64L1711.63,1726.85C1719.68,1718.65 1730.39,1714.15 1741.82,1714.15C1749.01,1714.15 1755.78,1715.96 1761.72,1719.13C1762.86,1719.87 1764.01,1720.58 1765.21,1721.22C1776.64,1728.82 1784.21,1741.8 1784.21,1756.52C1784.21,1759.44 1783.9,1762.25 1783.36,1764.99L1782.03,1771.45L1788.54,1772.6C1805.08,1775.49 1817.16,1788.32 1817.94,1803.78C1818.7,1819.29 1808.02,1836.92 1791.79,1842.04L1796.07,1854C1816.54,1847.2 1831.9,1826.04 1830.76,1803.15C1829.81,1783.64 1816.18,1767.2 1796.83,1761.37Z" style="fill-rule:nonzero;"/>
            <path d="M1540.07,1861.22L1537.45,1863.87L1540.1,1866.46L1542.71,1863.87L1540.07,1861.22Z" style="fill-rule:nonzero;"/>
            <rect x="1545.1" y="1846.41" width="3.7" height="3.7" style="fill-rule:nonzero;"/>
            <path d="M1561.54,1861.43L1558.77,1858.58L1561.54,1857.35L1561.54,1861.43ZM1561.54,1870.33L1558.77,1869.19L1561.54,1866.17L1561.54,1870.33ZM1557.27,1867.81L1556.04,1864.72L1560.11,1864.72L1557.27,1867.81ZM1557.07,1860.01L1560.11,1862.84L1556.04,1862.84L1557.07,1860.01ZM1563.62,1866.17L1566.54,1868.99L1563.62,1870.42L1563.62,1866.17ZM1563.62,1857.35L1566.54,1858.58L1563.62,1861.43L1563.62,1857.35ZM1567.87,1860.01L1568.92,1862.84L1564.83,1862.84L1567.87,1860.01ZM1567.71,1867.81L1564.83,1864.72L1569.21,1864.72L1567.71,1867.81ZM1567.6,1875.97L1568.36,1871.11L1573.36,1876.12L1573.46,1882.29L1575.27,1876.83L1581.06,1874.68L1574.89,1874.68L1569.86,1869.86L1574.71,1868.45L1571.87,1864.72L1578.96,1864.72L1583.33,1869.39L1580.94,1863.71L1583.33,1858.3L1578.96,1862.84L1571.87,1862.84L1574.42,1858.87L1569.86,1858.01L1574.89,1852.92L1581.06,1852.92L1575.41,1850.87L1573.27,1845.21L1573.27,1851.47L1568.36,1856.6L1567.6,1851.74L1563.51,1854.51L1563.51,1847.6L1567.98,1842.94L1562.65,1845.59L1557.07,1843.15L1561.54,1847.6L1561.54,1854.51L1557.37,1852.01L1556.69,1856.6L1551.66,1851.47L1551.66,1845.21L1549.72,1850.87L1543.88,1853.1L1550.16,1853.1L1555.17,1858.01L1550.02,1859.13L1553.18,1862.84L1546.08,1862.84L1541.62,1858.3L1543.78,1863.87L1541.62,1869.39L1546.08,1864.72L1553.18,1864.72L1550.02,1868.86L1555.17,1869.68L1550.16,1874.68L1543.88,1874.68L1549.72,1876.7L1551.58,1882.29L1551.66,1876.12L1556.51,1871.29L1557.37,1876.27L1561.54,1873.17L1561.54,1880.3L1557.07,1884.65L1562.51,1882.26L1567.87,1884.65L1563.51,1880.3L1563.51,1873.17L1567.6,1875.97Z" style="fill-rule:nonzero;"/>
            <path d="M1587.12,1863.74L1584.5,1861.14L1581.85,1863.74L1584.5,1866.36L1587.12,1863.74Z" style="fill-rule:nonzero;"/>
            <rect x="1545.29" y="1877.34" width="3.71" height="3.69" style="fill-rule:nonzero;"/>
            <path d="M1559.79,1885.95L1562.43,1888.56L1565.08,1885.95L1562.43,1883.32L1559.79,1885.95Z" style="fill-rule:nonzero;"/>
            <path d="M1562.33,1838.71L1559.7,1841.33L1562.33,1843.95L1564.96,1841.33L1562.33,1838.71Z" style="fill-rule:nonzero;"/>
            <rect x="1575.88" y="1877.34" width="3.74" height="3.69" style="fill-rule:nonzero;"/>
            <rect x="1576.17" y="1846.41" width="3.71" height="3.7" style="fill-rule:nonzero;"/>
            <rect x="1694.35" y="1816.36" width="4.77" height="4.83" style="fill-rule:nonzero;"/>
            <path d="M1712.08,1845.93L1715.65,1841.99L1715.65,1847.4L1712.08,1845.93ZM1710.11,1844.1L1708.49,1840.12L1713.8,1840.12L1710.11,1844.1ZM1709.85,1834.02L1713.8,1837.71L1708.49,1837.71L1709.85,1834.02ZM1715.65,1830.57L1715.65,1835.84L1712.08,1832.15L1715.65,1830.57ZM1718.34,1841.99L1722.12,1845.69L1718.34,1847.52L1718.34,1841.99ZM1718.34,1830.57L1722.12,1832.15L1718.34,1835.84L1718.34,1830.57ZM1723.86,1834.02L1725.22,1837.71L1719.92,1837.71L1723.86,1834.02ZM1723.63,1844.1L1719.92,1840.12L1725.57,1840.12L1723.63,1844.1ZM1709.85,1865.98L1716.91,1862.87L1723.86,1865.98L1718.2,1860.32L1718.2,1851.09L1723.52,1854.71L1724.49,1848.42L1730.98,1854.89L1731.12,1862.9L1733.46,1855.83L1740.96,1853.03L1732.96,1853.03L1726.45,1846.79L1732.71,1844.94L1729.04,1840.12L1738.25,1840.12L1743.9,1846.19L1740.81,1838.79L1743.9,1831.83L1738.25,1837.71L1729.04,1837.71L1732.35,1832.53L1726.45,1831.43L1732.96,1824.82L1740.96,1824.82L1733.63,1822.15L1730.85,1814.82L1730.85,1822.94L1724.49,1829.58L1723.52,1823.27L1718.2,1826.89L1718.2,1817.92L1724.01,1811.87L1717.09,1815.33L1709.85,1812.15L1715.65,1817.92L1715.65,1826.89L1710.26,1823.63L1709.36,1829.58L1702.84,1822.94L1702.84,1814.82L1700.31,1822.15L1692.75,1825.06L1700.88,1825.06L1707.39,1831.43L1700.72,1832.89L1704.82,1837.71L1695.61,1837.71L1689.82,1831.83L1692.6,1839.02L1689.82,1846.19L1695.61,1840.12L1704.82,1840.12L1700.72,1845.49L1707.39,1846.54L1700.88,1853.03L1692.75,1853.03L1700.31,1855.64L1702.75,1862.9L1702.84,1854.89L1709.12,1848.62L1710.26,1855.11L1715.65,1851.09L1715.65,1860.32L1709.85,1865.98Z" style="fill-rule:nonzero;"/>
            <path d="M1716.65,1806.4L1713.27,1809.79L1716.65,1813.2L1720.09,1809.79L1716.65,1806.4Z" style="fill-rule:nonzero;"/>
            <path d="M1691.22,1839.02L1687.8,1835.59L1684.43,1839.02L1687.85,1842.37L1691.22,1839.02Z" style="fill-rule:nonzero;"/>
            <rect x="1694.56" y="1856.49" width="4.83" height="4.77" style="fill-rule:nonzero;"/>
            <rect x="1734.61" y="1816.36" width="4.82" height="4.83" style="fill-rule:nonzero;"/>
            <path d="M1720.23,1867.66L1716.81,1864.24L1713.39,1867.66L1716.81,1871.03L1720.23,1867.66Z" style="fill-rule:nonzero;"/>
            <rect x="1734.26" y="1856.49" width="4.82" height="4.77" style="fill-rule:nonzero;"/>
            <path d="M1745.4,1835.47L1742,1838.85L1745.4,1842.25L1748.82,1838.85L1745.4,1835.47Z" style="fill-rule:nonzero;"/>
            <path d="M1572.13,1959.91L1568.75,1963.35L1572.17,1966.69L1575.56,1963.35L1572.13,1959.91Z" style="fill-rule:nonzero;"/>
            <path d="M1626.33,1963.19L1629.73,1966.57L1633.15,1963.19L1629.73,1959.81L1626.33,1963.19Z" style="fill-rule:nonzero;"/>
            <rect x="1578.9" y="1980.82" width="4.84" height="4.77" style="fill-rule:nonzero;"/>
            <path d="M1597.71,1991.98L1601.13,1995.36L1604.55,1991.98L1601.13,1988.57L1597.71,1991.98Z" style="fill-rule:nonzero;"/>
            <rect x="1618.94" y="1940.69" width="4.82" height="4.82" style="fill-rule:nonzero;"/>
            <path d="M1601,1930.73L1597.59,1934.11L1601,1937.52L1604.4,1934.11L1601,1930.73Z" style="fill-rule:nonzero;"/>
            <path d="M1607.96,1968.44L1604.25,1964.45L1609.92,1964.45L1607.96,1968.44ZM1602.67,1971.86L1602.67,1966.33L1606.45,1970L1602.67,1971.86ZM1602.67,1954.9L1606.45,1956.48L1602.67,1960.16L1602.67,1954.9ZM1608.18,1958.36L1609.55,1962.03L1604.25,1962.03L1608.18,1958.36ZM1599.98,1960.16L1596.41,1956.48L1599.98,1954.9L1599.98,1960.16ZM1599.98,1971.73L1596.41,1970.26L1599.98,1966.33L1599.98,1971.73ZM1594.43,1968.44L1592.82,1964.45L1598.11,1964.45L1594.43,1968.44ZM1594.19,1958.36L1598.11,1962.03L1592.82,1962.03L1594.19,1958.36ZM1628.22,1970.51L1625.14,1963.12L1628.22,1956.15L1622.56,1962.03L1613.36,1962.03L1616.69,1956.86L1610.78,1955.75L1617.28,1949.14L1625.29,1949.14L1617.95,1946.48L1615.17,1939.14L1615.17,1947.27L1608.82,1953.91L1607.83,1947.59L1602.53,1951.22L1602.53,1942.26L1608.34,1936.21L1601.41,1939.66L1594.19,1936.49L1599.98,1942.26L1599.98,1951.22L1594.58,1947.97L1593.69,1953.91L1587.18,1947.27L1587.18,1939.14L1584.65,1946.48L1577.1,1949.4L1585.21,1949.4L1591.71,1955.75L1585.04,1957.23L1589.15,1962.03L1579.94,1962.03L1574.15,1956.15L1576.93,1963.35L1574.15,1970.51L1579.94,1964.45L1589.15,1964.45L1585.04,1969.82L1591.71,1970.87L1585.21,1977.37L1577.1,1977.37L1584.65,1979.98L1587.08,1987.23L1587.18,1979.21L1593.44,1972.95L1594.58,1979.44L1599.98,1975.43L1599.98,1984.65L1594.19,1990.3L1601.24,1987.2L1608.18,1990.3L1602.53,1984.65L1602.53,1975.43L1607.83,1979.04L1608.82,1972.74L1615.31,1979.21L1615.45,1987.23L1617.8,1980.15L1625.29,1977.37L1617.28,1977.37L1610.78,1971.11L1617.04,1969.27L1613.36,1964.45L1622.56,1964.45L1628.22,1970.51Z" style="fill-rule:nonzero;"/>
            <rect x="1618.58" y="1980.82" width="4.83" height="4.77" style="fill-rule:nonzero;"/>
            <rect x="1578.66" y="1940.69" width="4.79" height="4.82" style="fill-rule:nonzero;"/>
            <path d="M1670.3,1885.84L1667.93,1888.2L1670.3,1890.56L1672.67,1888.2L1670.3,1885.84Z" style="fill-rule:nonzero;"/>
            <rect x="1682.76" y="1892.78" width="3.35" height="3.33" style="fill-rule:nonzero;"/>
            <rect x="1682.51" y="1920.64" width="3.36" height="3.33" style="fill-rule:nonzero;"/>
            <path d="M1650.24,1906.1L1647.89,1908.5L1650.27,1910.81L1652.61,1908.5L1650.24,1906.1Z" style="fill-rule:nonzero;"/>
            <rect x="1654.94" y="1920.64" width="3.37" height="3.33" style="fill-rule:nonzero;"/>
            <path d="M1687.89,1908.38L1690.26,1910.75L1692.65,1908.38L1690.26,1906.05L1687.89,1908.38Z" style="fill-rule:nonzero;"/>
            <path d="M1668.03,1928.37L1670.39,1930.73L1672.76,1928.37L1670.39,1926.02L1668.03,1928.37Z" style="fill-rule:nonzero;"/>
            <rect x="1654.78" y="1892.78" width="3.33" height="3.33" style="fill-rule:nonzero;"/>
            <path d="M1675.14,1912.04L1672.56,1909.27L1676.5,1909.27L1675.14,1912.04ZM1671.47,1914.42L1671.47,1910.56L1674.08,1913.13L1671.47,1914.42ZM1671.47,1902.63L1674.08,1903.73L1671.47,1906.27L1671.47,1902.63ZM1675.3,1905.03L1676.24,1907.59L1672.56,1907.59L1675.3,1905.03ZM1669.58,1906.27L1667.09,1903.73L1669.58,1902.63L1669.58,1906.27ZM1669.58,1914.32L1667.09,1913.3L1669.58,1910.56L1669.58,1914.32ZM1665.75,1912.04L1664.61,1909.27L1668.31,1909.27L1665.75,1912.04ZM1665.56,1905.03L1668.31,1907.59L1664.61,1907.59L1665.56,1905.03ZM1689.21,1913.48L1687.07,1908.33L1689.21,1903.5L1685.28,1907.59L1678.88,1907.59L1681.19,1903.99L1677.09,1903.22L1681.63,1898.64L1687.18,1898.64L1682.07,1896.77L1680.14,1891.69L1680.14,1897.35L1675.74,1901.96L1675.05,1897.57L1671.36,1900.06L1671.36,1893.85L1675.39,1889.65L1670.6,1892.04L1665.56,1889.84L1669.58,1893.85L1669.58,1900.06L1665.83,1897.81L1665.22,1901.96L1660.69,1897.35L1660.69,1891.69L1658.93,1896.77L1653.69,1898.8L1659.33,1898.8L1663.85,1903.22L1659.21,1904.24L1662.06,1907.59L1655.67,1907.59L1651.64,1903.5L1653.58,1908.5L1651.64,1913.48L1655.67,1909.27L1662.06,1909.27L1659.21,1912.98L1663.85,1913.72L1659.33,1918.22L1653.69,1918.22L1658.93,1920.04L1660.62,1925.09L1660.69,1919.54L1665.05,1915.18L1665.83,1919.68L1669.58,1916.88L1669.58,1923.3L1665.56,1927.21L1670.46,1925.07L1675.3,1927.21L1671.36,1923.3L1671.36,1916.88L1675.05,1919.4L1675.74,1915.03L1680.22,1919.54L1680.33,1925.09L1681.95,1920.17L1687.18,1918.22L1681.63,1918.22L1677.09,1913.89L1681.46,1912.62L1678.88,1909.27L1685.28,1909.27L1689.21,1913.48Z" style="fill-rule:nonzero;"/>
            <rect x="1621.93" y="1856.52" width="2.37" height="2.34" style="fill-rule:nonzero;"/>
            <rect x="1641.34" y="1856.52" width="2.35" height="2.34" style="fill-rule:nonzero;"/>
            <path d="M1646.79,1846.26L1645.12,1847.9L1646.79,1849.56L1648.46,1847.9L1646.79,1846.26Z" style="fill-rule:nonzero;"/>
            <path d="M1632.74,1832.04L1631.08,1833.69L1632.74,1835.35L1634.41,1833.69L1632.74,1832.04Z" style="fill-rule:nonzero;"/>
            <rect x="1621.83" y="1836.92" width="2.32" height="2.35" style="fill-rule:nonzero;"/>
            <path d="M1631.14,1861.97L1632.81,1863.64L1634.47,1861.97L1632.81,1860.32L1631.14,1861.97Z" style="fill-rule:nonzero;"/>
            <rect x="1641.52" y="1836.92" width="2.35" height="2.35" style="fill-rule:nonzero;"/>
            <path d="M1636.14,1850.47L1634.32,1848.53L1637.1,1848.53L1636.14,1850.47ZM1633.56,1852.14L1633.56,1849.45L1635.4,1851.25L1633.56,1852.14ZM1633.56,1843.85L1635.4,1844.63L1633.56,1846.43L1633.56,1843.85ZM1636.25,1845.53L1636.93,1847.35L1634.32,1847.35L1636.25,1845.53ZM1632.24,1846.43L1630.49,1844.63L1632.24,1843.85L1632.24,1846.43ZM1632.24,1852.08L1630.49,1851.37L1632.24,1849.45L1632.24,1852.08ZM1629.53,1850.47L1628.74,1848.53L1631.32,1848.53L1629.53,1850.47ZM1629.41,1845.53L1631.32,1847.35L1628.74,1847.35L1629.41,1845.53ZM1646.05,1851.49L1644.54,1847.87L1646.05,1844.47L1643.28,1847.35L1638.78,1847.35L1640.41,1844.82L1637.51,1844.27L1640.7,1841.04L1644.62,1841.04L1641.02,1839.73L1639.68,1836.17L1639.68,1840.12L1636.57,1843.38L1636.09,1840.28L1633.5,1842.05L1633.5,1837.68L1636.32,1834.71L1632.95,1836.41L1629.41,1834.84L1632.24,1837.68L1632.24,1842.05L1629.61,1840.47L1629.17,1843.38L1625.98,1840.12L1625.98,1836.17L1624.74,1839.73L1621.05,1841.17L1625.02,1841.17L1628.21,1844.27L1624.93,1844.99L1626.95,1847.35L1622.44,1847.35L1619.61,1844.47L1620.98,1847.98L1619.61,1851.49L1622.44,1848.53L1626.95,1848.53L1624.93,1851.14L1628.21,1851.66L1625.02,1854.85L1621.05,1854.85L1624.74,1856.11L1625.94,1859.66L1625.98,1855.74L1629.04,1852.69L1629.61,1855.85L1632.24,1853.89L1632.24,1858.42L1629.41,1861.16L1632.86,1859.65L1636.25,1861.16L1633.5,1858.42L1633.5,1853.89L1636.09,1855.67L1636.57,1852.57L1639.73,1855.74L1639.8,1859.66L1640.94,1856.2L1644.62,1854.85L1640.7,1854.85L1637.51,1851.79L1640.59,1850.88L1638.78,1848.53L1643.28,1848.53L1646.05,1851.49Z" style="fill-rule:nonzero;"/>
            <path d="M1618.62,1846.31L1616.97,1847.98L1618.64,1849.62L1620.29,1847.98L1618.62,1846.31Z" style="fill-rule:nonzero;"/>
            <path d="M1732.81,1932.01L1734.71,1933.89L1736.62,1932.01L1734.71,1930.1L1732.81,1932.01Z" style="fill-rule:nonzero;"/>
            <rect x="1722.29" y="1925.78" width="2.69" height="2.66" style="fill-rule:nonzero;"/>
            <path d="M1738.52,1918.88L1736.44,1916.66L1739.6,1916.66L1738.52,1918.88ZM1735.56,1920.77L1735.56,1917.69L1737.67,1919.74L1735.56,1920.77ZM1735.56,1911.31L1737.67,1912.19L1735.56,1914.26L1735.56,1911.31ZM1738.63,1913.22L1739.4,1915.29L1736.44,1915.29L1738.63,1913.22ZM1734.05,1914.26L1732.06,1912.19L1734.05,1911.31L1734.05,1914.26ZM1734.05,1920.71L1732.06,1919.89L1734.05,1917.69L1734.05,1920.71ZM1730.97,1918.88L1730.06,1916.66L1733.02,1916.66L1730.97,1918.88ZM1730.83,1913.22L1733.02,1915.29L1730.06,1915.29L1730.83,1913.22ZM1749.82,1920.03L1748.11,1915.9L1749.82,1912.01L1746.66,1915.29L1741.53,1915.29L1743.38,1912.42L1740.08,1911.79L1743.72,1908.09L1748.18,1908.09L1744.09,1906.61L1742.55,1902.53L1742.55,1907.04L1738.99,1910.78L1738.44,1907.23L1735.48,1909.26L1735.48,1904.26L1738.72,1900.87L1734.86,1902.81L1730.83,1901.03L1734.05,1904.26L1734.05,1909.26L1731.04,1907.45L1730.56,1910.78L1726.91,1907.04L1726.91,1902.53L1725.5,1906.61L1721.29,1908.22L1725.82,1908.22L1729.45,1911.79L1725.71,1912.62L1728,1915.29L1722.87,1915.29L1719.65,1912.01L1721.18,1916.03L1719.65,1920.03L1722.87,1916.66L1728,1916.66L1725.71,1919.63L1729.45,1920.23L1725.82,1923.83L1721.29,1923.83L1725.5,1925.31L1726.85,1929.35L1726.91,1924.89L1730.42,1921.4L1731.04,1925.01L1734.05,1922.76L1734.05,1927.92L1730.83,1931.06L1734.77,1929.33L1738.63,1931.06L1735.48,1927.92L1735.48,1922.76L1738.44,1924.79L1738.99,1921.25L1742.61,1924.89L1742.7,1929.35L1744,1925.39L1748.18,1923.83L1743.72,1923.83L1740.08,1920.35L1743.58,1919.33L1741.53,1916.66L1746.66,1916.66L1749.82,1920.03Z" style="fill-rule:nonzero;"/>
            <rect x="1744.44" y="1925.78" width="2.71" height="2.66" style="fill-rule:nonzero;"/>
            <path d="M1748.76,1915.94L1750.66,1917.83L1752.57,1915.94L1750.66,1914.04L1748.76,1915.94Z" style="fill-rule:nonzero;"/>
            <path d="M1734.61,1901.61L1736.53,1899.7L1734.61,1897.82L1732.71,1899.7L1734.61,1901.61Z" style="fill-rule:nonzero;"/>
            <path d="M1718.52,1914.1L1716.62,1916.03L1718.54,1917.89L1720.42,1916.03L1718.52,1914.1Z" style="fill-rule:nonzero;"/>
            <rect x="1744.64" y="1903.39" width="2.69" height="2.68" style="fill-rule:nonzero;"/>
            <rect x="1722.17" y="1903.39" width="2.66" height="2.68" style="fill-rule:nonzero;"/>
        </g>
    </g>
</svg>
