<?xml version="1.0" encoding="UTF-8" standalone="no"?>
<!DOCTYPE svg PUBLIC "-//W3C//DTD SVG 1.1//EN" "http://www.w3.org/Graphics/SVG/1.1/DTD/svg11.dtd">
<svg width="100%" height="100%" viewBox="0 0 1053 1021" version="1.1" xmlns="http://www.w3.org/2000/svg" xmlns:xlink="http://www.w3.org/1999/xlink" xml:space="preserve" xmlns:serif="http://www.serif.com/" style="fill-rule:evenodd;clip-rule:evenodd;stroke-linejoin:round;stroke-miterlimit:2;">
    <g transform="matrix(1,0,0,1,-12789,-12069)">
        <g transform="matrix(4.16667,0,0,4.16667,0,0)">
            <path d="M3252.76,3023.55C3252.76,3054.79 3227.4,3080.14 3196.17,3080.14C3164.92,3080.14 3139.59,3054.79 3139.59,3023.55C3139.59,2992.33 3164.92,2966.97 3196.17,2966.97C3227.4,2966.97 3252.76,2992.33 3252.76,3023.55Z" style="fill-rule:nonzero;"/>
            <path d="M3147.91,2969.55C3149.47,2971.33 3149.3,2974.05 3147.53,2975.63C3145.71,2977.19 3143.01,2977 3141.43,2975.2L3109.37,2938.62C3107.8,2936.81 3108,2934.07 3109.79,2932.54C3111.56,2930.97 3114.29,2931.14 3115.88,2932.93L3147.91,2969.55Z" style="fill-rule:nonzero;"/>
            <path d="M3200.67,2949.74C3200.68,2952.12 3198.75,2954.05 3196.38,2954.07C3194.01,2954.08 3192.05,2952.18 3192.04,2949.8L3191.7,2901.15C3191.7,2898.73 3193.6,2896.83 3195.96,2896.79C3198.34,2896.79 3200.28,2898.67 3200.31,2901.09L3200.67,2949.74Z" style="fill-rule:nonzero;"/>
            <path d="M3122.56,3011.73C3124.96,3011.94 3126.69,3014.02 3126.52,3016.36C3126.32,3018.75 3124.26,3020.5 3121.86,3020.31L3073.38,3016.36C3070.98,3016.18 3069.22,3014.1 3069.45,3011.73C3069.62,3009.36 3071.69,3007.61 3074.07,3007.76L3122.56,3011.73Z" style="fill-rule:nonzero;"/>
            <path d="M3130.37,3057.83C3132.41,3056.55 3135.07,3057.15 3136.32,3059.17C3137.59,3061.19 3137.01,3063.83 3134.99,3065.11L3093.86,3091.1C3091.85,3092.37 3089.17,3091.79 3087.91,3089.77C3086.64,3087.76 3087.24,3085.1 3089.27,3083.83L3130.37,3057.83Z" style="fill-rule:nonzero;"/>
            <path d="M3167.13,3089.89C3167.97,3087.67 3170.45,3086.53 3172.69,3087.37C3174.9,3088.2 3176.02,3090.69 3175.21,3092.93L3158.06,3138.47C3157.2,3140.68 3154.72,3141.82 3152.53,3140.97C3150.27,3140.14 3149.16,3137.66 3149.99,3135.43L3167.13,3089.89Z" style="fill-rule:nonzero;"/>
            <path d="M3260.05,3066.96C3257.94,3065.84 3257.14,3063.22 3258.25,3061.13C3259.36,3059.02 3261.95,3058.23 3264.08,3059.33L3307.13,3081.97C3309.25,3083.08 3310.07,3085.7 3308.93,3087.78C3307.84,3089.9 3305.23,3090.71 3303.11,3089.6L3260.05,3066.96Z" style="fill-rule:nonzero;"/>
            <path d="M3269.92,3014.43C3267.55,3014.72 3265.42,3013.01 3265.14,3010.67C3264.86,3008.33 3266.56,3006.17 3268.93,3005.9L3317.23,3000.21C3319.64,2999.96 3321.75,3001.64 3322.03,3004.01C3322.3,3006.38 3320.6,3008.51 3318.24,3008.8L3269.92,3014.43Z" style="fill-rule:nonzero;"/>
            <path d="M3238.22,3135.7C3239,3137.93 3237.84,3140.39 3235.58,3141.2C3233.35,3141.96 3230.88,3140.81 3230.1,3138.56L3213.91,3092.65C3213.11,3090.42 3214.29,3087.96 3216.55,3087.19C3218.78,3086.38 3221.25,3087.53 3222.05,3089.8L3238.22,3135.7Z" style="fill-rule:nonzero;"/>
            <path d="M3246.17,2970.74C3244.69,2972.61 3242.01,2972.96 3240.13,2971.5C3238.25,2970.04 3237.91,2967.32 3239.38,2965.45L3269.34,2927.1C3270.81,2925.22 3273.5,2924.88 3275.4,2926.35C3277.24,2927.81 3277.59,2930.53 3276.12,2932.4L3246.17,2970.74Z" style="fill-rule:nonzero;"/>
        </g>
    </g>
</svg>
