<?xml version="1.0" encoding="UTF-8" standalone="no"?>
<!DOCTYPE svg PUBLIC "-//W3C//DTD SVG 1.1//EN" "http://www.w3.org/Graphics/SVG/1.1/DTD/svg11.dtd">
<svg width="100%" height="100%" viewBox="0 0 281 889" version="1.1" xmlns="http://www.w3.org/2000/svg" xmlns:xlink="http://www.w3.org/1999/xlink" xml:space="preserve" xmlns:serif="http://www.serif.com/" style="fill-rule:evenodd;clip-rule:evenodd;stroke-linejoin:round;stroke-miterlimit:2;">
    <g transform="matrix(1,0,0,1,-4099,-13984)">
        <g transform="matrix(4.16667,0,0,4.16667,0,0)">
            <path d="M1007.44,3503.63L1007.44,3360.92L1027.51,3360.92L1027.51,3503.63L1007.44,3503.63ZM1032.14,3505.39L1032.14,3431.16L1032.1,3431.16L1032.1,3356.33L1002.85,3356.33L1002.85,3431.16L1002.8,3431.16L1002.8,3505.39C991.224,3511.02 983.825,3522.76 983.825,3535.69C983.825,3554.22 998.913,3569.31 1017.48,3569.31C1036.03,3569.31 1051.13,3554.22 1051.13,3535.69C1051.13,3522.71 1043.73,3510.99 1032.14,3505.39Z" style="fill-rule:nonzero;"/>
        </g>
    </g>
</svg>
