<?xml version="1.0" encoding="UTF-8" standalone="no"?>
<!DOCTYPE svg PUBLIC "-//W3C//DTD SVG 1.1//EN" "http://www.w3.org/Graphics/SVG/1.1/DTD/svg11.dtd">
<svg width="100%" height="100%" viewBox="0 0 281 889" version="1.1" xmlns="http://www.w3.org/2000/svg" xmlns:xlink="http://www.w3.org/1999/xlink" xml:space="preserve" xmlns:serif="http://www.serif.com/" style="fill-rule:evenodd;clip-rule:evenodd;stroke-linejoin:round;stroke-miterlimit:2;">
    <g transform="matrix(1,0,0,1,-2751,-13984)">
        <g transform="matrix(4.16667,0,0,4.16667,0,0)">
            <path d="M683.885,3360.92L703.963,3360.92L703.963,3431.16L683.885,3431.16L683.885,3360.92ZM708.598,3505.39L708.598,3431.16L708.552,3431.16L708.552,3356.33L679.288,3356.33L679.288,3431.16L679.25,3431.16L679.25,3505.39C667.695,3511.02 660.28,3522.76 660.28,3535.69C660.28,3554.22 675.383,3569.31 693.936,3569.31C712.487,3569.31 727.583,3554.22 727.583,3535.69C727.583,3522.71 720.183,3510.99 708.598,3505.39Z" style="fill-rule:nonzero;"/>
        </g>
    </g>
</svg>
