<?xml version="1.0" encoding="UTF-8" standalone="no"?>
<!DOCTYPE svg PUBLIC "-//W3C//DTD SVG 1.1//EN" "http://www.w3.org/Graphics/SVG/1.1/DTD/svg11.dtd">
<svg width="100%" height="100%" viewBox="0 0 1493 1702" version="1.1" xmlns="http://www.w3.org/2000/svg" xmlns:xlink="http://www.w3.org/1999/xlink" xml:space="preserve" xmlns:serif="http://www.serif.com/" style="fill-rule:evenodd;clip-rule:evenodd;stroke-linejoin:round;stroke-miterlimit:2;">
    <g transform="matrix(1,0,0,1,-13660,-3879)">
        <g transform="matrix(4.16667,0,0,4.16667,0,0)">
            <path d="M3602.71,1036.05C3602.86,1034.44 3602.93,1032.82 3602.93,1031.21C3602.93,1000.75 3578.15,975.978 3547.69,975.978C3537.26,975.978 3527.29,978.854 3518.65,984.244C3513.3,952.808 3484.46,929.279 3450.73,931.133C3418.63,932.732 3393.22,956.227 3389.04,986.356C3383.25,984.29 3377.25,983.245 3371.18,983.245C3340.74,983.245 3315.94,1008.01 3315.94,1038.48C3315.94,1039.14 3315.96,1039.79 3316.01,1040.49C3300.59,1044.69 3278.45,1053.61 3278.48,1085.16C3278.52,1108.6 3297.99,1128.72 3324.53,1129.98L3332.67,1117.43C3331.69,1117.46 3330.62,1117.48 3329.85,1117.52L3327.87,1117.58C3307.75,1117.58 3291.35,1103.02 3291.33,1085.14C3291.32,1063.84 3302.94,1056.92 3324.42,1051.59L3329.26,1049.76L3329.4,1044.88L3329.16,1042.26C3328.97,1041.01 3328.8,1039.76 3328.8,1038.48C3328.8,1015.11 3347.81,996.096 3371.18,996.096C3378.23,996.096 3385.14,997.972 3391.75,1001.67L3401.51,1007.14L3401.31,995.955C3400.84,968.222 3422.84,945.393 3451.39,943.983L3454.15,943.904C3482.24,943.904 3505.26,965.18 3506.62,992.373C3506.67,993.338 3506.62,994.303 3506.48,996.802L3505.9,1013.31L3517.5,1001.52C3525.54,993.338 3536.28,988.829 3547.69,988.829C3571.06,988.829 3590.08,1007.85 3590.08,1031.21C3590.08,1034.12 3589.77,1036.92 3589.21,1039.67L3587.91,1046.14L3594.39,1047.27C3610.95,1050.17 3623.03,1063 3623.8,1078.46C3624.59,1093.97 3613.88,1111.61 3597.66,1116.72L3601.95,1128.67C3622.42,1121.87 3637.78,1100.71 3636.63,1077.82C3635.67,1058.32 3622.04,1041.89 3602.71,1036.05Z" style="fill-rule:nonzero;"/>
            <path d="M3342.02,1339.39L3344.07,1336.21L3416.18,1224.99L3346.13,1224.87L3405.77,1129.64L3411.54,1129.64L3371.16,1212.53L3446.35,1212.9L3342.02,1339.39Z" style="fill-rule:nonzero;"/>
            <path d="M3453.27,1295.4L3455.11,1292.55L3519.76,1192.84L3456.96,1192.73L3510.42,1107.36L3515.59,1107.36L3479.38,1181.67L3546.82,1182L3453.27,1295.4Z" style="fill-rule:nonzero;"/>
        </g>
    </g>
</svg>
