<?xml version="1.0" encoding="UTF-8" standalone="no"?>
<!DOCTYPE svg PUBLIC "-//W3C//DTD SVG 1.1//EN" "http://www.w3.org/Graphics/SVG/1.1/DTD/svg11.dtd">
<svg width="100%" height="100%" viewBox="0 0 701 663" version="1.1" xmlns="http://www.w3.org/2000/svg" xmlns:xlink="http://www.w3.org/1999/xlink" xml:space="preserve" xmlns:serif="http://www.serif.com/" style="fill-rule:evenodd;clip-rule:evenodd;stroke-linejoin:round;stroke-miterlimit:2;">
    <g transform="matrix(1,0,0,1,-1202,-14141)">
        <g transform="matrix(4.16667,0,0,4.16667,0,0)">
            <path d="M352.188,3398.93L351.976,3398.43C351.307,3398.71 350.639,3398.96 349.978,3399.27C349.711,3398.57 349.377,3397.79 349.377,3397.79C348.769,3396.23 347.63,3395.03 346.293,3394.45C345.077,3393.92 343.748,3393.92 342.585,3394.48C341.431,3395.08 340.527,3396.17 340.071,3397.54C339.745,3398.54 339.653,3399.61 339.813,3400.69C339.912,3401.26 340.048,3401.8 340.253,3402.33C340.253,3402.33 340.527,3403.03 340.792,3403.63C305.208,3420.82 285.015,3459.86 289.201,3499.39C289.816,3505.24 290.971,3511.11 292.665,3516.9L293.865,3516.4C296.729,3498.09 311.376,3483.81 329.503,3483.12C330.119,3483.07 330.704,3483.17 331.304,3483.21C333.568,3483.21 335.778,3483.46 337.936,3483.89C338.863,3484.09 339.805,3484.2 340.687,3484.47C343.132,3485.14 345.435,3486.16 347.645,3487.37C348.731,3487.95 349.833,3488.48 350.836,3489.17C353.45,3480.19 359.01,3472.66 366.296,3467.6C370.588,3478.29 394.747,3538.31 394.747,3538.31C399.381,3549.22 409.88,3555.14 419.225,3552.16L420.402,3551.69C420.577,3551.65 420.592,3551.65 420.744,3551.55L421.823,3550.86C430.256,3545.02 433.287,3532.32 428.865,3521.34C428.88,3521.38 428.919,3521.63 428.949,3521.69L428.751,3521.13C428.205,3519.79 427.202,3518.71 425.956,3518.18C424.695,3517.65 423.312,3517.65 422.096,3518.29C419.574,3519.51 418.458,3522.88 419.604,3525.75C419.62,3525.79 419.848,3526.22 419.848,3526.22C419.802,3526.14 419.696,3526 419.666,3525.89C420.129,3527.06 420.433,3528.23 420.615,3529.4C421.307,3534.18 419.711,3538.88 416.369,3541.14C411.681,3542.73 406.188,3539.36 403.772,3533.32C403.772,3533.32 381.923,3479.03 375.481,3463.01C378.611,3461.93 381.893,3461.22 385.327,3461.07C390.09,3460.89 394.641,3461.75 398.895,3463.29C398.956,3463.62 399.085,3463.9 399.13,3464.23C399.214,3463.96 399.381,3463.73 399.457,3463.48C399.655,3463.51 399.867,3463.54 400.05,3463.65C401.189,3459.72 402.853,3456.05 405.011,3452.77C406.432,3450.73 407.845,3448.72 409.721,3446.98C422.833,3434.78 442.031,3434.53 455.508,3445.34L456.686,3444.85C437.701,3404.2 393,3384.34 352.188,3398.93Z" style="fill-rule:nonzero;"/>
        </g>
    </g>
</svg>
