<?xml version="1.0" encoding="UTF-8" standalone="no"?>
<!DOCTYPE svg PUBLIC "-//W3C//DTD SVG 1.1//EN" "http://www.w3.org/Graphics/SVG/1.1/DTD/svg11.dtd">
<svg width="100%" height="100%" viewBox="0 0 1498 990" version="1.1" xmlns="http://www.w3.org/2000/svg" xmlns:xlink="http://www.w3.org/1999/xlink" xml:space="preserve" xmlns:serif="http://www.serif.com/" style="fill-rule:evenodd;clip-rule:evenodd;stroke-linejoin:round;stroke-miterlimit:2;">
    <g transform="matrix(1,0,0,1,-1011,-9630)">
        <g transform="matrix(4.16667,0,0,4.16667,0,0)">
            <path d="M565.21,2495.52C559.368,2490.34 551.46,2488.71 544.744,2491.51C537.466,2494.54 533.242,2500.56 533.439,2507.6C533.584,2513.51 536.813,2518.73 541.28,2520.34C544.607,2521.5 548.132,2520.49 550.662,2517.56L544.151,2512.26C543.559,2512.08 542.1,2510.19 541.994,2507.46C541.895,2504.98 542.875,2501.58 548.049,2499.41C551.778,2497.84 556.398,2498.89 559.816,2502.11C564.436,2506.47 565.651,2513.46 563.053,2520.86C559.3,2531.56 550.715,2529.92 528.927,2523.03C506.044,2515.74 474.699,2505.82 448.466,2530.92C440.8,2538.26 423.92,2541.59 403.249,2539.73C385.973,2538.23 367.952,2535.1 353.168,2522.52C334.084,2506.24 315.457,2502.06 302.823,2501.5C314.142,2498.81 330.027,2498.05 347.144,2506.74C367.914,2517.27 392.946,2527.21 413.633,2527.21C425.363,2527.21 435.71,2523.99 443.042,2515.89C459.261,2498.04 478.649,2500.03 495.705,2501.75C510.921,2503.34 526.663,2504.91 532.042,2487.77C534.958,2478.45 532.908,2469.72 526.435,2463.81C519.672,2457.65 508.969,2455.62 500.954,2458.97C491.853,2462.79 491.017,2469 491.085,2471.49C491.214,2476.6 494.922,2481.45 500.088,2483.32C504.518,2484.88 508.961,2483.79 511.909,2480.37L505.437,2474.76C505.163,2475.06 504.555,2475.78 502.975,2475.23C501.205,2474.62 499.686,2472.79 499.64,2471.28C499.602,2469.05 502.854,2467.47 504.267,2466.89C509.265,2464.79 516.331,2466.18 520.661,2470.13C523.472,2472.71 526.306,2477.4 523.852,2485.21C520.722,2495.26 512.752,2494.91 496.571,2493.24C479.356,2491.49 455.805,2489.07 436.698,2510.12C419.164,2529.48 375.503,2511.52 351.018,2499.1C323.806,2485.28 299.282,2492.49 287.985,2497.41C281.49,2496.75 275.534,2494.66 270.52,2491.38C280.867,2484.89 312.228,2468.9 346.726,2487.8C367.534,2499.18 385.243,2503.07 399.7,2503.07C420.805,2503.07 435.019,2494.8 441.887,2489.58C452.493,2481.51 452.956,2467.04 448.018,2457.53C443.718,2449.27 434.062,2442.08 419.787,2446.59C410.754,2449.48 407.708,2457.9 409.387,2464.72C411.096,2471.74 417.918,2477.95 429.314,2475.95L427.84,2467.48C421.535,2468.56 418.458,2465.72 417.706,2462.65C416.991,2459.81 418.169,2456.1 422.37,2454.77C433.614,2451.15 438.75,2458.28 440.413,2461.47C443.794,2467.98 443.323,2477.71 436.698,2482.77C426.472,2490.55 397.634,2505.92 350.836,2480.26C309.918,2457.87 272.844,2479.46 263.758,2485.56C258.713,2480 255.561,2473.04 255.553,2465.37C255.523,2444.05 267.162,2437.14 288.631,2431.81L293.478,2429.97L293.615,2425.11L293.372,2422.46C293.197,2421.23 293.022,2419.99 293.022,2418.69C293.022,2395.33 312.03,2376.32 335.399,2376.32C342.449,2376.32 349.377,2378.19 355.972,2381.89L365.726,2387.36L365.536,2376.18C365.065,2348.44 387.051,2325.62 415.593,2324.2L418.374,2324.13C446.453,2324.13 469.487,2345.38 470.839,2372.6C470.885,2373.57 470.839,2374.52 470.703,2377.02L470.125,2393.53L481.718,2381.74C489.764,2373.57 500.491,2369.04 511.909,2369.04C528.136,2369.04 542.244,2378.22 549.371,2391.65C542.844,2412.48 526.708,2429.95 504.35,2437.16C501.182,2438.19 498.007,2438.9 494.808,2439.47C511.719,2450.27 533.128,2453.7 553.716,2447.06C561.958,2444.4 569.313,2440.29 575.702,2435.19C582.912,2441 587.554,2449.33 588.017,2458.67C588.746,2473.07 579.523,2489.17 565.21,2495.52ZM585.008,2426.22C600.309,2408.42 606.318,2383.38 598.577,2359.42C587.796,2325.98 554.118,2306.44 520.494,2312.27C533.645,2320.69 544.053,2333.52 549.226,2349.53C551.854,2357.68 552.812,2365.96 552.447,2374.04C542.343,2363.11 527.939,2356.2 511.909,2356.2C501.486,2356.2 491.511,2359.07 482.874,2364.47C477.494,2333.03 448.686,2309.51 414.956,2311.35C382.865,2312.96 357.422,2336.45 353.267,2366.56C347.463,2364.51 341.476,2363.46 335.399,2363.46C304.942,2363.46 280.152,2388.23 280.152,2418.69C280.152,2419.36 280.175,2420 280.236,2420.72C264.806,2424.91 242.653,2433.83 242.699,2465.37C242.729,2488.25 261.327,2507.94 286.914,2510.03L286.914,2510.19C286.99,2510.17 287.218,2510.13 287.552,2510.08C287.962,2510.11 288.342,2510.18 288.752,2510.19L288.927,2509.92C296.319,2509.19 322.803,2508.61 347.615,2529.02C364.465,2542.92 383.822,2546.64 402.496,2548.29C406.477,2548.62 410.321,2548.8 414.021,2548.8C432.064,2548.8 446.453,2544.7 454.384,2537.12C476.978,2515.51 503.21,2523.85 526.329,2531.19C544.995,2537.12 564.284,2543.23 571.136,2523.7C573.263,2517.62 573.461,2511.66 571.972,2506.39C589.43,2497.83 601.881,2478.69 600.848,2458.03C600.233,2445.46 594.299,2434.22 585.008,2426.22Z" style="fill-rule:nonzero;"/>
        </g>
    </g>
</svg>
