<?xml version="1.0" encoding="UTF-8" standalone="no"?>
<!DOCTYPE svg PUBLIC "-//W3C//DTD SVG 1.1//EN" "http://www.w3.org/Graphics/SVG/1.1/DTD/svg11.dtd">
<svg width="100%" height="100%" viewBox="0 0 702 421" version="1.1" xmlns="http://www.w3.org/2000/svg" xmlns:xlink="http://www.w3.org/1999/xlink" xml:space="preserve" xmlns:serif="http://www.serif.com/" style="fill-rule:evenodd;clip-rule:evenodd;stroke-linejoin:round;stroke-miterlimit:2;">
    <g transform="matrix(1,0,0,1,-404,-1699)">
        <g transform="matrix(4.16667,0,0,4.16667,0,0)">
            <g transform="matrix(1,0,0,1,-278.588,-7.81597e-14)">
                <path d="M524.446,469.754C524.362,469.754 524.286,469.777 524.202,469.778C525.744,466.211 526.608,462.282 526.608,458.149C526.608,441.942 513.469,428.803 497.262,428.803C491.534,428.803 486.207,430.47 481.69,433.308C475.58,418.458 460.984,407.994 443.93,407.994C421.38,407.994 403.1,426.274 403.1,448.825C403.1,450.529 403.237,452.199 403.44,453.848C403.325,453.847 403.214,453.831 403.1,453.831C387.98,453.831 375.723,466.088 375.723,481.208C375.723,496.327 387.98,508.584 403.1,508.584L524.446,508.584C535.169,508.584 543.862,499.892 543.862,489.169C543.862,478.446 535.169,469.754 524.446,469.754Z" style="fill:rgb(189,214,239);fill-rule:nonzero;"/>
            </g>
        </g>
    </g>
</svg>
