<?xml version="1.0" encoding="UTF-8" standalone="no"?>
<!DOCTYPE svg PUBLIC "-//W3C//DTD SVG 1.1//EN" "http://www.w3.org/Graphics/SVG/1.1/DTD/svg11.dtd">
<svg width="100%" height="100%" viewBox="0 0 330 754" version="1.1" xmlns="http://www.w3.org/2000/svg" xmlns:xlink="http://www.w3.org/1999/xlink" xml:space="preserve" xmlns:serif="http://www.serif.com/" style="fill-rule:evenodd;clip-rule:evenodd;stroke-linejoin:round;stroke-miterlimit:2;">
    <g transform="matrix(1,0,0,1,-590,-2720)">
        <g transform="matrix(4.16667,0,0,4.16667,0,0)">
            <path d="M196.186,757.876L196.186,667.823C196.186,659.55 189.479,652.843 181.205,652.843C172.931,652.843 166.224,659.55 166.224,667.823L166.224,757.876C151.904,763.772 141.816,777.851 141.816,794.298C141.816,816.052 159.451,833.687 181.205,833.687C202.959,833.687 220.594,816.052 220.594,794.298C220.594,777.851 210.506,763.772 196.186,757.876Z" style="fill:white;fill-rule:nonzero;"/>
            <path d="M181.205,826.495C163.451,826.495 149.008,812.051 149.008,794.298C149.008,781.203 156.84,769.518 168.962,764.524L173.416,762.69L173.416,667.823C173.416,663.527 176.91,660.034 181.205,660.034C185.5,660.034 188.995,663.527 188.995,667.823L188.995,762.69L193.448,764.524C205.57,769.518 213.403,781.203 213.403,794.298C213.403,812.051 198.958,826.495 181.205,826.495Z" style="fill:rgb(248,210,226);fill-rule:nonzero;"/>
            <path d="M193.448,764.525L188.995,762.691L188.995,681.617L173.416,681.617L173.416,762.691L168.962,764.525C156.84,769.518 149.008,781.203 149.008,794.298C149.008,812.052 163.451,826.495 181.205,826.495C198.958,826.495 213.402,812.052 213.402,794.298C213.402,781.203 205.57,769.518 193.448,764.525Z" style="fill:rgb(224,68,131);fill-rule:nonzero;"/>
            <path d="M181.209,811.609C156.914,811.609 175.492,782.172 175.492,782.172L175.492,788.992L181.209,775.364L186.915,788.992L186.915,782.172C186.915,782.172 205.504,811.609 181.209,811.609Z" style="fill:white;fill-rule:nonzero;"/>
        </g>
    </g>
</svg>
