<?xml version="1.0" encoding="UTF-8" standalone="no"?>
<!DOCTYPE svg PUBLIC "-//W3C//DTD SVG 1.1//EN" "http://www.w3.org/Graphics/SVG/1.1/DTD/svg11.dtd">
<svg width="100%" height="100%" viewBox="0 0 476 476" version="1.1" xmlns="http://www.w3.org/2000/svg" xmlns:xlink="http://www.w3.org/1999/xlink" xml:space="preserve" xmlns:serif="http://www.serif.com/" style="fill-rule:evenodd;clip-rule:evenodd;stroke-linejoin:round;stroke-miterlimit:2;">
    <g transform="matrix(1,0,0,1,-895,-195)">
        <g transform="matrix(4.16667,0,0,4.16667,0,0)">
            <g id="coat">
                <g>
                    <path d="M217.22,143L231.168,143L240.965,90.096L232.305,67.577L217.22,143ZM232,145L216,145C215.7,145 215.417,144.866 215.227,144.634C215.037,144.402 214.961,144.098 215.02,143.804L231.02,63.804C231.106,63.368 231.472,63.042 231.915,63.004C232.37,62.968 232.774,63.227 232.934,63.641L242.934,89.641C243,89.814 243.017,90.001 242.983,90.182L232.983,144.182C232.896,144.656 232.482,145 232,145Z" style="fill:white;fill-rule:nonzero;"/>
                    <path d="M312.832,143L326.78,143L311.695,67.577L303.035,90.096L312.832,143ZM328,145L312,145C311.518,145 311.104,144.656 311.017,144.182L301.017,90.182C300.983,90.001 301,89.814 301.066,89.641L311.066,63.641C311.226,63.227 311.632,62.968 312.085,63.004C312.528,63.042 312.894,63.368 312.98,63.804L328.98,143.804C329.039,144.098 328.963,144.402 328.773,144.634C328.583,144.866 328.3,145 328,145Z" style="fill:white;fill-rule:nonzero;"/>
                    <path d="M243,159L301,159L301,153L243,153L243,159ZM302,161L242,161C241.447,161 241,160.552 241,160L241,152C241,151.448 241.447,151 242,151L302,151C302.553,151 303,151.448 303,152L303,160C303,160.552 302.553,161 302,161Z" style="fill:white;fill-rule:nonzero;"/>
                    <path d="M243,151L301,151L301,90C301,89.878 301.022,89.756 301.066,89.641L310.741,64.489L296.072,57.154L272.555,72.832C272.219,73.056 271.781,73.056 271.445,72.832L247.928,57.154L233.259,64.489L242.934,89.641C242.978,89.756 243,89.878 243,90L243,151ZM302,153L242,153C241.447,153 241,152.552 241,152L241,90.186L231.066,64.359C230.882,63.879 231.092,63.336 231.553,63.106L247.553,55.106C247.874,54.946 248.257,54.97 248.555,55.168L272,70.799L295.445,55.168C295.743,54.97 296.125,54.946 296.447,55.106L312.447,63.106C312.908,63.336 313.118,63.879 312.934,64.359L303,90.186L303,152C303,152.552 302.553,153 302,153Z" style="fill:white;fill-rule:nonzero;"/>
                    <path d="M257.868,49L272,70.198L286.132,49L257.868,49ZM272,73C271.666,73 271.354,72.833 271.168,72.555L255.168,48.555C254.964,48.248 254.944,47.854 255.118,47.529C255.292,47.203 255.631,47 256,47L288,47C288.369,47 288.708,47.203 288.882,47.529C289.056,47.854 289.036,48.248 288.832,48.555L272.832,72.555C272.646,72.833 272.334,73 272,73Z" style="fill:white;fill-rule:nonzero;"/>
                    <path d="M272,153C271.447,153 271,152.552 271,152L271,72C271,71.448 271.447,71 272,71C272.553,71 273,71.448 273,72L273,152C273,152.552 272.553,153 272,153Z" style="fill:white;fill-rule:nonzero;"/>
                    <path d="M283,141L301,141L301,125L283,125L283,141ZM302,143L282,143C281.447,143 281,142.552 281,142L281,124C281,123.448 281.447,123 282,123L302,123C302.553,123 303,123.448 303,124L303,142C303,142.552 302.553,143 302,143Z" style="fill:white;fill-rule:nonzero;"/>
                    <path d="M243,141L261,141L261,125L243,125L243,141ZM262,143L242,143C241.447,143 241,142.552 241,142L241,124C241,123.448 241.447,123 242,123L262,123C262.553,123 263,123.448 263,124L263,142C263,142.552 262.553,143 262,143Z" style="fill:white;fill-rule:nonzero;"/>
                    <path d="M284,85C283.447,85 283,84.553 283,84L283,64C283,63.448 283.447,63 284,63C284.553,63 285,63.448 285,64L285,84C285,84.553 284.553,85 284,85Z" style="fill:white;fill-rule:nonzero;"/>
                    <path d="M284,85C282.346,85 281,86.346 281,88C281,89.655 282.346,91 284,91C285.654,91 287,89.655 287,88C287,86.346 285.654,85 284,85ZM284,93C281.243,93 279,90.757 279,88C279,85.243 281.243,83 284,83C286.757,83 289,85.243 289,88C289,90.757 286.757,93 284,93Z" style="fill:white;fill-rule:nonzero;"/>
                    <path d="M284,97C283.447,97 283,96.553 283,96L283,92C283,91.448 283.447,91 284,91C284.553,91 285,91.448 285,92L285,96C285,96.553 284.553,97 284,97Z" style="fill:white;fill-rule:nonzero;"/>
                    <path d="M260,85C259.446,85 259,84.553 259,84L259,64C259,63.448 259.446,63 260,63C260.553,63 261,63.448 261,64L261,84C261,84.553 260.553,85 260,85Z" style="fill:white;fill-rule:nonzero;"/>
                    <path d="M260,85C258.346,85 257,86.346 257,88C257,89.655 258.346,91 260,91C261.653,91 263,89.655 263,88C263,86.346 261.653,85 260,85ZM260,93C257.243,93 255,90.757 255,88C255,85.243 257.243,83 260,83C262.757,83 265,85.243 265,88C265,90.757 262.757,93 260,93Z" style="fill:white;fill-rule:nonzero;"/>
                    <path d="M260,97C259.446,97 259,96.553 259,96L259,92C259,91.448 259.446,91 260,91C260.553,91 261,91.448 261,92L261,96C261,96.553 260.553,97 260,97Z" style="fill:white;fill-rule:nonzero;"/>
                    <path d="M241.083,55L248,55C248.197,55 248.391,55.059 248.555,55.168L272,70.799L295.445,55.168C295.609,55.059 295.803,55 296,55L302.917,55C302.351,51.613 298.952,49 294.857,49L249.143,49C245.048,49 241.649,51.613 241.083,55ZM272,73C271.807,73 271.613,72.944 271.445,72.832L247.697,57L240,57C239.447,57 239,56.553 239,56C239,51.038 243.55,47 249.143,47L294.857,47C300.45,47 305,51.038 305,56C305,56.553 304.553,57 304,57L296.303,57L272.555,72.832C272.387,72.944 272.193,73 272,73Z" style="fill:white;fill-rule:nonzero;"/>
                </g>
            </g>
        </g>
    </g>
</svg>
