<?xml version="1.0" encoding="UTF-8" standalone="no"?>
<!DOCTYPE svg PUBLIC "-//W3C//DTD SVG 1.1//EN" "http://www.w3.org/Graphics/SVG/1.1/DTD/svg11.dtd">
<svg width="100%" height="100%" viewBox="0 0 476 476" version="1.1" xmlns="http://www.w3.org/2000/svg" xmlns:xlink="http://www.w3.org/1999/xlink" xml:space="preserve" xmlns:serif="http://www.serif.com/" style="fill-rule:evenodd;clip-rule:evenodd;stroke-linejoin:round;stroke-miterlimit:2;">
    <g transform="matrix(1,0,0,1,-2295,-2995)">
        <g transform="matrix(4.16667,0,0,4.16667,0,0)">
            <g id="hat">
                <g>
                    <path d="M566,805C558.832,805 553,810.831 553,818C553,825.168 558.832,831 566,831L650,831C657.168,831 663,825.168 663,818C663,810.831 657.168,805 650,805L566,805ZM650,833L566,833C557.729,833 551,826.271 551,818C551,809.729 557.729,803 566,803L650,803C658.271,803 665,809.729 665,818C665,826.271 658.271,833 650,833Z" style="fill:white;fill-rule:nonzero;"/>
                    <path d="M565,803L651,803L651,784C651,760.289 631.71,741 608,741C584.29,741 565,760.289 565,784L565,803ZM652,805L564,805C563.447,805 563,804.552 563,804L563,784C563,759.187 583.187,739 608,739C632.813,739 653,759.187 653,784L653,804C653,804.552 652.553,805 652,805Z" style="fill:white;fill-rule:nonzero;"/>
                    <path d="M608,739C607.447,739 607,738.552 607,738C607,732.868 609.551,728.837 613.999,726.939C618.913,724.844 625.094,725.827 628.692,729.278C629.091,729.661 629.104,730.293 628.722,730.692C628.34,731.091 627.707,731.104 627.308,730.722C624.261,727.8 618.994,726.984 614.783,728.779C612.623,729.701 609,732.123 609,738C609,738.552 608.553,739 608,739Z" style="fill:white;fill-rule:nonzero;"/>
                    <path d="M608,739C607.447,739 607,738.552 607,738C607,732.078 603.337,729.647 601.153,728.724C596.949,726.949 591.71,727.786 588.697,730.717C588.301,731.102 587.669,731.093 587.283,730.697C586.898,730.301 586.907,729.668 587.303,729.283C590.867,725.817 597.018,724.807 601.932,726.882C606.424,728.78 609,732.832 609,738C609,738.552 608.553,739 608,739Z" style="fill:white;fill-rule:nonzero;"/>
                    <path d="M608,737C607.447,737 607,736.552 607,736C607,719 621.184,719 628,719C628.553,719 629,719.448 629,720C629,720.552 628.553,721 628,721C618.808,721 609,722.159 609,736C609,736.552 608.553,737 608,737Z" style="fill:white;fill-rule:nonzero;"/>
                    <path d="M608,737C607.447,737 607,736.552 607,736C607,722.159 597.192,721 588,721C587.447,721 587,720.552 587,720C587,719.448 587.447,719 588,719C594.816,719 609,719 609,736C609,736.552 608.553,737 608,737Z" style="fill:white;fill-rule:nonzero;"/>
                    <path d="M566,825C565.447,825 565,824.552 565,824L565,812C565,811.448 565.447,811 566,811C566.553,811 567,811.448 567,812L567,824C567,824.552 566.553,825 566,825Z" style="fill:white;fill-rule:nonzero;"/>
                    <path d="M578,825C577.447,825 577,824.552 577,824L577,812C577,811.448 577.447,811 578,811C578.553,811 579,811.448 579,812L579,824C579,824.552 578.553,825 578,825Z" style="fill:white;fill-rule:nonzero;"/>
                    <path d="M590,825C589.447,825 589,824.552 589,824L589,812C589,811.448 589.447,811 590,811C590.553,811 591,811.448 591,812L591,824C591,824.552 590.553,825 590,825Z" style="fill:white;fill-rule:nonzero;"/>
                    <path d="M602,825C601.447,825 601,824.552 601,824L601,812C601,811.448 601.447,811 602,811C602.553,811 603,811.448 603,812L603,824C603,824.552 602.553,825 602,825Z" style="fill:white;fill-rule:nonzero;"/>
                    <path d="M614,825C613.447,825 613,824.552 613,824L613,812C613,811.448 613.447,811 614,811C614.553,811 615,811.448 615,812L615,824C615,824.552 614.553,825 614,825Z" style="fill:white;fill-rule:nonzero;"/>
                    <path d="M626,825C625.447,825 625,824.552 625,824L625,812C625,811.448 625.447,811 626,811C626.553,811 627,811.448 627,812L627,824C627,824.552 626.553,825 626,825Z" style="fill:white;fill-rule:nonzero;"/>
                    <path d="M638,825C637.447,825 637,824.552 637,824L637,812C637,811.448 637.447,811 638,811C638.553,811 639,811.448 639,812L639,824C639,824.552 638.553,825 638,825Z" style="fill:white;fill-rule:nonzero;"/>
                    <path d="M650,825C649.447,825 649,824.552 649,824L649,812C649,811.448 649.447,811 650,811C650.553,811 651,811.448 651,812L651,824C651,824.552 650.553,825 650,825Z" style="fill:white;fill-rule:nonzero;"/>
                    <path d="M644,761L632,761C631.447,761 631,760.552 631,760C631,759.448 631.447,759 632,759L644,759C644.553,759 645,759.448 645,760C645,760.552 644.553,761 644,761Z" style="fill:white;fill-rule:nonzero;"/>
                    <path d="M648,769L636,769C635.447,769 635,768.552 635,768C635,767.448 635.447,767 636,767L648,767C648.553,767 649,767.448 649,768C649,768.552 648.553,769 648,769Z" style="fill:white;fill-rule:nonzero;"/>
                    <path d="M650,777L638,777C637.447,777 637,776.552 637,776C637,775.448 637.447,775 638,775L650,775C650.553,775 651,775.448 651,776C651,776.552 650.553,777 650,777Z" style="fill:white;fill-rule:nonzero;"/>
                    <path d="M652,785L640,785C639.447,785 639,784.552 639,784C639,783.448 639.447,783 640,783L652,783C652.553,783 653,783.448 653,784C653,784.552 652.553,785 652,785Z" style="fill:white;fill-rule:nonzero;"/>
                    <path d="M652,793L640,793C639.447,793 639,792.552 639,792C639,791.448 639.447,791 640,791L652,791C652.553,791 653,791.448 653,792C653,792.552 652.553,793 652,793Z" style="fill:white;fill-rule:nonzero;"/>
                    <path d="M584,761L572,761C571.447,761 571,760.552 571,760C571,759.448 571.447,759 572,759L584,759C584.553,759 585,759.448 585,760C585,760.552 584.553,761 584,761Z" style="fill:white;fill-rule:nonzero;"/>
                    <path d="M580,769L568,769C567.447,769 567,768.552 567,768C567,767.448 567.447,767 568,767L580,767C580.553,767 581,767.448 581,768C581,768.552 580.553,769 580,769Z" style="fill:white;fill-rule:nonzero;"/>
                    <path d="M578,777L566,777C565.447,777 565,776.552 565,776C565,775.448 565.447,775 566,775L578,775C578.553,775 579,775.448 579,776C579,776.552 578.553,777 578,777Z" style="fill:white;fill-rule:nonzero;"/>
                    <path d="M576,785L564,785C563.447,785 563,784.552 563,784C563,783.448 563.447,783 564,783L576,783C576.553,783 577,783.448 577,784C577,784.552 576.553,785 576,785Z" style="fill:white;fill-rule:nonzero;"/>
                    <path d="M576,793L564,793C563.447,793 563,792.552 563,792C563,791.448 563.447,791 564,791L576,791C576.553,791 577,791.448 577,792C577,792.552 576.553,793 576,793Z" style="fill:white;fill-rule:nonzero;"/>
                    <path d="M607.999,739C607.829,739 607.657,738.957 607.5,738.866C607.021,738.59 606.857,737.978 607.134,737.5C608.337,735.416 610.277,733.927 612.599,733.305C614.918,732.684 617.345,733.003 619.428,734.205C619.906,734.482 620.07,735.094 619.794,735.572C619.517,736.049 618.903,736.213 618.428,735.938C616.807,735.002 614.919,734.753 613.116,735.237C611.312,735.72 609.802,736.879 608.866,738.5C608.681,738.821 608.345,739 607.999,739Z" style="fill:white;fill-rule:nonzero;"/>
                    <path d="M608.001,739C607.655,739 607.319,738.821 607.134,738.5C606.198,736.879 604.688,735.72 602.884,735.237C601.082,734.755 599.194,735.001 597.572,735.938C597.095,736.213 596.482,736.049 596.206,735.572C595.93,735.094 596.094,734.482 596.572,734.205C598.655,733.003 601.081,732.684 603.401,733.305C605.723,733.927 607.663,735.416 608.866,737.5C609.143,737.978 608.979,738.59 608.5,738.866C608.343,738.957 608.171,739 608.001,739Z" style="fill:white;fill-rule:nonzero;"/>
                    <path d="M608,737C607.447,737 607,736.552 607,736L607,720C607,719.448 607.447,719 608,719C608.553,719 609,719.448 609,720L609,736C609,736.552 608.553,737 608,737Z" style="fill:white;fill-rule:nonzero;"/>
                </g>
            </g>
        </g>
    </g>
</svg>
