<?xml version="1.0" encoding="UTF-8" standalone="no"?>
<!DOCTYPE svg PUBLIC "-//W3C//DTD SVG 1.1//EN" "http://www.w3.org/Graphics/SVG/1.1/DTD/svg11.dtd">
<svg width="100%" height="100%" viewBox="0 0 469 476" version="1.1" xmlns="http://www.w3.org/2000/svg" xmlns:xlink="http://www.w3.org/1999/xlink" xml:space="preserve" xmlns:serif="http://www.serif.com/" style="fill-rule:evenodd;clip-rule:evenodd;stroke-linejoin:round;stroke-miterlimit:2;">
    <g transform="matrix(1,0,0,1,-899,-895)">
        <g transform="matrix(4.16667,0,0,4.16667,0,0)">
            <g id="hoodie">
                <g>
                    <path d="M232.206,236.069L217.938,307.412C217.761,308.296 217.987,309.204 218.56,309.902C219.131,310.599 219.977,311 220.879,311L239,311L239,258.15L232.206,236.069ZM240,313L220.879,313C219.375,313 217.966,312.333 217.013,311.17C216.06,310.007 215.682,308.494 215.977,307.019L231.02,231.804C231.109,231.355 231.492,231.024 231.949,231.001C232.431,230.976 232.821,231.268 232.956,231.706L240.956,257.706C240.985,257.801 241,257.9 241,258L241,312C241,312.552 240.553,313 240,313Z" style="fill:white;fill-rule:nonzero;"/>
                    <path d="M305,311L323.121,311C324.023,311 324.869,310.599 325.44,309.902C326.013,309.204 326.239,308.296 326.063,307.412L311.794,236.069L305,258.15L305,311ZM323.121,313L304,313C303.447,313 303,312.552 303,312L303,258C303,257.9 303.015,257.801 303.044,257.706L311.044,231.706C311.179,231.268 311.553,230.964 312.051,231.001C312.508,231.024 312.891,231.355 312.98,231.804L328.023,307.019C328.318,308.494 327.94,310.007 326.987,311.17C326.034,312.333 324.625,313 323.121,313Z" style="fill:white;fill-rule:nonzero;"/>
                    <path d="M221.281,319L239,319L239,313L222.781,313L221.281,319ZM240,321L220,321C219.692,321 219.401,320.858 219.212,320.615C219.022,320.372 218.955,320.056 219.03,319.757L221.03,311.757C221.142,311.312 221.541,311 222,311L240,311C240.553,311 241,311.448 241,312L241,320C241,320.552 240.553,321 240,321Z" style="fill:white;fill-rule:nonzero;"/>
                    <path d="M305,319L322.719,319L321.219,313L305,313L305,319ZM324,321L304,321C303.447,321 303,320.552 303,320L303,312C303,311.448 303.447,311 304,311L322,311C322.459,311 322.858,311.312 322.97,311.757L324.97,319.757C325.045,320.056 324.978,320.372 324.788,320.615C324.599,320.858 324.308,321 324,321Z" style="fill:white;fill-rule:nonzero;"/>
                    <path d="M241,327L303,327L303,321L241,321L241,327ZM304,329L240,329C239.447,329 239,328.552 239,328L239,320C239,319.448 239.447,319 240,319L304,319C304.553,319 305,319.448 305,320L305,328C305,328.552 304.553,329 304,329Z" style="fill:white;fill-rule:nonzero;"/>
                    <path d="M243.216,227.515L271,242.333L271,238.464L246.481,217.717L243.216,227.515ZM272,245C271.839,245 271.677,244.961 271.529,244.882L241.529,228.882C241.099,228.653 240.897,228.146 241.052,227.683L245.052,215.683C245.156,215.369 245.41,215.127 245.73,215.037C246.051,214.949 246.394,215.022 246.646,215.237L272.646,237.237C272.87,237.427 273,237.706 273,238L273,244C273,244.351 272.815,244.677 272.515,244.857C272.356,244.952 272.179,245 272,245Z" style="fill:white;fill-rule:nonzero;"/>
                    <path d="M268,267C267.447,267 267,266.552 267,266L267,242C267,241.448 267.447,241 268,241C268.553,241 269,241.448 269,242L269,266C269,266.552 268.553,267 268,267Z" style="fill:white;fill-rule:nonzero;"/>
                    <path d="M276,267C275.447,267 275,266.552 275,266L275,242C275,241.448 275.447,241 276,241C276.553,241 277,241.448 277,242L277,266C277,266.552 276.553,267 276,267Z" style="fill:white;fill-rule:nonzero;"/>
                    <path d="M241,319L303,319L303,258C303,257.9 303.015,257.801 303.044,257.706L310.773,232.586L302.061,229.101L272.471,244.882C272.176,245.039 271.824,245.039 271.529,244.882L241.939,229.101L233.227,232.586L240.956,257.706C240.985,257.801 241,257.9 241,258L241,319ZM304,321L240,321C239.447,321 239,320.552 239,320L239,258.15L231.044,232.294C230.892,231.796 231.146,231.265 231.629,231.071L241.629,227.071C241.9,226.963 242.209,226.978 242.471,227.118L272,242.867L301.529,227.118C301.79,226.979 302.1,226.963 302.371,227.071L312.371,231.071C312.854,231.265 313.108,231.796 312.956,232.294L305,258.15L305,320C305,320.552 304.553,321 304,321Z" style="fill:white;fill-rule:nonzero;"/>
                    <path d="M248.729,217L272,236.69L295.271,217L248.729,217ZM272,239C271.771,239 271.54,238.921 271.354,238.763L245.354,216.763C245.034,216.492 244.917,216.05 245.061,215.656C245.205,215.262 245.58,215 246,215L298,215C298.42,215 298.795,215.262 298.939,215.656C299.083,216.05 298.966,216.492 298.646,216.763L272.646,238.763C272.46,238.921 272.229,239 272,239Z" style="fill:white;fill-rule:nonzero;"/>
                    <path d="M273,238.464L273,242.333L300.784,227.515L297.519,217.717L273,238.464ZM272,245C271.821,245 271.644,244.952 271.485,244.857C271.185,244.677 271,244.351 271,244L271,238C271,237.706 271.13,237.427 271.354,237.237L297.354,215.237C297.607,215.022 297.95,214.949 298.27,215.037C298.59,215.127 298.844,215.369 298.948,215.683L302.948,227.683C303.103,228.146 302.901,228.653 302.471,228.882L272.471,244.882C272.323,244.961 272.161,245 272,245Z" style="fill:white;fill-rule:nonzero;"/>
                </g>
            </g>
        </g>
    </g>
</svg>
