<?xml version="1.0" encoding="UTF-8" standalone="no"?>
<!DOCTYPE svg PUBLIC "-//W3C//DTD SVG 1.1//EN" "http://www.w3.org/Graphics/SVG/1.1/DTD/svg11.dtd">
<svg width="100%" height="100%" viewBox="0 0 476 476" version="1.1" xmlns="http://www.w3.org/2000/svg" xmlns:xlink="http://www.w3.org/1999/xlink" xml:space="preserve" xmlns:serif="http://www.serif.com/" style="fill-rule:evenodd;clip-rule:evenodd;stroke-linejoin:round;stroke-miterlimit:2;">
    <g transform="matrix(1,0,0,1,-2995,-195)">
        <g transform="matrix(4.16667,0,0,4.16667,0,0)">
            <g id="jacket">
                <g>
                    <g transform="matrix(0.24,0,0,0.24,0,0)">
                        <path d="M3103.93,406.946C3104.19,407.696 3104.24,408.5 3104.06,409.271L3054.06,625.933C3053.62,627.829 3051.94,629.167 3050,629.167L3000,629.167C2998.8,629.167 2997.65,628.642 2996.86,627.733C2996.07,626.825 2995.71,625.617 2995.88,624.425L3045.88,266.092C3046.14,264.192 3047.67,262.717 3049.58,262.521C3051.47,262.313 3053.29,263.463 3053.93,265.279L3055.42,269.509L3055.42,269.508L3051.76,284.183C3051.76,284.183 3004.79,620.833 3004.79,620.833L3046.68,620.833L3095.58,408.939L3095.83,409.05L3101.48,400L3103.93,406.946Z" style="fill:white;fill-rule:nonzero;"/>
                    </g>
                    <g transform="matrix(0.24,0,0,0.24,0,0)">
                        <path d="M3051.76,284.182L3046.07,268.054C3045.69,266.962 3045.77,265.763 3046.31,264.733C3046.85,263.708 3047.79,262.954 3048.9,262.646L3149.93,235.096C3151.45,234.683 3153.08,235.163 3154.13,236.342C3155.18,237.525 3155.47,239.196 3154.89,240.667L3139.95,278.008L3232.65,262.558C3233.86,262.354 3235.1,262.7 3236.03,263.487C3236.96,264.279 3237.5,265.442 3237.5,266.667L3237.5,666.667C3237.5,668.967 3235.64,670.833 3233.33,670.833L3100,670.833C3097.7,670.833 3095.83,668.967 3095.83,666.667L3095.83,408.333C3095.83,408.333 3098.12,399.395 3101.73,399.395C3104.84,399.395 3104.42,407.257 3104.42,407.728L3104.17,662.5L3229.17,662.5L3229.17,271.588L3134.02,287.446C3132.55,287.704 3131.03,287.121 3130.09,285.946C3129.14,284.775 3128.91,283.183 3129.46,281.788L3144.04,245.337L3055.42,269.508L3051.76,284.182Z" style="fill:white;fill-rule:nonzero;"/>
                    </g>
                    <path d="M760.365,49.78L753.589,66.722L773.919,63.333L760.365,49.78ZM752,69C751.7,69 751.412,68.866 751.221,68.627C750.994,68.346 750.938,67.964 751.071,67.629L759.071,47.629C759.196,47.317 759.47,47.088 759.799,47.021C760.134,46.954 760.47,47.056 760.707,47.293L776.707,63.293C776.972,63.558 777.066,63.949 776.952,64.306C776.838,64.662 776.534,64.925 776.164,64.987L752.164,68.987L752,69Z" style="fill:white;fill-rule:nonzero;"/>
                    <g transform="matrix(0.24,0,0,0.24,0,0)">
                        <path d="M3371,400.304L3370.83,400.754L3370.83,666.667C3370.83,668.967 3368.97,670.833 3366.67,670.833L3233.33,670.833C3231.03,670.833 3229.17,668.967 3229.17,666.667L3229.17,266.667C3229.17,265.442 3229.7,264.279 3230.64,263.487C3231.57,262.7 3232.81,262.354 3234.02,262.558L3326.71,278.008L3311.78,240.667C3311.19,239.196 3311.48,237.525 3312.54,236.342C3313.59,235.163 3315.21,234.683 3316.74,235.096L3417.76,262.646C3418.89,262.958 3419.84,263.725 3420.38,264.771C3420.91,265.812 3420.98,267.033 3420.57,268.129L3414.87,283.333C3414.87,283.333 3411.15,269.518 3411.15,269.518L3411.16,269.488L3322.62,245.337L3337.2,281.788C3337.76,283.183 3337.53,284.775 3336.58,285.946C3335.64,287.121 3334.12,287.7 3332.65,287.446L3237.5,271.588L3237.5,662.5L3362.5,662.5L3362.5,400C3362.5,399.5 3362.59,399.008 3362.76,398.537L3365.62,390.905L3371,400.304Z" style="fill:white;fill-rule:nonzero;"/>
                    </g>
                    <path d="M762.414,49L776,62.586L789.586,49L762.414,49ZM776,65C775.744,65 775.488,64.903 775.293,64.707L759.293,48.707C759.007,48.421 758.921,47.992 759.076,47.618C759.23,47.244 759.596,47 760,47L792,47C792.404,47 792.77,47.244 792.924,47.618C793.079,47.992 792.993,48.421 792.707,48.707L776.707,64.707C776.512,64.903 776.256,65 776,65Z" style="fill:white;fill-rule:nonzero;"/>
                    <g transform="matrix(0.24,0,0,0.24,0,0)">
                        <path d="M3411.15,269.508L3412.76,265.204C3413.44,263.421 3415.3,262.333 3417.12,262.525C3419.02,262.733 3420.53,264.204 3420.79,266.092L3470.79,624.425C3470.96,625.617 3470.6,626.825 3469.81,627.733C3469.02,628.642 3467.87,629.167 3466.67,629.167L3416.67,629.167C3414.71,629.167 3413.03,627.808 3412.6,625.904L3362.6,400.904C3362.42,400.117 3362.31,390.905 3365.62,390.905C3369.53,390.905 3371,400.308 3371,400.308L3420.01,620.833L3461.88,620.833L3414.83,283.643L3414.87,283.333L3411.15,269.508Z" style="fill:white;fill-rule:nonzero;"/>
                    </g>
                    <path d="M760,131L744,131C743.447,131 743,130.552 743,130C743,129.448 743.447,129 744,129L760,129C760.553,129 761,129.448 761,130C761,130.552 760.553,131 760,131Z" style="fill:white;fill-rule:nonzero;"/>
                    <path d="M808,131L792,131C791.447,131 791,130.552 791,130C791,129.448 791.447,129 792,129L808,129C808.553,129 809,129.448 809,130C809,130.552 808.553,131 808,131Z" style="fill:white;fill-rule:nonzero;"/>
                    <path d="M778.081,63.333L798.411,66.722L791.635,49.78L778.081,63.333ZM800,69L799.836,68.987L775.836,64.987C775.466,64.925 775.162,64.662 775.048,64.306C774.934,63.949 775.028,63.558 775.293,63.293L791.293,47.293C791.53,47.056 791.866,46.952 792.201,47.021C792.53,47.088 792.804,47.317 792.929,47.629L800.929,67.629C801.063,67.964 801.006,68.346 800.779,68.627C800.588,68.866 800.3,69 800,69Z" style="fill:white;fill-rule:nonzero;"/>
                </g>
            </g>
        </g>
    </g>
</svg>
