<?xml version="1.0" encoding="UTF-8" standalone="no"?>
<!DOCTYPE svg PUBLIC "-//W3C//DTD SVG 1.1//EN" "http://www.w3.org/Graphics/SVG/1.1/DTD/svg11.dtd">
<svg width="100%" height="100%" viewBox="0 0 326 476" version="1.1" xmlns="http://www.w3.org/2000/svg" xmlns:xlink="http://www.w3.org/1999/xlink" xml:space="preserve" xmlns:serif="http://www.serif.com/" style="fill-rule:evenodd;clip-rule:evenodd;stroke-linejoin:round;stroke-miterlimit:2;">
    <g transform="matrix(1,0,0,1,-2370,-1595)">
        <g transform="matrix(4.16667,0,0,4.16667,0,0)">
            <g id="jeans">
                <g>
                    <path d="M575,395L641,395L641,385L575,385L575,395ZM642,397L574,397C573.447,397 573,396.552 573,396L573,384C573,383.448 573.447,383 574,383L642,383C642.553,383 643,383.448 643,384L643,396C643,396.552 642.553,397 642,397Z" style="fill:white;fill-rule:nonzero;"/>
                    <path d="M608,397C607.447,397 607,396.552 607,396L607,384C607,383.448 607.447,383 608,383C608.553,383 609,383.448 609,384L609,396C609,396.552 608.553,397 608,397Z" style="fill:white;fill-rule:nonzero;"/>
                    <path d="M592,397C591.447,397 591,396.552 591,396L591,384C591,383.448 591.447,383 592,383C592.553,383 593,383.448 593,384L593,396C593,396.552 592.553,397 592,397Z" style="fill:white;fill-rule:nonzero;"/>
                    <path d="M626,397C625.447,397 625,396.552 625,396L625,384C625,383.448 625.447,383 626,383C626.553,383 627,383.448 627,384L627,396C627,396.552 626.553,397 626,397Z" style="fill:white;fill-rule:nonzero;"/>
                    <path d="M622.824,495L644.977,495L643.002,408.074L641.153,397L574.847,397L572.998,408.074L571.023,495L593.176,495L607.019,423.809C607.109,423.339 607.521,423 608,423C608.479,423 608.891,423.339 608.981,423.809L622.824,495ZM646,497L622,497C621.521,497 621.109,496.661 621.019,496.191L608,429.239L594.981,496.191C594.891,496.661 594.479,497 594,497L570,497C569.73,497 569.473,496.891 569.285,496.699C569.097,496.506 568.994,496.246 569,495.977L571,407.957L571.014,407.815L573.014,395.835C573.094,395.353 573.512,395 574,395L642,395C642.488,395 642.906,395.353 642.986,395.835L644.986,407.815L645,407.957L647,495.977C647.006,496.246 646.903,496.506 646.715,496.699C646.527,496.891 646.27,497 646,497Z" style="fill:white;fill-rule:nonzero;"/>
                    <path d="M631.07,396.99C631.766,401.975 637.531,406.13 642.801,406.879L641.153,396.99L631.07,396.99ZM644,408.99L643.963,408.99C637.043,408.729 629,402.994 629,395.99C629,395.438 629.447,394.99 630,394.99L642,394.99C642.489,394.99 642.906,395.344 642.986,395.826L644.986,407.826C645.036,408.122 644.949,408.425 644.751,408.651C644.561,408.867 644.287,408.99 644,408.99Z" style="fill:white;fill-rule:nonzero;"/>
                    <path d="M574.847,396.99L573.199,406.879C578.469,406.13 584.234,401.975 584.93,396.99L574.847,396.99ZM572,408.99C571.713,408.99 571.439,408.867 571.249,408.651C571.051,408.425 570.964,408.122 571.014,407.826L573.014,395.826C573.094,395.344 573.511,394.99 574,394.99L586,394.99C586.553,394.99 587,395.438 587,395.99C587,402.994 578.957,408.729 572.037,408.99L572,408.99Z" style="fill:white;fill-rule:nonzero;"/>
                    <path d="M608,425C607.447,425 607,424.552 607,424L607,396C607,395.448 607.447,395 608,395C608.553,395 609,395.448 609,396L609,424C609,424.552 608.553,425 608,425Z" style="fill:white;fill-rule:nonzero;"/>
                    <path d="M609,397L609,418.929C612.388,418.442 615,415.52 615,412L615,397L609,397ZM608,421C607.447,421 607,420.552 607,420L607,396C607,395.448 607.447,395 608,395L616,395C616.553,395 617,395.448 617,396L617,412C617,416.962 612.963,421 608,421Z" style="fill:white;fill-rule:nonzero;"/>
                    <path d="M616,390C616,391.105 615.104,392 614,392C612.896,392 612,391.105 612,390C612,388.895 612.896,388 614,388C615.104,388 616,388.895 616,390Z" style="fill:white;fill-rule:nonzero;"/>
                </g>
            </g>
        </g>
    </g>
</svg>
