<?xml version="1.0" encoding="UTF-8" standalone="no"?>
<!DOCTYPE svg PUBLIC "-//W3C//DTD SVG 1.1//EN" "http://www.w3.org/Graphics/SVG/1.1/DTD/svg11.dtd">
<svg width="100%" height="100%" viewBox="0 0 476 459" version="1.1" xmlns="http://www.w3.org/2000/svg" xmlns:xlink="http://www.w3.org/1999/xlink" xml:space="preserve" xmlns:serif="http://www.serif.com/" style="fill-rule:evenodd;clip-rule:evenodd;stroke-linejoin:round;stroke-miterlimit:2;">
    <g transform="matrix(1,0,0,1,-2995,-2312)">
        <g transform="matrix(4.16667,0,0,4.16667,0,0)">
            <g id="scarf">
                <g>
                    <path d="M832,657L820,657C819.447,657 819,656.552 819,656C819,655.448 819.447,655 820,655L832,655C832.553,655 833,655.448 833,656C833,656.552 832.553,657 832,657Z" style="fill:white;fill-rule:nonzero;"/>
                    <path d="M832,649L820,649C819.447,649 819,648.552 819,648C819,647.448 819.447,647 820,647L832,647C832.553,647 833,647.448 833,648C833,648.552 832.553,649 832,649Z" style="fill:white;fill-rule:nonzero;"/>
                    <path d="M832,641L820,641C819.447,641 819,640.552 819,640C819,639.448 819.447,639 820,639L832,639C832.553,639 833,639.448 833,640C833,640.552 832.553,641 832,641Z" style="fill:white;fill-rule:nonzero;"/>
                    <path d="M832,633L820,633C819.447,633 819,632.552 819,632C819,631.448 819.447,631 820,631L832,631C832.553,631 833,631.448 833,632C833,632.552 832.553,633 832,633Z" style="fill:white;fill-rule:nonzero;"/>
                    <path d="M832,665L820,665C819.447,665 819,664.552 819,664C819,663.448 819.447,663 820,663L832,663C832.553,663 833,663.448 833,664C833,664.552 832.553,665 832,665Z" style="fill:white;fill-rule:nonzero;"/>
                    <path d="M723.063,631L771.463,631L828.937,589L780.537,589L723.063,631ZM771.789,633L720,633C719.567,633 719.184,632.722 719.05,632.31C718.915,631.899 719.061,631.448 719.41,631.192L779.621,587.192C779.792,587.067 779.999,587 780.211,587L832,587C832.433,587 832.816,587.278 832.95,587.689C833.085,588.101 832.939,588.552 832.59,588.807L772.379,632.807C772.208,632.932 772.001,633 771.789,633Z" style="fill:white;fill-rule:nonzero;"/>
                    <path d="M721,663L819,663L819,633L721,633L721,663ZM820,665L720,665C719.447,665 719,664.552 719,664L719,632C719,631.448 719.447,631 720,631L820,631C820.553,631 821,631.448 821,632L821,664C821,664.552 820.553,665 820,665Z" style="fill:white;fill-rule:nonzero;"/>
                    <path d="M733,587L831,587L831,557L733,557L733,587ZM832,589L732,589C731.447,589 731,588.552 731,588L731,556C731,555.448 731.447,555 732,555L832,555C832.553,555 833,555.448 833,556L833,588C833,588.552 832.553,589 832,589Z" style="fill:white;fill-rule:nonzero;"/>
                    <path d="M732,565L720,565C719.447,565 719,564.552 719,564C719,563.448 719.447,563 720,563L732,563C732.553,563 733,563.448 733,564C733,564.552 732.553,565 732,565Z" style="fill:white;fill-rule:nonzero;"/>
                    <path d="M732,573L720,573C719.447,573 719,572.552 719,572C719,571.448 719.447,571 720,571L732,571C732.553,571 733,571.448 733,572C733,572.552 732.553,573 732,573Z" style="fill:white;fill-rule:nonzero;"/>
                    <path d="M732,581L720,581C719.447,581 719,580.552 719,580C719,579.448 719.447,579 720,579L732,579C732.553,579 733,579.448 733,580C733,580.552 732.553,581 732,581Z" style="fill:white;fill-rule:nonzero;"/>
                    <path d="M732,589L720,589C719.447,589 719,588.552 719,588C719,587.448 719.447,587 720,587L732,587C732.553,587 733,587.448 733,588C733,588.552 732.553,589 732,589Z" style="fill:white;fill-rule:nonzero;"/>
                    <path d="M732,557L720,557C719.447,557 719,556.552 719,556C719,555.448 719.447,555 720,555L732,555C732.553,555 733,555.448 733,556C733,556.552 732.553,557 732,557Z" style="fill:white;fill-rule:nonzero;"/>
                    <path d="M742,589C741.447,589 741,588.552 741,588L741,556C741,555.448 741.447,555 742,555C742.553,555 743,555.448 743,556L743,588C743,588.552 742.553,589 742,589Z" style="fill:white;fill-rule:nonzero;"/>
                    <path d="M808,665C807.447,665 807,664.552 807,664L807,632C807,631.448 807.447,631 808,631C808.553,631 809,631.448 809,632L809,664C809,664.552 808.553,665 808,665Z" style="fill:white;fill-rule:nonzero;"/>
                </g>
            </g>
        </g>
    </g>
</svg>
