<?xml version="1.0" encoding="UTF-8" standalone="no"?>
<!DOCTYPE svg PUBLIC "-//W3C//DTD SVG 1.1//EN" "http://www.w3.org/Graphics/SVG/1.1/DTD/svg11.dtd">
<svg width="100%" height="100%" viewBox="0 0 476 476" version="1.1" xmlns="http://www.w3.org/2000/svg" xmlns:xlink="http://www.w3.org/1999/xlink" xml:space="preserve" xmlns:serif="http://www.serif.com/" style="fill-rule:evenodd;clip-rule:evenodd;stroke-linejoin:round;stroke-miterlimit:2;">
    <g transform="matrix(1,0,0,1,-195,-1595)">
        <g transform="matrix(4.16667,0,0,4.16667,0,0)">
            <g id="shorts">
                <g>
                    <path d="M160,413L159.76,412.971C155.248,411.853 150.963,409.711 147.367,406.774C144.428,404.374 141.965,401.481 140.046,398.176C139.769,397.699 139.932,397.087 140.409,396.809C140.89,396.533 141.5,396.695 141.776,397.172C143.573,400.268 145.88,402.977 148.633,405.225C151.669,407.705 155.23,409.581 159,410.693L159,392C159,391.448 159.447,391 160,391C160.553,391 161,391.448 161,392L161,412C161,412.307 160.858,412.598 160.616,412.787C160.438,412.927 160.221,413 160,413Z" style="fill:white;fill-rule:nonzero;"/>
                    <path d="M48,413C47.779,413 47.561,412.927 47.383,412.787C47.141,412.598 47,412.307 47,412L47,392C47,391.448 47.447,391 48,391C48.552,391 49,391.448 49,392L49,410.693C52.77,409.58 56.332,407.704 59.367,405.225C62.12,402.977 64.426,400.268 66.223,397.172C66.502,396.694 67.114,396.533 67.59,396.809C68.068,397.087 68.231,397.699 67.954,398.176C66.035,401.481 63.572,404.374 60.632,406.774C57.039,409.71 52.753,411.852 48.24,412.971L48,413Z" style="fill:white;fill-rule:nonzero;"/>
                    <path d="M104,429C103.447,429 103,428.552 103,428L103,400C103,399.448 103.447,399 104,399C104.553,399 105,399.448 105,400L105,428C105,428.552 104.553,429 104,429Z" style="fill:white;fill-rule:nonzero;"/>
                    <path d="M132,409C131.447,409 131,408.552 131,408L131,400C131,399.448 131.447,399 132,399C132.553,399 133,399.448 133,400L133,408C133,408.552 132.553,409 132,409Z" style="fill:white;fill-rule:nonzero;"/>
                    <path d="M78,409C77.447,409 77,408.552 77,408L77,400C77,399.448 77.447,399 78,399C78.552,399 79,399.448 79,400L79,408C79,408.552 78.552,409 78,409Z" style="fill:white;fill-rule:nonzero;"/>
                    <path d="M96,410C96,411.105 95.104,412 94,412C92.895,412 92,411.105 92,410C92,408.895 92.895,408 94,408C95.104,408 96,408.895 96,410Z" style="fill:white;fill-rule:nonzero;"/>
                    <path d="M103.933,427.044L103.943,427.044C105.379,427.049 106.553,427.994 106.865,429.396C111.337,449.479 121.277,489.036 122.778,494.998C134.915,494.941 148.019,493.565 159,491.195L159,394.605C151.38,399.246 123.601,401 104,401C84.399,401 56.62,399.246 49,394.605L49,491.195C59.979,493.565 73.082,494.941 85.216,494.998C86.689,489.004 96.415,449.37 101.014,429.37C101.333,427.978 102.505,427.044 103.933,427.044ZM122,497C121.542,497 121.143,496.689 121.03,496.245C120.918,495.8 109.738,451.505 104.912,429.83C104.751,429.103 104.125,429.045 103.937,429.044L103.934,429.044C103.743,429.044 103.127,429.102 102.963,429.818C98.002,451.394 87.081,495.793 86.97,496.239C86.861,496.686 86.46,497 86,497C73.219,497 59.29,495.533 47.783,492.976C47.325,492.874 47,492.469 47,492L47,392C47,391.448 47.447,391 48,391C48.552,391 49,391.448 49,392C49,394.443 67.889,399 104,399C140.11,399 159,394.443 159,392C159,391.448 159.447,391 160,391C160.553,391 161,391.448 161,392L161,492C161,492.469 160.675,492.874 160.217,492.976C148.71,495.533 134.78,497 122,497Z" style="fill:white;fill-rule:nonzero;"/>
                    <path d="M104,385C67.889,385 49,389.557 49,392C49,394.443 67.889,399 104,399C140.11,399 159,394.443 159,392C159,389.557 140.11,385 104,385ZM104,401C81.087,401 47,398.603 47,392C47,385.397 81.087,383 104,383C126.912,383 161,385.397 161,392C161,398.603 126.912,401 104,401Z" style="fill:white;fill-rule:nonzero;"/>
                </g>
            </g>
        </g>
    </g>
</svg>
