<?xml version="1.0" encoding="UTF-8" standalone="no"?>
<!DOCTYPE svg PUBLIC "-//W3C//DTD SVG 1.1//EN" "http://www.w3.org/Graphics/SVG/1.1/DTD/svg11.dtd">
<svg width="100%" height="100%" viewBox="0 0 476 217" version="1.1" xmlns="http://www.w3.org/2000/svg" xmlns:xlink="http://www.w3.org/1999/xlink" xml:space="preserve" xmlns:serif="http://www.serif.com/" style="fill-rule:evenodd;clip-rule:evenodd;stroke-linejoin:round;stroke-miterlimit:2;">
    <g transform="matrix(1,0,0,1,-2995,-3129)">
        <g transform="matrix(4.16667,0,0,4.16667,0,0)">
            <g id="sunglasses">
                <g>
                    <path d="M754,757C753.596,757 753.215,756.753 753.064,756.352C752.869,755.835 753.131,755.258 753.648,755.064C760.819,752.367 768.34,751 776,751C783.661,751 791.181,752.367 798.352,755.064C798.869,755.258 799.131,755.835 798.936,756.352C798.741,756.869 798.161,757.129 797.648,756.936C790.703,754.324 783.42,753 776,753C768.581,753 761.298,754.324 754.352,756.936C754.236,756.979 754.117,757 754,757Z" style="fill:white;fill-rule:nonzero;"/>
                    <path d="M820.445,795.208L825.251,800.014C826.524,801.285 828.742,801.285 830.014,800.014C830.649,799.377 831,798.532 831,797.633C831,796.733 830.649,795.888 830.014,795.251L826.213,791.451C824.522,793 822.562,794.277 820.445,795.208ZM827.633,803C826.199,803 824.851,802.441 823.837,801.428L817.955,795.546C817.712,795.304 817.611,794.953 817.687,794.619C817.763,794.284 818.005,794.011 818.329,793.896C821.036,792.939 823.521,791.366 825.516,789.347C825.702,789.158 825.957,789.051 826.224,789.05C826.469,789.051 826.745,789.155 826.934,789.343L831.428,793.837C832.441,794.851 833,796.199 833,797.633C833,799.066 832.441,800.414 831.428,801.428C830.414,802.441 829.066,803 827.633,803Z" style="fill:white;fill-rule:nonzero;"/>
                    <path d="M725.787,791.451L721.986,795.251C721.351,795.888 721,796.733 721,797.633C721,798.532 721.351,799.377 721.986,800.014C723.258,801.285 725.476,801.285 726.749,800.014L731.555,795.208C729.438,794.277 727.478,793 725.787,791.451ZM724.367,803C722.934,803 721.586,802.441 720.572,801.428C719.559,800.414 719,799.066 719,797.633C719,796.199 719.559,794.851 720.572,793.837L725.066,789.343C725.254,789.155 725.508,789.05 725.773,789.05L725.776,789.05C726.043,789.051 726.298,789.158 726.484,789.347C728.479,791.366 730.964,792.939 733.671,793.896C733.995,794.011 734.237,794.284 734.313,794.619C734.389,794.953 734.288,795.304 734.045,795.546L728.163,801.428C727.149,802.441 725.801,803 724.367,803Z" style="fill:white;fill-rule:nonzero;"/>
                    <path d="M732,757C725.935,757 721,761.934 721,768L721,776C721,786.476 729.523,795 740,795L743.027,795C750.872,795 758.012,790.072 760.794,782.736L766.957,766.482C767.784,764.299 767.498,761.945 766.172,760.023C764.845,758.102 762.745,757 760.411,757L732,757ZM743.027,797L740,797C728.421,797 719,787.579 719,776L719,768C719,760.831 724.832,755 732,755L760.411,755C763.368,755 766.138,756.453 767.817,758.887C769.498,761.321 769.875,764.425 768.826,767.191L762.663,783.445C759.59,791.553 751.698,797 743.027,797Z" style="fill:white;fill-rule:nonzero;"/>
                    <path d="M722,785C721.77,785 721.538,784.921 721.35,784.759C720.93,784.4 720.881,783.768 721.241,783.349L745.241,755.349C745.601,754.93 746.232,754.882 746.65,755.241C747.07,755.6 747.119,756.231 746.759,756.651L722.759,784.651C722.562,784.881 722.281,785 722,785Z" style="fill:white;fill-rule:nonzero;"/>
                    <path d="M730,793C729.764,793 729.526,792.917 729.336,792.747C728.923,792.38 728.886,791.748 729.253,791.335L761.253,755.335C761.619,754.922 762.251,754.885 762.664,755.252C763.077,755.62 763.114,756.251 762.747,756.664L730.747,792.664C730.55,792.887 730.275,793 730,793Z" style="fill:white;fill-rule:nonzero;"/>
                    <path d="M790.439,784.487C790.209,784.487 789.978,784.408 789.789,784.246C789.369,783.887 789.32,783.255 789.681,782.836L813.241,755.349C813.601,754.93 814.232,754.882 814.65,755.241C815.07,755.6 815.119,756.231 814.759,756.651L791.198,784.138C791.001,784.368 790.721,784.487 790.439,784.487Z" style="fill:white;fill-rule:nonzero;"/>
                    <path d="M798,793C797.765,793 797.528,792.917 797.338,792.75C796.924,792.384 796.885,791.752 797.25,791.338L826.711,757.95C827.078,757.535 827.709,757.498 828.123,757.861C828.537,758.227 828.576,758.859 828.211,759.273L798.75,792.661C798.552,792.886 798.276,793 798,793Z" style="fill:white;fill-rule:nonzero;"/>
                    <path d="M791.589,757C789.255,757 787.155,758.102 785.828,760.023C784.502,761.945 784.216,764.299 785.044,766.482L791.206,782.736C793.988,790.072 801.128,795 808.973,795L812,795C822.477,795 831,786.476 831,776L831,768C831,761.934 826.065,757 820,757L791.589,757ZM812,797L808.973,797C800.302,797 792.41,791.553 789.337,783.445L783.174,767.191C782.125,764.425 782.502,761.321 784.183,758.887C785.862,756.453 788.632,755 791.589,755L820,755C827.168,755 833,760.831 833,768L833,776C833,787.579 823.579,797 812,797Z" style="fill:white;fill-rule:nonzero;"/>
                    <path d="M786.555,774.284C786.2,774.284 785.856,774.095 785.675,773.761C783.745,770.207 780.038,768 776,768C771.962,768 768.255,770.207 766.325,773.761C766.062,774.246 765.456,774.424 764.969,774.162C764.483,773.899 764.304,773.292 764.567,772.807C766.848,768.608 771.228,766 776,766C780.772,766 785.152,768.608 787.433,772.807C787.696,773.292 787.517,773.899 787.031,774.162C786.879,774.245 786.716,774.284 786.555,774.284Z" style="fill:white;fill-rule:nonzero;"/>
                </g>
            </g>
        </g>
    </g>
</svg>
