<?xml version="1.0" encoding="UTF-8" standalone="no"?>
<!DOCTYPE svg PUBLIC "-//W3C//DTD SVG 1.1//EN" "http://www.w3.org/Graphics/SVG/1.1/DTD/svg11.dtd">
<svg width="100%" height="100%" viewBox="0 0 443 476" version="1.1" xmlns="http://www.w3.org/2000/svg" xmlns:xlink="http://www.w3.org/1999/xlink" xml:space="preserve" xmlns:serif="http://www.serif.com/" style="fill-rule:evenodd;clip-rule:evenodd;stroke-linejoin:round;stroke-miterlimit:2;">
    <g transform="matrix(1,0,0,1,-2312,-895)">
        <g transform="matrix(4.16667,0,0,4.16667,0,0)">
            <g id="tshirt">
                <g>
                    <path d="M573,327L643,327L643,260C643,259.448 643.447,259 644,259L659,259L659,252C659,233.036 643.839,217.545 625,217.014L625,219.452C625,228.695 618.029,236.387 609.13,236.963C604.382,237.276 599.842,235.653 596.376,232.405C592.96,229.203 591,224.681 591,220L591,217.014C572.161,217.545 557,233.036 557,252L557,259L572,259C572.553,259 573,259.448 573,260L573,327ZM644,329L572,329C571.447,329 571,328.552 571,328L571,261L556,261C555.447,261 555,260.552 555,260L555,252C555,231.598 571.598,215 592,215C592.553,215 593,215.448 593,216L593,220C593,224.191 594.685,228.078 597.744,230.946C600.801,233.81 604.785,235.239 609.001,234.967C616.851,234.459 623,227.644 623,219.452L623,216C623,215.448 623.447,215 624,215C644.402,215 661,231.598 661,252L661,260C661,260.552 660.553,261 660,261L645,261L645,328C645,328.552 644.553,329 644,329Z" style="fill:white;fill-rule:nonzero;"/>
                    <path d="M557,267L571,267L571,261L557,261L557,267ZM572,269L556,269C555.447,269 555,268.552 555,268L555,260C555,259.448 555.447,259 556,259L572,259C572.553,259 573,259.448 573,260L573,268C573,268.552 572.553,269 572,269Z" style="fill:white;fill-rule:nonzero;"/>
                    <path d="M645,267L659,267L659,261L645,261L645,267ZM660,269L644,269C643.447,269 643,268.552 643,268L643,260C643,259.448 643.447,259 644,259L660,259C660.553,259 661,259.448 661,260L661,268C661,268.552 660.553,269 660,269Z" style="fill:white;fill-rule:nonzero;"/>
                    <path d="M593.003,220.304C593.165,228.435 599.83,235 608,235C616.17,235 622.835,228.435 622.997,220.304C620.157,223.122 614.569,225 608,225C601.431,225 595.843,223.122 593.003,220.304ZM608,237C598.626,237 591,229.374 591,220L591,216C591,215.448 591.447,215 592,215C592.553,215 593,215.448 593,216C593,219.794 599.869,223 608,223C616.131,223 623,219.794 623,216C623,215.448 623.447,215 624,215C624.553,215 625,215.448 625,216L625,220C625,229.374 617.374,237 608,237Z" style="fill:white;fill-rule:nonzero;"/>
                </g>
            </g>
        </g>
    </g>
</svg>
