<?xml version="1.0" encoding="UTF-8" standalone="no"?>
<!DOCTYPE svg PUBLIC "-//W3C//DTD SVG 1.1//EN" "http://www.w3.org/Graphics/SVG/1.1/DTD/svg11.dtd">
<svg width="100%" height="100%" viewBox="0 0 475 476" version="1.1" xmlns="http://www.w3.org/2000/svg" xmlns:xlink="http://www.w3.org/1999/xlink" xml:space="preserve" xmlns:serif="http://www.serif.com/" style="fill-rule:evenodd;clip-rule:evenodd;stroke-linejoin:round;stroke-miterlimit:2;">
    <g transform="matrix(1,0,0,1,-2100,-2399)">
        <g transform="matrix(4.16667,0,0,4.16667,0,-683.333)">
            <g id="umbrella">
                <g>
                    <g id="vazv" transform="matrix(1.2662,0,0,1.27981,-208.869,-205.815)">
                        <path d="M579,773.408C588.88,773.408 593,785.051 593,785.051C593,785.051 597.968,773.414 608,773.408C618.032,773.403 623,785.033 623,785.033C623,785.033 627.094,773.408 637,773.408C646.906,773.408 651.364,783.967 651.333,783.303C650.286,760.461 631.041,740.625 608,740.625C584.959,740.625 565.714,760.461 564.667,783.303C564.636,783.967 569.12,773.408 579,773.408ZM653,785.033L653.033,789.033C653.033,789.033 645.842,775.033 637,775.033C628.158,775.033 623,789.033 623,789.033C623,789.033 616.819,775.033 608,775.033C599.181,775.033 593,789.033 593,789.033C593,789.033 588.018,775.033 579,775.033C569.982,775.033 563,789.033 563,789.033L563,785.033C563,760.22 583.187,739 608,739C632.813,739 653,760.22 653,785.033Z" style="fill:white;fill-rule:nonzero;"/>
                    </g>
                    <g transform="matrix(0.24,0,0,0.24,0,175.42)">
                        <path d="M2333.33,2544.08L2341.67,2544.08L2341.67,2785.42C2341.67,2806.85 2346.52,2819.08 2370.83,2819.08C2395.76,2819.08 2400,2805.68 2400,2785.42L2400,2773.58C2400,2773.58 2400.05,2769.42 2404.17,2769.42C2408.28,2769.42 2408.33,2773.58 2408.33,2773.58L2408.33,2785.42C2408.33,2814.6 2400.01,2827.42 2370.83,2827.42C2341.65,2827.42 2333.33,2814.82 2333.33,2785.42L2333.33,2544.08Z" style="fill:white;"/>
                    </g>
                    <g id="vazv1" serif:id="vazv" transform="matrix(1.2662,0,0,1.27981,-208.869,-205.815)">
                        <path d="M608,740.437C602.148,740.437 597.462,751.407 595.38,762.467C593.264,773.712 593.801,785.051 593.801,785.051C593.801,785.051 597.968,773.414 608,773.408C618.032,773.403 622.232,785.127 622.232,785.127C622.232,785.127 622.783,773.743 620.653,762.467C618.562,751.401 613.846,740.437 608,740.437ZM608,739.188C614.681,739.253 620.068,750.64 622.395,762.467C624.179,771.541 623.982,780.764 624.191,785.051C624.264,786.539 623,789.033 623,789.033C623,789.033 616.819,775.033 608,775.033C599.181,775.033 593,789.033 593,789.033C593,789.033 592.154,786.779 592.237,785.051C592.452,780.559 592.188,771.425 593.84,762.467C596.038,750.544 601.27,739.121 608,739.188Z" style="fill:white;fill-rule:nonzero;"/>
                    </g>
                </g>
            </g>
        </g>
    </g>
</svg>
